<?xml version="1.0" encoding="UTF-8"?>
<!DOCTYPE svg PUBLIC "-//W3C//DTD SVG 1.1//EN" "http://www.w3.org/Graphics/SVG/1.1/DTD/svg11.dtd">
<!-- Creator: CorelDRAW X8 -->
<svg xmlns="http://www.w3.org/2000/svg" xml:space="preserve" width="297mm" height="210mm" version="1.1" style="shape-rendering:geometricPrecision; text-rendering:geometricPrecision; image-rendering:optimizeQuality; fill-rule:evenodd; clip-rule:evenodd"
viewBox="0 0 29700 21000"
 xmlns:xlink="http://www.w3.org/1999/xlink">
 <defs>
  <style type="text/css">
   <![CDATA[
    .fil11 {fill:#00B9D5}
    .fil13 {fill:#00BCD6}
    .fil56 {fill:#091F56}
    .fil59 {fill:#0A0A2D}
    .fil44 {fill:#0D1920}
    .fil63 {fill:#0DA0A2}
    .fil53 {fill:#121210}
    .fil46 {fill:#142027}
    .fil25 {fill:#15171F}
    .fil34 {fill:#1F2242}
    .fil33 {fill:#201B1A}
    .fil67 {fill:#202D33}
    .fil35 {fill:#212141}
    .fil48 {fill:#222D34}
    .fil31 {fill:#243034}
    .fil65 {fill:#252E35}
    .fil66 {fill:#2B2B40}
    .fil58 {fill:#2B2D4F}
    .fil2 {fill:#2E2E2E}
    .fil18 {fill:#32324F}
    .fil43 {fill:#340700}
    .fil37 {fill:#383534}
    .fil21 {fill:#423C6D}
    .fil1 {fill:#444444}
    .fil20 {fill:#474969}
    .fil30 {fill:#4A4D66}
    .fil39 {fill:#554C6E}
    .fil49 {fill:#55B14B}
    .fil0 {fill:#5D5D5D}
    .fil24 {fill:#5D607E}
    .fil47 {fill:#686589}
    .fil38 {fill:#6FA6C5}
    .fil52 {fill:#71A7C6}
    .fil16 {fill:#93C0D4}
    .fil22 {fill:#9ED4DD}
    .fil29 {fill:#ABAACB}
    .fil62 {fill:#B49149}
    .fil6 {fill:#BCE1E7}
    .fil45 {fill:#BEC0E5}
    .fil23 {fill:#C1C1DA}
    .fil19 {fill:#C7C8E3}
    .fil40 {fill:#C85D3E}
    .fil9 {fill:#D3D4E6}
    .fil42 {fill:#D4D4D4}
    .fil17 {fill:#E4E3D6}
    .fil68 {fill:#F0A326}
    .fil36 {fill:#F0E9DC}
    .fil57 {fill:#F0EADD}
    .fil61 {fill:#F0ECE2}
    .fil32 {fill:#F6BD0C}
    .fil41 {fill:#F87B47}
    .fil50 {fill:#FAAE6E}
    .fil64 {fill:#FEB16D}
    .fil26 {fill:#FF713C}
    .fil14 {fill:#FF9000}
    .fil54 {fill:#FFA0A4}
    .fil60 {fill:orange}
    .fil12 {fill:#FFA900}
    .fil55 {fill:#FFAD00}
    .fil51 {fill:#FFB595}
    .fil8 {fill:#FFBC12}
    .fil4 {fill:#FFD392}
    .fil7 {fill:#FFD879}
    .fil10 {fill:#FFD89F}
    .fil3 {fill:#FFE4C0}
    .fil27 {fill:#FFE780}
    .fil15 {fill:white}
    .fil5 {fill:#818181;fill-opacity:0.509804}
    .fil28 {fill:#A36550;fill-opacity:0.670588}
   ]]>
  </style>
 </defs>
 <g id="Слой_x0020_1">
  <metadata id="CorelCorpID_0Corel-Layer"/>
  <g id="__x0023_5d5d5dff">
   <path class="fil0" d="M20350 1644c33,-30 66,-60 99,-90 17,3 52,10 69,14 44,174 145,328 187,502l7 34c-81,-154 -139,-318 -217,-472 -10,-21 -19,-42 -28,-62 -85,155 -177,307 -273,456l-4 6c-94,-58 -198,-107 -310,-67 24,-21 50,-40 78,-55 145,-65 279,-154 392,-266z"/>
  </g>
  <g id="__x0023_444444ff">
   <path class="fil1" d="M20467 1570c9,20 18,41 28,62 -1,131 -7,263 -8,395 -27,6 -79,17 -105,22 37,18 75,35 113,52 -104,-7 -206,-31 -301,-75 96,-149 188,-301 273,-456z"/>
  </g>
  <g id="__x0023_44444474">
  </g>
  <g id="__x0023_2e2e2eff">
   <path class="fil2" d="M20487 2027c1,-132 7,-264 8,-395 78,154 136,318 217,472l5 21c-75,-8 -148,-15 -222,-24 -38,-17 -76,-34 -113,-52 26,-5 78,-16 105,-22z"/>
  </g>
  <g id="__x0023_ffe4c0ff">
   <path class="fil3" d="M10661 1765c76,-1 154,-1 226,30 54,6 108,11 162,15 0,7 -1,19 -1,26 64,3 130,8 195,16 111,42 232,46 346,82 170,22 335,71 504,97 67,16 135,27 202,44 90,10 178,29 262,60 2,407 5,814 0,1222 -7,2 -22,6 -29,8 -147,-45 -300,-108 -456,-75 -32,99 -37,203 -48,305 -81,-3 -161,-7 -242,-10 -80,-7 -161,-15 -242,-18l-3 -24c-124,-5 -244,-34 -363,-65 -60,-9 -120,-16 -175,-37 -60,-9 -122,-13 -178,-36 -53,-10 -106,-18 -159,-25 -11,-538 -7,-1078 -1,-1615z"/>
   <path class="fil3" d="M19738 2062c45,-35 90,-71 142,-97 112,-40 216,9 310,67 -187,314 -390,619 -571,937 -40,80 -109,136 -189,171 -147,45 -294,90 -442,132 -128,-132 -239,-279 -364,-414 -9,-53 58,-64 87,-94 86,-53 166,-113 249,-170 148,-97 290,-203 437,-301 70,-48 139,-96 209,-143 43,-30 87,-59 132,-88z"/>
  </g>
  <g id="__x0023_ffd392ff">
   <path class="fil4" d="M20190 2032l4 -6c95,44 197,68 301,75l-7 36c-63,409 -7,826 -41,1238 -186,58 -371,120 -559,171 -115,-148 -238,-290 -358,-435 -25,7 -75,22 -100,29 80,-35 149,-91 189,-171 181,-318 384,-623 571,-937z"/>
  </g>
  <g id="__x0023_81818182">
   <path class="fil5" d="M20712 2104l-7 -34c79,113 118,247 172,372 164,390 323,782 490,1170 23,58 -16,116 -27,171 -119,395 -239,788 -347,1185 248,53 504,67 746,146 12,1469 1,2939 4,4409 616,130 1232,254 1849,378 145,36 299,56 424,146 -235,-89 -483,-134 -729,-182 -505,-108 -1012,-202 -1515,-315 -10,-3 -30,-7 -40,-10 -1,-141 -18,-282 -23,-424 26,-136 22,-274 20,-411 -2,-1035 1,-2070 0,-3104 0,-156 5,-312 -9,-467 -245,-67 -499,-96 -749,-136 -5,18 -16,54 -22,71 110,-479 273,-944 402,-1419 -221,-503 -415,-1017 -641,-1517 -74,3 -148,4 -222,4l7 -36c74,9 147,16 222,24l-5 -21z"/>
   <path class="fil5" d="M20870 18721c95,-94 188,-191 287,-281 -176,223 -387,429 -637,568 113,-101 243,-180 350,-287z"/>
   <path class="fil5" d="M15190 18578c13,16 39,50 52,67 -68,30 -154,49 -194,118 -37,145 94,258 199,332 66,37 140,103 220,80 -3,-68 -91,-92 -130,-139 -73,-41 -65,-128 -73,-199 161,5 329,-9 484,49 244,104 480,236 738,304 9,-4 29,-11 38,-15 1,-8 2,-24 3,-32 -211,-141 -450,-244 -635,-420 253,163 507,322 765,474 50,17 28,114 -24,113 -54,3 -73,-66 -121,-78 -272,-96 -534,-216 -795,-337 -142,-20 -285,-38 -428,-41 -32,166 170,245 279,330 -7,8 -21,23 -28,30 -7,7 -21,22 -28,30 -161,-57 -324,-136 -432,-273 -55,-69 -76,-171 -33,-250 53,-45 141,-61 143,-143m1418 647c-1,12 -4,36 -6,49l31 0 16 -29 -16 -28 -25 8z"/>
  </g>
  <g id="__x0023_bce1e7ff">
   <g>
    <path class="fil6" d="M12843 2167c22,-9 66,-28 88,-37 184,55 376,77 562,123 59,10 119,19 177,36 166,33 333,58 496,104 59,9 120,16 178,33 175,35 351,70 525,109 60,7 119,18 177,36 312,61 625,117 933,196 13,680 1,1359 5,2038 -241,-39 -478,-105 -722,-119 -64,-11 -128,40 -128,106 -12,173 -1,346 -4,519 -167,-36 -336,-59 -500,-103 -72,-9 -142,-18 -210,-41 -50,-7 -99,-13 -148,-21 -115,-34 -235,-47 -350,-78 -125,-13 -243,-62 -369,-58l-5 -25c-53,-4 -106,-8 -159,-13 -47,-17 -95,-29 -143,-39 -118,-21 -238,-43 -356,-66 -14,-15 -42,-44 -56,-58l-19 -10c49,-876 4,-1755 28,-2632l0 0zm2473 1202c0,15 -1,44 -1,59 36,15 72,31 108,47 -1,-52 -1,-105 -1,-158 -36,17 -71,35 -106,52l0 0zm-473 691c-49,13 -98,28 -146,42 23,34 46,68 72,100 120,21 56,-126 118,-180 142,-182 298,-355 440,-537 -175,180 -326,380 -484,575l0 0zm-942 -488c-18,23 -36,47 -54,70 -5,51 -1,107 -46,141 -140,143 -239,338 -429,423 -47,11 -27,67 -36,100 38,2 76,4 114,6 -1,-41 -2,-82 -2,-124 153,-128 263,-297 400,-440 57,-11 114,-26 171,-32 224,102 419,254 640,361 -203,-138 -422,-248 -631,-376 -16,-44 -33,-88 -50,-132 -19,0 -57,2 -77,3z"/>
   </g>
  </g>
  <g id="__x0023_ffd879ff">
   <path class="fil7" d="M18605 2838l19 20c125,135 236,282 364,414 -235,751 -442,1511 -674,2262 -102,364 -222,723 -317,1089 -159,-33 -322,-52 -474,-110 174,-566 335,-1137 506,-1704 37,-115 65,-233 91,-350 -35,2 -104,8 -139,11 -7,-3 -20,-9 -27,-12 22,-47 119,3 169,-7 8,-22 25,-65 33,-86 12,-46 24,-91 39,-135 33,-119 71,-236 107,-354 18,-74 41,-147 62,-220 37,-117 74,-234 102,-353 49,-155 99,-309 139,-465z"/>
  </g>
  <g id="__x0023_ffbc12ff">
   <path class="fil8" d="M19430 3140c25,-7 75,-22 100,-29 120,145 243,287 358,435 -96,298 -178,602 -271,902 -130,388 -254,780 -339,1182 -93,403 -251,787 -364,1185 -305,-65 -612,-127 -917,-192 95,-366 215,-725 317,-1089 232,-751 439,-1511 674,-2262 148,-42 295,-87 442,-132z"/>
   <path class="fil8" d="M11967 7029c16,2 48,7 64,9 1,33 2,67 1,100l-5 49c-39,-18 -78,-36 -110,-63l-3 -42c13,-13 40,-39 53,-53z"/>
   <path class="fil8" d="M10023 8463c15,-9 47,-29 62,-39 2,59 3,118 4,177 -21,14 -63,43 -85,58l-41 -5c-40,-5 -80,-10 -121,-13 -2,-11 -6,-34 -8,-46 85,-4 139,-71 189,-132z"/>
  </g>
  <g id="__x0023_d3d4e6ff">
   <g>
    <path class="fil9" d="M8795 3304c-13,-71 62,-92 110,-116 397,107 806,173 1209,256 529,110 1057,220 1588,316 58,17 117,28 176,38 115,29 232,48 347,77 110,17 217,41 325,66 43,11 54,62 80,93 -6,709 5,1418 -2,2127 -3,98 10,199 -27,293 0,-135 -7,-270 -34,-401 -17,118 -26,238 -33,358 -246,-35 -488,-96 -734,-129 -87,-17 -209,25 -210,129 -13,178 1,357 -19,535 -75,11 -151,22 -226,36 -8,-22 -23,-67 -31,-88 -97,2 -194,-4 -290,-21 -35,6 -71,11 -107,17 -694,-137 -1387,-282 -2082,-417 -47,-26 -41,-87 -42,-132 1,-1012 -1,-2025 2,-3037l0 0zm625 578c-6,654 1,1308 -3,1962 -1,86 2,173 10,258 77,13 154,25 231,44 306,84 623,122 930,202 328,48 645,153 974,196 -32,-90 -141,-79 -216,-100 -624,-129 -1247,-262 -1872,-388 -22,-725 -4,-1451 -10,-2176 -11,1 -33,1 -44,2l0 0zm876 554c-2,482 2,963 -2,1444 122,37 247,64 375,70 5,-636 0,-1272 3,-1908 -120,-35 -242,-60 -366,-80 -21,157 -8,316 -10,474l0 0zm493 -32c-4,523 -3,1046 0,1569 119,32 240,55 362,74 12,-90 16,-180 14,-271 -6,-434 5,-868 -5,-1301 -120,-40 -244,-65 -371,-71l0 0zm-973 196c-1,381 -5,764 1,1145 93,94 251,65 372,98 14,-387 9,-776 2,-1163 -80,-103 -253,-97 -375,-80l0 0zm1472 17c0,488 5,975 -1,1463 125,35 254,61 385,65 5,-477 7,-954 0,-1430 -99,-93 -256,-80 -384,-98z"/>
   </g>
  </g>
  <g id="__x0023_ffd89fff">
   <path class="fil10" d="M12072 3290c156,-33 309,30 456,75 -130,98 -278,166 -414,255 -59,51 -136,18 -204,11 -60,-19 -122,-24 -184,-31 14,-4 42,-11 56,-15 81,3 161,7 242,10 11,-102 16,-206 48,-305z"/>
   <path class="fil10" d="M17554 17812c14,-91 65,-168 109,-247 -7,53 -13,107 -19,160 -12,44 -51,69 -90,87z"/>
  </g>
  <g id="__x0023_00b9d5ff">
   <path class="fil11" d="M15316 3369c35,-17 70,-35 106,-52 0,53 0,106 1,158 -36,-16 -72,-32 -108,-47 0,-15 1,-44 1,-59z"/>
   <path class="fil11" d="M14843 4060c158,-195 309,-395 484,-575 -142,182 -298,355 -440,537 -62,54 2,201 -118,180 -26,-32 -49,-66 -72,-100 48,-14 97,-29 146,-42z"/>
  </g>
  <g id="__x0023_ffa900ff">
   <path class="fil12" d="M19888 3546c188,-51 373,-113 559,-171 125,146 244,298 377,437 -232,733 -435,1475 -659,2211 -34,104 -71,208 -78,319 -142,137 -274,284 -425,412 -67,56 -123,124 -174,194 -190,-50 -378,-107 -574,-133 113,-398 271,-782 364,-1185 85,-402 209,-794 339,-1182 93,-300 175,-604 271,-902z"/>
   <path class="fil12" d="M10442 9365l9 -14c44,39 65,91 70,149 -52,1 -104,-3 -153,-21 24,-38 49,-76 74,-114z"/>
  </g>
  <g id="__x0023_00bcd6ff">
   <path class="fil13" d="M13901 3572c20,-1 58,-3 77,-3 17,44 34,88 50,132 209,128 428,238 631,376 -221,-107 -416,-259 -640,-361 -57,6 -114,21 -171,32 -137,143 -247,312 -400,440 0,42 1,83 2,124 -38,-2 -76,-4 -114,-6 9,-33 -11,-89 36,-100 190,-85 289,-280 429,-423 45,-34 41,-90 46,-141 18,-23 36,-47 54,-70z"/>
  </g>
  <g id="__x0023_ff9000ff">
   <path class="fil14" d="M20824 3812c175,-54 350,-111 527,-162 -129,475 -292,940 -402,1419 -17,60 -35,120 -52,180 -41,133 -78,266 -118,399 -213,227 -439,441 -657,662l-35 32c7,-111 44,-215 78,-319 224,-736 427,-1478 659,-2211z"/>
  </g>
  <g id="__x0023_ffffffff">
   <path class="fil15" d="M9420 3882c11,-1 33,-1 44,-2 6,725 -12,1451 10,2176 625,126 1248,259 1872,388 75,21 184,10 216,100 -329,-43 -646,-148 -974,-196 -307,-80 -624,-118 -930,-202 -77,-19 -154,-31 -231,-44 -8,-85 -11,-172 -10,-258 4,-654 -3,-1308 3,-1962z"/>
   <path class="fil15" d="M10789 4404c127,6 251,31 371,71 10,433 -1,867 5,1301 2,91 -2,181 -14,271 -122,-19 -243,-42 -362,-74 -3,-523 -4,-1046 0,-1569z"/>
   <path class="fil15" d="M9816 4600c122,-17 295,-23 375,80 7,387 12,776 -2,1163 -121,-33 -279,-4 -372,-98 -6,-381 -2,-764 -1,-1145z"/>
   <path class="fil15" d="M14212 6385c158,41 318,73 477,106 19,7 56,20 74,27 -53,198 -202,367 -396,437 -35,7 -96,27 -110,-22 -13,-183 -47,-364 -45,-548z"/>
   <g>
    <path class="fil15" d="M10131 7981c269,-166 590,-24 881,-26 -6,139 -9,278 -5,418 -30,291 -31,584 2,875 2,40 4,80 7,120 46,-11 90,-27 131,-50 -9,-26 -27,-78 -37,-104 -22,-273 66,-532 150,-787 6,-6 20,-19 26,-26 59,305 173,605 380,841 9,10 26,31 35,41 53,81 122,-31 54,-76 -77,-121 -155,-250 -172,-395 -5,-148 23,-294 24,-442 11,-1 33,-2 43,-3 2,-106 -2,-213 -6,-320 289,64 583,108 867,191 216,64 442,128 617,277 -87,49 -172,102 -240,174 -261,269 -527,533 -788,802 -224,269 -487,502 -715,768 -360,384 -747,741 -1106,1126 -226,-197 -517,-294 -797,-388 -531,-163 -1078,-272 -1627,-358 -126,-19 -258,-29 -371,-94 -47,-108 39,-196 112,-264 661,-609 1322,-1219 1985,-1826 178,-164 347,-342 550,-474l0 0zm-293 413c-60,54 -28,139 -4,201 2,12 6,35 8,46l-52 -4c-129,314 -218,646 -276,981 37,23 74,48 114,67 34,259 50,520 45,781 -5,68 11,134 39,196 67,11 117,-7 148,-55 -22,-15 -66,-43 -88,-57 38,-244 28,-492 76,-734 14,-13 42,-39 57,-52 10,17 30,51 40,68 48,262 -29,526 -22,790 57,14 115,28 172,41 11,-66 6,-125 -78,-118 6,-50 12,-99 20,-149 21,-69 26,-142 34,-214 48,-163 54,-332 53,-500 -16,-208 -64,-412 -76,-620 93,149 195,293 320,417 49,18 101,22 153,21 -5,-58 -26,-110 -70,-149l-9 14c-142,-139 -227,-319 -332,-485 -37,-60 -72,-121 -94,-187 -13,-10 -40,-29 -53,-39l41 5c22,-15 64,-44 85,-58 -1,-59 -2,-118 -4,-177 -15,10 -47,30 -62,39 26,-41 40,-85 42,-135 -79,-1 -172,-3 -227,66z"/>
   </g>
   <g>
    <path class="fil15" d="M12781 9080c139,-136 267,-285 422,-404 894,171 1783,360 2676,538 -5,121 -5,241 -4,361 -823,-151 -1643,-321 -2466,-478 -118,-22 -234,-61 -355,-60 -81,50 -136,131 -196,204 921,175 1840,359 2760,537 114,46 185,-65 257,-132 0,214 1,429 -2,644 -199,183 -380,385 -567,580 -361,376 -733,741 -1087,1124 -72,80 -167,134 -261,185 -91,-3 -181,-18 -268,-41 -786,-200 -1580,-371 -2379,-511 -92,-10 -184,-24 -275,-42 -212,-46 -429,-65 -645,-82 -11,-10 -31,-30 -41,-40 62,-37 125,-71 177,-120 751,-755 1502,-1510 2254,-2263l0 0zm-55 300c-117,115 -264,209 -346,354 375,70 749,141 1122,220 136,-127 273,-251 406,-380 -4,-6 -12,-20 -16,-27 -320,-63 -642,-110 -960,-182 -67,-9 -151,-48 -206,15l0 0zm956 568c4,9 10,26 14,36 451,93 903,179 1355,273 82,15 186,43 250,-31 111,-106 227,-207 327,-324 -181,-59 -372,-76 -556,-124 -339,-56 -671,-141 -1010,-195 -129,119 -262,234 -380,365z"/>
   </g>
   <path class="fil15" d="M12286 17419c221,-189 432,-390 643,-591 270,36 535,104 803,154 220,50 444,82 661,144 -9,71 -18,142 -26,214 -10,-15 -29,-45 -39,-60 -214,192 -400,411 -609,608 -66,76 -173,39 -257,26 -392,-90 -788,-164 -1179,-254 0,-81 1,-161 3,-241z"/>
  </g>
  <g id="__x0023_93c0d4ff">
   <path class="fil16" d="M10296 4436c2,-158 -11,-317 10,-474 124,20 246,45 366,80 -3,636 2,1272 -3,1908 -128,-6 -253,-33 -375,-70 4,-481 0,-962 2,-1444z"/>
   <path class="fil16" d="M11288 4617c128,18 285,5 384,98 7,476 5,953 0,1430 -131,-4 -260,-30 -385,-65 6,-488 1,-975 1,-1463z"/>
   <path class="fil16" d="M15134 4792c0,-66 64,-117 128,-106 244,14 481,80 722,119 -281,175 -570,338 -854,506 3,-173 -8,-346 4,-519z"/>
  </g>
  <g id="__x0023_e4e3d6ff">
   <path class="fil17" d="M17940 4452l14 6c7,3 20,9 27,12 35,-3 104,-9 139,-11 -26,117 -54,235 -91,350 -500,498 -1007,990 -1498,1497 331,66 667,117 992,207 152,58 315,77 474,110 305,65 612,127 917,192 196,26 384,83 574,133 51,-70 107,-138 174,-194 151,-128 283,-275 425,-412l35 -32c260,-106 508,-242 772,-340 -430,440 -858,882 -1295,1315 -762,-172 -1529,-321 -2292,-485 -472,-103 -949,-185 -1417,-304 -14,604 6,1208 -10,1812 -5,-585 -3,-1171 -2,-1757 -9,-82 84,-116 128,-173 26,-23 52,-46 79,-69l4 -25 24 0c31,-43 67,-81 107,-117 209,-213 422,-424 635,-633 174,-179 354,-352 531,-528 82,-86 166,-169 258,-244l0 -33c19,2 56,6 74,7 -3,-18 -10,-54 -13,-72l44 7 -2 -43 41 6 -2 -39 25 -4c11,-9 32,-29 43,-39 29,-33 58,-66 86,-100z"/>
  </g>
  <g id="__x0023_32324fff">
   <path class="fil18" d="M16531 6306c491,-507 998,-999 1498,-1497 -171,567 -332,1138 -506,1704 -325,-90 -661,-141 -992,-207z"/>
   <path class="fil18" d="M21737 10082c14,-177 -24,-360 35,-532 503,113 1010,207 1515,315 -1109,733 -2225,1455 -3336,2185 -81,57 -159,130 -263,136 652,-632 1284,-1285 1926,-1927 47,-53 123,-98 123,-177z"/>
   <g>
    <path class="fil18" d="M23689 10919c157,-175 352,-320 466,-530 -2,1073 -1,2145 -1,3218 -7,569 14,1138 -11,1707l-2 22 -19 6c-13,4 -38,12 -51,15 -54,61 -98,129 -138,199l-10 18 -24 3c-39,3 -61,25 -69,66 -6,11 -19,33 -26,44 -173,172 -356,337 -505,530l-11 15 -14 9c-140,86 -250,212 -337,349 -6,8 -20,23 -26,31 -185,177 -381,349 -533,556l-13 19 -15 2c-42,2 -66,24 -73,65l-9 33 -13 9c-198,148 -360,342 -515,534 -118,136 -245,265 -378,387 -36,11 -60,35 -71,70l-15 40 -25 1c-39,2 -62,24 -70,66 -6,9 -18,28 -24,37 -99,90 -192,187 -287,281 -107,107 -237,186 -350,287l-20 18c-9,2 -27,7 -36,9 -461,107 -916,-65 -1363,-152 -324,-59 -640,-158 -968,-196 7,-86 18,-172 30,-257 -149,5 -308,-31 -449,17 -2,30 -5,90 -7,120 -148,-13 -290,-51 -433,-86 -669,-146 -1341,-279 -2011,-421 -30,-8 -60,-14 -90,-19 -17,-44 -38,-85 -62,-125 -57,-35 -127,-26 -191,-32 1,-31 0,-61 -1,-90 -19,-270 15,-541 -23,-810 -53,276 -2,557 -30,835 -6,45 -10,90 -14,134 4,-317 -2,-634 2,-951 -38,7 -84,0 -113,32 -118,105 -223,225 -336,335 -5,-81 -8,-162 -12,-243 -217,-62 -441,-94 -661,-144 -268,-50 -533,-118 -803,-154 -211,201 -422,402 -643,591l-27 9c-20,-53 -40,-53 -60,2 -119,-28 -240,-51 -357,-89 7,-685 6,-1370 3,-2055l-19 -24c-76,-77 -198,-60 -292,-100 -220,-68 -448,-107 -676,-136 -210,-52 -422,-93 -634,-136 -347,-62 -690,-140 -1034,-216 -60,-6 -134,-37 -182,17 -15,49 -14,100 -16,151 5,552 -3,1105 1,1658 5,86 -27,165 -72,237 -867,-162 -1727,-360 -2593,-529 -137,-16 -274,-120 -257,-271 -2,-1602 4,-3204 -3,-4806 176,156 410,202 634,239 3502,719 7004,1434 10505,2154 785,175 1570,346 2355,519 291,72 597,138 895,68 274,-102 469,-331 672,-530 241,-251 491,-494 726,-753 290,-310 600,-600 882,-917 314,-334 649,-648 952,-992l0 0zm-5100 4137c6,150 202,153 314,162l-11 29 -9 4c-256,499 -521,996 -790,1489 -12,-24 -38,-72 -51,-96l-14 31c6,-35 11,-70 14,-105 -75,-18 -161,4 -189,83 -26,74 -18,218 90,203 -143,144 -298,293 -366,489 -26,70 55,103 96,142 -2,20 -7,59 -10,78 -44,79 -95,156 -109,247 39,-18 78,-43 90,-87 -20,231 -64,472 0,699 200,-16 401,-13 602,-10 9,-252 -32,-500 -41,-751 -6,-117 -52,-232 -32,-350 179,-347 366,-713 383,-1110 5,-49 21,-105 -36,-132 135,-283 294,-554 435,-834 181,42 366,121 555,84 -14,-141 46,-314 -77,-421 -265,-50 -527,-114 -789,-178 -97,83 -47,224 -55,334l0 0zm-1031 2764c6,198 -28,404 24,596 19,-178 16,-359 7,-538 -8,-15 -24,-44 -31,-58z"/>
   </g>
   <path class="fil18" d="M13973 18904c228,-232 448,-474 684,-699 21,14 63,42 83,55 34,22 67,44 101,67 -203,218 -824,894 -989,980 -203,39 -397,-67 -597,-76 -58,13 -89,80 -158,76 -95,-26 -76,-93 -113,-141 -236,-61 -476,-110 -717,-154 -35,29 -68,63 -112,78 -75,-2 -107,-77 -148,-127 -129,-34 -261,-62 -391,-94 -7,-107 -13,-213 -14,-320 496,138 1006,217 1507,329 248,53 494,126 749,140 6,39 14,78 21,117 132,5 85,-143 94,-231z"/>
  </g>
  <g id="__x0023_c7c8e3ff">
   <g>
    <path class="fil19" d="M12813 5064c91,-97 232,19 349,-3l-4 28c44,3 88,6 132,9 104,34 212,47 318,73 118,23 234,52 353,71 114,35 233,45 348,77 48,9 97,16 146,24 328,82 664,136 994,213 55,2 48,71 67,107 -27,154 -9,310 -14,466 3,390 -7,781 5,1171 -193,-29 -384,-66 -576,-97 -55,-11 -136,-1 -146,66 -21,136 -10,274 -15,411 -72,4 -142,9 -214,10 -72,-11 -143,-26 -214,-38 -458,-97 -917,-198 -1378,-277 -46,-16 -93,-28 -135,-50 -25,-67 -14,-140 -17,-209 7,-684 -24,-1369 1,-2052l0 0zm1043 822c-245,138 -344,466 -238,722 93,252 375,403 637,373l2 -48c14,49 75,29 110,22 194,-70 343,-239 396,-437 -18,-7 -55,-20 -74,-27 21,-1 61,-4 81,-5 11,-150 -10,-309 -100,-434 -173,-259 -554,-338 -814,-166z"/>
   </g>
  </g>
  <g id="__x0023_474969ff">
   <path class="fil20" d="M20894 5970c278,-276 548,-560 826,-836 14,155 9,311 9,467 1,1034 -2,2069 0,3104 2,137 6,275 -20,411 -429,394 -826,821 -1243,1226 -280,286 -569,562 -844,853 -35,-194 -20,-390 -21,-585 -2,-1109 4,-2217 -2,-3325 437,-433 865,-875 1295,-1315z"/>
  </g>
  <g id="__x0023_423c6dff">
   <path class="fil21" d="M20779 5648c40,-133 77,-266 118,-399 72,20 145,40 218,61 -110,114 -224,226 -336,338z"/>
  </g>
  <g id="__x0023_9ed4ddff">
   <path class="fil22" d="M13856 5886c260,-172 641,-93 814,166 90,125 111,284 100,434 -20,1 -60,4 -81,5 -159,-33 -319,-65 -477,-106 -2,184 32,365 45,548l-2 48c-262,30 -544,-121 -637,-373 -106,-256 -7,-584 238,-722z"/>
   <path class="fil22" d="M12726 9380c55,-63 139,-24 206,-15 318,72 640,119 960,182 4,7 12,21 16,27 -133,129 -270,253 -406,380 -373,-79 -747,-150 -1122,-220 82,-145 229,-239 346,-354z"/>
  </g>
  <g id="__x0023_c1c1daff">
   <path class="fil23" d="M12534 6411c7,-120 16,-240 33,-358 27,131 34,266 34,401 -261,137 -517,286 -767,442 -64,45 -130,88 -203,117 -15,-4 -46,-13 -61,-17 0,-13 1,-38 1,-50 20,-178 6,-357 19,-535 1,-104 123,-146 210,-129 246,33 488,94 734,129z"/>
  </g>
  <g id="__x0023_62626477">
  </g>
  <g id="__x0023_5d607eff">
   <path class="fil24" d="M15890 6496c468,119 945,201 1417,304 763,164 1530,313 2292,485 6,1108 0,2216 2,3325 1,195 -14,391 21,585 0,6 -1,19 -1,26 -1248,-252 -2498,-492 -3746,-745l-1 -55c-1,-44 -1,-88 -1,-131 3,-215 2,-430 2,-644 0,-18 0,-53 0,-71 -1,-120 -1,-240 4,-361 8,-273 16,-547 12,-822 -46,-27 -91,-55 -137,-81 31,-1 95,-2 126,-3 16,-604 -4,-1208 10,-1812z"/>
  </g>
  <g id="__x0023_9999a6b9">
  </g>
  <g id="__x0023_21201f2f">
  </g>
  <g id="__x0023_15171fff">
   <path class="fil25" d="M11175 7123c26,-48 52,-96 77,-145 79,28 161,54 225,110 19,75 24,153 18,231 -29,5 -88,14 -118,18l-19 0c0,-67 -1,-133 -4,-199l-16 -3c-53,-10 -109,-9 -163,-12z"/>
  </g>
  <g id="__x0023_ff713cff">
   <path class="fil26" d="M11917 7124c32,27 71,45 110,63 -18,124 -78,235 -150,335 -84,45 -179,63 -272,76 12,150 32,298 39,449 4,107 8,214 6,320 -10,1 -32,2 -43,3 -84,2 -168,0 -252,5 -4,-339 32,-680 -5,-1017l8 -21 19 0c130,17 254,73 385,79 118,-15 134,-161 157,-253 -1,-9 -1,-30 -2,-39z"/>
   <path class="fil26" d="M11171 7344l51 4c14,340 -4,681 25,1019 -80,2 -160,4 -240,6 -4,-140 -1,-279 5,-418 2,-60 5,-120 7,-180 -51,-26 -136,-23 -150,-92 47,-77 107,-145 165,-213 22,33 45,67 68,101 50,-37 134,-66 92,-144 -6,-21 -17,-62 -23,-83z"/>
   <path class="fil26" d="M11009 9248c26,-8 76,-25 101,-34 10,26 28,78 37,104 -41,23 -85,39 -131,50 -3,-40 -5,-80 -7,-120z"/>
   <path class="fil26" d="M18589 15056c8,-110 -42,-251 55,-334 262,64 524,128 789,178 123,107 63,280 77,421 -189,37 -374,-42 -555,-84l12 -24c37,-67 72,-135 103,-205 -94,32 -140,121 -167,210 -112,-9 -308,-12 -314,-162z"/>
  </g>
  <g id="__x0023_ffe780ff">
   <path class="fil27" d="M11154 7137c61,0 123,0 184,-2l16 3c3,66 4,132 4,199l-8 21c-32,-3 -96,-7 -128,-10l-51 -4c6,21 17,62 23,83 -21,-23 -43,-45 -66,-65 -117,-24 -235,-42 -350,-77 73,14 146,27 218,41 55,11 109,21 164,30 2,-73 1,-146 -6,-219z"/>
  </g>
  <g id="__x0023_a36550aa">
   <path class="fil28" d="M11801 7370c48,-63 79,-137 118,-207 -23,92 -39,238 -157,253 -131,-6 -255,-62 -385,-79 30,-4 89,-13 118,-18 102,12 203,89 306,51z"/>
  </g>
  <g id="__x0023_abaacbff">
   <path class="fil29" d="M14785 7269c10,-67 91,-77 146,-66 192,31 383,68 576,97 -221,164 -480,272 -707,430 -82,-4 -164,-20 -244,-40 72,-1 142,-6 214,-10 5,-137 -6,-275 15,-411z"/>
   <path class="fil29" d="M14740 18260c83,42 171,78 237,147 93,96 213,156 326,224 -15,3 -46,11 -61,14 -13,-17 -39,-51 -52,-67 -113,-45 -204,-126 -281,-217 -121,-36 -166,138 -261,187 62,-75 126,-149 193,-221 -34,-23 -67,-45 -101,-67z"/>
  </g>
  <g id="__x0023_4a4d66ff">
   <path class="fil30" d="M10074 7208c238,-37 475,13 704,77 115,35 233,53 350,77 -32,35 -63,71 -94,108 -58,68 -118,136 -165,213 14,69 99,66 150,92 -2,60 -5,120 -7,180 -291,2 -612,-140 -881,26 -203,132 -372,310 -550,474 -663,607 -1324,1217 -1985,1826 -73,68 -159,156 -112,264 -44,107 71,163 159,173 412,74 829,126 1235,235 490,109 982,250 1417,508l4 -53c13,13 38,41 51,55 10,10 30,30 41,40 216,17 433,36 645,82 -98,4 -197,15 -294,25 268,25 533,76 796,137 756,139 1498,339 2244,519 156,47 315,-30 418,-146 491,-508 988,-1011 1474,-1525 61,-64 129,-121 200,-174l1 55c0,51 1,102 1,153 0,287 -9,573 0,859 -2,66 84,57 127,76 1201,231 2398,480 3599,704 29,-27 57,-55 86,-82 104,-6 182,-79 263,-136 1111,-730 2227,-1452 3336,-2185 246,48 494,93 729,182l21 7 11 16c70,92 125,199 107,319 -114,210 -309,355 -466,530 -303,344 -638,658 -952,992 -282,317 -592,607 -882,917 -235,259 -485,502 -726,753 -203,199 -398,428 -672,530 -298,70 -604,4 -895,-68 -785,-173 -1570,-344 -2355,-519 -3501,-720 -7003,-1435 -10505,-2154 -224,-37 -458,-83 -634,-239 -18,-143 43,-274 125,-387 46,-26 299,-252 324,-302 50,-45 496,-441 500,-455 113,-160 1119,-1013 1130,-1058 64,-83 1263,-1223 1446,-1347 28,-5 262,-284 481,-374z"/>
   <path class="fil30" d="M11605 7598c93,-13 188,-31 272,-76 937,203 1879,387 2818,583 353,66 702,155 1059,206 46,26 91,54 137,81 4,275 -4,549 -12,822 -893,-178 -1782,-367 -2676,-538 -24,-54 -48,-109 -75,-161 -175,-149 -401,-213 -617,-277 -284,-83 -578,-127 -867,-191 -7,-151 -27,-299 -39,-449z"/>
  </g>
  <g id="__x0023_243034ff">
   <path class="fil31" d="M11222 7348c32,3 96,7 128,10 37,337 1,678 5,1017 -17,6 -51,19 -69,26 -6,7 -20,20 -26,26l-13 -60c-29,-338 -11,-679 -25,-1019z"/>
  </g>
  <g id="__x0023_44454b74">
  </g>
  <g id="__x0023_f6bd0cff">
   <path class="fil32" d="M11034 7470c31,-37 62,-73 94,-108 23,20 45,42 66,65 42,78 -42,107 -92,144 -23,-34 -46,-68 -68,-101z"/>
  </g>
  <g id="__x0023_4a4c5489">
  </g>
  <g id="__x0023_27272936">
  </g>
  <g id="__x0023_494a5286">
  </g>
  <g id="__x0023_4f505ba0">
  </g>
  <g id="__x0023_201b1aff">
   <path class="fil33" d="M9838 8394c55,-69 148,-67 227,-66 -2,50 -16,94 -42,135 -50,61 -104,128 -189,132 -24,-62 -56,-147 4,-201z"/>
  </g>
  <g id="__x0023_1f2242ff">
   <path class="fil34" d="M11007 8373c80,-2 160,-4 240,-6l13 60c-84,255 -172,514 -150,787 -25,9 -75,26 -101,34 -33,-291 -32,-584 -2,-875z"/>
   <path class="fil34" d="M18126 16803c117,-217 240,-430 342,-655l34 22c-38,288 -198,544 -400,747l-32 -11c18,-34 37,-69 56,-103z"/>
  </g>
  <g id="__x0023_212141ff">
   <path class="fil35" d="M11286 8401c18,-7 52,-20 69,-26 84,-5 168,-3 252,-5 -1,148 -29,294 -24,442 17,145 95,274 172,395 -22,9 -66,26 -89,35 -207,-236 -321,-536 -380,-841z"/>
  </g>
  <g id="__x0023_2a2a2c39">
  </g>
  <g id="__x0023_494a5285">
  </g>
  <g id="__x0023_f0e9dcff">
   <path class="fil36" d="M13128 8515c27,52 51,107 75,161 -155,119 -283,268 -422,404 -752,753 -1503,1508 -2254,2263 -52,49 -115,83 -177,120 -13,-14 -38,-42 -51,-55l-20 -23c359,-385 746,-742 1106,-1126 228,-266 491,-499 715,-768 261,-269 527,-533 788,-802 68,-72 153,-125 240,-174z"/>
  </g>
  <g id="__x0023_383534ff">
   <path class="fil37" d="M9514 9618c58,-335 147,-667 276,-981l52 4c41,3 81,8 121,13 13,10 40,29 53,39 22,66 57,127 94,187 105,166 190,346 332,485 -25,38 -50,76 -74,114 -125,-124 -227,-268 -320,-417 12,208 60,412 76,620 -163,-52 -331,-14 -496,3 -40,-19 -77,-44 -114,-67z"/>
  </g>
  <g id="__x0023_43444a72">
  </g>
  <g id="__x0023_49495184">
  </g>
  <g id="__x0023_6fa6c5ff">
   <path class="fil38" d="M13054 9037c121,-1 237,38 355,60 823,157 1643,327 2466,478 0,18 0,53 0,71 -72,67 -143,178 -257,132 -920,-178 -1839,-362 -2760,-537 60,-73 115,-154 196,-204z"/>
  </g>
  <g id="__x0023_4f505aa2">
  </g>
  <g id="__x0023_554c6eff">
   <path class="fil39" d="M20466 10342c417,-405 814,-832 1243,-1226 5,142 22,283 23,424 10,3 30,7 40,10 -59,172 -21,355 -35,532 0,79 -76,124 -123,177 -642,642 -1274,1295 -1926,1927 -29,27 -57,55 -86,82 17,-294 -3,-589 11,-883 2,-55 6,-110 8,-164 0,-7 1,-20 1,-26 275,-291 564,-567 844,-853z"/>
   <path class="fil39" d="M14626 17732c42,-43 86,-85 131,-126 0,105 -4,212 2,318l-8 -3c-5,-38 -8,-76 -12,-114 -38,-25 -75,-50 -113,-75z"/>
  </g>
  <g id="__x0023_c85d3eff">
   <path class="fil40" d="M11666 9242c23,-9 67,-26 89,-35 -14,19 -41,57 -54,76 -9,-10 -26,-31 -35,-41z"/>
  </g>
  <g id="__x0023_f87b47ff">
   <path class="fil41" d="M11755 9207c68,45 -1,157 -54,76 13,-19 40,-57 54,-76z"/>
  </g>
  <g id="__x0023_4f4f5a9d">
  </g>
  <g id="__x0023_d4d4d4ff">
   <path class="fil42" d="M13682 9948c118,-131 251,-246 380,-365 339,54 671,139 1010,195 184,48 375,65 556,124 -100,117 -216,218 -327,324 -64,74 -168,46 -250,31 -452,-94 -904,-180 -1355,-273 -4,-10 -10,-27 -14,-36z"/>
  </g>
  <g id="__x0023_340700ff">
   <path class="fil43" d="M9628 9685c165,-17 333,-55 496,-3 1,168 -5,337 -53,500 -8,72 -13,145 -34,214 -8,50 -14,99 -20,149 84,-7 89,52 78,118 -57,-13 -115,-27 -172,-41 -7,-264 70,-528 22,-790 -10,-17 -30,-51 -40,-68 -15,13 -43,39 -57,52 -48,242 -38,490 -76,734 22,14 66,42 88,57 -31,48 -81,66 -148,55 -28,-62 -44,-128 -39,-196 5,-261 -11,-522 -45,-781z"/>
  </g>
  <g id="__x0023_51525eaf">
  </g>
  <g id="__x0023_46464d79">
  </g>
  <g id="__x0023_4b4b548e">
  </g>
  <g id="__x0023_0d1920ff">
   <path class="fil44" d="M15306 10870c187,-195 368,-397 567,-580 0,43 0,87 1,131 -71,53 -139,110 -200,174 -486,514 -983,1017 -1474,1525 -103,116 -262,193 -418,146 -746,-180 -1488,-380 -2244,-519 -263,-61 -528,-112 -796,-137 97,-10 196,-21 294,-25 91,18 183,32 275,42 799,140 1593,311 2379,511 87,23 177,38 268,41 94,-51 189,-105 261,-185 354,-383 726,-748 1087,-1124z"/>
  </g>
  <g id="__x0023_25252631">
  </g>
  <g id="__x0023_bec0e5ff">
   <path class="fil45" d="M15875 10476c1248,253 2498,493 3746,745 -2,54 -6,109 -8,164 -838,-177 -1679,-340 -2517,-514 -406,-80 -811,-171 -1220,-242 0,-51 -1,-102 -1,-153z"/>
  </g>
  <g id="__x0023_4a4b5288">
  </g>
  <g id="__x0023_142027ff">
   <path class="fil46" d="M7643 10718c-88,-10 -203,-66 -159,-173 113,65 245,75 371,94 549,86 1096,195 1627,358 280,94 571,191 797,388l20 23 -4 53c-435,-258 -927,-399 -1417,-508 -406,-109 -823,-161 -1235,-235z"/>
  </g>
  <g id="__x0023_4f505b9d">
  </g>
  <g id="__x0023_686589ff">
   <path class="fil47" d="M15876 10629c409,71 814,162 1220,242 838,174 1679,337 2517,514 -14,294 6,589 -11,883 -1201,-224 -2398,-473 -3599,-704 -43,-19 -129,-10 -127,-76 -9,-286 0,-572 0,-859z"/>
   <path class="fil47" d="M14469 17908c107,37 214,75 313,131 -14,31 -28,61 -42,92 -100,-44 -200,-94 -286,-163 -19,17 -38,35 -57,53 89,58 174,122 260,184 -236,225 -456,467 -684,699 -3,-160 -3,-320 -1,-481 121,-123 243,-245 358,-374 10,-21 29,-63 39,-84 33,-19 67,-37 100,-57z"/>
   <path class="fil47" d="M11845 18225c82,-78 149,-178 253,-229l46 -23c-10,144 -8,288 -10,432 88,34 178,57 270,73 383,72 764,157 1144,242 145,45 230,-116 329,-192 -1,202 -2,404 2,607 -7,-39 -15,-78 -21,-117 -255,-14 -501,-87 -749,-140 -501,-112 -1011,-191 -1507,-329 17,-145 161,-217 243,-324z"/>
  </g>
  <g id="__x0023_222d34ff">
   <path class="fil48" d="M9008 14691c48,-54 122,-23 182,-17 344,76 687,154 1034,216 2,86 4,172 7,259 133,36 268,71 405,90 -123,134 -263,251 -388,382 -5,4 -13,11 -17,15 -170,122 -329,261 -462,423 -2,2 -6,6 -8,8 -254,216 -498,445 -740,675 -25,-1 -75,-4 -100,-5 45,-72 77,-151 72,-237 -4,-553 4,-1106 -1,-1658 2,-51 1,-102 16,-151z"/>
  </g>
  <g id="__x0023_55b14bff">
   <path class="fil49" d="M10224 14890c212,43 424,84 634,136 18,6 53,17 71,23 27,76 26,157 25,237 -105,-20 -212,-36 -318,-47 -137,-19 -272,-54 -405,-90 -3,-87 -5,-173 -7,-259z"/>
  </g>
  <g id="__x0023_faae6eff">
   <path class="fil50" d="M18903 15218c27,-89 73,-178 167,-210 -31,70 -66,138 -103,205 -18,8 -56,25 -75,34l11 -29z"/>
  </g>
  <g id="__x0023_ffb595ff">
   <path class="fil51" d="M18892 15247c19,-9 57,-26 75,-34l-12 24c-141,280 -300,551 -435,834 57,27 41,83 36,132l-54 -33 -34 -22c-102,225 -225,438 -342,655 -8,-15 -25,-47 -33,-63 269,-493 534,-990 790,-1489l9 -4z"/>
  </g>
  <g id="__x0023_444452aa">
  </g>
  <g id="__x0023_464653af">
  </g>
  <g id="__x0023_393d408f">
  </g>
  <g id="__x0023_71a7c6ff">
   <path class="fil52" d="M18502 16170l54 33c-17,397 -204,763 -383,1110 -20,118 26,233 32,350 9,251 50,499 41,751 -201,-3 -402,-6 -602,10 -64,-227 -20,-468 0,-699 6,-53 12,-107 19,-160 3,-19 8,-58 10,-78 -41,-39 -122,-72 -96,-142 68,-196 223,-345 366,-489 42,17 84,34 127,50l32 11c202,-203 362,-459 400,-747z"/>
  </g>
  <g id="__x0023_454553b3">
  </g>
  <g id="__x0023_121210ff">
   <path class="fil53" d="M17853 16653c28,-79 114,-101 189,-83 -3,35 -8,70 -14,105 -28,60 -58,120 -85,181 -108,15 -116,-129 -90,-203z"/>
   <path class="fil53" d="M17714 18447c141,-48 300,-12 449,-17 -12,85 -23,171 -30,257 -4,64 -8,128 -12,192 -32,135 -48,272 -55,410 35,21 70,41 105,62 -50,23 -100,48 -149,71 2,-267 -10,-534 -41,-800 -10,-59 -23,-117 -37,-176 -32,50 -62,101 -83,157 -47,217 -86,438 -86,661 23,8 70,23 93,31 -18,63 -98,52 -146,73 -26,-267 4,-534 -15,-801 2,-30 5,-90 7,-120z"/>
  </g>
  <g id="__x0023_38384071">
  </g>
  <g id="__x0023_ffa0a4ff">
   <path class="fil54" d="M18028 16675l14 -31c13,24 39,72 51,96 8,16 25,48 33,63 -19,34 -38,69 -56,103 -43,-16 -85,-33 -127,-50 27,-61 57,-121 85,-181z"/>
  </g>
  <g id="__x0023_ffad00ff">
   <path class="fil55" d="M14741 17034c29,-32 75,-25 113,-32 -4,317 2,634 -2,951 -23,-7 -70,-21 -93,-29 -6,-106 -2,-213 -2,-318 -45,41 -89,83 -131,126 -25,27 -50,55 -74,82 -26,-2 -80,-8 -106,-12 50,-57 98,-116 147,-174 53,-62 111,-119 155,-189 15,-93 6,-189 5,-283 -125,110 -238,233 -357,350l-31 29c-18,-13 -55,-39 -73,-53 38,-38 76,-75 113,-113 113,-110 218,-230 336,-335z"/>
   <path class="fil55" d="M14740 18131c14,-31 28,-61 42,-92 19,11 57,32 75,43 0,27 -1,80 -1,107 -39,-20 -77,-39 -116,-58z"/>
  </g>
  <g id="__x0023_091f56ff">
   <path class="fil56" d="M14866 17819c28,-278 -23,-559 30,-835 38,269 4,540 23,810l-53 25z"/>
  </g>
  <g id="__x0023_f0eaddff">
   <path class="fil57" d="M14393 17126c4,81 7,162 12,243 -37,38 -75,75 -113,113 -140,141 -286,276 -417,425 4,207 2,414 2,621 -99,76 -184,237 -329,192 -380,-85 -761,-170 -1144,-242 -92,-16 -182,-39 -270,-73 2,-144 0,-288 10,-432 9,-90 4,-182 14,-273 8,-63 82,-40 125,-40 391,90 787,164 1179,254 84,13 191,50 257,-26 209,-197 395,-416 609,-608 10,15 29,45 39,60 8,-72 17,-143 26,-214z"/>
  </g>
  <g id="__x0023_2b2d4fff">
   <path class="fil58" d="M14396 17506c119,-117 232,-240 357,-350 1,94 10,190 -5,283 -44,70 -102,127 -155,189 -61,49 -128,90 -197,129 6,-84 3,-168 0,-251z"/>
   <path class="fil58" d="M14857 18082c18,15 52,46 69,61 -4,14 -14,43 -18,58 -13,-3 -39,-9 -52,-12 0,-27 1,-80 1,-107z"/>
  </g>
  <g id="__x0023_4545519d">
  </g>
  <g id="__x0023_3d3d488b">
  </g>
  <g id="__x0023_0a0a2dff">
   <path class="fil59" d="M12199 17430c20,-55 40,-55 60,-2 -15,1 -45,2 -60,2z"/>
  </g>
  <g id="__x0023_ffa500ff">
   <path class="fil60" d="M13875 17907c131,-149 277,-284 417,-425 18,14 55,40 73,53 -133,130 -261,264 -395,392 -1,115 -1,229 3,344 111,-126 282,-227 303,-405 18,0 53,0 71,0 13,-28 37,-82 49,-109 1,27 1,82 1,109 -54,47 -60,117 -67,183 -115,129 -237,251 -358,374 -2,161 -2,321 1,481 -9,88 38,236 -94,231 -4,-203 -3,-405 -2,-607 0,-207 2,-414 -2,-621z"/>
  </g>
  <g id="__x0023_f0ece2ff">
   <path class="fil61" d="M14365 17535l31 -29c3,83 6,167 0,251 -12,27 -36,81 -49,109 -18,0 -53,0 -71,0 -21,178 -192,279 -303,405 -4,-115 -4,-229 -3,-344 134,-128 262,-262 395,-392z"/>
  </g>
  <g id="__x0023_b49149ff">
   <path class="fil62" d="M14396 17757c69,-39 136,-80 197,-129 -49,58 -97,117 -147,174 26,4 80,10 106,12 -27,32 -55,63 -83,94 -33,20 -67,38 -100,57 -10,21 -29,63 -39,84 7,-66 13,-136 67,-183 0,-27 0,-82 -1,-109z"/>
  </g>
  <path class="fil63" d="M14751 17921l8 3 93 29 63 26c10,24 31,72 41,96 -7,17 -22,51 -30,68 -17,-15 -51,-46 -69,-61 -18,-11 -56,-32 -75,-43 -99,-56 -206,-94 -313,-131 28,-31 56,-62 83,-94 173,93 101,52 199,107z"/>
  <g id="__x0023_241a38ff">
  </g>
  <g id="__x0023_feb16dff">
   <path class="fil64" d="M20488 2137c74,0 148,-1 222,-4 226,500 420,1014 641,1517 -177,51 -352,108 -527,162 -133,-139 -252,-291 -377,-437 34,-412 -22,-829 41,-1238z"/>
   <path class="fil64" d="M14915 17979c53,16 107,33 161,48 -59,50 -88,167 -168,174 4,-15 -56,-52 -51,-67 7,-17 10,-58 17,-75 -10,-24 51,-56 41,-80z"/>
  </g>
  <g id="__x0023_0da0a2ff">
   <path class="fil63" d="M14397 18021c19,-18 38,-36 57,-53 86,69 186,119 286,163 39,19 77,38 116,58 13,3 39,9 52,12 80,-7 109,-124 168,-174 24,3 73,10 97,14 30,5 60,11 90,19 10,3 32,11 43,14 57,57 44,38 97,87 168,116 302,280 404,454 4,47 18,135 -56,130 -159,29 -318,-22 -448,-114 -113,-68 -233,-128 -326,-224 -66,-69 -154,-105 -237,-147 -20,-13 -62,-41 -83,-55 -86,-62 -171,-126 -260,-184z"/>
  </g>
  <path class="fil65" d="M14920 17884c64,6 134,-3 191,32 24,40 45,81 62,125 -24,-4 -79,28 -103,24 -54,-15 -102,-70 -155,-86l-7 -24c3,-18 10,-53 12,-71z"/>
  <g id="__x0023_3a3a3e5f">
  </g>
  <g id="__x0023_454553ad">
  </g>
  <g id="__x0023_2b2b40ff">
   <path class="fil66" d="M17861 18603c21,-56 51,-107 83,-157 14,59 27,117 37,176 -30,-5 -90,-14 -120,-19z"/>
  </g>
  <g id="__x0023_6e6e6fe4">
  </g>
  <g id="__x0023_202d33ff">
   <path class="fil67" d="M15807 18615c27,37 54,74 85,108 185,176 424,279 635,420 -1,8 -2,24 -3,32 -9,4 -29,11 -38,15 -258,-68 -494,-200 -738,-304 -155,-58 -323,-44 -484,-49 8,71 0,158 73,199 39,47 127,71 130,139 -80,23 -154,-43 -220,-80 -105,-74 -236,-187 -199,-332 40,-69 126,-88 194,-118 15,-3 46,-11 61,-14 130,92 289,143 448,114 74,5 60,-83 56,-130z"/>
  </g>
  <g id="__x0023_f2f2f2ff">
  </g>
  <g id="__x0023_f0a326ff">
   <path class="fil68" d="M16535 19237l14 -64 84 0 44 74 -41 66c-25,-19 -76,-57 -101,-76z"/>
  </g>
  <g id="__x0023_f0a326ff_0">
   <path class="fil68" d="M15461 19215l14 -64 84 0 44 74 -41 66c-25,-19 -76,-57 -101,-76z"/>
  </g>
 </g>
</svg>
