<?xml version="1.0" encoding="UTF-8"?>
<!DOCTYPE svg PUBLIC "-//W3C//DTD SVG 1.1//EN" "http://www.w3.org/Graphics/SVG/1.1/DTD/svg11.dtd">
<!-- Creator: CorelDRAW X8 -->
<svg xmlns="http://www.w3.org/2000/svg" xml:space="preserve" width="297mm" height="210mm" version="1.1" style="shape-rendering:geometricPrecision; text-rendering:geometricPrecision; image-rendering:optimizeQuality; fill-rule:evenodd; clip-rule:evenodd"
viewBox="0 0 29700 21000"
 xmlns:xlink="http://www.w3.org/1999/xlink">
 <defs>
  <style type="text/css">
   <![CDATA[
    .fil8 {fill:#2C313C}
    .fil2 {fill:#2D313C}
    .fil58 {fill:#343859}
    .fil47 {fill:#413E78}
    .fil50 {fill:#48457E}
    .fil56 {fill:#49477F}
    .fil62 {fill:#4A477F}
    .fil61 {fill:#4A4780}
    .fil44 {fill:#4A4897}
    .fil19 {fill:#5454D3}
    .fil16 {fill:#5554D4}
    .fil45 {fill:#5656D8}
    .fil60 {fill:#574FB2}
    .fil24 {fill:#5756D7}
    .fil20 {fill:#5856D9}
    .fil12 {fill:#596170}
    .fil7 {fill:#5A6171}
    .fil26 {fill:#6262DA}
    .fil57 {fill:#6B63ED}
    .fil9 {fill:#6B63FF}
    .fil13 {fill:#6C63FF}
    .fil11 {fill:#6D63FF}
    .fil59 {fill:#6E66F0}
    .fil64 {fill:#736BF3}
    .fil63 {fill:#746CF7}
    .fil23 {fill:#7778FE}
    .fil15 {fill:#7878FF}
    .fil55 {fill:#7970F9}
    .fil42 {fill:#828D9F}
    .fil54 {fill:#8585FF}
    .fil10 {fill:#9EA7B8}
    .fil38 {fill:#9EA7B9}
    .fil37 {fill:#9FA7B9}
    .fil48 {fill:#A0A6BB}
    .fil51 {fill:#A1A8BB}
    .fil52 {fill:#A5AFBF}
    .fil18 {fill:#BDC4CE}
    .fil17 {fill:#BDC4CF}
    .fil35 {fill:#C5CDD8}
    .fil41 {fill:#C5CED7}
    .fil33 {fill:#CEC0D2}
    .fil14 {fill:#CED2DB}
    .fil29 {fill:#D1D1D1}
    .fil34 {fill:#D2D9E2}
    .fil30 {fill:#D3D9E2}
    .fil49 {fill:#D5D9E2}
    .fil53 {fill:#D5DAE2}
    .fil43 {fill:#D690BF}
    .fil25 {fill:#D790BF}
    .fil22 {fill:#D9DEE5}
    .fil1 {fill:#DAE1EB}
    .fil27 {fill:#E3E4F3}
    .fil46 {fill:#E4E8EF}
    .fil40 {fill:#E9EDF4}
    .fil21 {fill:#E9EEF4}
    .fil28 {fill:#EBA8DB}
    .fil31 {fill:#ECEFF4}
    .fil3 {fill:#EDF0F5}
    .fil39 {fill:#F0F1F5}
    .fil36 {fill:#F7F7F7}
    .fil5 {fill:#F8A4D8}
    .fil4 {fill:#F8A4DA}
    .fil32 {fill:#FEFEFE}
    .fil6 {fill:#FFFEFF}
    .fil0 {fill:white}
   ]]>
  </style>
 </defs>
 <g id="Слой_x0020_1">
  <metadata id="CorelCorpID_0Corel-Layer"/>
  <g id="_23ffffffff">
   <g>
    <path class="fil0" d="M11587 5498c1281,-627 2554,-1270 3833,-1904 8,25 17,51 26,77 99,1469 186,2940 283,4410 -1987,988 -3975,1976 -5964,2963 -95,-1496 -194,-2993 -288,-4490 204,-114 416,-209 625,-316 496,-245 987,-498 1485,-740l0 0zm2742 -535c-121,39 -175,236 -75,323 95,20 150,-93 160,-171 8,-59 -9,-154 -85,-152l0 0zm401 897c-19,30 19,49 34,68 54,-42 110,-102 187,-96 81,8 128,94 131,168 11,91 -31,175 -68,255 11,13 35,37 48,50 80,-114 120,-261 88,-401 -18,-72 -67,-148 -145,-168 -107,-27 -212,41 -275,124l0 0zm-3102 1015c-1,41 -1,83 -3,124 131,-44 250,-117 374,-177 362,-179 721,-365 1083,-544 174,-90 354,-171 520,-274 -5,-37 -11,-74 -17,-110 -654,322 -1301,660 -1957,981l0 0zm1734 -550c-572,285 -1141,576 -1711,865 9,38 16,78 23,117 218,-101 429,-218 646,-324 434,-229 880,-439 1314,-670 0,-35 -2,-70 -2,-105 -99,16 -181,75 -270,117l0 0zm-2820 437c-70,123 -111,275 -63,414 50,15 84,-57 64,-99 -35,-158 50,-337 194,-412 53,-30 111,-2 154,33 20,-30 42,-58 62,-88 -43,-29 -89,-69 -146,-57 -118,16 -207,111 -265,209l0 0zm1592 512c-67,20 -41,91 -38,143 232,-102 452,-231 680,-341 161,-87 335,-154 489,-255 -8,-37 -13,-73 -20,-109 -372,184 -743,371 -1111,562l0 0zm1303 -6c-422,203 -838,418 -1259,625 -154,68 -255,249 -215,416 19,78 101,134 181,115 76,-18 141,-59 210,-92 362,-181 722,-361 1083,-542 154,-68 254,-248 214,-415 -20,-91 -127,-145 -214,-107l0 0zm1262 237c-112,46 -166,241 -60,318 91,14 141,-94 151,-170 13,-58 -12,-164 -91,-148l0 0zm-4197 860c-20,78 -33,164 -91,225 -43,51 -126,84 -184,40 -63,-46 -71,-127 -83,-196 -15,3 -50,9 -65,13 4,99 23,213 111,274 67,50 162,30 222,-23 104,-87 146,-225 156,-356 -16,5 -49,17 -66,23l0 0zm986 915c-8,33 -15,67 -22,101 141,18 282,37 423,46 7,-32 13,-65 20,-97 -140,-26 -281,-36 -421,-50z"/>
   </g>
   <path class="fil0" d="M14634 7676c0,-51 40,-85 83,-108 32,54 34,132 -21,172 -39,32 -73,-28 -62,-64z"/>
   <path class="fil0" d="M7539 10993c45,77 84,158 109,244 -4,90 -40,174 -111,228 -7,-157 -4,-314 2,-472z"/>
   <path class="fil0" d="M20239 13995c99,19 183,73 270,116 98,49 199,94 293,151 -95,-17 -176,-72 -262,-113 -100,-51 -207,-91 -301,-154z"/>
  </g>
  <g id="_23dae1ebff">
   <path class="fil1" d="M15294 2805c66,-34 137,-62 211,-40 -42,13 -84,29 -124,46 -1990,989 -3979,1980 -5971,2968 -132,60 -208,209 -191,352 108,1661 215,3321 324,4980 8,114 8,229 33,340 -48,-26 -83,-69 -79,-126 -112,-1740 -225,-3479 -338,-5218 -17,-144 62,-295 198,-350 1979,-985 3960,-1964 5937,-2952z"/>
   <path class="fil1" d="M12396 4439c75,-6 53,125 -15,127 -10,-43 -24,-94 15,-127z"/>
   <path class="fil1" d="M4854 11034c5,-175 -11,-352 16,-526 16,102 68,194 144,263 168,152 389,221 603,282 -11,4 -36,13 -47,17 -19,409 0,820 -7,1229 -274,-70 -596,-191 -699,-481 -22,-260 -4,-523 -10,-784z"/>
   <path class="fil1" d="M16925 10543c87,-40 180,4 257,45 480,247 959,496 1444,734 38,18 71,46 95,80 -529,280 -1067,538 -1599,808 -157,93 -331,154 -486,247 -130,74 -267,135 -399,207 -57,27 -116,64 -183,67 -71,-7 -137,-46 -199,-77 -498,-277 -1021,-505 -1516,-786 25,-28 52,-57 87,-72 833,-418 1664,-841 2499,-1253z"/>
   <g>
    <path class="fil1" d="M8632 14101c191,-39 386,-50 580,-67 -3,7 -7,24 -10,31 -33,111 -74,234 -175,302 -204,130 -451,150 -666,252 -235,97 -470,200 -683,343 -77,45 -65,138 -25,205 37,80 91,150 129,229 26,76 10,157 -3,234 -4,-54 -7,-107 -10,-160 -32,12 -65,23 -96,36 -465,-225 -924,-460 -1386,-691 63,-26 127,-57 195,-50 220,16 436,61 656,58 167,-4 324,-71 472,-142 205,-101 416,-200 593,-348 125,-106 266,-201 429,-232l0 0zm8 115c-35,16 -64,57 -27,88 67,42 157,43 230,12 30,-10 55,-39 45,-73 -64,-63 -169,-57 -248,-27z"/>
   </g>
   <path class="fil1" d="M7514 15577c6,3 17,10 23,13 0,59 -1,116 -3,173 -111,61 -219,127 -333,181 -27,-62 -53,-124 -76,-187 12,-4 34,-14 46,-19 118,-44 232,-98 343,-161z"/>
  </g>
  <g id="_232d313cff">
   <g>
    <path class="fil2" d="M15381 2811c40,-17 82,-33 124,-46 55,25 89,79 87,140 90,1363 179,2727 267,4091 23,409 60,817 74,1226 -170,57 -322,154 -485,225 10,10 29,29 39,37 -1709,848 -3414,1705 -5126,2548 -41,-6 -83,-8 -120,15 -178,93 -359,180 -536,274 -47,19 -53,68 -54,113 -1,15 -3,45 -3,61 -18,-12 -54,-33 -72,-44 -25,-111 -25,-226 -33,-340 -109,-1659 -216,-3319 -324,-4980 -17,-143 59,-292 191,-352 1992,-988 3981,-1979 5971,-2968l0 0zm-5937 3354c5,131 26,260 29,391l4 -2c94,1497 193,2994 288,4490 1989,-987 3977,-1975 5964,-2963 -97,-1470 -184,-2941 -283,-4410 10,-159 -22,-315 -23,-475 -1994,988 -3986,1980 -5979,2969l0 0zm2952 -1726c-39,33 -25,84 -15,127 68,-2 90,-133 15,-127z"/>
   </g>
   <path class="fil2" d="M16121 8634c73,-34 141,-83 223,-97 58,13 109,49 161,78 -772,390 -1546,774 -2317,1162 -1193,599 -2386,1196 -3579,1795 -94,45 -197,124 -304,64l-10 -7c-14,-12 -42,-33 -57,-43 1365,-693 2736,-1373 4103,-2060 594,-298 1187,-594 1780,-892z"/>
   <path class="fil2" d="M15991 8932c182,-101 368,-197 558,-281 127,16 236,104 353,157 -154,90 -316,161 -474,244 -40,15 -84,50 -129,32 -105,-44 -206,-101 -308,-152z"/>
   <path class="fil2" d="M16599 9019c105,-56 212,-113 322,-161 43,-29 90,3 130,20 82,41 164,81 245,122 -77,57 -168,93 -253,139 -45,20 -96,58 -148,30 -101,-45 -199,-96 -296,-150z"/>
   <path class="fil2" d="M15883 8980c32,-17 67,-12 99,5 95,44 189,92 283,141 -100,60 -205,110 -308,161 -80,44 -155,-30 -226,-57 -49,-33 -126,-39 -151,-97 99,-53 201,-104 303,-153z"/>
   <path class="fil2" d="M17266 9077c41,-20 91,-51 137,-22 91,41 181,85 268,132 1,7 5,20 7,27 -181,94 -367,184 -549,277 -40,17 -86,50 -130,25 -102,-45 -204,-94 -299,-154 187,-97 378,-189 566,-285z"/>
   <path class="fil2" d="M16446 9093c40,-19 86,-50 130,-24 101,44 198,97 296,145 -102,67 -213,117 -323,170 -37,21 -77,0 -113,-16 -87,-43 -172,-87 -259,-130 82,-62 179,-97 269,-145z"/>
   <path class="fil2" d="M15463 9191c44,-24 89,5 129,22 82,44 169,78 246,134 -89,44 -177,88 -266,132 -42,20 -92,53 -138,26 -100,-46 -198,-97 -293,-148 105,-60 213,-114 322,-166z"/>
   <path class="fil2" d="M17671 9270c34,-13 74,-44 112,-24 106,45 211,94 307,156 -261,134 -525,264 -787,397 -40,20 -88,44 -133,17 -95,-49 -198,-87 -283,-153 261,-131 521,-262 784,-393z"/>
   <path class="fil2" d="M15751 9444c116,-59 231,-129 355,-173 122,32 230,104 343,161 -105,57 -211,113 -319,161 -46,29 -94,-3 -136,-21 -82,-40 -165,-80 -243,-128z"/>
   <path class="fil2" d="M14714 9569c106,-57 211,-113 321,-162 46,-29 93,2 135,21 82,41 166,80 243,130 -110,54 -217,117 -331,164 -36,18 -73,-5 -104,-17 -90,-45 -178,-89 -264,-136z"/>
   <path class="fil2" d="M16552 9435c34,-13 68,-41 107,-27 108,44 211,101 315,157 -123,58 -238,138 -368,174 -117,-37 -220,-104 -331,-156 86,-61 184,-99 277,-148z"/>
   <path class="fil2" d="M17792 9606c120,-55 232,-132 360,-171 119,36 226,104 337,160 -120,61 -237,138 -365,175 -118,-38 -228,-98 -332,-164z"/>
   <path class="fil2" d="M15326 9663c114,-70 234,-135 360,-179 120,35 227,104 337,161 -120,61 -235,135 -364,175 -118,-36 -222,-106 -333,-157z"/>
   <path class="fil2" d="M14291 9787c117,-71 241,-145 373,-178 113,44 221,98 324,163 -117,57 -230,124 -351,169 -124,-23 -229,-105 -346,-154z"/>
   <path class="fil2" d="M16114 9655c43,-22 94,-53 143,-25 98,45 195,94 292,147 -120,62 -235,134 -364,174 -118,-36 -228,-100 -335,-162 87,-46 176,-90 264,-134z"/>
   <path class="fil2" d="M17367 9827c116,-68 235,-141 364,-180 106,36 205,95 305,144 4,8 10,20 12,28 -82,47 -169,85 -252,129 -41,17 -87,49 -132,26 -102,-44 -199,-97 -297,-147z"/>
   <path class="fil2" d="M14901 9876c117,-67 235,-142 366,-179 107,36 206,94 305,146 3,5 9,18 10,25 -82,47 -169,86 -253,130 -40,17 -84,47 -127,26 -103,-44 -201,-99 -301,-148z"/>
   <path class="fil2" d="M16727 9742c39,-16 81,-46 125,-28 105,46 206,97 304,156 -101,53 -202,105 -305,155 -94,47 -180,-44 -264,-74 -34,-28 -112,-28 -109,-81 81,-47 166,-84 249,-128z"/>
   <path class="fil2" d="M13865 9992c132,-57 253,-162 403,-168 97,56 200,103 298,157 -93,50 -188,97 -279,148 -33,9 -64,17 -96,25 -115,-39 -221,-103 -326,-162z"/>
   <path class="fil2" d="M15423 10007c119,-64 238,-140 369,-177 108,41 215,94 314,154l-2 17c-81,47 -167,86 -249,130 -42,17 -87,47 -131,25 -103,-44 -201,-98 -301,-149z"/>
   <path class="fil2" d="M17254 9876c49,-30 100,1 146,22 80,42 162,76 236,129 -99,48 -196,101 -296,149 -97,55 -187,-41 -274,-72 -35,-26 -104,-30 -114,-77 99,-53 201,-103 302,-151z"/>
   <path class="fil2" d="M14801 9920c40,-22 81,4 119,20 84,41 169,84 252,129 -114,65 -230,129 -352,174 -124,-22 -231,-105 -347,-156 106,-62 217,-117 328,-167z"/>
   <path class="fil2" d="M16307 9953c35,-15 72,-43 112,-28 107,45 208,100 312,153 -85,53 -175,94 -263,140 -46,21 -97,54 -146,24 -100,-46 -197,-94 -289,-148 90,-50 182,-94 274,-141z"/>
   <path class="fil2" d="M13440 10206c118,-58 232,-131 359,-172 123,31 228,104 341,161 -33,17 -64,36 -96,53 -41,20 -84,41 -125,62 -49,22 -96,47 -148,57 -117,-38 -224,-102 -331,-161z"/>
   <path class="fil2" d="M15329 10051c38,-20 78,6 114,21 84,44 175,79 252,137 -110,53 -215,111 -326,161 -35,19 -72,0 -103,-14 -90,-44 -180,-90 -268,-137 107,-61 218,-118 331,-168z"/>
   <path class="fil2" d="M16532 10238c111,-56 221,-122 338,-163 122,30 233,101 342,163 -107,54 -214,112 -324,161 -43,24 -87,-5 -127,-22 -77,-40 -155,-74 -231,-117 2,-5 2,-17 2,-22z"/>
   <path class="fil2" d="M14338 10144c40,-9 84,-29 123,-6 98,44 192,95 289,144 -97,54 -194,105 -294,152 -31,12 -65,33 -98,17 -104,-39 -204,-91 -299,-148 7,-8 22,-27 31,-35 87,-33 168,-77 248,-124z"/>
   <path class="fil2" d="M15607 10306c107,-54 211,-111 319,-160 46,-28 93,2 135,22 82,40 163,80 244,122 -113,70 -232,133 -356,179 -123,-32 -231,-105 -342,-163z"/>
   <path class="fil2" d="M13017 10426c115,-70 233,-140 363,-180 117,37 224,103 332,160 -87,53 -179,95 -269,141 -40,18 -84,47 -129,26 -101,-45 -198,-99 -297,-147z"/>
   <path class="fil2" d="M14894 10268c43,-25 88,1 128,20 83,41 167,82 250,125 -99,64 -206,111 -310,162 -92,45 -176,-47 -261,-75 -35,-27 -106,-30 -112,-80 100,-53 202,-104 305,-152z"/>
   <path class="fil2" d="M16344 10329c47,-20 101,-60 152,-29 98,46 198,93 291,151 -117,62 -237,119 -355,180 -40,19 -87,49 -131,24 -101,-44 -198,-97 -295,-148 107,-68 225,-118 338,-178z"/>
   <path class="fil2" d="M13974 10329c124,43 239,105 350,169 -47,26 -93,50 -140,75 -76,32 -145,82 -227,98 -119,-36 -223,-104 -333,-160 114,-65 234,-121 350,-182z"/>
   <path class="fil2" d="M15183 10526c101,-67 213,-116 321,-169 44,-25 90,5 130,22 78,40 158,77 235,118 -3,6 -9,17 -11,23 -99,55 -201,105 -304,152 -39,22 -80,-2 -114,-18 -86,-43 -171,-86 -257,-128z"/>
   <path class="fil2" d="M12881 10484c32,-13 67,-35 101,-17 104,43 204,98 304,150 -88,60 -188,100 -282,151 -34,14 -74,37 -111,18 -105,-44 -204,-98 -304,-151 95,-55 194,-102 292,-151z"/>
   <path class="fil2" d="M14232 10593c95,-37 179,-95 276,-123 121,33 229,103 339,161 -107,54 -213,116 -322,161 -47,24 -93,-7 -136,-20 -74,-41 -151,-77 -225,-118 7,-33 44,-44 68,-61z"/>
   <path class="fil2" d="M15783 10610c53,-25 103,-59 161,-66 119,36 223,104 334,157 -661,351 -1341,666 -2003,1018 -148,25 -269,-94 -397,-151 112,-60 226,-114 340,-173 522,-261 1045,-522 1565,-785z"/>
   <path class="fil2" d="M13199 10724c120,-60 234,-133 362,-174 118,34 222,104 335,157 -81,55 -174,94 -262,139 -44,22 -96,54 -144,26 -100,-46 -197,-94 -291,-148z"/>
   <path class="fil2" d="M15031 10593c40,-19 84,-47 128,-23 101,45 200,97 298,149 -123,60 -240,143 -374,174 -112,-40 -216,-102 -325,-155 86,-58 182,-97 273,-145z"/>
   <path class="fil2" d="M12496 10680c32,-18 66,1 96,14 91,44 181,90 271,137 -106,64 -218,118 -331,169 -40,20 -81,-8 -118,-24 -83,-43 -170,-80 -248,-131 109,-56 218,-116 330,-165z"/>
   <path class="fil2" d="M13722 10856c121,-58 234,-135 364,-174 88,25 165,76 249,112 21,11 66,34 87,45 -78,49 -160,93 -242,134 -40,16 -79,33 -120,44 -121,-34 -228,-104 -338,-161z"/>
   <path class="fil2" d="M12773 10936c107,-55 212,-113 322,-161 43,-27 88,1 128,20 83,40 166,81 247,124 -86,58 -181,100 -274,147 -40,18 -85,45 -128,20 -101,-44 -200,-96 -295,-150z"/>
   <path class="fil2" d="M14332 10943c111,-54 218,-115 332,-164 35,-18 72,5 103,19 90,43 178,87 265,134 -90,51 -182,95 -274,142 -41,20 -89,49 -134,22 -99,-47 -199,-91 -292,-153z"/>
   <path class="fil2" d="M11755 11049c113,-54 222,-123 342,-163 120,32 231,100 339,164 -95,49 -192,98 -289,147 -31,13 -70,34 -104,16 -96,-43 -190,-89 -282,-140 -2,-6 -5,-17 -6,-24z"/>
   <path class="fil2" d="M13299 11073c101,-63 209,-116 319,-165 44,-27 90,1 131,20 83,42 168,78 245,131 -109,55 -215,115 -327,162 -39,22 -79,-4 -113,-18 -86,-43 -171,-86 -255,-130z"/>
   <path class="fil2" d="M12617 11010c42,-17 87,-50 132,-24 101,43 196,97 295,144 -80,63 -177,97 -265,145 -42,17 -87,52 -133,26 -101,-44 -197,-98 -297,-145 83,-60 179,-97 268,-146z"/>
   <path class="fil2" d="M14235 10985c137,17 251,101 370,163 -100,52 -200,106 -301,153 -33,19 -69,17 -104,11 -97,-49 -197,-99 -294,-149 107,-64 222,-113 329,-178z"/>
   <path class="fil2" d="M11316 11273c117,-62 234,-132 359,-174 119,37 231,98 335,165 -105,51 -208,108 -315,157 -43,25 -87,1 -127,-16 -84,-43 -171,-84 -252,-132z"/>
   <path class="fil2" d="M13143 11143c40,-19 86,-49 130,-23 103,44 203,94 298,150 -108,58 -215,115 -326,164 -39,22 -79,-3 -114,-18 -86,-42 -171,-85 -257,-129 84,-59 180,-96 269,-144z"/>
   <path class="fil2" d="M11925 11361c117,-57 229,-128 352,-171 124,27 232,104 346,159 -122,59 -239,142 -372,174 -114,-44 -224,-98 -326,-162z"/>
   <path class="fil2" d="M13811 11207c37,-19 77,3 111,18 85,43 171,86 256,130 -87,60 -184,100 -276,148 -37,16 -80,43 -121,22 -103,-46 -201,-99 -300,-150 107,-61 217,-118 330,-168z"/>
   <path class="fil2" d="M10888 11485c104,-56 210,-110 317,-160 45,-28 92,0 135,19 83,41 168,80 247,131 -118,58 -233,130 -358,171 -121,-33 -229,-103 -341,-161z"/>
   <path class="fil2" d="M12449 11492c109,-54 215,-114 327,-162 35,-20 74,1 107,17 88,42 178,87 265,135 -93,50 -186,97 -280,144 -37,17 -82,43 -124,20 -99,-47 -202,-91 -295,-154z"/>
   <path class="fil2" d="M11815 11415c34,-20 73,-13 104,6 94,44 187,91 279,141 -107,58 -216,114 -326,165 -46,23 -91,-7 -131,-25 -81,-42 -167,-76 -241,-130 105,-53 209,-108 315,-157z"/>
   <path class="fil2" d="M13056 11588c122,-62 240,-144 371,-176 114,43 224,100 327,164 -107,53 -214,113 -324,161 -37,20 -77,0 -111,-15 -89,-43 -177,-87 -263,-134z"/>
   <path class="fil2" d="M10464 11697c106,-54 212,-111 320,-161 44,-25 90,2 130,22 83,41 170,78 247,131 -117,57 -230,125 -352,169 -124,-28 -234,-102 -345,-161z"/>
   <path class="fil2" d="M12024 11703c120,-54 231,-127 357,-168 121,31 228,105 340,158 -105,61 -215,117 -325,167 -44,23 -89,-7 -129,-24 -81,-43 -168,-76 -243,-133z"/>
   <path class="fil2" d="M11326 11657c47,-21 101,-59 154,-30 97,49 201,87 288,154 -158,80 -318,159 -475,238 -43,19 -90,52 -135,26 -101,-44 -200,-95 -297,-147 150,-90 311,-158 465,-241z"/>
   <path class="fil2" d="M13702 11653c52,-24 111,-64 167,-28 90,48 194,81 274,146 -154,86 -312,170 -476,236 -122,-29 -228,-106 -343,-159 123,-71 253,-129 378,-195z"/>
   <path class="fil2" d="M12633 11799c116,-60 228,-129 352,-173 123,26 230,104 344,157 -119,65 -238,144 -371,177 -114,-43 -221,-102 -325,-161z"/>
   <path class="fil2" d="M10257 11846c-59,-12 -168,-38 -140,-119 54,29 131,47 140,119z"/>
   <path class="fil2" d="M11832 11800c53,-23 110,-71 168,-41 100,47 203,91 294,154 -204,105 -409,203 -613,307 -36,13 -73,45 -113,28 -107,-42 -205,-102 -309,-150 182,-114 383,-195 573,-298z"/>
   <path class="fil2" d="M10334 11844c58,27 147,41 141,124 -56,-27 -153,-41 -141,-124z"/>
   <path class="fil2" d="M11657 12285c302,-147 598,-314 908,-448 119,34 231,103 339,164 -272,141 -547,275 -821,415 -41,17 -87,48 -131,24 -101,-47 -204,-93 -295,-155z"/>
   <path class="fil2" d="M12900 12059c107,-55 214,-115 325,-164 40,-24 81,3 118,19 84,41 170,84 255,128 -87,59 -184,99 -276,147 -39,17 -83,44 -126,20 -101,-44 -199,-95 -296,-150z"/>
   <path class="fil2" d="M12730 12141c46,-19 97,-60 148,-32 100,46 201,93 295,153 -108,54 -213,112 -323,161 -44,24 -89,-6 -129,-23 -81,-40 -161,-80 -242,-120 74,-62 167,-92 251,-139z"/>
   <path class="fil2" d="M12310 12352c45,-22 96,-59 148,-27 98,42 191,95 288,141 -114,74 -235,139 -364,181 -115,-39 -219,-104 -330,-156 79,-58 171,-94 258,-139z"/>
   <path class="fil2" d="M14740 16722c656,-324 1310,-653 1967,-976 463,228 931,450 1394,678 -674,337 -1350,669 -2023,1006 -456,-215 -908,-440 -1362,-658 -46,-13 1,-46 24,-50z"/>
  </g>
  <g id="_23edf0f5ff">
   <g>
    <path class="fil3" d="M9444 6165c1993,-989 3985,-1981 5979,-2969 1,160 33,316 23,475 -9,-26 -18,-52 -26,-77 -1279,634 -2552,1277 -3833,1904 -498,242 -989,495 -1485,740 -209,107 -421,202 -625,316l-4 2c-3,-131 -24,-260 -29,-391l0 0zm616 -177c-28,30 -31,79 -10,113 63,47 134,-39 113,-100 -7,-51 -77,-50 -103,-13l0 0zm-192 90c-42,24 -56,87 -29,128 40,39 104,-2 111,-49 27,-52 -32,-117 -82,-79l0 0zm-228 120c-37,37 -40,110 15,132 72,-4 109,-84 76,-144 -34,-17 -64,-12 -91,12z"/>
   </g>
   <g>
    <path class="fil3" d="M15448 8447c163,-71 315,-168 485,-225 106,-9 215,3 311,53 658,352 1338,665 1995,1020 767,387 1539,766 2300,1164 67,35 165,59 161,154 -168,114 -358,192 -538,283 -541,272 -1086,540 -1627,813 -82,38 -160,94 -253,102 -77,9 -155,7 -225,45 -391,196 -783,394 -1175,590 -78,32 -89,134 -164,172 -687,342 -1374,687 -2062,1032 -70,34 -138,73 -213,100 -88,30 -185,13 -273,-11 -186,-93 -369,-190 -556,-280 0,-8 -2,-28 -2,-37 102,-16 217,-23 293,-101 51,-54 22,-145 -40,-175 -149,-80 -347,-82 -492,8 -53,29 -53,91 -53,143 -235,-97 -456,-227 -685,-337 -928,-473 -1858,-942 -2786,-1414 -68,-34 -134,-72 -198,-112 1,-45 7,-94 54,-113 177,-94 358,-181 536,-274 37,-23 79,-21 120,-15 1712,-843 3417,-1700 5126,-2548 -10,-8 -29,-27 -39,-37l0 0zm675 113c-619,306 -1233,620 -1853,924 -1370,685 -2746,1364 -4113,2057 -17,72 86,84 138,88l10 7c62,70 154,94 233,140 577,292 1154,581 1732,874 65,37 148,57 218,14 587,-301 1187,-583 1769,-894 115,-38 218,-104 328,-155 1230,-616 2461,-1229 3692,-1845 106,-57 223,-98 319,-174 -126,-92 -274,-145 -409,-219 -518,-264 -1038,-522 -1557,-784 -94,-46 -181,-116 -288,-127 -80,11 -148,61 -219,94l0 0zm802 1983c-835,412 -1666,835 -2499,1253 -35,15 -62,44 -87,72 495,281 1018,509 1516,786 62,31 128,70 199,77 67,-3 126,-40 183,-67 132,-72 269,-133 399,-207 155,-93 329,-154 486,-247 532,-270 1070,-528 1599,-808 -24,-34 -57,-62 -95,-80 -485,-238 -964,-487 -1444,-734 -77,-41 -170,-85 -257,-45l0 0zm-3746 2078c-78,0 -232,46 -172,150 99,79 280,89 367,-10 43,-109 -115,-144 -195,-140z"/>
   </g>
  </g>
  <g id="_23f8a4daff">
   <g>
    <path class="fil4" d="M14329 4963c76,-2 93,93 85,152 -10,78 -65,191 -160,171 -100,-87 -46,-284 75,-323l0 0zm-59 256c84,-2 135,-144 54,-179 -76,23 -77,117 -54,179z"/>
   </g>
  </g>
  <g id="_23f8a4d8ff">
   <path class="fil5" d="M14730 5860c63,-83 168,-151 275,-124 78,20 127,96 145,168 32,140 -8,287 -88,401 -13,-13 -37,-37 -48,-50 37,-80 79,-164 68,-255 -3,-74 -50,-160 -131,-168 -77,-6 -133,54 -187,96 -15,-19 -53,-38 -34,-68z"/>
   <path class="fil5" d="M9640 6198c27,-24 57,-29 91,-12 33,60 -4,140 -76,144 -55,-22 -52,-95 -15,-132z"/>
   <path class="fil5" d="M5080 10263c299,-194 658,-263 1009,-279 423,-12 869,47 1233,278 -230,172 -516,242 -796,279 3,22 10,62 13,83 3,41 5,84 7,125l-38 6c-230,29 -460,14 -690,-8l-21 -6c1,-40 2,-80 7,-118 1,-23 7,-67 8,-90 -258,-39 -520,-111 -732,-270z"/>
   <path class="fil5" d="M5837 10832c211,-9 421,-4 632,6 -37,85 -67,177 -69,272 -2,56 -2,113 -3,168 -24,-15 -49,-33 -73,-50 0,-38 0,-77 -1,-115 -8,-86 -22,-184 -103,-232 -4,76 -9,155 -6,233l2 33c-129,-101 -260,-201 -379,-315z"/>
   <path class="fil5" d="M6324 11345c24,17 50,34 77,52 -4,132 -3,266 -1,399 -5,62 18,159 -72,165 -11,-205 -4,-411 -4,-616z"/>
   <path class="fil5" d="M13179 12621c80,-4 238,31 195,140 -87,99 -268,89 -367,10 -60,-104 94,-150 172,-150z"/>
   <path class="fil5" d="M13373 13154c145,-90 343,-88 492,-8 62,30 91,121 40,175 -76,78 -191,85 -293,101 0,9 2,29 2,37 -2,47 -3,94 -3,141 -7,245 9,489 -7,733 4,50 -97,57 -93,6 -15,-264 4,-529 -8,-793 7,-41 21,-84 7,-125 -24,-47 -42,35 -33,52 3,19 9,55 11,73 -5,518 -8,1036 -4,1555 61,16 126,25 183,53 88,54 116,164 114,262 -33,100 -159,112 -243,77 -228,-90 -469,-159 -673,-300 -99,-72 -269,-43 -325,-173 -25,-133 144,-180 246,-191 117,0 238,3 347,48 85,43 147,115 217,176 7,-528 -1,-1055 4,-1582 2,-60 -5,-120 -34,-174 0,-52 0,-114 53,-143z"/>
   <path class="fil5" d="M23773 13355c44,-18 90,-57 140,-36 72,23 142,52 212,85l26 10c-177,161 -364,309 -543,467 -168,-58 -334,-122 -501,-185 217,-123 445,-225 666,-341z"/>
   <path class="fil5" d="M6777 13459c86,-33 194,-33 268,26 45,30 19,91 -22,111 -92,43 -214,43 -293,-26 -40,-42 3,-95 47,-111z"/>
   <path class="fil5" d="M7882 13515c147,-23 318,-9 431,98 68,61 51,175 -22,227 -134,100 -319,107 -475,60 -92,-27 -199,-106 -176,-216 31,-104 145,-149 242,-169z"/>
   <path class="fil5" d="M5499 15242c122,-114 278,-186 430,-252 104,163 292,254 483,260 73,-5 77,92 130,125 96,27 200,3 297,28 74,63 158,130 185,229 13,68 95,77 147,106 -12,5 -34,15 -46,19 -104,53 -197,123 -284,200 22,4 62,12 82,17 -20,10 -40,21 -60,31 -4,50 -9,98 -13,148 -448,-229 -899,-449 -1346,-680 -45,-14 6,-57 25,-70 -33,-31 -57,-62 4,-75 -20,-23 -66,-50 -34,-86z"/>
  </g>
  <g id="_23fffeffff">
   <path class="fil6" d="M14270 5219c-23,-62 -22,-156 54,-179 81,35 30,177 -54,179z"/>
  </g>
  <path class="fil7" d="M21341 14587c213,-94 411,-220 627,-307 268,107 542,198 810,308 -187,151 -375,301 -546,469 -379,-138 -754,-282 -1133,-420 13,-13 38,-39 51,-50 63,17 130,31 191,0z"/>
  <g id="_232c313cff">
   <path class="fil8" d="M17383 15939c84,10 169,45 229,109 -85,-13 -168,-49 -229,-109z"/>
   <path class="fil8" d="M18724 17338c81,-97 230,-90 309,4 70,103 92,231 66,352 -11,29 -23,57 -36,86 -44,94 -148,142 -249,128 84,-43 181,-80 218,-174 50,-125 33,-272 -51,-378 -66,-57 -154,-50 -210,13 -34,-4 -68,-8 -101,-13 14,-4 41,-14 54,-18z"/>
   <path class="fil8" d="M17990 17707c51,-36 104,-67 161,-88 70,-23 137,20 188,61 77,104 103,238 70,363 -4,15 -11,43 -14,57l-6 18c-53,87 -144,161 -252,132 84,-37 177,-78 211,-172 47,-123 31,-265 -50,-371 -43,-24 -94,-66 -143,-33 -50,32 -107,39 -165,33z"/>
   <path class="fil8" d="M16660 18354c60,-24 117,-55 181,-67 61,-6 114,34 160,71 72,103 98,233 68,355 -10,29 -20,56 -31,83 -43,96 -148,151 -251,133 88,-42 188,-83 222,-183 42,-121 26,-258 -51,-362 -66,-63 -158,-57 -220,7 -25,-13 -52,-25 -78,-37z"/>
  </g>
  <g id="_236b63ffff">
   <path class="fil9" d="M10060 5988c26,-37 96,-38 103,13 21,61 -50,147 -113,100 -21,-34 -18,-83 10,-113z"/>
  </g>
  <g id="_239ea7b8ff">
   <path class="fil10" d="M9868 6078c50,-38 109,27 82,79 -7,47 -71,88 -111,49 -27,-41 -13,-104 29,-128z"/>
  </g>
  <g id="_236d63ffff">
   <g>
    <path class="fil11" d="M14699 7505c79,-16 104,90 91,148 -10,76 -60,184 -151,170 -106,-77 -52,-272 60,-318l0 0zm-65 171c-11,36 23,96 62,64 55,-40 53,-118 21,-172 -43,23 -83,57 -83,108z"/>
   </g>
   <path class="fil11" d="M6220 10881c81,48 95,146 103,232 -36,1 -73,1 -109,1 -3,-78 2,-157 6,-233z"/>
   <path class="fil11" d="M4864 11818c103,290 425,411 699,481 466,105 965,102 1422,-46 221,-75 458,-198 545,-430 -7,148 11,298 -11,444 -52,174 -217,280 -371,355 -362,164 -770,203 -1163,176 -292,-24 -590,-86 -846,-237 -122,-74 -243,-184 -263,-333 -12,-136 5,-274 -12,-410z"/>
   <g>
    <path class="fil11" d="M23814 11873c114,-63 236,7 337,62 262,131 524,261 787,394 32,11 52,40 64,72 -503,264 -1021,502 -1530,756 -724,351 -1444,710 -2171,1056 -71,7 -141,-5 -204,-40 -306,-156 -617,-305 -923,-464 0,-12 -2,-36 -3,-47 63,-50 138,-77 208,-113 1145,-559 2289,-1119 3435,-1676l0 0zm720 461c-31,9 -72,23 -74,62 32,61 111,61 170,57 43,-4 105,-20 104,-74 -49,-57 -133,-57 -200,-45z"/>
   </g>
   <path class="fil11" d="M22148 14185c264,-143 536,-273 803,-411 181,69 366,126 540,210 -185,148 -368,299 -540,462 -233,-79 -459,-170 -689,-254 -37,-14 -77,-26 -114,-7z"/>
   <path class="fil11" d="M12930 17543c-49,-13 -67,-60 -22,-93 33,25 66,49 101,70 1071,535 2140,1074 3212,1608 -1,-120 0,-238 7,-358 -3,123 -3,244 -3,367 261,-133 525,-258 784,-391 -34,100 -134,141 -222,183 -187,81 -365,179 -549,268 -1105,-549 -2205,-1104 -3308,-1654z"/>
   <path class="fil11" d="M18110 18196c77,-43 157,-83 238,-118 -34,94 -127,135 -211,172 -20,10 -40,19 -59,27 10,-27 22,-54 32,-81z"/>
   <path class="fil11" d="M17069 18713c93,-42 183,-89 275,-134 -40,89 -129,133 -212,176 -31,14 -63,27 -94,41 11,-27 21,-54 31,-83z"/>
  </g>
  <g id="_23596170ff">
   <path class="fil12" d="M10542 6762c58,-98 147,-193 265,-209 57,-12 103,28 146,57 -20,30 -42,58 -62,88 -43,-35 -101,-63 -154,-33 -144,75 -229,254 -194,412 20,42 -14,114 -64,99 -48,-139 -7,-291 63,-414z"/>
  </g>
  <g id="_236c63ffff">
   <path class="fil13" d="M10502 8365c17,-6 50,-18 66,-23 -10,131 -52,269 -156,356 -60,53 -155,73 -222,23 -88,-61 -107,-175 -111,-274 15,-4 50,-10 65,-13 12,69 20,150 83,196 58,44 141,11 184,-40 58,-61 71,-147 91,-225z"/>
   <path class="fil13" d="M4830 10082c54,109 136,204 233,278 216,154 483,215 741,263 -5,38 -6,78 -7,118 -13,7 -42,21 -56,28 -57,-40 -103,-121 -180,-112 -32,3 -65,7 -98,7 -245,-56 -465,-198 -619,-396 -30,-55 -10,-126 -14,-186z"/>
   <path class="fil13" d="M7363 10343c83,-55 138,-140 190,-222 5,20 15,62 21,82 -6,43 -21,85 -34,126l-9 -31c-236,296 -625,399 -985,451 -2,-41 -4,-84 -7,-125 290,-29 585,-107 824,-281z"/>
   <path class="fil13" d="M7303 10573c93,-55 170,-133 227,-224 -3,78 0,157 -11,234 -80,209 -291,322 -489,397 -201,76 -417,111 -630,130 2,-95 32,-187 69,-272 2,-5 6,-12 8,-16 289,-24 577,-101 826,-249z"/>
   <path class="fil13" d="M4876 10367c142,183 355,295 573,360 77,24 161,37 222,92 114,99 227,197 345,291 -135,-10 -268,-28 -399,-57 -214,-61 -435,-130 -603,-282 -76,-69 -128,-161 -144,-263 0,-47 3,-95 6,-141z"/>
   <g>
    <path class="fil13" d="M16724 15690c64,-31 124,-68 193,-88 75,-19 146,17 212,50 392,193 788,382 1180,578 53,20 50,80 54,129l-7 2c-292,127 -571,283 -858,421 -490,244 -981,487 -1471,730 -130,57 -269,171 -419,108 -192,-81 -375,-185 -569,-266 -41,-20 -81,-42 -122,-62 -201,-102 -402,-209 -616,-285l-4 -1c1,-32 1,-63 2,-93 35,-27 69,-56 109,-75 772,-381 1544,-766 2316,-1148l0 0zm-1984 1032c-23,4 -70,37 -24,50 454,218 906,443 1362,658 673,-337 1349,-669 2023,-1006 -463,-228 -931,-450 -1394,-678 -657,323 -1311,652 -1967,976l0 0zm2643 -783c61,60 144,96 229,109 -60,-64 -145,-99 -229,-109l0 0zm275 106c-49,10 -19,77 23,58 48,-10 18,-78 -23,-58l0 0zm-2537 1033c-65,2 -136,47 -124,120 51,93 196,89 265,19 54,-90 -64,-151 -141,-139z"/>
   </g>
   <path class="fil13" d="M19099 17694c91,-47 184,-92 278,-132 -41,82 -127,121 -204,164 -36,18 -73,35 -110,54 13,-29 25,-57 36,-86z"/>
   <path class="fil13" d="M18751 17867c93,-46 185,-92 281,-133 -37,94 -134,131 -218,174 -34,17 -69,34 -103,51 15,-30 27,-61 40,-92z"/>
  </g>
  <g id="_23ced2dbff">
   <g>
    <path class="fil14" d="M16123 8560c71,-33 139,-83 219,-94 107,11 194,81 288,127 519,262 1039,520 1557,784 135,74 283,127 409,219 -96,76 -213,117 -319,174 -1231,616 -2462,1229 -3692,1845 -110,51 -213,117 -328,155 5,-13 14,-38 18,-51 662,-352 1342,-667 2003,-1018 -111,-53 -215,-121 -334,-157 -58,7 -108,41 -161,66 -520,263 -1043,524 -1565,785 -4,-20 -14,-61 -18,-83 35,6 71,8 104,-11 101,-47 201,-101 301,-153 -119,-62 -233,-146 -370,-163l-55 -12c82,-41 164,-85 242,-134 -21,-11 -66,-34 -87,-45 13,-5 40,-16 54,-22 43,13 89,44 136,20 109,-45 215,-107 322,-161 -110,-58 -218,-128 -339,-161 -97,28 -181,86 -276,123 -12,-6 -37,-15 -48,-20 47,-25 93,-49 140,-75 -111,-64 -226,-126 -350,-169 -12,-4 -41,-14 -55,-19 41,-21 84,-42 125,-62 12,4 35,14 46,20 -9,8 -24,27 -31,35 95,57 195,109 299,148 33,16 67,-5 98,-17 100,-47 197,-98 294,-152 -97,-49 -191,-100 -289,-144 -39,-23 -83,-3 -123,6 -13,-3 -39,-10 -51,-15 91,-51 186,-98 279,-148 -98,-54 -201,-101 -298,-157 -27,-15 -54,-31 -80,-47 771,-388 1545,-772 2317,-1162 -52,-29 -103,-65 -161,-78 -82,14 -150,63 -223,97 -593,298 -1186,594 -1780,892 -17,-11 -53,-32 -71,-42 620,-304 1234,-618 1853,-924l0 0zm-132 372c102,51 203,108 308,152 45,18 89,-17 129,-32 158,-83 320,-154 474,-244 -117,-53 -226,-141 -353,-157 -190,84 -376,180 -558,281l0 0zm608 87c97,54 195,105 296,150 52,28 103,-10 148,-30 85,-46 176,-82 253,-139 -81,-41 -163,-81 -245,-122 -40,-17 -87,-49 -130,-20 -110,48 -217,105 -322,161l0 0zm-716 -39c-102,49 -204,100 -303,153 25,58 102,64 151,97 71,27 146,101 226,57 103,-51 208,-101 308,-161 -94,-49 -188,-97 -283,-141 -32,-17 -67,-22 -99,-5l0 0zm1383 97c-188,96 -379,188 -566,285 95,60 197,109 299,154 44,25 90,-8 130,-25 182,-93 368,-183 549,-277 -2,-7 -6,-20 -7,-27 -87,-47 -177,-91 -268,-132 -46,-29 -96,2 -137,22l0 0zm-820 16c-90,48 -187,83 -269,145 87,43 172,87 259,130 36,16 76,37 113,16 110,-53 221,-103 323,-170 -98,-48 -195,-101 -296,-145 -44,-26 -90,5 -130,24l0 0zm-983 98c-109,52 -217,106 -322,166 95,51 193,102 293,148 46,27 96,-6 138,-26 89,-44 177,-88 266,-132 -77,-56 -164,-90 -246,-134 -40,-17 -85,-46 -129,-22l0 0zm2208 79c-263,131 -523,262 -784,393 85,66 188,104 283,153 45,27 93,3 133,-17 262,-133 526,-263 787,-397 -96,-62 -201,-111 -307,-156 -38,-20 -78,11 -112,24l0 0zm-1920 174c78,48 161,88 243,128 42,18 90,50 136,21 108,-48 214,-104 319,-161 -113,-57 -221,-129 -343,-161 -124,44 -239,114 -355,173l0 0zm-1037 125c86,47 174,91 264,136 31,12 68,35 104,17 114,-47 221,-110 331,-164 -77,-50 -161,-89 -243,-130 -42,-19 -89,-50 -135,-21 -110,49 -215,105 -321,162l0 0zm1838 -134c-93,49 -191,87 -277,148 111,52 214,119 331,156 130,-36 245,-116 368,-174 -104,-56 -207,-113 -315,-157 -39,-14 -73,14 -107,27l0 0zm1240 171c104,66 214,126 332,164 128,-37 245,-114 365,-175 -111,-56 -218,-124 -337,-160 -128,39 -240,116 -360,171l0 0zm-2466 57c111,51 215,121 333,157 129,-40 244,-114 364,-175 -110,-57 -217,-126 -337,-161 -126,44 -246,109 -360,179l0 0zm-1035 124c117,49 222,131 346,154 121,-45 234,-112 351,-169 -103,-65 -211,-119 -324,-163 -132,33 -256,107 -373,178l0 0zm1823 -132c-88,44 -177,88 -264,134 107,62 217,126 335,162 129,-40 244,-112 364,-174 -97,-53 -194,-102 -292,-147 -49,-28 -100,3 -143,25l0 0zm1253 172c98,50 195,103 297,147 45,23 91,-9 132,-26 83,-44 170,-82 252,-129 -2,-8 -8,-20 -12,-28 -100,-49 -199,-108 -305,-144 -129,39 -248,112 -364,180l0 0zm-2466 49c100,49 198,104 301,148 43,21 87,-9 127,-26 84,-44 171,-83 253,-130 -1,-7 -7,-20 -10,-25 -99,-52 -198,-110 -305,-146 -131,37 -249,112 -366,179l0 0zm1826 -134c-83,44 -168,81 -249,128 -3,53 75,53 109,81 84,30 170,121 264,74 103,-50 204,-102 305,-155 -98,-59 -199,-110 -304,-156 -44,-18 -86,12 -125,28l0 0zm-1304 265c100,51 198,105 301,149 44,22 89,-8 131,-25 82,-44 168,-83 249,-130l2 -17c-99,-60 -206,-113 -314,-154 -131,37 -250,113 -369,177l0 0zm1831 -131c-101,48 -203,98 -302,151 10,47 79,51 114,77 87,31 177,127 274,72 100,-48 197,-101 296,-149 -74,-53 -156,-87 -236,-129 -46,-21 -97,-52 -146,-22l0 0zm-2453 44c-111,50 -222,105 -328,167 116,51 223,134 347,156 122,-45 238,-109 352,-174 -83,-45 -168,-88 -252,-129 -38,-16 -79,-42 -119,-20l0 0zm1506 33c-92,47 -184,91 -274,141 92,54 189,102 289,148 49,30 100,-3 146,-24 88,-46 178,-87 263,-140 -104,-53 -205,-108 -312,-153 -40,-15 -77,13 -112,28l0 0zm-978 98c-113,50 -224,107 -331,168 88,47 178,93 268,137 31,14 68,33 103,14 111,-50 216,-108 326,-161 -77,-58 -168,-93 -252,-137 -36,-15 -76,-41 -114,-21l0 0zm1203 187c0,5 0,17 -2,22 76,43 154,77 231,117 40,17 84,46 127,22 110,-49 217,-107 324,-161 -109,-62 -220,-133 -342,-163 -117,41 -227,107 -338,163l0 0zm-925 68c111,58 219,131 342,163 124,-46 243,-109 356,-179 -81,-42 -162,-82 -244,-122 -42,-20 -89,-50 -135,-22 -108,49 -212,106 -319,160l0 0zm-713 -38c-103,48 -205,99 -305,152 6,50 77,53 112,80 85,28 169,120 261,75 104,-51 211,-98 310,-162 -83,-43 -167,-84 -250,-125 -40,-19 -85,-45 -128,-20l0 0zm1450 61c-113,60 -231,110 -338,178 97,51 194,104 295,148 44,25 91,-5 131,-24 118,-61 238,-118 355,-180 -93,-58 -193,-105 -291,-151 -51,-31 -105,9 -152,29l0 0zm-1161 197c86,42 171,85 257,128 34,16 75,40 114,18 103,-47 205,-97 304,-152 2,-6 8,-17 11,-23 -77,-41 -157,-78 -235,-118 -40,-17 -86,-47 -130,-22 -108,53 -220,102 -321,169l0 0zm-152 67c-91,48 -187,87 -273,145 109,53 213,115 325,155 134,-31 251,-114 374,-174 -98,-52 -197,-104 -298,-149 -44,-24 -88,4 -128,23l0 0zm-699 350c93,62 193,106 292,153 45,27 93,-2 134,-22 92,-47 184,-91 274,-142 -87,-47 -175,-91 -265,-134 -31,-14 -68,-37 -103,-19 -114,49 -221,110 -332,164z"/>
   </g>
  </g>
  <g id="_237878ffff">
   <path class="fil15" d="M5064 9616c292,-195 650,-262 996,-282 399,-14 814,31 1172,218 127,68 248,161 311,294 48,112 47,239 31,357 -6,-20 -16,-62 -21,-82 -52,82 -107,167 -190,222 -239,174 -534,252 -824,281 -3,-21 -10,-61 -13,-83 280,-37 566,-107 796,-279 97,-77 184,-195 154,-327 -43,-166 -201,-263 -347,-335 -372,-171 -792,-199 -1196,-168 -279,29 -565,93 -803,250 -102,71 -210,169 -207,305 -4,114 73,209 157,276 212,159 474,231 732,270 -1,23 -7,67 -8,90 -258,-48 -525,-109 -741,-263 -97,-74 -179,-169 -233,-278 -37,-191 80,-365 234,-466z"/>
  </g>
  <g id="_235554d4ff">
   <path class="fil16" d="M5130 9682c238,-157 524,-221 803,-250 404,-31 824,-3 1196,168 146,72 304,169 347,335 30,132 -57,250 -154,327 -364,-231 -810,-290 -1233,-278 -351,16 -710,85 -1009,279 -84,-67 -161,-162 -157,-276 -3,-136 105,-234 207,-305z"/>
  </g>
  <g id="_23bdc4cfff">
   <path class="fil17" d="M10157 11541c1367,-693 2743,-1372 4113,-2057 18,10 54,31 71,42 -1367,687 -2738,1367 -4103,2060 15,10 43,31 57,43 -52,-4 -155,-16 -138,-88z"/>
  </g>
  <g id="_23bdc4ceff">
   <g>
    <path class="fil18" d="M10609 11572c1193,-599 2386,-1196 3579,-1795 26,16 53,32 80,47 -150,6 -271,111 -403,168 105,59 211,123 326,162 32,-8 63,-16 96,-25 12,5 38,12 51,15 -80,47 -161,91 -248,124 -11,-6 -34,-16 -46,-20 32,-17 63,-36 96,-53 -113,-57 -218,-130 -341,-161 -127,41 -241,114 -359,172 107,59 214,123 331,161 52,-10 99,-35 148,-57 14,5 43,15 55,19 -116,61 -236,117 -350,182 110,56 214,124 333,160 82,-16 151,-66 227,-98 11,5 36,14 48,20 -24,17 -61,28 -68,61 74,41 151,77 225,118 -14,6 -41,17 -54,22 -84,-36 -161,-87 -249,-112 -130,39 -243,116 -364,174 110,57 217,127 338,161 41,-11 80,-28 120,-44l55 12c-107,65 -222,114 -329,178 97,50 197,100 294,149 4,22 14,63 18,83 -114,59 -228,113 -340,173 128,57 249,176 397,151 -4,13 -13,38 -18,51 -582,311 -1182,593 -1769,894 -70,43 -153,23 -218,-14 -578,-293 -1155,-582 -1732,-874 -79,-46 -171,-70 -233,-140 107,60 210,-19 304,-64l0 0zm2408 -1146c99,48 196,102 297,147 45,21 89,-8 129,-26 90,-46 182,-88 269,-141 -108,-57 -215,-123 -332,-160 -130,40 -248,110 -363,180l0 0zm-136 58c-98,49 -197,96 -292,151 100,53 199,107 304,151 37,19 77,-4 111,-18 94,-51 194,-91 282,-151 -100,-52 -200,-107 -304,-150 -34,-18 -69,4 -101,17l0 0zm318 240c94,54 191,102 291,148 48,28 100,-4 144,-26 88,-45 181,-84 262,-139 -113,-53 -217,-123 -335,-157 -128,41 -242,114 -362,174l0 0zm-703 -44c-112,49 -221,109 -330,165 78,51 165,88 248,131 37,16 78,44 118,24 113,-51 225,-105 331,-169 -90,-47 -180,-93 -271,-137 -30,-13 -64,-32 -96,-14l0 0zm277 256c95,54 194,106 295,150 43,25 88,-2 128,-20 93,-47 188,-89 274,-147 -81,-43 -164,-84 -247,-124 -40,-19 -85,-47 -128,-20 -110,48 -215,106 -322,161l0 0zm-1018 113c1,7 4,18 6,24 92,51 186,97 282,140 34,18 73,-3 104,-16 97,-49 194,-98 289,-147 -108,-64 -219,-132 -339,-164 -120,40 -229,109 -342,163l0 0zm1544 24c84,44 169,87 255,130 34,14 74,40 113,18 112,-47 218,-107 327,-162 -77,-53 -162,-89 -245,-131 -41,-19 -87,-47 -131,-20 -110,49 -218,102 -319,165l0 0zm-682 -63c-89,49 -185,86 -268,146 100,47 196,101 297,145 46,26 91,-9 133,-26 88,-48 185,-82 265,-145 -99,-47 -194,-101 -295,-144 -45,-26 -90,7 -132,24l0 0zm-1301 263c81,48 168,89 252,132 40,17 84,41 127,16 107,-49 210,-106 315,-157 -104,-67 -216,-128 -335,-165 -125,42 -242,112 -359,174l0 0zm1827 -130c-89,48 -185,85 -269,144 86,44 171,87 257,129 35,15 75,40 114,18 111,-49 218,-106 326,-164 -95,-56 -195,-106 -298,-150 -44,-26 -90,4 -130,23l0 0zm-1218 218c102,64 212,118 326,162 133,-32 250,-115 372,-174 -114,-55 -222,-132 -346,-159 -123,43 -235,114 -352,171l0 0zm1886 -154c-113,50 -223,107 -330,168 99,51 197,104 300,150 41,21 84,-6 121,-22 92,-48 189,-88 276,-148 -85,-44 -171,-87 -256,-130 -34,-15 -74,-37 -111,-18l0 0zm-2923 278c112,58 220,128 341,161 125,-41 240,-113 358,-171 -79,-51 -164,-90 -247,-131 -43,-19 -90,-47 -135,-19 -107,50 -213,104 -317,160l0 0zm1561 7c93,63 196,107 295,154 42,23 87,-3 124,-20 94,-47 187,-94 280,-144 -87,-48 -177,-93 -265,-135 -33,-16 -72,-37 -107,-17 -112,48 -218,108 -327,162l0 0zm-634 -77c-106,49 -210,104 -315,157 74,54 160,88 241,130 40,18 85,48 131,25 110,-51 219,-107 326,-165 -92,-50 -185,-97 -279,-141 -31,-19 -70,-26 -104,-6l0 0zm1241 173c86,47 174,91 263,134 34,15 74,35 111,15 110,-48 217,-108 324,-161 -103,-64 -213,-121 -327,-164 -131,32 -249,114 -371,176l0 0zm-2592 109c111,59 221,133 345,161 122,-44 235,-112 352,-169 -77,-53 -164,-90 -247,-131 -40,-20 -86,-47 -130,-22 -108,50 -214,107 -320,161l0 0zm1560 6c75,57 162,90 243,133 40,17 85,47 129,24 110,-50 220,-106 325,-167 -112,-53 -219,-127 -340,-158 -126,41 -237,114 -357,168l0 0zm-698 -46c-154,83 -315,151 -465,241 97,52 196,103 297,147 45,26 92,-7 135,-26 157,-79 317,-158 475,-238 -87,-67 -191,-105 -288,-154 -53,-29 -107,9 -154,30l0 0zm2376 -4c-125,66 -255,124 -378,195 115,53 221,130 343,159 164,-66 322,-150 476,-236 -80,-65 -184,-98 -274,-146 -56,-36 -115,4 -167,28l0 0zm-1069 146c104,59 211,118 325,161 133,-33 252,-112 371,-177 -114,-53 -221,-131 -344,-157 -124,44 -236,113 -352,173l0 0zm-801 1c-190,103 -391,184 -573,298 104,48 202,108 309,150 40,17 77,-15 113,-28 204,-104 409,-202 613,-307 -91,-63 -194,-107 -294,-154 -58,-30 -115,18 -168,41l0 0zm-175 485c91,62 194,108 295,155 44,24 90,-7 131,-24 274,-140 549,-274 821,-415 -108,-61 -220,-130 -339,-164 -310,134 -606,301 -908,448l0 0zm1243 -226c97,55 195,106 296,150 43,24 87,-3 126,-20 92,-48 189,-88 276,-147 -85,-44 -171,-87 -255,-128 -37,-16 -78,-43 -118,-19 -111,49 -218,109 -325,164l0 0zm-170 82c-84,47 -177,77 -251,139 81,40 161,80 242,120 40,17 85,47 129,23 110,-49 215,-107 323,-161 -94,-60 -195,-107 -295,-153 -51,-28 -102,13 -148,32l0 0zm-420 211c-87,45 -179,81 -258,139 111,52 215,117 330,156 129,-42 250,-107 364,-181 -97,-46 -190,-99 -288,-141 -52,-32 -103,5 -148,27z"/>
   </g>
   <g>
    <path class="fil18" d="M9651 11434c64,40 130,78 198,112 928,472 1858,941 2786,1414 229,110 450,240 685,337 29,54 36,114 34,174 -728,-377 -1464,-742 -2195,-1117 -473,-239 -946,-480 -1420,-721 -58,-23 -96,-75 -91,-138 0,-16 2,-46 3,-61l0 0zm606 412c-9,-72 -86,-90 -140,-119 -28,81 81,107 140,119l0 0zm77 -2c-12,83 85,97 141,124 6,-83 -83,-97 -141,-124z"/>
   </g>
   <path class="fil18" d="M13614 13459c187,90 370,187 556,280 -5,44 -9,89 -13,135 -184,-87 -362,-185 -546,-274 0,-47 1,-94 3,-141z"/>
  </g>
  <g id="_235454d3ff">
   <path class="fil19" d="M4844 10268c154,198 374,340 619,396 33,0 66,-4 98,-7 173,174 368,322 556,477 283,224 598,446 967,478 149,21 293,-27 440,-44 -176,98 -387,98 -581,61 -194,-37 -377,-126 -542,-232 -27,-18 -53,-35 -77,-52 -26,-18 -51,-37 -77,-55 -36,-29 -73,-56 -110,-83 -40,-31 -81,-64 -121,-97 -118,-94 -231,-192 -345,-291 -61,-55 -145,-68 -222,-92 -218,-65 -431,-177 -573,-360 -14,-32 -22,-67 -32,-99z"/>
  </g>
  <g id="_235856d9ff">
   <path class="fil20" d="M6546 10749c360,-52 749,-155 985,-451l9 31 -10 20c-57,91 -134,169 -227,224 -249,148 -537,225 -826,249 10,-23 20,-44 31,-67l38 -6z"/>
  </g>
  <g id="_23e9eef4ff">
   <path class="fil21" d="M7030 10980c198,-75 409,-188 489,-397 12,81 25,164 17,246 -3,27 -6,56 -7,83 2,21 7,61 10,81 -6,158 -9,315 -2,472 -182,117 -412,104 -614,56 -188,-47 -364,-136 -526,-243 1,-55 1,-112 3,-168 213,-19 429,-54 630,-130z"/>
   <path class="fil21" d="M5570 11070c11,-4 36,-13 47,-17 131,29 264,47 399,57 40,33 81,66 121,97 3,46 2,93 12,138 44,14 68,-34 98,-55 26,18 51,37 77,55 0,205 -7,411 4,616 90,-6 67,-103 72,-165 -2,-133 -3,-267 1,-399 165,106 348,195 542,232 194,37 405,37 581,-61l7 -5c3,86 13,174 -1,260 -87,232 -324,355 -545,430 -457,148 -956,151 -1422,46 7,-409 -12,-820 7,-1229z"/>
  </g>
  <g id="_23d9dee5ff">
   <path class="fil22" d="M20162 10896c180,-91 370,-169 538,-283 -13,62 20,158 -56,188 -490,251 -986,490 -1475,741 -1551,768 -3096,1545 -4644,2318 -114,60 -251,70 -368,14 4,-46 8,-91 13,-135 88,24 185,41 273,11 75,-27 143,-66 213,-100 688,-345 1375,-690 2062,-1032 75,-38 86,-140 164,-172 392,-196 784,-394 1175,-590 70,-38 148,-36 225,-45 93,-8 171,-64 253,-102 541,-273 1086,-541 1627,-813z"/>
  </g>
  <g id="_237778feff">
   <path class="fil23" d="M5561 10657c77,-9 123,72 180,112 24,25 56,40 86,56 2,1 7,6 10,7 119,114 250,214 379,315 35,29 71,56 108,81 24,17 49,35 73,50 162,107 338,196 526,243 202,48 432,61 614,-56 71,-54 107,-138 111,-228 32,-123 -38,-240 -119,-325 1,-27 4,-56 7,-83 94,130 186,277 179,444 2,121 -81,230 -184,290l-7 5c-147,17 -291,65 -440,44 -369,-32 -684,-254 -967,-478 -188,-155 -383,-303 -556,-477z"/>
  </g>
  <g id="_235756d7ff">
   <path class="fil24" d="M5741 10769c14,-7 43,-21 56,-28l21 6c3,19 7,58 9,78 -30,-16 -62,-31 -86,-56z"/>
  </g>
  <g id="_23d790bfff">
   <path class="fil25" d="M5818 10747c230,22 460,37 690,8 -11,23 -21,44 -31,67 -2,4 -6,11 -8,16 -211,-10 -421,-15 -632,-6 -3,-1 -8,-6 -10,-7 -2,-20 -6,-59 -9,-78z"/>
  </g>
  <g id="_236262daff">
   <path class="fil26" d="M7529 10912c81,85 151,202 119,325 -25,-86 -64,-167 -109,-244 -3,-20 -8,-60 -10,-81z"/>
  </g>
  <g id="_23e3e4f3ff">
   <path class="fil27" d="M6214 11114c36,0 73,0 109,-1 1,38 1,77 1,115 -37,-25 -73,-52 -108,-81l-2 -33z"/>
  </g>
  <g id="_23eba8dbff">
   <path class="fil28" d="M6137 11207c37,27 74,54 110,83 -30,21 -54,69 -98,55 -10,-45 -9,-92 -12,-138z"/>
  </g>
  <g id="_23ecedf1ff">
   <path class="fil29" d="M11159 12354c731,375 1467,740 2195,1117 -5,527 3,1054 -4,1582 -70,-61 -132,-133 -217,-176 -109,-45 -230,-48 -347,-48 -169,-110 -357,-185 -533,-279 -729,-388 -1476,-739 -2206,-1125 -121,-61 -246,-117 -360,-191 -62,-39 -23,-121 32,-143 384,-192 769,-382 1151,-575 100,-48 204,-90 289,-162zm3366 1506c1548,-773 3093,-1550 4644,-2318 455,235 919,455 1371,698 57,35 148,52 158,132 -12,38 -47,62 -81,81 -1981,989 -3963,1980 -5944,2970 -113,52 -220,134 -349,124 -194,-5 -344,-142 -516,-211 -9,28 -19,53 -27,80 2,-98 -26,-208 -114,-262 -57,-28 -122,-37 -183,-53 -4,-519 -1,-1037 4,-1555l15 0c12,264 -7,529 8,793 -4,51 97,44 93,-6 16,-244 0,-488 7,-733 184,89 362,187 546,274 117,56 254,46 368,-14z"/>
  </g>
  <g id="_23d3d9e2ff">
   <path class="fil30" d="M24534 12334c67,-12 151,-12 200,45 1,54 -61,70 -104,74 -59,4 -138,4 -170,-57 2,-39 43,-53 74,-62z"/>
  </g>
  <g id="_23eceff4ff">
   <g>
    <path class="fil31" d="M23472 13157c509,-254 1027,-492 1530,-756 -4,236 -10,471 -3,705 0,51 3,102 -10,152 -492,250 -991,488 -1485,731l-13 -5c-174,-84 -359,-141 -540,-210 -267,138 -539,268 -803,411 -58,35 -117,71 -180,95 -216,87 -414,213 -627,307 -61,31 -128,17 -191,0 -45,-33 -88,-67 -132,-102 58,18 117,36 175,55 44,-20 88,-40 133,-59 -56,-7 -112,-15 -167,-21 18,-7 57,-22 75,-29 -3,-62 -4,-125 -5,-188 24,-10 48,-20 72,-30 727,-346 1447,-705 2171,-1056l0 0zm868 -71c-144,75 -295,137 -427,233 -50,-21 -96,18 -140,36 -221,116 -449,218 -666,341 167,63 333,127 501,185 179,-158 366,-306 543,-467l-26 -10c140,-89 261,-201 388,-308 75,-66 160,-121 221,-201 -137,51 -261,128 -394,191z"/>
   </g>
  </g>
  <g id="_23fefefeff">
   <path class="fil32" d="M24340 13086c133,-63 257,-140 394,-191 -61,80 -146,135 -221,201 -127,107 -248,219 -388,308 -70,-33 -140,-62 -212,-85 132,-96 283,-158 427,-233z"/>
  </g>
  <g id="_23cec0d2ff">
   <path class="fil33" d="M13477 13473c-9,-17 9,-99 33,-52 14,41 0,84 -7,125l-15 0c-2,-18 -8,-54 -11,-73z"/>
  </g>
  <g id="_23d2d9e2ff">
   <g>
    <path class="fil34" d="M20174 13709c306,159 617,308 923,464 63,35 133,47 204,40 -24,10 -48,20 -72,30 1,63 2,126 5,188 -18,7 -57,22 -75,29 55,6 111,14 167,21 -45,19 -89,39 -133,59 -58,-19 -117,-37 -175,-55 44,35 87,69 132,102 -13,11 -38,37 -51,50 -40,20 -81,37 -123,54 -17,47 -35,94 -52,141 154,68 319,107 466,189 -40,-5 -80,-10 -120,-15 -27,18 -54,37 -80,55 -335,-178 -681,-336 -1015,-516 -13,-151 16,-303 -5,-454 172,72 332,179 514,232 -157,-115 -345,-172 -509,-275 7,-113 -8,-227 -1,-339l0 0zm65 286c94,63 201,103 301,154 86,41 167,96 262,113 -94,-57 -195,-102 -293,-151 -87,-43 -171,-97 -270,-116z"/>
   </g>
  </g>
  <g id="_23c5cdd8ff">
   <path class="fil35" d="M9027 14367c101,-68 142,-191 175,-302 27,171 -23,362 -154,480 -152,106 -339,140 -510,201 -307,114 -606,250 -885,421 -40,-67 -52,-160 25,-205 213,-143 448,-246 683,-343 215,-102 462,-122 666,-252z"/>
  </g>
  <g id="_23f7f7f7ff">
   <path class="fil36" d="M22148 14185c37,-19 77,-7 114,7 230,84 456,175 689,254 -32,69 -100,108 -161,148l-12 -6c-268,-110 -542,-201 -810,-308 63,-24 122,-60 180,-95z"/>
   <path class="fil36" d="M20976 14691c42,-17 83,-34 123,-54 379,138 754,282 1133,420 -73,116 -212,227 -356,174 -147,-53 -291,-113 -438,-164 -81,-36 -167,20 -248,-6 26,-18 53,-37 80,-55 40,5 80,10 120,15 -147,-82 -312,-121 -466,-189 17,-47 35,-94 52,-141z"/>
  </g>
  <g id="_239fa7b9ff">
   <path class="fil37" d="M8640 14216c79,-30 184,-36 248,27 10,34 -15,63 -45,73 -73,31 -163,30 -230,-12 -37,-31 -8,-72 27,-88z"/>
  </g>
  <g id="_239ea7b9ff">
   <path class="fil38" d="M6150 14882c44,-24 87,-57 137,-67 462,231 921,466 1386,691l0 0c-48,26 -92,56 -136,84 -6,-3 -17,-10 -23,-13 -449,-242 -916,-451 -1364,-695z"/>
  </g>
  <g id="_23f0f1f5ff">
   <g>
    <path class="fil39" d="M15329 15767c633,-318 1267,-637 1904,-952 59,137 96,288 198,400 93,110 231,161 355,224 751,376 1504,751 2255,1128 86,44 177,78 253,138 -85,58 -176,107 -274,135 -71,-77 -183,-89 -272,-40 -33,13 -66,30 -94,53 29,37 78,43 115,13 63,-53 145,-53 205,6 -80,45 -162,87 -248,125 -75,-88 -201,-98 -296,-35 -27,12 -54,24 -82,35 32,41 89,60 129,19 54,-54 131,-50 188,-3 -84,61 -177,112 -270,159 -45,-42 -99,-88 -166,-85 -79,-1 -139,51 -197,95 104,35 198,-94 294,-4 -86,74 -190,118 -293,164 -79,-94 -228,-101 -309,-4 -13,4 -40,14 -54,18 33,5 67,9 101,13 56,-63 144,-70 210,-13 -93,67 -196,119 -301,161 -46,-38 -98,-78 -161,-78 -64,6 -120,41 -177,67 3,13 9,37 11,50 59,-10 110,-37 164,-59 37,0 67,25 100,40 -82,66 -177,114 -278,143 -51,-41 -118,-84 -188,-61 -57,21 -110,52 -161,88 58,6 115,-1 165,-33 49,-33 100,9 143,33 -81,50 -165,94 -252,134 -40,-33 -80,-68 -132,-76 -69,-12 -131,30 -192,57 -1,12 -7,33 -9,45 16,0 49,3 66,4 60,-54 140,-68 205,-14 -87,57 -178,107 -269,155 -41,-34 -84,-74 -140,-80 -81,-11 -148,44 -216,82 28,8 57,19 86,29 26,-21 52,-42 77,-64 42,10 85,22 123,40 -87,77 -195,124 -305,161 -40,-28 -81,-62 -131,-65 -77,-9 -144,40 -205,80 95,61 183,-79 275,4 -77,77 -178,120 -278,159 -46,-37 -99,-77 -160,-71 -64,12 -121,43 -181,67 26,12 53,24 78,37 62,-64 154,-70 220,-7 -242,123 -488,242 -728,368 -847,-421 -1690,-845 -2535,-1267 -78,-40 -150,-89 -221,-139 -26,-20 -50,-40 -74,-59 -84,-132 -150,-276 -249,-395 27,-27 54,-54 88,-70 519,-258 1035,-525 1555,-778 173,-105 362,-173 535,-277l0 0zm1395 -77c-772,382 -1544,767 -2316,1148 -40,19 -74,48 -109,75 -1,30 -1,61 -2,93l4 1c13,51 40,103 93,121 393,191 786,384 1183,570 144,67 295,-12 423,-79 747,-372 1495,-743 2241,-1116 61,-26 101,-79 115,-142l7 -2c-4,-49 -1,-109 -54,-129 -392,-196 -788,-385 -1180,-578 -66,-33 -137,-69 -212,-50 -69,20 -129,57 -193,88z"/>
   </g>
  </g>
  <g id="_23e9edf4ff">
   <path class="fil40" d="M6140 14877l10 5c448,244 915,453 1364,695 -111,63 -225,117 -343,161 -52,-29 -134,-38 -147,-106 -27,-99 -111,-166 -185,-229 -97,-25 -201,-1 -297,-28 -53,-33 -57,-130 -130,-125 -191,-6 -379,-97 -483,-260 74,-31 146,-67 211,-113z"/>
  </g>
  <g id="_23c5ced7ff">
   <path class="fil41" d="M7673 15506c31,-13 64,-24 96,-36 3,53 6,106 10,160 -29,14 -59,30 -89,46 -3,-57 -10,-114 -17,-170l0 0z"/>
  </g>
  <g id="_23828d9fff">
   <path class="fil42" d="M7537 15590c44,-28 88,-58 136,-84 7,56 14,113 17,170l1 17c-53,23 -104,47 -157,70 2,-57 3,-114 3,-173z"/>
  </g>
  <g id="_23d690bfff">
   <path class="fil43" d="M6841 15957c87,-77 180,-147 284,-200 23,63 49,125 76,187 -106,88 -237,134 -351,209 4,-50 9,-98 13,-148 20,-10 40,-21 60,-31 -20,-5 -60,-13 -82,-17z"/>
  </g>
  <g id="_234a4897ff">
   <path class="fil44" d="M17658 16045c41,-20 71,48 23,58 -42,19 -72,-48 -23,-58z"/>
  </g>
  <g id="_235656d8ff">
   <path class="fil45" d="M17498 16782c287,-138 566,-294 858,-421 -14,63 -54,116 -115,142 -746,373 -1494,744 -2241,1116 -128,67 -279,146 -423,79 -397,-186 -790,-379 -1183,-570 -53,-18 -80,-70 -93,-121 214,76 415,183 616,285 -10,9 -30,26 -40,34 50,33 102,60 157,85 1,-15 4,-43 5,-57 194,81 377,185 569,266 150,63 289,-51 419,-108 490,-243 981,-486 1471,-730z"/>
  </g>
  <g id="_23e4e8efff">
   <path class="fil46" d="M20294 16705l12 -9c6,120 -15,244 19,362 -69,60 -153,99 -234,137 21,-122 4,-253 -71,-355 98,-28 189,-77 274,-135z"/>
   <path class="fil46" d="M19726 16997c86,-38 168,-80 248,-125 79,104 90,245 44,366 -77,36 -152,73 -228,108 29,-121 2,-246 -64,-349z"/>
   <path class="fil46" d="M19665 17013c85,104 101,246 57,372 -90,43 -178,87 -268,131 24,-118 4,-241 -59,-344 93,-47 186,-98 270,-159z"/>
   <path class="fil46" d="M19326 17178c88,107 108,257 51,384 -94,40 -187,85 -278,132 26,-121 4,-249 -66,-352 103,-46 207,-90 293,-164z"/>
   <path class="fil46" d="M18981 17356c84,106 101,253 51,378 -96,41 -188,87 -281,133 17,-121 -1,-248 -71,-350 105,-42 208,-94 301,-161z"/>
   <path class="fil46" d="M18617 17537c79,102 116,248 52,365 -75,67 -174,93 -260,141 33,-125 7,-259 -70,-363 101,-29 196,-77 278,-143z"/>
   <path class="fil46" d="M18046 17841c87,-40 171,-84 252,-134 81,106 97,248 50,371 -81,35 -161,75 -238,118 28,-123 4,-251 -64,-355z"/>
   <path class="fil46" d="M17984 17857c86,107 107,256 49,382 -87,34 -171,77 -255,118 21,-118 2,-242 -63,-345 91,-48 182,-98 269,-155z"/>
   <path class="fil46" d="M17645 18019c88,104 111,251 60,378 -97,46 -193,95 -288,142 18,-125 1,-256 -77,-359 110,-37 218,-84 305,-161z"/>
   <path class="fil46" d="M17279 18199c94,102 111,252 65,380 -92,45 -182,92 -275,134 30,-122 4,-252 -68,-355 100,-39 201,-82 278,-159z"/>
   <path class="fil46" d="M16230 18752c240,-126 486,-245 728,-368 77,104 93,241 51,362 -259,133 -523,258 -784,391 0,-123 0,-244 3,-367l2 -18z"/>
  </g>
  <g id="_23413e78ff">
   <path class="fil47" d="M19748 16800c89,-49 201,-37 272,40 75,102 92,233 71,355 -10,27 -18,54 -30,83 -45,94 -148,157 -254,133 80,-43 172,-85 211,-173 46,-121 35,-262 -44,-366 -60,-59 -142,-59 -205,-6 -14,0 -41,0 -56,0 9,-17 26,-50 35,-66z"/>
  </g>
  <g id="_23a0a6bbff">
   <path class="fil48" d="M19654 16853c28,-23 61,-40 94,-53 -9,16 -26,49 -35,66 15,0 42,0 56,0 -37,30 -86,24 -115,-13z"/>
  </g>
  <g id="_23d5d9e2ff">
   <path class="fil49" d="M13061 16949c30,-20 60,-39 90,-57 99,119 165,263 249,395 -111,-82 -210,-179 -302,-280 -14,-18 -26,-38 -37,-58z"/>
  </g>
  <g id="_2348457eff">
   <path class="fil50" d="M19430 16962c95,-63 221,-53 296,35 66,103 93,228 64,349 -11,32 -24,62 -37,92 -45,95 -152,146 -256,126 87,-44 181,-89 225,-179 44,-126 28,-268 -57,-372 -57,-47 -134,-51 -188,3 -15,3 -40,8 -54,10 2,-16 5,-47 7,-64z"/>
   <path class="fil50" d="M17359 18014c68,-38 135,-93 216,-82 56,6 99,46 140,80 65,103 84,227 63,345 -9,27 -18,54 -27,81 -48,93 -149,163 -256,134 82,-42 169,-88 210,-175 51,-127 28,-274 -60,-378 -38,-18 -81,-30 -123,-40 -25,22 -51,43 -77,64 -29,-10 -58,-21 -86,-29z"/>
  </g>
  <g id="_23a1a8bbff">
   <path class="fil51" d="M19348 16997c28,-11 55,-23 82,-35 -2,17 -5,48 -7,64 14,-2 39,-7 54,-10 -40,41 -97,22 -129,-19z"/>
  </g>
  <g id="_23a5afbfff">
   <path class="fil52" d="M12944 17086c51,-28 103,-53 154,-79 92,101 191,198 302,280 24,19 48,39 74,59 -107,-2 -188,-77 -279,-121 -86,-43 -174,-82 -251,-139z"/>
  </g>
  <g id="_23d5dae2ff">
   <path class="fil53" d="M12931 17077l13 9c77,57 165,96 251,139 91,44 172,119 279,121 71,50 143,99 221,139 845,422 1688,846 2535,1267l-2 18c-7,120 -8,238 -7,358 -1072,-534 -2141,-1073 -3212,-1608 -35,-21 -68,-45 -101,-70 30,-122 6,-249 23,-373z"/>
  </g>
  <g id="_238585ffff">
   <path class="fil54" d="M15121 17078c77,-12 195,49 141,139 -69,70 -214,74 -265,-19 -12,-73 59,-118 124,-120z"/>
  </g>
  <g id="_237970f9ff">
   <path class="fil55" d="M20091 17195c81,-38 165,-77 234,-137 8,16 24,47 33,63 -90,67 -197,106 -297,157 12,-29 20,-56 30,-83z"/>
  </g>
  <g id="_2349477fff">
   <path class="fil56" d="M19032 17182c58,-44 118,-96 197,-95 67,-3 121,43 166,85 63,103 83,226 59,344 -9,27 -19,54 -30,81 -47,90 -145,158 -251,129 77,-43 163,-82 204,-164 57,-127 37,-277 -51,-384 -96,-90 -190,39 -294,4z"/>
  </g>
  <g id="_236b63edff">
   <path class="fil57" d="M19790 17346c76,-35 151,-72 228,-108 -39,88 -131,130 -211,173 -18,8 -35,18 -54,27 13,-30 26,-60 37,-92z"/>
  </g>
  <g id="_23343859ff">
   <path class="fil58" d="M14877 17326c10,-8 30,-25 40,-34 41,20 81,42 122,62 -1,14 -4,42 -5,57 -55,-25 -107,-52 -157,-85z"/>
  </g>
  <g id="_236e66f0ff">
   <path class="fil59" d="M19454 17516c90,-44 178,-88 268,-131 -44,90 -138,135 -225,179 -25,12 -49,22 -73,33 11,-27 21,-54 30,-81z"/>
  </g>
  <g id="_23574fb2ff">
   <path class="fil60" d="M18342 17506c57,-26 113,-61 177,-67 63,0 115,40 161,78 70,102 88,229 71,350 -13,31 -25,62 -40,92 -55,124 -196,143 -316,141 3,-14 10,-42 14,-57 86,-48 185,-74 260,-141 64,-117 27,-263 -52,-365 -33,-15 -63,-40 -100,-40 -54,22 -105,49 -164,59 -2,-13 -8,-37 -11,-50z"/>
  </g>
  <g id="_234a4780ff">
   <path class="fil61" d="M17722 17822c61,-27 123,-69 192,-57 52,8 92,43 132,76 68,104 92,232 64,355 -10,27 -22,54 -32,81 -47,96 -151,153 -256,129 80,-42 171,-80 211,-167 58,-126 37,-275 -49,-382 -65,-54 -145,-40 -205,14 -17,-1 -50,-4 -66,-4 2,-12 8,-33 9,-45z"/>
  </g>
  <g id="_234a477fff">
   <path class="fil62" d="M17004 18195c61,-40 128,-89 205,-80 50,3 91,37 131,65 78,103 95,234 77,359 -10,26 -19,53 -29,80 -45,94 -148,166 -256,136 83,-43 172,-87 212,-176 46,-128 29,-278 -65,-380 -92,-83 -180,57 -275,-4z"/>
  </g>
  <g id="_23746cf7ff">
   <path class="fil63" d="M17778 18357c84,-41 168,-84 255,-118 -40,87 -131,125 -211,167 -24,11 -49,21 -71,32 9,-27 18,-54 27,-81z"/>
  </g>
  <g id="_23736bf3ff">
   <path class="fil64" d="M17417 18539c95,-47 191,-96 288,-142 -41,87 -128,133 -210,175 -35,17 -71,32 -107,47 10,-27 19,-54 29,-80z"/>
  </g>
 </g>
</svg>
