<?xml version="1.0" encoding="UTF-8"?>
<!DOCTYPE svg PUBLIC "-//W3C//DTD SVG 1.1//EN" "http://www.w3.org/Graphics/SVG/1.1/DTD/svg11.dtd">
<!-- Creator: CorelDRAW X8 -->
<svg xmlns="http://www.w3.org/2000/svg" xml:space="preserve" width="297mm" height="210mm" version="1.1" style="shape-rendering:geometricPrecision; text-rendering:geometricPrecision; image-rendering:optimizeQuality; fill-rule:evenodd; clip-rule:evenodd"
viewBox="0 0 29700 21000"
 xmlns:xlink="http://www.w3.org/1999/xlink">
 <defs>
  <style type="text/css">
   <![CDATA[
    .str0 {stroke:#2B2A29;stroke-width:20}
    .fil126 {fill:none}
    .fil124 {fill:#2B2A29}
    .fil35 {fill:#1C3E7D}
    .fil3 {fill:#304677}
    .fil44 {fill:#325AB1}
    .fil43 {fill:#3369D6}
    .fil45 {fill:#365FB5}
    .fil2 {fill:#394C88}
    .fil91 {fill:#3B4F8A}
    .fil65 {fill:#469BB5}
    .fil127 {fill:#4C4C4C}
    .fil17 {fill:#50659B}
    .fil27 {fill:#59686F}
    .fil57 {fill:#5DB9E3}
    .fil19 {fill:#647480}
    .fil21 {fill:#647780}
    .fil132 {fill:#666567}
    .fil39 {fill:#67687A}
    .fil26 {fill:#67767C}
    .fil106 {fill:#68757B}
    .fil104 {fill:#68767B}
    .fil71 {fill:#69787E}
    .fil70 {fill:#697E8F}
    .fil107 {fill:#6B787D}
    .fil103 {fill:#6C7A7E}
    .fil28 {fill:#6C7B81}
    .fil75 {fill:#6E7D83}
    .fil109 {fill:#6F7D81}
    .fil48 {fill:#6F85B5}
    .fil101 {fill:#707E85}
    .fil8 {fill:#717385}
    .fil102 {fill:#717E83}
    .fil72 {fill:#717F86}
    .fil49 {fill:#718AA4}
    .fil15 {fill:#727486}
    .fil80 {fill:#72899F}
    .fil110 {fill:#758287}
    .fil47 {fill:#7A888F}
    .fil13 {fill:#7C919F}
    .fil37 {fill:#7D8B92}
    .fil50 {fill:#7E8B93}
    .fil22 {fill:#7F8D93}
    .fil64 {fill:#7F8D94}
    .fil51 {fill:#7F8D95}
    .fil30 {fill:#818F96}
    .fil33 {fill:#818F97}
    .fil117 {fill:#838F93}
    .fil74 {fill:#849399}
    .fil118 {fill:#859195}
    .fil4 {fill:#878B9E}
    .fil79 {fill:#87959D}
    .fil119 {fill:#899599}
    .fil14 {fill:#8A2855}
    .fil10 {fill:#8EA5C1}
    .fil11 {fill:#8EAFDB}
    .fil122 {fill:#8EB0DA}
    .fil120 {fill:#8F999D}
    .fil123 {fill:#90B2DB}
    .fil60 {fill:#939D9F}
    .fil128 {fill:#949FA1}
    .fil121 {fill:#94B5DD}
    .fil116 {fill:#959596}
    .fil82 {fill:#95A3AA}
    .fil87 {fill:#969798}
    .fil108 {fill:#97999A}
    .fil41 {fill:#97AEC4}
    .fil66 {fill:#98A5AC}
    .fil62 {fill:#99A6AD}
    .fil111 {fill:#9BA7AF}
    .fil59 {fill:#9CA8B0}
    .fil131 {fill:#9CBFBF}
    .fil68 {fill:#9EABB3}
    .fil92 {fill:#9FA9C6}
    .fil67 {fill:#9FACB4}
    .fil34 {fill:#9FACB5}
    .fil112 {fill:#A0ABB0}
    .fil61 {fill:#A1ACAF}
    .fil31 {fill:#A2D3F4}
    .fil86 {fill:#A4B1B8}
    .fil6 {fill:#A5325C}
    .fil81 {fill:#A5B2B9}
    .fil32 {fill:#A6B2BA}
    .fil84 {fill:#A6B3BA}
    .fil76 {fill:#A7B5D1}
    .fil93 {fill:#A8B4BB}
    .fil83 {fill:#A8B5BD}
    .fil42 {fill:#A8BFD8}
    .fil73 {fill:#ABB7BF}
    .fil18 {fill:#AEAFAF}
    .fil63 {fill:#AEB3B0}
    .fil77 {fill:#AEBAC1}
    .fil36 {fill:#AFAFAF}
    .fil69 {fill:#AFAFB0}
    .fil94 {fill:#B1B8BA}
    .fil90 {fill:#B1B8BB}
    .fil96 {fill:#B2B9BC}
    .fil113 {fill:#B3BABC}
    .fil88 {fill:#B3BABD}
    .fil97 {fill:#B4BBBE}
    .fil54 {fill:#B5B6A9}
    .fil130 {fill:#B6B6B6}
    .fil114 {fill:#B6BCBF}
    .fil99 {fill:#B7BDC0}
    .fil98 {fill:#B8B9BA}
    .fil115 {fill:#B8BFC1}
    .fil16 {fill:#C0C1C2}
    .fil125 {fill:#C12B52}
    .fil9 {fill:#C1DDFA}
    .fil105 {fill:#C6C6C6}
    .fil25 {fill:#C8C9CD}
    .fil12 {fill:#CDEAFC}
    .fil100 {fill:#CFCFCF}
    .fil0 {fill:#D3395B}
    .fil85 {fill:#D6D6D6}
    .fil23 {fill:#D7EDFF}
    .fil78 {fill:#D8D9DA}
    .fil40 {fill:#D9E3ED}
    .fil89 {fill:#DADBDB}
    .fil58 {fill:#DDBB7F}
    .fil24 {fill:#DFE9F2}
    .fil56 {fill:#E0BF84}
    .fil55 {fill:#E4C387}
    .fil38 {fill:#E4E5E6}
    .fil52 {fill:#E6C993}
    .fil53 {fill:#E6CA96}
    .fil20 {fill:#EDEDEE}
    .fil5 {fill:#EEF7FF}
    .fil129 {fill:#F6F6F6}
    .fil1 {fill:#F85F79}
    .fil29 {fill:#F88FA2}
    .fil95 {fill:#FCFDFD}
    .fil46 {fill:#FEE5A9}
    .fil7 {fill:white}
   ]]>
  </style>
 </defs>
 <g id="Слой_x0020_1">
  <metadata id="CorelCorpID_0Corel-Layer"/>
  <g>
   <path class="fil0" d="M15289 6847c160,-83 307,-192 477,-253 223,-54 403,118 588,212 140,84 290,153 420,253 11,43 18,85 25,129 -182,132 -385,229 -578,344 -96,55 -199,113 -314,102 -144,-10 -263,-103 -386,-170 -183,-114 -389,-196 -543,-352 29,-155 195,-193 311,-265l0 0zm314 368c30,32 63,63 98,91 2,62 3,123 6,185 10,-33 29,-99 38,-132 28,41 39,86 35,135 29,17 59,35 89,52 35,-16 70,-33 105,-49 -35,-53 -56,-114 -76,-174l93 22c-69,-66 -149,-124 -248,-124 -13,-22 -40,-64 -53,-86 -38,18 -67,45 -87,80z"/>
  </g>
  <g id="__x0023_f85f79ff">
   <path class="fil1" d="M12242 6243c37,8 74,19 110,32 61,137 180,233 274,345 67,76 127,162 217,215l26 0c2,-16 5,-46 7,-61 19,0 58,0 78,0 -20,32 -40,68 -28,108 13,54 47,97 99,117 1753,913 3500,1839 5255,2748 243,146 503,259 748,401 1,10 2,29 3,39 -1236,-649 -2473,-1297 -3711,-1944 -27,-14 -54,-27 -80,-40 -761,-402 -1521,-807 -2289,-1196 168,334 349,659 518,993 30,63 71,121 118,173 -14,18 -29,36 -43,53 -193,-386 -400,-766 -600,-1148 -20,-35 -40,-69 -59,-104 -346,112 -695,219 -1041,328 -238,68 -469,163 -713,209 201,-113 434,-148 648,-226 351,-115 705,-216 1053,-334 9,-59 -51,-96 -81,-139 -172,-187 -341,-377 -509,-569z"/>
   <path class="fil1" d="M11028 7514c43,0 111,-46 120,33 -136,0 -261,57 -388,96 -465,144 -928,293 -1394,434l36 -46c54,-24 108,-47 162,-70 206,-33 401,-111 600,-170 288,-92 579,-176 864,-277z"/>
   <path class="fil1" d="M13575 8274c7,-4 19,-13 25,-17 596,1104 1171,2219 1759,3327 77,134 123,297 255,389l-65 -33c45,91 92,182 141,271 -18,-2 -36,-5 -53,-8 -51,-112 -107,-221 -169,-326 -625,-1204 -1265,-2400 -1893,-3603z"/>
   <path class="fil1" d="M8089 8641l5 3c345,247 703,475 1056,710 -10,227 0,455 -3,682 -356,-219 -706,-448 -1058,-674 0,-60 0,-119 1,-178 0,-181 4,-362 -1,-543z"/>
  </g>
  <g id="__x0023_394c88ff">
   <g>
    <path class="fil2" d="M16800 7236c197,-115 395,-230 595,-341 2305,1332 4616,2655 6922,3985 -510,275 -1006,576 -1508,864 -1213,-693 -2410,-1414 -3623,-2106 -6,90 -9,181 -13,271 -4,-28 -11,-85 -15,-114 -55,-35 -111,-71 -165,-107 -13,36 -26,71 -39,106 4,-97 6,-193 8,-290 -526,-315 -1060,-615 -1585,-932 -87,-56 -177,-107 -269,-156 -388,-214 -764,-451 -1151,-666 212,-76 399,-206 598,-310 95,-49 191,-108 245,-204l0 0zm176 284c21,60 42,126 106,151 629,358 1251,727 1882,1080 -6,-29 -18,-87 -23,-116 53,22 37,89 50,133 50,27 100,54 151,81 7,-20 20,-59 27,-78l9 5c-3,20 -9,59 -12,78 144,124 326,196 486,299 111,65 255,179 378,71 114,-59 90,-200 93,-305l-28 11c10,-69 143,-117 84,-189 -50,-62 -88,26 -121,53 -61,12 -123,25 -174,64 -150,-69 -291,-159 -435,-240 -663,-382 -1326,-764 -1988,-1147 -79,-44 -155,-101 -245,-120 -105,3 -191,81 -240,169l0 0zm-376 223c7,60 16,127 81,151 141,77 274,173 424,232l17 -52c13,36 7,89 52,104 373,213 744,431 1118,643 125,89 301,-15 330,-153 15,-75 -53,-109 -107,-140 -542,-302 -1075,-621 -1615,-925 -112,-66 -267,25 -300,140l0 0zm2406 1232c-15,1 -47,4 -63,6 48,85 29,186 36,279 16,-25 49,-76 66,-102 55,42 53,115 72,176 79,-88 -16,-202 -33,-295 35,11 104,33 139,45 -39,-43 -83,-80 -130,-113 -6,-55 5,-145 -77,-136 -96,-13 -29,99 -10,140l0 0zm-32 538c2,35 5,105 6,141 47,56 123,77 185,112 67,-149 -89,-201 -191,-253z"/>
   </g>
   <g>
    <path class="fil2" d="M13601 8246c546,-1 1093,-27 1639,-43 26,13 53,26 80,40 -219,535 -441,1069 -660,1604 491,-26 982,-59 1473,-87 -130,321 -262,641 -392,962 -130,285 -204,601 -382,862 -588,-1108 -1163,-2223 -1759,-3327l1 -11 0 0zm2005 1906c-51,36 -109,70 -132,132 28,-21 85,-64 114,-85 -12,98 -74,203 -28,300 24,-56 23,-139 100,-150 5,59 9,119 13,179 11,-11 33,-32 44,-43 1,-91 2,-183 2,-274 34,-1 102,-4 136,-6 -48,-23 -100,-33 -151,-43 5,-51 47,-152 -40,-150 -75,-17 -49,98 -58,140z"/>
   </g>
   <g>
    <path class="fil2" d="M10957 8332c506,-28 1014,-9 1518,-60 366,32 735,-38 1100,2 628,1203 1268,2399 1893,3603 -116,-68 -236,-128 -351,-197 -1882,-1096 -3768,-2187 -5649,-3286 494,-59 993,-35 1489,-62l0 0zm967 215c-29,40 -69,75 -80,125 -33,-44 -78,-84 -102,-8 35,93 108,164 189,219l2 -52c16,30 33,59 51,87 3,-68 3,-137 7,-205 66,32 64,121 127,154 -11,-104 -58,-199 -90,-297 28,2 82,6 110,7 -31,-43 -75,-62 -134,-59 -14,-47 -3,-153 -83,-128 -78,18 -21,111 3,157z"/>
   </g>
   <path class="fil2" d="M20197 11928c7,-10 22,-30 29,-40 19,12 58,35 77,46 -7,59 -14,117 -20,175 -32,21 -63,42 -93,64 4,-82 6,-163 7,-245z"/>
   <path class="fil2" d="M17846 14270c29,-39 70,-63 118,-69 12,58 27,116 45,173 -68,-31 -207,-2 -215,-98l22 -8c8,1 22,1 30,2z"/>
  </g>
  <g id="__x0023_304677ff">
   <path class="fil3" d="M21469 9048c9,-3 27,-10 36,-13 14,25 27,50 38,76 -15,29 -33,57 -55,81 -18,-47 -24,-95 -19,-144z"/>
   <path class="fil3" d="M16263 10088c201,-59 204,200 188,329 143,-36 330,-110 457,-1 -166,-44 -335,-11 -493,46 2,-93 18,-187 -7,-278 -14,-70 -93,-71 -145,-96z"/>
   <path class="fil3" d="M11236 10416c179,-90 336,-229 533,-276 25,15 76,45 101,60 -157,121 -337,205 -507,304 -43,-30 -84,-60 -127,-88z"/>
   <path class="fil3" d="M9499 11903c39,169 19,347 15,519l-17 24c-6,-181 -12,-363 2,-543z"/>
   <path class="fil3" d="M9565 12892c47,147 29,313 -2,463 -2,-28 -7,-83 -10,-111 13,-117 10,-235 12,-352z"/>
   <path class="fil3" d="M9568 14218c59,11 60,169 2,178 -15,-55 -18,-123 -2,-178z"/>
  </g>
  <g id="__x0023_878b9eff">
   <path class="fil4" d="M17134 6079c119,-67 228,-156 361,-195 142,-37 271,55 389,120 121,75 249,138 367,217 54,28 62,92 78,144 -171,96 -334,206 -505,303 -105,63 -242,71 -349,6 -199,-112 -397,-228 -593,-347 8,-140 153,-182 252,-248z"/>
   <path class="fil4" d="M18677 7099c65,-62 136,-132 231,-138 91,17 166,74 245,117 412,240 825,476 1237,714 446,257 890,515 1338,768 57,25 84,79 106,134 -7,9 -19,26 -25,34 -98,-30 -201,82 -297,13 -701,-403 -1402,-809 -2104,-1212 -243,-144 -494,-277 -731,-430z"/>
   <path class="fil4" d="M22827 8982c139,-69 285,15 404,87 138,87 287,156 423,245 67,38 48,123 52,187 -245,23 -400,266 -639,308 -110,10 -211,-42 -303,-94 -164,-94 -320,-205 -499,-272l-11 -7c8,-62 13,-134 78,-163 164,-98 324,-204 495,-291z"/>
   <g>
    <path class="fil4" d="M11568 10972c861,517 1739,1006 2606,1512 94,55 182,125 289,151 105,-12 175,-99 212,-191 11,91 -30,172 -78,246 -75,-11 -151,-11 -225,-26 -96,-37 -181,-97 -272,-145 -8,362 -4,723 0,1085 -45,-83 -119,-142 -201,-185 -18,27 -35,55 -52,82 -7,-376 17,-753 -11,-1127 -220,-153 -464,-271 -694,-410 -472,-264 -931,-551 -1410,-802 -55,-40 -119,-73 -157,-130 -2,-15 -5,-45 -7,-60l0 0zm2313 1424c-33,107 113,202 196,178 14,-103 -124,-137 -196,-178l0 0zm0 141c-1,61 -1,122 0,184 60,32 121,64 181,96 1,-57 3,-113 6,-169 -60,-42 -122,-79 -187,-111l0 0zm-7 223c-2,59 3,118 16,176 53,48 122,74 187,105 -4,-54 5,-111 -13,-162 -42,-67 -123,-87 -190,-119l0 0zm3 215c-1,55 1,111 7,167 42,66 126,82 194,112 -4,-55 4,-113 -15,-166 -54,-50 -122,-79 -186,-113l0 0zm2 223c-2,52 -1,105 2,157 43,70 126,89 198,111 -7,-53 8,-113 -17,-161 -53,-48 -120,-75 -183,-107z"/>
   </g>
   <path class="fil4" d="M8845 11467c30,28 59,58 86,89 -8,70 -31,130 -113,79l71 -32c-15,-45 -31,-91 -44,-136z"/>
   <g>
    <path class="fil4" d="M11196 12631c8,79 12,158 17,237 4,50 8,100 11,151 57,31 114,62 171,93 -1,-110 -5,-220 -3,-330 7,-10 20,-30 27,-40 2,20 7,58 9,78 -3,333 -2,666 -1,998 0,41 -9,80 -27,117l-2 -43c-1,-17 -5,-50 -6,-67 -28,-29 -57,-57 -86,-85 23,5 69,14 92,19 -3,-61 -6,-122 -9,-182 -60,-29 -120,-57 -179,-84 7,70 16,141 25,212 -7,19 -22,59 -29,78 -7,-4 -19,-12 -26,-16 11,-378 -6,-758 16,-1136l0 0zm16 421c2,64 5,128 9,192 58,28 116,56 175,84 -1,-60 -2,-119 -2,-179 -59,-35 -121,-67 -182,-97l0 0zm4 222c0,61 1,123 1,184 59,30 119,59 178,89 0,-62 -2,-123 -2,-184 -59,-30 -118,-60 -177,-89z"/>
   </g>
   <path class="fil4" d="M11057 15056c11,5 31,14 41,18 1,87 -4,175 3,262 -11,-2 -32,-7 -43,-10 19,-89 6,-180 -1,-270z"/>
   <path class="fil4" d="M12535 16185c0,-111 -28,-231 17,-337 1,29 2,87 3,116 1,74 18,154 -20,221z"/>
  </g>
  <g id="__x0023_eef7ffff">
   <g>
    <path class="fil5" d="M17884 6004c395,-72 831,-77 1188,131 2147,1239 4293,2481 6440,3720 109,62 208,145 273,254 19,117 27,246 -40,350 -121,201 -339,307 -535,420 -4194,2414 -8388,4828 -12582,7241 -252,142 -497,308 -780,381 -421,115 -899,104 -1279,-127 -2131,-1231 -4263,-2463 -6394,-3693 -106,-64 -212,-140 -269,-254 -47,-91 -28,-197 -22,-295 78,-149 203,-267 348,-350 1240,-720 2488,-1424 3724,-2150 64,34 127,66 191,99 106,-76 265,-110 303,-252 -29,-25 -59,-50 -89,-73 135,-80 273,-154 406,-237 12,31 24,63 36,95 15,44 29,87 41,132 17,55 37,59 61,12 47,27 94,53 141,80 -38,22 -76,45 -115,68 -27,-31 -56,-61 -86,-89 13,45 29,91 44,136l-71 32c-238,114 -455,265 -693,378l-20 22c-708,407 -1419,809 -2125,1219 49,28 97,56 146,84 2176,1255 4348,2517 6524,3773 146,72 276,181 433,227 300,-151 584,-333 879,-495 228,-148 482,-256 699,-422 328,-159 635,-357 952,-536 755,-428 1503,-868 2256,-1297 1124,-633 2232,-1293 3354,-1929 55,-31 110,-63 164,-96 471,-277 945,-551 1422,-819 502,-288 998,-589 1508,-864 57,-27 114,-54 172,-81 -156,-133 -346,-213 -519,-319 -310,-170 -606,-364 -924,-517 -11,-8 -33,-23 -45,-31l-6 -24c160,-11 288,-113 421,-191 102,-64 219,-115 290,-216 -4,-64 15,-149 -52,-187 -136,-89 -285,-158 -423,-245 -119,-72 -265,-156 -404,-87 -171,87 -331,193 -495,291 -65,29 -70,101 -78,163l-7 51c-239,-118 -454,-282 -704,-376 -11,-26 -24,-51 -38,-76 -9,3 -27,10 -36,13 -644,-374 -1291,-744 -1937,-1114 -209,-108 -400,-253 -623,-334l8 -27c-11,-9 -33,-29 -44,-38 -166,-56 -310,-161 -462,-244 -264,-147 -520,-310 -791,-443 222,-79 418,-212 617,-335 56,-29 74,-92 92,-148 -16,-52 -24,-116 -78,-144 -118,-79 -246,-142 -367,-217l0 0zm793 1095c8,110 93,170 187,208 8,68 14,137 22,205 17,-55 15,-114 19,-171 817,457 1622,935 2435,1398 58,34 129,61 148,133 118,-9 280,-8 321,-144 6,-8 18,-25 25,-34 106,21 234,-31 282,-132 -2,-57 -65,-80 -104,-108 -420,-238 -837,-482 -1258,-719 -121,-71 -252,7 -364,57 -412,-238 -825,-474 -1237,-714 -79,-43 -154,-100 -245,-117 -95,6 -166,76 -231,138l0 0zm2807 1828c-56,105 116,7 0,0l0 0zm-13366 2852c-18,58 2,77 59,58 17,-58 -3,-78 -59,-58l0 0zm1 107c-19,58 0,78 58,60 18,-59 -2,-78 -58,-60l0 0zm-99 3355c-235,48 -497,245 -433,515 96,297 488,379 749,263 196,-56 361,-253 327,-462 -70,-271 -396,-370 -643,-316z"/>
   </g>
   <path class="fil5" d="M16354 6806c205,-105 393,-253 608,-332 139,81 277,161 416,241 -10,6 -31,18 -41,25 -182,116 -366,230 -563,319 -130,-100 -280,-169 -420,-253z"/>
   <g>
    <path class="fil5" d="M15264 7422c148,85 296,171 445,257 -151,91 -307,174 -455,270 -161,-79 -307,-181 -464,-267 120,-13 215,-157 335,-103 5,-81 82,-115 139,-157l0 0zm-163 254c-61,103 115,14 0,0l0 0zm5 154c20,17 20,17 0,0z"/>
   </g>
   <path class="fil5" d="M11163 9792c143,80 283,164 425,246 -165,101 -336,192 -501,294 -168,-82 -328,-235 -530,-189 198,-123 406,-230 606,-351z"/>
   <path class="fil5" d="M9413 10798c201,-109 395,-233 600,-337 3,55 5,109 11,164 41,91 127,140 216,172 -12,12 -37,35 -49,47 -16,-4 -47,-13 -63,-17 -65,84 -156,140 -237,205 -10,8 -28,23 -37,31 -11,8 -31,25 -41,34 0,14 0,42 0,56 0,37 -1,109 -1,145 -9,7 -27,20 -36,27 -7,-57 -14,-114 -20,-171 -43,46 -83,93 -122,142 15,-92 20,-185 24,-277 12,-37 27,-72 31,-111 -80,-61 -179,-88 -276,-110z"/>
  </g>
  <g id="__x0023_a5325cff">
   <path class="fil6" d="M12783 6036c17,15 17,15 0,0z"/>
  </g>
  <g id="__x0023_ffffffff">
   <path class="fil7" d="M9492 7799c919,-515 1827,-1048 2750,-1556 168,192 337,382 509,569 -122,14 -242,48 -366,45 -116,-25 -233,-85 -354,-50 -138,38 -294,102 -356,239 -48,98 50,171 104,239 -214,78 -447,113 -648,226 244,-46 475,-141 713,-209 147,84 286,180 432,266 167,99 410,49 520,-111 48,-60 2,-132 -12,-195 53,-61 107,-122 160,-184 200,382 407,762 600,1148 14,-17 29,-35 43,-53 -47,-52 -88,-110 -118,-173 -169,-334 -350,-659 -518,-993 768,389 1528,794 2289,1196 -546,16 -1093,42 -1639,43l-1 11c-6,4 -18,13 -25,17 -365,-40 -734,30 -1100,-2 -113,-118 -232,-229 -349,-342 -49,-46 -101,-92 -166,-112 -270,-93 -546,-168 -812,-271 -9,-79 -77,-33 -120,-33 -147,-46 -294,-96 -442,-139 -337,202 -687,382 -1022,586 -54,23 -108,46 -162,70 -152,44 -307,82 -456,137l82 -110c29,-17 59,-34 88,-50 86,-46 173,-91 257,-140 40,-23 79,-46 119,-69z"/>
   <path class="fil7" d="M12352 6275c62,28 123,59 183,93 110,62 220,126 330,189 4,23 13,68 17,91 55,31 114,61 135,126l-63 0c-20,0 -59,0 -78,0l-28 0c-1,15 -4,45 -5,61 -90,-53 -150,-139 -217,-215 -94,-112 -213,-208 -274,-345z"/>
   <path class="fil7" d="M12948 6609c613,359 1230,712 1842,1073 157,86 303,188 464,267 48,27 97,54 146,82 510,308 1033,595 1544,901 109,97 246,143 375,205 11,8 34,24 45,32 264,169 544,314 813,476 40,27 70,67 103,102 -1755,-909 -3502,-1835 -5255,-2748 -52,-20 -86,-63 -99,-117 89,-40 166,-133 89,-224 -17,-5 -50,-15 -66,-20l-1 -29z"/>
   <path class="fil7" d="M15603 7215c20,-35 49,-62 87,-80 13,22 40,64 53,86 99,0 179,58 248,124l-93 -22c20,60 41,121 76,174 -35,16 -70,33 -105,49 -30,-17 -60,-35 -89,-52 4,-49 -7,-94 -35,-135 -9,33 -28,99 -38,132 -3,-62 -4,-123 -6,-185 -35,-28 -68,-59 -98,-91z"/>
   <path class="fil7" d="M8946 8220c92,-34 188,-59 285,-79 -26,15 -76,45 -102,60 114,63 228,125 339,193 1881,1099 3767,2190 5649,3286 115,69 235,129 351,197 62,105 118,214 169,326 -149,-62 -283,-153 -422,-233 -2051,-1195 -4102,-2389 -6152,-3585 -66,-33 -102,-95 -117,-165z"/>
   <g>
    <path class="fil7" d="M15320 8243c1238,647 2475,1295 3711,1944 2,22 3,65 4,87 -180,133 -381,233 -573,347 -438,255 -880,506 -1318,764 -46,26 -93,51 -144,66 -48,-9 -69,-62 -102,-91 101,-45 199,-99 294,-155 -482,-165 -966,-325 -1451,-483 130,-321 262,-641 392,-962 -491,28 -982,61 -1473,87 219,-535 441,-1069 660,-1604l0 0zm588 699c-108,55 -238,-18 -343,48 -66,29 -139,88 -121,169 52,82 152,113 229,167 129,70 249,194 408,175 129,-15 270,-76 326,-202 11,-70 -43,-116 -93,-153 11,-62 73,-140 14,-193 -114,-109 -291,-72 -420,-11l0 0zm2129 1081c-105,11 -218,44 -288,129 -50,51 -46,143 16,182 140,99 335,74 480,-2 67,-40 144,-131 87,-208 -59,-98 -192,-102 -295,-101l0 0zm-1774 65c52,25 131,26 145,96 25,91 9,185 7,278 158,-57 327,-90 493,-46 -127,-109 -314,-35 -457,1 16,-129 13,-388 -188,-329z"/>
   </g>
   <path class="fil7" d="M11924 8547c-24,-46 -81,-139 -3,-157 80,-25 69,81 83,128 59,-3 103,16 134,59 -28,-1 -82,-5 -110,-7 32,98 79,193 90,297 -63,-33 -61,-122 -127,-154 -4,68 -4,137 -7,205 -18,-28 -35,-57 -51,-87 -1,-71 -2,-143 -3,-213 -17,19 -51,58 -68,77l-18 -23c11,-50 51,-85 80,-125z"/>
   <path class="fil7" d="M20058 8794c33,-27 71,-115 121,-53 59,72 -74,120 -84,189 -14,7 -43,19 -58,26 -3,46 -6,93 -9,140 -67,22 -133,9 -192,-25 5,-27 16,-80 21,-107 -12,-40 -6,-78 27,-106 51,-39 113,-52 174,-64z"/>
   <path class="fil7" d="M19006 8975c-19,-41 -86,-153 10,-140 82,-9 71,81 77,136 47,33 91,70 130,113 -35,-12 -104,-34 -139,-45 17,93 112,207 33,295 -19,-61 -17,-134 -72,-176 -17,26 -50,77 -66,102 -7,-93 12,-194 -36,-279 16,-2 48,-5 63,-6z"/>
   <path class="fil7" d="M15606 10152c9,-42 -17,-157 58,-140 87,-2 45,99 40,150 51,10 103,20 151,43 -34,2 -102,5 -136,6 0,91 -1,183 -2,274 -11,11 -33,32 -44,43 -4,-60 -8,-120 -13,-179 -77,11 -76,94 -100,150 -46,-97 16,-202 28,-300 -29,21 -86,64 -114,85 23,-62 81,-96 132,-132z"/>
   <path class="fil7" d="M10752 10491c-21,-50 -94,-153 6,-160 68,-23 59,85 74,126 56,0 100,19 133,60 -27,-1 -81,-4 -107,-5 27,89 62,175 90,264 -16,7 -48,20 -64,27 16,-41 7,-97 -34,-120 -58,-3 -30,78 -23,111l3 58c-15,-9 -45,-27 -60,-36 -9,-87 -12,-174 -15,-260 -17,19 -50,60 -67,79l-16 -48c26,-33 52,-65 80,-96z"/>
   <path class="fil7" d="M9249 10839l27 13c103,23 100,141 130,221 -8,46 -15,93 -22,140 1,24 2,73 3,97 -19,6 -57,17 -76,23 38,-34 -1,-163 -44,-90 -16,33 -30,67 -45,101 -11,-123 -64,-262 32,-365 -1,-35 -3,-69 -4,-104l-1 -36z"/>
   <path class="fil7" d="M16737 11185c32,2 64,4 96,9 20,56 31,116 48,174 24,91 51,182 51,277 -16,-24 -49,-74 -66,-99 -4,34 -11,99 -15,132 -60,-86 -100,-185 -102,-291l-2 2c-38,-5 -112,-14 -149,-19 52,-13 103,-25 156,-37 -6,-49 -12,-99 -17,-148z"/>
   <path class="fil7" d="M15731 12032c305,-179 618,-343 920,-526 43,21 86,44 129,66 -120,102 -262,172 -397,250 -232,129 -453,276 -693,389 -49,-89 -96,-180 -141,-271l65 33c39,20 78,39 117,59z"/>
   <path class="fil7" d="M14178 11550c30,18 61,38 92,58 25,87 95,144 161,201 -41,-22 -81,-43 -120,-65 21,98 40,197 48,298 -31,-54 -61,-109 -91,-163 -30,61 -55,125 -81,188 -5,-107 -8,-214 -9,-321 -25,1 -74,5 -99,7 0,-9 -1,-28 -1,-38 30,-2 88,-9 117,-12 -6,-51 -12,-102 -17,-153z"/>
   <path class="fil7" d="M20085 11817c-3,-56 14,-140 91,-116 11,43 12,89 15,134 31,-9 62,-18 93,-26 -15,20 -43,59 -58,79 -7,10 -22,30 -29,40 -1,82 -3,163 -7,245 -11,8 -34,25 -45,33 -3,-60 -7,-119 -11,-179 -46,45 -88,93 -129,142 14,-71 29,-142 46,-213 6,-23 18,-71 24,-95l7 -29c0,-3 2,-11 3,-15z"/>
   <g>
    <path class="fil7" d="M6126 13338c529,-312 1067,-609 1597,-919 139,56 271,130 386,226 -30,67 75,113 91,34 451,264 906,520 1356,785 3,15 8,44 10,59 11,-9 32,-26 42,-35 156,106 325,189 486,286 315,177 618,375 942,533 10,47 38,70 87,67 399,228 804,448 1192,694 -32,25 -64,51 -94,78 43,147 204,206 333,255 64,-20 122,-54 180,-87 98,47 194,97 287,153 546,318 1098,627 1640,954 -217,166 -471,274 -699,422 -295,162 -579,344 -879,495 -157,-46 -287,-155 -433,-227 -2176,-1256 -4348,-2518 -6524,-3773l0 0zm1992 -577c-18,58 2,78 59,59 17,-59 -2,-78 -59,-59l0 0zm-1 109c-17,57 2,77 60,58 17,-57 -2,-77 -60,-58l0 0zm1 107c-19,57 1,77 59,59 18,-57 -1,-77 -59,-59l0 0zm0 107c-18,58 1,77 59,58 18,-58 -2,-77 -59,-58l0 0zm0 108c-18,58 2,77 59,58 17,-59 -3,-78 -59,-58l0 0zm8 113c-3,91 2,182 -9,273 15,1 45,2 61,2 -12,-99 -11,-198 -6,-297 -11,6 -34,17 -46,22l0 0zm1436 271c-54,107 116,7 0,0l0 0zm0 107c-52,109 115,4 0,0l0 0zm1 107c-56,107 115,8 0,0l0 0zm0 108c-58,105 115,10 0,0l0 0zm0 107c-56,106 115,9 0,0l0 0zm-1 109c-53,107 115,5 0,0l0 0zm6 104c-16,55 -13,123 2,178 58,-9 57,-167 -2,-178l0 0zm1482 202c-18,58 2,78 58,60 18,-59 -1,-78 -58,-60l0 0zm-1 108c-17,58 3,77 60,58 17,-59 -3,-78 -60,-58l0 0zm1 106c-19,56 0,76 58,59 19,-57 0,-77 -58,-59l0 0zm0 106c-18,58 1,77 58,59 19,-58 -1,-78 -58,-59l0 0zm0 107c-19,57 0,77 58,59 18,-58 -1,-77 -58,-59l0 0zm2 106c-20,58 -1,78 56,60 19,-58 0,-78 -56,-60l0 0zm5 103c7,90 20,181 1,270 11,3 32,8 43,10 -7,-87 -2,-175 -3,-262 -10,-4 -30,-13 -41,-18l0 0zm1472 393c-55,106 116,7 0,0l0 0zm0 107c-57,105 117,10 0,0l0 0zm1 107c-59,103 116,12 0,0l0 0zm0 108c-60,103 117,12 0,0l0 0zm5 414c38,-67 21,-147 20,-221 -1,-29 -2,-87 -3,-116 -45,106 -17,226 -17,337z"/>
   </g>
   <path class="fil7" d="M11199 12486c12,-12 37,-38 49,-50 59,89 125,174 163,274 -22,-7 -68,-21 -90,-28 17,44 33,89 50,134 -6,36 -12,72 -17,109 -8,-7 -24,-22 -31,-29 15,-54 -47,-108 -83,-50l-27 22c-5,-79 -9,-158 -17,-237l9 -16c-1,-43 -4,-86 -6,-129z"/>
   <path class="fil7" d="M17758 12721c-18,-40 -98,-142 -12,-152 79,-41 78,76 90,119 50,12 103,20 140,60 -29,0 -86,0 -114,0 33,99 70,198 91,302 -50,-45 -76,-108 -107,-166 -35,58 -42,120 -20,188 -44,-7 -65,-37 -61,-89 6,-59 10,-118 15,-178 -22,-2 -65,-7 -87,-9 17,-18 49,-56 65,-75z"/>
   <path class="fil7" d="M13205 12906c21,1 63,3 85,4 -2,68 0,136 0,204 5,72 -16,140 -66,193l-16 21c-6,-14 -17,-41 -23,-54 -15,3 -44,8 -58,11l5 -23c5,-23 15,-67 21,-90 -4,-27 -7,-54 -10,-80 8,-16 25,-46 34,-62 3,-15 11,-45 14,-60 4,-16 10,-48 14,-64z"/>
   <path class="fil7" d="M10981 13516c45,-28 92,8 134,21 -29,42 -61,83 -94,123 19,17 38,36 57,54 -53,7 -104,22 -152,43 -35,23 -68,46 -101,70 -12,-124 54,-243 156,-311z"/>
   <path class="fil7" d="M17914 13997c8,-74 52,-144 135,-139 41,51 -6,99 -27,146 49,0 99,2 148,4 -47,16 -93,31 -140,47 -2,106 0,213 -21,319 -18,-57 -33,-115 -45,-173 -48,6 -89,30 -118,69 -8,-1 -22,-1 -30,-2 -5,-4 -16,-13 -22,-18 42,-59 75,-123 104,-189 -56,-21 -111,-46 -158,-81 57,4 115,10 174,17z"/>
  </g>
  <g id="__x0023_717385ff">
   <path class="fil8" d="M16882 6327c196,119 394,235 593,347 107,65 244,57 349,-6 171,-97 334,-207 505,-303 -18,56 -36,119 -92,148 -199,123 -395,256 -617,335 -81,-43 -161,-90 -242,-133 -139,-80 -277,-160 -416,-241 -51,-32 -57,-98 -80,-147z"/>
  </g>
  <g id="__x0023_c1ddfaff">
   <g>
    <path class="fil9" d="M17337 6740c10,-7 31,-19 41,-25 81,43 161,90 242,133 271,133 527,296 791,443 152,83 296,188 462,244l-8 27c11,9 33,29 44,38 223,81 414,226 623,334 646,370 1293,740 1937,1114 -5,49 1,97 19,144 22,-24 40,-52 55,-81 250,94 465,258 704,376l7 -51 11 7c43,70 93,139 171,174 186,98 358,225 559,291l6 24c-9,21 -26,64 -35,84 14,76 101,-7 80,-53 318,153 614,347 924,517 173,106 363,186 519,319 -58,27 -115,54 -172,81 -2306,-1330 -4617,-2653 -6922,-3985 -14,-53 -28,-108 -58,-155l0 0zm263 171c-58,104 117,9 0,0l0 0zm1276 738c-56,105 116,7 0,0z"/>
   </g>
   <g>
    <path class="fil9" d="M25428 10813c165,-85 287,-227 406,-365 12,231 4,461 1,692 -32,214 -245,311 -412,406 -4376,2527 -8748,5060 -13122,7589 -413,239 -918,315 -1383,207 -219,-49 -406,-176 -597,-287 -2087,-1219 -4173,-2439 -6260,-3658 -114,-65 -210,-171 -228,-305 -4,-215 -6,-431 4,-646 76,92 155,186 259,247 2146,1242 4293,2480 6438,3721 386,231 864,255 1292,145 341,-79 627,-286 928,-452 4225,-2431 8450,-4862 12674,-7294l0 0zm-19653 5176c11,53 -3,118 33,163 30,39 109,54 99,-17 10,-85 -40,-156 -132,-146l0 0zm330 125c-5,81 -15,163 -4,244 36,36 83,59 126,85 630,358 1249,735 1882,1087 5,-84 7,-168 5,-252 -673,-382 -1337,-780 -2009,-1164l0 0zm2218 1366c-40,83 20,181 109,192 18,-74 2,-236 -109,-192z"/>
   </g>
  </g>
  <g id="__x0023_8ea5c1ff">
   <path class="fil10" d="M12848 6774l28 0c-2,15 -5,45 -7,61l-26 0c1,-16 4,-46 5,-61z"/>
  </g>
  <g id="__x0023_8eafdbff">
   <path class="fil11" d="M16774 7059c197,-89 381,-203 563,-319 30,47 44,102 58,155 -200,111 -398,226 -595,341l-1 -48c-7,-44 -14,-86 -25,-129z"/>
   <path class="fil11" d="M15709 7679c56,27 115,47 175,61 -156,106 -325,191 -484,291 -49,-28 -98,-55 -146,-82 148,-96 304,-179 455,-270z"/>
   <path class="fil11" d="M11588 10038c60,34 121,68 181,102 -197,47 -354,186 -533,276 -49,-30 -99,-57 -149,-84 165,-102 336,-193 501,-294z"/>
   <g>
    <path class="fil11" d="M10240 10797c52,26 102,56 152,86 -71,45 -143,90 -215,133 -6,22 -19,64 -25,85 -41,-3 -81,-5 -122,-9 -47,-20 -93,-40 -139,-60 81,-65 172,-121 237,-205 16,4 47,13 63,17 12,-12 37,-35 49,-47l0 0zm-112 132c-46,24 -46,48 -1,72 46,-24 46,-48 1,-72z"/>
   </g>
   <path class="fil11" d="M9046 11488c53,29 105,59 157,91 -107,52 -209,115 -311,177 37,-84 -94,-39 -27,14 -233,122 -460,259 -688,391 -5,49 -9,99 -14,149 -23,-34 -46,-69 -69,-103 -124,70 -248,141 -371,212 -530,310 -1068,607 -1597,919 -49,-28 -97,-56 -146,-84 706,-410 1417,-812 2125,-1219 15,4 45,11 60,15l13 -23c-14,-4 -40,-11 -53,-14 238,-113 455,-264 693,-378 82,51 105,-9 113,-79 39,-23 77,-46 115,-68z"/>
  </g>
  <g id="__x0023_cdeafcff">
   <path class="fil12" d="M11675 7046c62,-137 218,-201 356,-239 121,-35 238,25 354,50 124,3 244,-31 366,-45 30,43 90,80 81,139 -348,118 -702,219 -1053,334 -54,-68 -152,-141 -104,-239z"/>
   <path class="fil12" d="M11844 7302c346,-109 695,-216 1041,-328 19,35 39,69 59,104 -53,62 -107,123 -160,184 14,63 60,135 12,195 -110,160 -353,210 -520,111 -146,-86 -285,-182 -432,-266z"/>
   <path class="fil12" d="M15908 8942c129,-61 306,-98 420,11 59,53 -3,131 -14,193 50,37 104,83 93,153 -56,126 -197,187 -326,202 -159,19 -279,-105 -408,-175 -77,-54 -177,-85 -229,-167 -18,-81 55,-140 121,-169 105,-66 235,7 343,-48z"/>
   <path class="fil12" d="M18037 10023c103,-1 236,3 295,101 57,77 -20,168 -87,208 -145,76 -340,101 -480,2 -62,-39 -66,-131 -16,-182 70,-85 183,-118 288,-129z"/>
  </g>
  <g id="__x0023_7c919fff">
   <path class="fil13" d="M17600 6911c117,9 -58,104 0,0z"/>
  </g>
  <path class="fil14" d="M14978 7112c154,156 360,238 543,352 123,67 242,160 386,170 115,11 218,-47 314,-102 193,-115 396,-212 578,-344l1 48c-54,96 -150,155 -245,204 -199,104 -386,234 -598,310 -18,-3 -54,-7 -73,-10 -60,-14 -119,-34 -175,-61 -149,-86 -297,-172 -445,-257 -43,-26 -83,-56 -120,-90 -10,28 -30,85 -40,113 -51,-32 -6,-90 -2,-133 -91,-25 -95,-127 -124,-200z"/>
  <g id="__x0023_727486ff">
   <path class="fil15" d="M18677 7099c237,153 488,286 731,430 702,403 1403,809 2104,1212 96,69 199,-43 297,-13 -41,136 -203,135 -321,144 -19,-72 -90,-99 -148,-133 -813,-463 -1618,-941 -2435,-1398 -4,57 -2,116 -19,171 -8,-68 -14,-137 -22,-205 -94,-38 -179,-98 -187,-208z"/>
  </g>
  <g id="__x0023_c0c1c2ff">
   <path class="fil16" d="M16976 7520c49,-88 135,-166 240,-169 90,19 166,76 245,120 662,383 1325,765 1988,1147 144,81 285,171 435,240 -33,28 -39,66 -27,106 -48,37 -92,78 -132,122 -188,-93 -363,-210 -547,-310l-9 -5c-7,19 -20,58 -27,78 -51,-27 -101,-54 -151,-81 -13,-44 3,-111 -50,-133 -504,-284 -1004,-574 -1504,-865 -152,-87 -301,-179 -461,-250z"/>
   <path class="fil16" d="M11511 10904c108,-41 217,-162 337,-84 944,537 1881,1090 2827,1624 -37,92 -107,179 -212,191 -107,-26 -195,-96 -289,-151 -867,-506 -1745,-995 -2606,-1512 2,15 5,45 7,60 -23,-42 -44,-85 -64,-128z"/>
   <path class="fil16" d="M11136 11167c152,119 324,204 490,300 421,236 834,489 1257,721 104,68 198,-27 272,-92 -2,144 -182,238 -299,150 -512,-289 -1020,-587 -1532,-878 -11,10 -34,32 -45,43l-29 10c-23,-90 -66,-174 -114,-254z"/>
   <path class="fil16" d="M10476 11481c81,-40 165,16 236,51 11,7 31,20 42,26 805,483 1625,941 2437,1412 -3,15 -11,45 -14,60 -9,16 -26,46 -34,62 3,26 6,53 10,80 -6,23 -16,67 -21,90l-36 -27c-166,-121 -351,-211 -527,-316 -749,-434 -1501,-862 -2248,-1299 13,-77 94,-108 155,-139z"/>
  </g>
  <g id="__x0023_50659bff">
   <path class="fil17" d="M9564 7961c335,-204 685,-384 1022,-586 148,43 295,93 442,139 -285,101 -576,185 -864,277 -199,59 -394,137 -600,170z"/>
   <path class="fil17" d="M10760 7643c127,-39 252,-96 388,-96 266,103 542,178 812,271 65,20 117,66 166,112 117,113 236,224 349,342 -504,51 -1012,32 -1518,60 -496,27 -995,3 -1489,62 -111,-68 -225,-130 -339,-193 26,-15 76,-45 102,-60 45,-20 91,-42 135,-64 466,-141 929,-290 1394,-434z"/>
   <g>
    <path class="fil17" d="M11870 10200c767,455 1540,897 2308,1350 5,51 11,102 17,153 -29,3 -87,10 -117,12 0,10 1,29 1,38 25,-2 74,-6 99,-7 1,107 4,214 9,321 26,-63 51,-127 81,-188 30,54 60,109 91,163 -8,-101 -27,-200 -48,-298 39,22 79,43 120,65 -66,-57 -136,-114 -161,-201 439,238 862,506 1299,747 132,75 261,-36 373,-96 770,-448 1542,-893 2315,-1337 348,213 705,412 1057,619 245,139 484,291 737,415 -17,71 -32,142 -46,213 41,-49 83,-97 129,-142 4,60 8,119 11,179 11,-8 34,-25 45,-33 30,-22 61,-43 93,-64 316,179 635,354 940,550 -1122,636 -2230,1296 -3354,1929 -518,-315 -1048,-610 -1571,-917 -567,-326 -1130,-660 -1701,-981 48,-74 89,-155 78,-246 -946,-534 -1883,-1087 -2827,-1624 -120,-78 -229,43 -337,84 -61,-37 -121,-75 -184,-110 -40,-2 -80,-4 -119,-8 67,-43 144,-92 144,-182 3,-25 8,-75 11,-100 170,-99 350,-183 507,-304l0 0zm5888 2521c-16,19 -48,57 -65,75l-27 -3c-27,1 -79,4 -106,6 30,106 100,194 193,252l2 -36 10 -32c-4,52 17,82 61,89 -22,-68 -15,-130 20,-188 31,58 57,121 107,166 -21,-104 -58,-203 -91,-302 28,0 85,0 114,0 -37,-40 -90,-48 -140,-60 -12,-43 -11,-160 -90,-119 -86,10 -6,112 12,152l0 0zm156 1276c-59,-7 -117,-13 -174,-17 47,35 102,60 158,81 -29,66 -62,130 -104,189 6,5 17,14 22,18l-22 8c8,96 147,67 215,98 21,-106 19,-213 21,-319 47,-16 93,-31 140,-47 -49,-2 -99,-4 -148,-4 21,-47 68,-95 27,-146 -83,-5 -127,65 -135,139z"/>
   </g>
   <path class="fil17" d="M15741 10722c485,158 969,318 1451,483 -95,56 -193,110 -294,155l-17 8c-17,-58 -28,-118 -48,-174 -32,-5 -64,-7 -96,-9 5,49 11,99 17,148 -53,12 -104,24 -156,37 37,5 111,14 149,19 -33,38 -63,79 -96,117 -302,183 -615,347 -920,526 -39,-20 -78,-39 -117,-59 -132,-92 -178,-255 -255,-389 178,-261 252,-577 382,-862z"/>
  </g>
  <g id="__x0023_aeafafff">
   <path class="fil18" d="M16976 7520c160,71 309,163 461,250 500,291 1000,581 1504,865 5,29 17,87 23,116 -631,-353 -1253,-722 -1882,-1080 -64,-25 -85,-91 -106,-151z"/>
  </g>
  <g id="__x0023_647480ff">
   <path class="fil19" d="M18873 7535c11,9 33,29 44,38l-8 27c-11,-9 -33,-29 -44,-38l8 -27z"/>
  </g>
  <g id="__x0023_ededeeff">
   <path class="fil20" d="M16600 7743c33,-115 188,-206 300,-140 540,304 1073,623 1615,925 54,31 122,65 107,140 -67,34 -133,77 -208,89 -87,-10 -162,-60 -237,-101 -523,-309 -1054,-605 -1577,-913z"/>
   <path class="fil20" d="M11306 11046c158,-62 271,114 426,116 479,251 938,538 1410,802 4,44 9,88 13,132 -74,65 -168,160 -272,92 -423,-232 -836,-485 -1257,-721 -166,-96 -338,-181 -490,-300 50,-48 99,-104 170,-121z"/>
   <path class="fil20" d="M10074 11722c97,-54 199,20 292,48 147,58 279,146 415,224 372,214 743,428 1114,643 21,41 42,82 64,123 -79,40 -155,114 -250,103 -107,-34 -198,-103 -298,-153 -38,-100 -104,-185 -163,-274 -12,12 -37,38 -49,50 2,43 5,86 6,129 -82,-70 -172,-130 -268,-181 -334,-183 -659,-383 -992,-569 -21,-83 74,-110 129,-143z"/>
  </g>
  <g id="__x0023_647780ff">
   <path class="fil21" d="M18876 7649c116,7 -56,105 0,0z"/>
  </g>
  <g id="__x0023_7f8d93ff">
   <path class="fil22" d="M15101 7676c115,14 -61,103 0,0z"/>
  </g>
  <g id="__x0023_d7edffff">
   <path class="fil23" d="M20390 7792c112,-50 243,-128 364,-57 421,237 838,481 1258,719 39,28 102,51 104,108 -48,101 -176,153 -282,132 -22,-55 -49,-109 -106,-134 -448,-253 -892,-511 -1338,-768z"/>
   <path class="fil23" d="M8020 15241c247,-54 573,45 643,316 34,209 -131,406 -327,462 -261,116 -653,34 -749,-263 -64,-270 198,-467 433,-515z"/>
  </g>
  <g id="__x0023_dfe9f2ff">
   <g>
    <path class="fil24" d="M15884 7740c19,3 55,7 73,10 387,215 763,452 1151,666 4,197 -14,395 10,590 13,-11 38,-32 52,-43 44,24 89,48 135,72 4,25 11,76 14,102 -129,-62 -266,-108 -375,-205 -511,-306 -1034,-593 -1544,-901 159,-100 328,-185 484,-291l0 0zm26 55c-50,109 116,3 0,0l0 0zm-69 32c-60,103 116,14 0,0l0 0zm73 110c-60,103 115,13 0,0l0 0zm0 145c-54,106 117,5 0,0l0 0zm4 139c-40,26 -6,108 40,75 39,-26 5,-107 -40,-75l0 0zm772 60c-51,108 117,2 0,0z"/>
   </g>
   <path class="fil24" d="M17149 8519c58,27 114,54 171,83 2,59 3,118 4,178 -57,-30 -114,-60 -171,-91 -1,-57 -3,-113 -4,-170z"/>
   <path class="fil24" d="M17364 9169c7,-199 -1,-398 13,-597 525,317 1059,617 1585,932 -2,97 -4,193 -8,290 13,-35 26,-70 39,-106 54,36 110,72 165,107 4,29 11,86 15,114 4,-90 7,-181 13,-271 1213,692 2410,1413 3623,2106 -477,268 -951,542 -1422,819 -363,-207 -722,-420 -1084,-629 -19,-11 -58,-34 -77,-46 15,-20 43,-59 58,-79 -31,8 -62,17 -93,26 -3,-45 -4,-91 -15,-134 -77,-24 -94,60 -91,116l-3 15 -7 29c-45,-8 -85,-30 -124,-53 7,-15 22,-47 30,-62 -525,-303 -1045,-613 -1572,-913 186,-117 389,-209 567,-338 76,-48 54,-146 59,-221 -1,-22 -2,-65 -4,-87 -1,-10 -2,-29 -3,-39 -245,-142 -505,-255 -748,-401 -33,-35 -63,-75 -103,-102 -269,-162 -549,-307 -813,-476z"/>
   <path class="fil24" d="M17149 8734c55,28 110,54 160,89 28,52 10,116 17,172 -60,-26 -118,-56 -174,-90 -1,-57 -2,-114 -3,-171z"/>
   <g>
    <path class="fil24" d="M10762 11027c152,-74 298,-160 446,-241 39,4 79,6 119,8 63,35 123,73 184,110 20,43 41,86 64,128 38,57 102,90 157,130 -155,-2 -268,-178 -426,-116 -71,17 -120,73 -170,121 48,80 91,164 114,254 -33,84 82,53 29,-10 11,-11 34,-33 45,-43 512,291 1020,589 1532,878 117,88 297,-6 299,-150 -4,-44 -9,-88 -13,-132 230,139 474,257 694,410 28,374 4,751 11,1127 17,-27 34,-55 52,-82 82,43 156,102 201,185 -4,-362 -8,-723 0,-1085 91,48 176,108 272,145 74,15 150,15 225,26 571,321 1134,655 1701,981 523,307 1053,602 1571,917 -753,429 -1501,869 -2256,1297 -317,179 -624,377 -952,536 -542,-327 -1094,-636 -1640,-954 -93,-56 -189,-106 -287,-153 33,-19 65,-40 96,-61 2,-19 7,-56 9,-75 2,-13 4,-39 5,-52 -102,-58 -205,-124 -323,-145 -73,16 -141,51 -206,87 -388,-246 -793,-466 -1192,-694 -7,-51 -36,-73 -87,-67 -324,-158 -627,-356 -942,-533 -161,-97 -330,-180 -486,-286l-22 -21 -30 -3c-450,-265 -905,-521 -1356,-785 -23,-8 -68,-26 -91,-34 -115,-96 -247,-170 -386,-226 123,-71 247,-142 371,-212 23,34 46,69 69,103 5,-50 9,-100 14,-149 228,-132 455,-269 688,-391l27 -14c102,-62 204,-125 311,-177 89,56 182,109 286,132 -49,73 84,67 30,-2 156,-65 297,-160 451,-231 50,15 84,-3 99,-53l16 -15c38,77 121,-1 45,-43l8 -25c25,-54 56,-137 -7,-177 -33,-25 -67,-49 -101,-73 41,4 81,6 122,9 6,-21 19,-63 25,-85 72,-43 144,-88 215,-133 79,47 159,92 238,137 28,0 84,-1 112,-2 0,76 0,152 4,228 16,-72 17,-146 16,-219l0 0zm491 -160c-54,107 116,5 0,0l0 0zm-1 107c-51,108 117,3 0,0l0 0zm-630 106c-54,107 117,5 0,0l0 0zm104 200c-15,51 2,67 50,49 15,-51 -2,-67 -50,-49l0 0zm-1 107c-14,51 3,67 51,49 15,-51 -2,-67 -51,-49l0 0zm-249 94c-61,31 -142,62 -155,139 15,50 30,100 45,150 -93,-28 -195,-102 -292,-48 -55,33 -150,60 -129,143 15,75 30,151 44,227 30,49 47,42 51,-20 14,-3 42,-10 56,-13 325,170 638,361 956,543 45,19 93,70 144,29 -22,378 -5,758 -16,1136 -7,-5 -23,-15 -30,-20 -18,-8 -54,-25 -72,-33 -19,-18 -38,-37 -57,-54 33,-40 65,-81 94,-123 -42,-13 -89,-49 -134,-21 -102,68 -168,187 -156,311 -26,19 -51,38 -76,57 19,50 26,114 82,138 83,48 164,112 259,132 96,-43 187,-99 275,-158 8,-15 26,-45 35,-61 18,-37 27,-76 27,-117 -1,-332 -2,-665 1,-998 98,62 200,131 317,148 108,-11 198,-101 214,-208 -22,-41 -43,-82 -64,-123 399,223 791,458 1190,682 3,-21 8,-63 11,-84l36 27 -5 23c-20,45 58,94 81,43l16 -21c1,23 4,70 5,93 74,-29 157,-53 207,-119 20,-53 6,-109 7,-163 -51,-1 -102,-3 -153,-4 0,-68 -2,-136 0,-204 -22,-1 -64,-3 -85,-4 -4,16 -10,48 -14,64 -812,-471 -1632,-929 -2437,-1412 91,-33 -43,-125 -42,-26 -71,-35 -155,-91 -236,-51l0 0zm-488 46c-20,56 -1,76 58,60 20,-57 1,-77 -58,-60l0 0zm0 108c-19,57 0,77 58,60 19,-57 0,-77 -58,-60l0 0zm-605 110c-54,106 116,5 0,0l0 0zm-522 73c-54,106 117,5 0,0l0 0zm629 2c-52,109 116,4 0,0l0 0zm-628 105c-58,104 117,9 0,0l0 0zm637 -22c-14,180 -8,362 -2,543 -50,90 -202,62 -228,165 6,139 163,175 261,239 -61,33 -38,117 -55,175 -32,11 -64,23 -96,35 24,5 73,16 97,22 14,68 29,135 46,203 8,-10 24,-31 31,-41 3,28 8,83 10,111 31,-150 49,-316 2,-463l-1 -28c55,11 103,-31 151,-51 69,-44 170,-75 169,-173 -3,-13 -8,-37 -11,-50 -109,-76 -233,-129 -359,-168 4,-172 24,-350 -15,-519l0 0zm-644 120c-20,59 -2,79 55,62 20,-58 1,-79 -55,-62l0 0zm-737 310c-18,57 1,77 58,59 18,-58 -1,-78 -58,-59l0 0zm1 108c-19,57 0,77 58,60 18,-58 -1,-78 -58,-60l0 0zm-1 107c-21,57 -2,76 56,59 20,-56 2,-76 -56,-59l0 0zm1444 814c-54,107 116,6 0,0l0 0zm1493 847c-15,50 1,67 50,52 16,-51 -1,-68 -50,-52z"/>
   </g>
   <path class="fil24" d="M13881 12396c72,41 210,75 196,178 -83,24 -229,-71 -196,-178z"/>
   <path class="fil24" d="M13881 12537c65,32 127,69 187,111 -3,56 -5,112 -6,169 -60,-32 -121,-64 -181,-96 -1,-62 -1,-123 0,-184z"/>
   <path class="fil24" d="M11371 12816l21 -34c-2,110 2,220 3,330 -57,-31 -114,-62 -171,-93 -3,-51 -7,-101 -11,-151l27 -22c20,12 62,37 83,50 7,7 23,22 31,29 5,-37 11,-73 17,-109z"/>
   <path class="fil24" d="M13874 12760c67,32 148,52 190,119 18,51 9,108 13,162 -65,-31 -134,-57 -187,-105 -13,-58 -18,-117 -16,-176z"/>
   <path class="fil24" d="M13877 12975c64,34 132,63 186,113 19,53 11,111 15,166 -68,-30 -152,-46 -194,-112 -6,-56 -8,-112 -7,-167z"/>
   <path class="fil24" d="M11212 13052c61,30 123,62 182,97 0,60 1,119 2,179 -59,-28 -117,-56 -175,-84 -4,-64 -7,-128 -9,-192z"/>
   <path class="fil24" d="M13879 13198c63,32 130,59 183,107 25,48 10,108 17,161 -72,-22 -155,-41 -198,-111 -3,-52 -4,-105 -2,-157z"/>
   <path class="fil24" d="M11216 13274c59,29 118,59 177,89 0,61 2,122 2,184 -59,-30 -119,-59 -178,-89 0,-61 -1,-123 -1,-184z"/>
   <path class="fil24" d="M11210 13493c59,27 119,55 179,84 3,60 6,121 9,182 -23,-5 -69,-14 -92,-19 29,28 58,56 86,85 1,17 5,50 6,67 -64,-36 -129,-71 -192,-109 7,-19 22,-59 29,-78 -9,-71 -18,-142 -25,-212z"/>
  </g>
  <g id="__x0023_c8c9cdff">
   <path class="fil25" d="M16600 7743c523,308 1054,604 1577,913 75,41 150,91 237,101 75,-12 141,-55 208,-89 -29,138 -205,242 -330,153 -374,-212 -745,-430 -1118,-643 -45,-15 -39,-68 -52,-104l-17 52c-150,-59 -283,-155 -424,-232 -65,-24 -74,-91 -81,-151z"/>
  </g>
  <g id="__x0023_67767cff">
   <path class="fil26" d="M15910 7795c116,3 -50,109 0,0z"/>
  </g>
  <g id="__x0023_59686fff">
   <path class="fil27" d="M15106 7830c20,17 20,17 0,0z"/>
  </g>
  <g id="__x0023_6c7b81ff">
   <path class="fil28" d="M15841 7827c116,14 -60,103 0,0z"/>
   <path class="fil28" d="M15914 7937c115,13 -60,103 0,0z"/>
  </g>
  <g id="__x0023_f88fa2ff">
   <path class="fil29" d="M8946 8168c149,-55 304,-93 456,-137l-36 46c-44,22 -90,44 -135,64 -97,20 -193,45 -285,79l-18 -7c5,-11 14,-33 18,-45z"/>
  </g>
  <g id="__x0023_818f96ff">
   <path class="fil30" d="M15914 8082c117,5 -54,106 0,0z"/>
  </g>
  <g id="__x0023_a2d3f4ff">
   <path class="fil31" d="M8928 8213l18 7c15,70 51,132 117,165 2050,1196 4101,2390 6152,3585 139,80 273,171 422,233 17,3 35,6 53,8 240,-113 461,-260 693,-389 135,-78 277,-148 397,-250 -43,-22 -86,-45 -129,-66 33,-38 63,-79 96,-117l2 -2c2,106 42,205 102,291 4,-33 11,-98 15,-132 17,25 50,75 66,99 0,-95 -27,-186 -51,-277l17 -8c33,29 54,82 102,91 51,-15 98,-40 144,-66 438,-258 880,-509 1318,-764 192,-114 393,-214 573,-347 -5,75 17,173 -59,221 -178,129 -381,221 -567,338 -51,30 -101,59 -152,89 -773,444 -1545,889 -2315,1337 -112,60 -241,171 -373,96 -437,-241 -860,-509 -1299,-747 -31,-20 -62,-40 -92,-58 -768,-453 -1541,-895 -2308,-1350 -25,-15 -76,-45 -101,-60 -60,-34 -121,-68 -181,-102 -142,-82 -282,-166 -425,-246 -411,-239 -819,-482 -1232,-716 -50,-29 -99,-59 -149,-89 -106,-64 -213,-125 -320,-187 -93,-56 -186,-110 -280,-163 -64,-36 -127,-73 -186,-116 -25,-24 -50,-48 -75,-72 -1,-25 -3,-75 -4,-100 0,-14 1,-42 1,-56 0,-16 2,-49 3,-65l7 -15z"/>
  </g>
  <g id="__x0023_a6b2baff">
   <path class="fil32" d="M15918 8221c45,-32 79,49 40,75 -46,33 -80,-49 -40,-75z"/>
  </g>
  <g id="__x0023_818f97ff">
   <path class="fil33" d="M16690 8281c117,2 -51,108 0,0z"/>
  </g>
  <g id="__x0023_9facb5ff">
   <g>
    <path class="fil34" d="M17108 8416c92,49 182,100 269,156 -14,199 -6,398 -13,597 -11,-8 -34,-24 -45,-32 -3,-26 -10,-77 -14,-102 -46,-24 -91,-48 -135,-72 -14,11 -39,32 -52,43 -24,-195 -6,-393 -10,-590l0 0zm41 103c1,57 3,113 4,170 57,31 114,61 171,91 -1,-60 -2,-119 -4,-178 -57,-29 -113,-56 -171,-83l0 0zm0 215c1,57 2,114 3,171 56,34 114,64 174,90 -7,-56 11,-120 -17,-172 -50,-35 -105,-61 -160,-89z"/>
   </g>
  </g>
  <g id="__x0023_1c3e7dff">
   <path class="fil35" d="M11742 8664c24,-76 69,-36 102,8l18 23c17,-19 51,-58 68,-77 1,70 2,142 3,213l-2 52c-81,-55 -154,-126 -189,-219z"/>
  </g>
  <g id="__x0023_afafafff">
   <g>
    <path class="fil36" d="M19178 8776c184,100 359,217 547,310 40,-44 84,-85 132,-122 -5,27 -16,80 -21,107 59,34 125,47 192,25 3,-47 6,-94 9,-140 15,-7 44,-19 58,-26l28 -11c-3,105 21,246 -93,305 -123,108 -267,-6 -378,-71 -160,-103 -342,-175 -486,-299 3,-19 9,-58 12,-78l0 0zm893 218c-52,107 117,4 0,0z"/>
   </g>
   <path class="fil36" d="M8126 13305c12,-5 35,-16 46,-22 -5,99 -6,198 6,297 -16,0 -46,-1 -61,-2 11,-91 6,-182 9,-273z"/>
  </g>
  <g id="__x0023_7d8b92ff">
   <path class="fil37" d="M21484 8927c116,7 -56,105 0,0z"/>
  </g>
  <g id="__x0023_e4e5e6ff">
   <path class="fil38" d="M20071 8994c117,4 -52,107 0,0z"/>
  </g>
  <g id="__x0023_618bbaff">
  </g>
  <g id="__x0023_67687aff">
   <path class="fil39" d="M22265 9443c179,67 335,178 499,272 92,52 193,104 303,94 239,-42 394,-285 639,-308 -71,101 -188,152 -290,216 -133,78 -261,180 -421,191 -201,-66 -373,-193 -559,-291 -78,-35 -128,-104 -171,-174z"/>
  </g>
  <g id="__x0023_d9e3edff">
   <path class="fil40" d="M18974 9513c102,52 258,104 191,253 -62,-35 -138,-56 -185,-112 -1,-36 -4,-106 -6,-141z"/>
  </g>
  <g id="__x0023_97aec4ff">
   <path class="fil41" d="M23001 9932c12,8 34,23 45,31 21,46 -66,129 -80,53 9,-20 26,-63 35,-84z"/>
  </g>
  <g id="__x0023_a8bfd8ff">
   <path class="fil42" d="M25785 10109c39,64 71,135 70,212 6,197 -4,394 2,591 -4,76 -10,152 -22,228 3,-231 11,-461 -1,-692 -119,138 -241,280 -406,365 -4224,2432 -8449,4863 -12674,7294 -301,166 -587,373 -928,452 -428,110 -906,86 -1292,-145 -2145,-1241 -4292,-2479 -6438,-3721 -104,-61 -183,-155 -259,-247 -10,215 -8,431 -4,646 -9,-54 -15,-107 -19,-161 1,-125 11,-249 5,-373 0,-144 -20,-301 65,-426 -6,98 -25,204 22,295 57,114 163,190 269,254 2131,1230 4263,2462 6394,3693 380,231 858,242 1279,127 283,-73 528,-239 780,-381 4194,-2413 8388,-4827 12582,-7241 196,-113 414,-219 535,-420 67,-104 59,-233 40,-350z"/>
  </g>
  <g id="__x0023_3369d6ff">
   <g>
    <path class="fil43" d="M10557 10143c202,-46 362,107 530,189 50,27 100,54 149,84 43,28 84,58 127,88 -3,25 -8,75 -11,100 -200,101 -380,246 -595,313 -281,26 -461,-282 -733,-292 -6,-55 -8,-109 -11,-164 184,-102 375,-191 544,-318l0 0zm195 348c-28,31 -54,63 -80,96 -38,-18 -80,-23 -126,-14 53,98 116,199 224,243 15,9 45,27 60,36l-3 -58c14,2 43,7 57,9 16,-7 48,-20 64,-27 -28,-89 -63,-175 -90,-264 26,1 80,4 107,5 -33,-41 -77,-60 -133,-60 -15,-41 -6,-149 -74,-126 -100,7 -27,110 -6,160z"/>
   </g>
  </g>
  <g id="__x0023_325ab1ff">
   <path class="fil44" d="M10546 10573c46,-9 88,-4 126,14l16 48c17,-19 50,-60 67,-79 3,86 6,173 15,260 -108,-44 -171,-145 -224,-243z"/>
   <path class="fil44" d="M10024 10625c272,10 452,318 733,292 215,-67 395,-212 595,-313 0,90 -77,139 -144,182 -148,81 -294,167 -446,241 1,73 0,147 -16,219 -4,-76 -4,-152 -4,-228 -28,1 -84,2 -112,2 -79,-45 -159,-90 -238,-137 -50,-30 -100,-60 -152,-86 -89,-32 -175,-81 -216,-172z"/>
  </g>
  <g id="__x0023_365fb5ff">
   <path class="fil45" d="M10827 10794c-7,-33 -35,-114 23,-111 41,23 50,79 34,120 -14,-2 -43,-7 -57,-9z"/>
  </g>
  <g id="__x0023_fee5a9ff">
   <path class="fil46" d="M9276 10852c45,-19 89,-44 137,-54 97,22 196,49 276,110 -4,39 -19,74 -31,111 -4,92 -9,185 -24,277 47,10 94,20 142,29 9,-7 27,-20 36,-27 48,-36 87,-82 124,-129 -41,-5 -82,-10 -123,-16 0,-14 0,-42 0,-56 10,-9 30,-26 41,-34 9,-8 27,-23 37,-31 46,20 92,40 139,60 34,24 68,48 101,73 -4,29 -11,86 -15,115 -158,101 -319,196 -485,282 -81,43 -178,49 -261,9 -196,-88 -366,-227 -567,-307 -12,-32 -24,-64 -36,-95 137,-133 318,-204 483,-294 1,35 3,69 4,104 -96,103 -43,242 -32,365 15,-34 29,-68 45,-101 7,24 19,71 26,95l18 -5c19,-6 57,-17 76,-23 99,-2 111,-163 -3,-97 7,-47 14,-94 22,-140 -30,-80 -27,-198 -130,-221z"/>
  </g>
  <g id="__x0023_7a888fff">
   <path class="fil47" d="M11253 10867c116,5 -54,107 0,0z"/>
  </g>
  <g id="__x0023_6f85b5ff">
   <path class="fil48" d="M18257 10922c51,-30 101,-59 152,-89 527,300 1047,610 1572,913 -8,15 -23,47 -30,62 39,23 79,45 124,53 -6,24 -18,72 -24,95 -253,-124 -492,-276 -737,-415 -352,-207 -709,-406 -1057,-619z"/>
   <path class="fil48" d="M20303 11934c362,209 721,422 1084,629 -54,33 -109,65 -164,96 -305,-196 -624,-371 -940,-550 6,-58 13,-116 20,-175z"/>
  </g>
  <g id="__x0023_718aa4ff">
   <path class="fil49" d="M10128 10929c45,24 45,48 -1,72 -45,-24 -45,-48 1,-72z"/>
  </g>
  <g id="__x0023_7e8b93ff">
   <path class="fil50" d="M11252 10974c117,3 -51,108 0,0z"/>
  </g>
  <g id="__x0023_7f8d95ff">
   <path class="fil51" d="M10622 11080c117,5 -54,107 0,0z"/>
  </g>
  <g id="__x0023_e6c993ff">
   <path class="fil52" d="M9813 11153c41,6 82,11 123,16 -37,47 -76,93 -124,129 0,-36 1,-108 1,-145z"/>
  </g>
  <g id="__x0023_e6ca96ff">
   <path class="fil53" d="M9634 11296c39,-49 79,-96 122,-142 6,57 13,114 20,171 -48,-9 -95,-19 -142,-29z"/>
  </g>
  <g id="__x0023_b5b6a9ff">
   <path class="fil54" d="M10131 11165c63,40 32,123 7,177 -5,-15 -16,-46 -22,-62 4,-29 11,-86 15,-115z"/>
  </g>
  <g id="__x0023_e4c387ff">
   <path class="fil55" d="M9267 11243c43,-73 82,56 44,90l-18 5c-7,-24 -19,-71 -26,-95z"/>
  </g>
  <g id="__x0023_e0bf84ff">
   <path class="fil56" d="M9384 11213c114,-66 102,95 3,97 -1,-24 -2,-73 -3,-97z"/>
  </g>
  <g id="__x0023_5db9e3ff">
   <path class="fil57" d="M7811 11469c106,-85 252,-235 395,-147 53,25 106,51 155,84 30,23 60,48 89,73 -99,52 -190,127 -302,148 -124,-17 -225,-104 -337,-158z"/>
  </g>
  <g id="__x0023_ddbb7fff">
   <path class="fil58" d="M8803 11264c201,80 371,219 567,307 83,40 180,34 261,-9 166,-86 327,-181 485,-282 6,16 17,47 22,62l-8 25c-11,11 -34,33 -45,43l-16 15c-46,-7 -80,11 -99,53 -154,71 -295,166 -451,231l-30 2c-104,-23 -197,-76 -286,-132 -52,-32 -104,-62 -157,-91 -47,-27 -94,-53 -141,-80 -15,-3 -46,-9 -61,-12 -12,-45 -26,-88 -41,-132z"/>
  </g>
  <g id="__x0023_9ca8b0ff">
   <path class="fil59" d="M10726 11280c48,-18 65,-2 50,49 -48,18 -65,2 -50,-49z"/>
  </g>
  <g id="__x0023_939d9fff">
   <path class="fil60" d="M8844 11396c15,3 46,9 61,12 -24,47 -44,43 -61,-12z"/>
  </g>
  <g id="__x0023_a1acafff">
   <path class="fil61" d="M10085 11410c11,-10 34,-32 45,-43 76,42 -7,120 -45,43z"/>
  </g>
  <g id="__x0023_99a6adff">
   <path class="fil62" d="M10725 11387c49,-18 66,-2 51,49 -48,18 -65,2 -51,-49z"/>
  </g>
  <g id="__x0023_aeb3b0ff">
   <path class="fil63" d="M9970 11478c19,-42 53,-60 99,-53 -15,50 -49,68 -99,53z"/>
  </g>
  <g id="__x0023_7f8d94ff">
   <path class="fil64" d="M11250 11421l29 -10c53,63 -62,94 -29,10z"/>
  </g>
  <g id="__x0023_469bb5ff">
   <path class="fil65" d="M7811 11469c112,54 213,141 337,158 112,-21 203,-96 302,-148 -38,142 -197,176 -303,252 -64,-33 -127,-65 -191,-99 -71,-30 -132,-81 -145,-163z"/>
  </g>
  <g id="__x0023_98a5acff">
   <path class="fil66" d="M10712 11532c-1,-99 133,-7 42,26 -11,-6 -31,-19 -42,-26z"/>
  </g>
  <g id="__x0023_9facb4ff">
   <path class="fil67" d="M9988 11527c59,-17 78,3 58,60 -59,16 -78,-4 -58,-60z"/>
  </g>
  <g id="__x0023_9eabb3ff">
   <path class="fil68" d="M9988 11635c58,-17 77,3 58,60 -58,17 -77,-3 -58,-60z"/>
  </g>
  <g id="__x0023_afafb0ff">
   <path class="fil69" d="M10321 11620c747,437 1499,865 2248,1299 176,105 361,195 527,316 -3,21 -8,63 -11,84 -399,-224 -791,-459 -1190,-682 -371,-215 -742,-429 -1114,-643 -136,-78 -268,-166 -415,-224 -15,-50 -30,-100 -45,-150z"/>
  </g>
  <g id="__x0023_697e8fff">
   <path class="fil70" d="M8865 11770c-67,-53 64,-98 27,-14l-27 14z"/>
  </g>
  <g id="__x0023_69787eff">
   <path class="fil71" d="M9489 11711l30 -2c54,69 -79,75 -30,2z"/>
  </g>
  <g id="__x0023_717f86ff">
   <path class="fil72" d="M9383 11745c116,5 -54,106 0,0z"/>
  </g>
  <g id="__x0023_abb7bfff">
   <path class="fil73" d="M8118 11779c56,-20 76,0 59,58 -57,19 -77,0 -59,-58z"/>
  </g>
  <g id="__x0023_849399ff">
   <path class="fil74" d="M8861 11818c117,5 -54,106 0,0z"/>
  </g>
  <g id="__x0023_6e7d83ff">
   <path class="fil75" d="M9490 11820c116,4 -52,109 0,0z"/>
  </g>
  <g id="__x0023_a7b5d1ff">
   <path class="fil76" d="M20085 11817c-1,4 -3,12 -3,15l3 -15z"/>
  </g>
  <g id="__x0023_aebac1ff">
   <path class="fil77" d="M8119 11886c56,-18 76,1 58,60 -58,18 -77,-2 -58,-60z"/>
  </g>
  <g id="__x0023_d8d9daff">
   <path class="fil78" d="M9945 11865c333,186 658,386 992,569 96,51 186,111 268,181l-9 16c-51,41 -99,-10 -144,-29 -318,-182 -631,-373 -956,-543 -14,3 -42,10 -56,13 -13,5 -39,16 -51,20 -14,-76 -29,-152 -44,-227z"/>
  </g>
  <g id="__x0023_87959dff">
   <path class="fil79" d="M8862 11925c117,9 -58,104 0,0z"/>
  </g>
  <g id="__x0023_72899fff">
   <path class="fil80" d="M8125 12013c13,3 39,10 53,14l-13 23c-15,-4 -45,-11 -60,-15l20 -22z"/>
  </g>
  <g id="__x0023_a5b2b9ff">
   <path class="fil81" d="M8855 12023c56,-17 75,4 55,62 -57,17 -75,-3 -55,-62z"/>
  </g>
  <g id="__x0023_95a3aaff">
   <path class="fil82" d="M9989 12092c12,-4 38,-15 51,-20 -4,62 -21,69 -51,20z"/>
  </g>
  <g id="__x0023_a8b5bdff">
   <path class="fil83" d="M8118 12333c57,-19 76,1 58,59 -57,18 -76,-2 -58,-59z"/>
  </g>
  <g id="__x0023_a6b3baff">
   <path class="fil84" d="M8119 12441c57,-18 76,2 58,60 -58,17 -77,-3 -58,-60z"/>
  </g>
  <g id="__x0023_d6d6d6ff">
   <path class="fil85" d="M9497 12446l17 -24c126,39 250,92 359,168 3,13 8,37 11,50 -94,55 -187,118 -293,147 -121,-29 -221,-109 -322,-176 26,-103 178,-75 228,-165z"/>
   <path class="fil85" d="M11150 13747c7,5 23,15 30,20 7,4 19,12 26,16 63,38 128,73 192,109l2 43c-9,16 -27,46 -35,61 -2,-18 -6,-53 -7,-71 -93,50 -179,121 -285,138 -123,-27 -220,-114 -324,-179 25,-19 50,-38 76,-57 33,-24 66,-47 101,-70 9,13 26,37 35,50 -19,10 -56,31 -75,41 101,9 197,-21 264,-101z"/>
   <path class="fil85" d="M12315 15068c65,-36 133,-71 206,-87 118,21 221,87 323,145 -1,13 -3,39 -5,52 -89,56 -179,117 -282,145 -126,-28 -226,-116 -336,-177 30,-27 62,-53 94,-78z"/>
  </g>
  <g id="__x0023_a4b1b8ff">
   <path class="fil86" d="M8118 12548c58,-17 76,3 56,59 -58,17 -77,-2 -56,-59z"/>
  </g>
  <g id="__x0023_969798ff">
   <path class="fil87" d="M9269 12611c101,67 201,147 322,176 106,-29 199,-92 293,-147 1,98 -100,129 -169,173 -48,20 -96,62 -151,51l-34 -14c-98,-64 -255,-100 -261,-239z"/>
  </g>
  <g id="__x0023_b3babdff">
   <path class="fil88" d="M8109 12645c23,8 68,26 91,34 -16,79 -121,33 -91,-34z"/>
   <path class="fil88" d="M11050 14420c57,-18 76,1 58,60 -56,18 -76,-2 -58,-60z"/>
  </g>
  <g id="__x0023_dadbdbff">
   <path class="fil89" d="M11321 12682c22,7 68,21 90,28 100,50 191,119 298,153 95,11 171,-63 250,-103 -16,107 -106,197 -214,208 -117,-17 -219,-86 -317,-148 -2,-20 -7,-58 -9,-78 -7,10 -20,30 -27,40l-21 34c-17,-45 -33,-90 -50,-134z"/>
  </g>
  <g id="__x0023_b1b8bbff">
   <path class="fil90" d="M8118 12761c57,-19 76,0 59,59 -57,19 -77,-1 -59,-59z"/>
   <path class="fil90" d="M11049 14528c57,-20 77,-1 60,58 -57,19 -77,0 -60,-58z"/>
   <path class="fil90" d="M11050 14634c58,-18 77,2 58,59 -58,17 -77,-3 -58,-59z"/>
  </g>
  <g id="__x0023_3b4f8aff">
   <path class="fil91" d="M17560 12799c27,-2 79,-5 106,-6 1,18 5,55 7,73 20,-3 61,-10 81,-14 1,54 1,108 1,163l-2 36c-93,-58 -163,-146 -193,-252z"/>
  </g>
  <g id="__x0023_9fa9c6ff">
   <path class="fil92" d="M17666 12793l27 3c22,2 65,7 87,9 -5,60 -9,119 -15,178l-10 32c0,-55 0,-109 -1,-163 -20,4 -61,11 -81,14 -2,-18 -6,-55 -7,-73z"/>
  </g>
  <g id="__x0023_a8b4bbff">
   <path class="fil93" d="M11240 12846c36,-58 98,-4 83,50 -21,-13 -63,-38 -83,-50z"/>
  </g>
  <g id="__x0023_b1b8baff">
   <path class="fil94" d="M8117 12870c58,-19 77,1 60,58 -58,19 -77,-1 -60,-58z"/>
  </g>
  <g id="__x0023_fcfdfdff">
   <path class="fil95" d="M9475 13025c17,-58 -6,-142 55,-175l34 14 1 28c-2,117 1,235 -12,352 -7,10 -23,31 -31,41 -17,-68 -32,-135 -46,-203 -24,-6 -73,-17 -97,-22 32,-12 64,-24 96,-35z"/>
  </g>
  <g id="__x0023_b2b9bcff">
   <path class="fil96" d="M8118 12977c58,-18 77,2 59,59 -58,18 -78,-2 -59,-59z"/>
  </g>
  <g id="__x0023_b4bbbeff">
   <path class="fil97" d="M8118 13084c57,-19 77,0 59,58 -58,19 -77,0 -59,-58z"/>
  </g>
  <g id="__x0023_b8b9baff">
   <path class="fil98" d="M13290 13114c51,1 102,3 153,4 -1,54 13,110 -7,163 -50,66 -133,90 -207,119 -1,-23 -4,-70 -5,-93 50,-53 71,-121 66,-193z"/>
  </g>
  <g id="__x0023_b7bdc0ff">
   <path class="fil99" d="M8118 13192c56,-20 76,-1 59,58 -57,19 -77,0 -59,-58z"/>
  </g>
  <g id="__x0023_cfcfcfff">
   <path class="fil100" d="M13127 13285c14,-3 43,-8 58,-11 6,13 17,40 23,54 -23,51 -101,2 -81,-43z"/>
  </g>
  <g id="__x0023_707e85ff">
   <path class="fil101" d="M9562 13362c116,6 -54,107 0,0z"/>
  </g>
  <g id="__x0023_717e83ff">
   <path class="fil102" d="M9556 13464l30 3 22 21c-10,9 -31,26 -42,35 -2,-15 -7,-44 -10,-59z"/>
  </g>
  <g id="__x0023_6c7a7eff">
   <path class="fil103" d="M9562 13576c116,7 -54,107 0,0z"/>
  </g>
  <g id="__x0023_68767bff">
   <path class="fil104" d="M9562 13683c115,4 -52,109 0,0z"/>
  </g>
  <g id="__x0023_c6c6c6ff">
   <path class="fil105" d="M10926 13757c48,-21 99,-36 152,-43 18,8 54,25 72,33 -67,80 -163,110 -264,101 19,-10 56,-31 75,-41 -9,-13 -26,-37 -35,-50z"/>
  </g>
  <g id="__x0023_68757bff">
   <path class="fil106" d="M9563 13790c115,8 -56,107 0,0z"/>
  </g>
  <g id="__x0023_6b787dff">
   <path class="fil107" d="M9563 13898c115,10 -58,105 0,0z"/>
  </g>
  <g id="__x0023_97999aff">
   <path class="fil108" d="M10749 13884c104,65 201,152 324,179 106,-17 192,-88 285,-138 1,18 5,53 7,71 -88,59 -179,115 -275,158 -95,-20 -176,-84 -259,-132 -56,-24 -63,-88 -82,-138z"/>
  </g>
  <g id="__x0023_6f7d81ff">
   <path class="fil109" d="M9563 14005c115,9 -56,106 0,0z"/>
  </g>
  <g id="__x0023_758287ff">
   <path class="fil110" d="M9562 14114c115,5 -53,107 0,0z"/>
  </g>
  <g id="__x0023_9ba7afff">
   <path class="fil111" d="M11055 14209c49,-16 66,1 50,52 -49,15 -65,-2 -50,-52z"/>
  </g>
  <g id="__x0023_a0abb0ff">
   <path class="fil112" d="M11036 14307c51,-6 80,16 87,67 -49,3 -77,-20 -87,-67z"/>
  </g>
  <g id="__x0023_b3babcff">
   <path class="fil113" d="M11050 14740c57,-19 77,1 58,59 -57,18 -76,-1 -58,-59z"/>
  </g>
  <g id="__x0023_b6bcbfff">
   <path class="fil114" d="M11050 14847c57,-18 76,1 58,59 -58,18 -77,-2 -58,-59z"/>
  </g>
  <g id="__x0023_b8bfc1ff">
   <path class="fil115" d="M11052 14953c56,-18 75,2 56,60 -57,18 -76,-2 -56,-60z"/>
  </g>
  <g id="__x0023_959596ff">
   <path class="fil116" d="M12221 15146c110,61 210,149 336,177 103,-28 193,-89 282,-145 -2,19 -7,56 -9,75 -31,21 -63,42 -96,61 -58,33 -116,67 -180,87 -129,-49 -290,-108 -333,-255z"/>
  </g>
  <g id="__x0023_838f93ff">
   <path class="fil117" d="M12529 15449c116,7 -55,106 0,0z"/>
  </g>
  <g id="__x0023_859195ff">
   <path class="fil118" d="M12529 15556c117,10 -57,105 0,0z"/>
  </g>
  <g id="__x0023_899599ff">
   <path class="fil119" d="M12530 15663c116,12 -59,103 0,0z"/>
  </g>
  <g id="__x0023_8f999dff">
   <path class="fil120" d="M12530 15771c117,12 -60,103 0,0z"/>
  </g>
  <g id="__x0023_94b5ddff">
   <path class="fil121" d="M5775 15989c92,-10 142,61 132,146 10,71 -69,56 -99,17 -36,-45 -22,-110 -33,-163z"/>
  </g>
  <g id="__x0023_8eb0daff">
   <path class="fil122" d="M6105 16114c672,384 1336,782 2009,1164 2,84 0,168 -5,252 -633,-352 -1252,-729 -1882,-1087 -43,-26 -90,-49 -126,-85 -11,-81 -1,-163 4,-244z"/>
  </g>
  <g id="__x0023_90b2dbff">
   <path class="fil123" d="M8323 17480c111,-44 127,118 109,192 -89,-11 -149,-109 -109,-192z"/>
  </g>
  <path class="fil124 str0" d="M12897 6540c-24,-14 -36,-20 -36,-20 10,69 17,112 21,128 61,25 95,57 124,117 -109,61 -158,9 -158,9 -49,0 -22,46 -5,61 63,63 135,31 139,13 74,-67 85,-131 33,-190 -44,-23 -67,-35 -67,-35 -11,-71 -19,-103 -24,-95 -18,8 -27,12 -27,12z"/>
 </g>
 <g id="кран_x0020_коробка">
  <metadata id="CorelCorpID_1Corel-Layer"/>
  <path class="fil0" d="M9026 8174c0,-1 -172,280 156,463l600 350c-205,123 -416,238 -622,360l-10 7c-353,-235 -711,-463 -1056,-710l932 -470z"/>
  <path class="fil14" d="M9782 8987l137 82 -1 535c-256,147 -509,301 -771,436 0,-230 -6,-460 3,-691 206,-122 427,-239 632,-362z"/>
 </g>
 <g id="кран">
  <metadata id="CorelCorpID_2Corel-Layer"/>
  <polygon class="fil125" points="12540,5921 12974,5742 13337,5913 12906,6165 "/>
  <path class="fil1" d="M12540 5921c123,80 246,160 366,244 -4,125 -7,250 -9,375l-36 -20c-111,-63 -220,-127 -330,-190 -6,-136 -2,-273 9,-409z"/>
  <path class="fil0" d="M12907 6142c142,-78 284,-158 430,-229 -5,138 -11,275 -15,413 -140,75 -280,151 -425,214 2,-132 5,-265 10,-398z"/>
  <line class="fil126 str0" x1="8478" y1="3286" x2="8478" y2= "8829" />
  <line class="fil126 str0" x1="8994" y1="9054" x2="8981" y2= "3630" />
  <polyline class="fil126 str0" points="12884,6157 6636,1997 6636,1563 "/>
  <polyline class="fil126 str0" points="8508,3243 8478,3286 8981,3630 9015,3580 "/>
  <polygon class="fil126 str0" points="12156,5254 12497,5020 13337,5913 12884,6157 "/>
  <polyline class="fil126 str0" points="12529,5054 12523,5443 12145,5665 "/>
  <line class="fil126 str0" x1="12523" y1="5443" x2="13337" y2= "5913" />
  <polyline class="fil126 str0" points="6636,1563 7111,1392 12497,5020 "/>
  <polyline class="fil126 str0" points="7111,1392 7118,1852 6636,1997 "/>
  <polyline class="fil126 str0" points="7107,2310 7118,1852 7526,1672 "/>
  <line class="fil126 str0" x1="7118" y1="1852" x2="12523" y2= "5443" />
  <polyline class="fil126 str0" points="7526,1672 7520,2120 7918,1936 7885,2362 8230,2146 8214,2580 "/>
  <polyline class="fil126 str0" points="7107,2310 7467,2119 7469,2551 7840,2368 7831,2792 8178,2595 8176,3022 8564,2852 "/>
  <polyline class="fil126 str0" points="8215,2560 8598,2394 8599,2815 "/>
  <line class="fil126 str0" x1="8564" y1="2852" x2="8546" y2= "3268" />
  <line class="fil126 str0" x1="8896" y1="3074" x2="8890" y2= "3497" />
  <polyline class="fil126 str0" points="9377,3208 9655,3106 9640,3528 "/>
  <polyline class="fil126 str0" points="9654,3537 10018,3350 10004,3770 "/>
  <polyline class="fil126 str0" points="9015,3580 9516,3317 9509,7838 "/>
  <line class="fil126 str0" x1="9623" y1="3560" x2="9611" y2= "3978" />
  <line class="fil126 str0" x1="9576" y1="3954" x2="9951" y2= "3779" />
  <polyline class="fil126 str0" points="10005,3816 10007,4241 10387,4071 10373,4485 10741,4308 10701,4704 11068,4527 11066,4947 11457,4787 11445,5199 11778,5001 11743,5397 12156,5254 "/>
  <polyline class="fil126 str0" points="10004,3770 10411,3615 10410,4039 10805,3880 10783,4287 11141,4106 11120,4511 11504,4351 11492,4758 11843,4579 11842,4990 12193,4815 12197,5226 "/>
  <polyline class="fil126 str0" points="8478,3613 8983,4315 8478,4678 8879,3560 "/>
  <polyline class="fil126 str0" points="8478,4678 8977,4004 9514,4665 9481,4454 9020,3577 "/>
  <line class="fil126 str0" x1="8983" y1="4315" x2="9516" y2= "3574" />
  <polyline class="fil126 str0" points="8478,3613 8985,4996 9516,3574 "/>
  <line class="fil126 str0" x1="9514" y1="4665" x2="8983" y2= "4315" />
  <polyline class="fil126 str0" points="8478,4678 8985,4996 9514,4665 "/>
  <polygon class="fil126 str0" points="8987,6120 8478,5730 8983,4315 9512,5803 "/>
  <polyline class="fil126 str0" points="8987,6120 9514,4665 8986,5492 9512,5803 "/>
  <polyline class="fil126 str0" points="9511,6802 8986,5492 8478,6861 "/>
  <polyline class="fil126 str0" points="8987,6120 8478,4678 8986,5492 "/>
  <polyline class="fil126 str0" points="8478,5730 8985,4996 9512,5803 "/>
  <polyline class="fil126 str0" points="8478,6861 8987,6120 9511,6802 "/>
  <polyline class="fil126 str0" points="9512,5803 8988,6524 8478,5770 8478,5730 "/>
  <polygon class="fil126 str0" points="9511,6802 8992,8197 8478,6861 8988,6524 "/>
  <polyline class="fil126 str0" points="8992,6533 8482,7889 8998,9063 "/>
  <polyline class="fil126 str0" points="8478,7880 8990,7199 9509,7838 "/>
  <polyline class="fil126 str0" points="8478,6861 8990,7199 9511,6802 "/>
  <line class="fil126 str0" x1="8988" y1="6524" x2="9509" y2= "7838" />
  <polyline class="fil126 str0" points="8478,7880 8991,7655 9509,7838 "/>
  <polygon class="fil126 str0" points="8478,7390 8991,7655 9510,7397 9039,7161 "/>
  <line class="fil126 str0" x1="9512" y1="5803" x2="9039" y2= "7161" />
  <line class="fil126 str0" x1="8974" y1="7188" x2="8478" y2= "5770" />
  <line class="fil126 str0" x1="8959" y1="7669" x2="8478" y2= "8829" />
  <polyline class="fil126 str0" points="8478,7880 8992,8197 8478,8829 "/>
  <path class="fil0" d="M8673 2145c125,-66 249,-136 379,-191 72,297 143,595 217,891 7,29 15,58 22,88 21,88 84,387 105,476 -84,30 -380,173 -381,171 -32,-237 -265,-1068 -317,-1301 -10,-45 -17,-89 -25,-134z"/>
  <path class="fil0" d="M8912 3075c95,55 191,110 278,177 61,33 30,108 32,162 -54,26 -107,54 -157,89l-52 36c-90,-138 -79,-308 -101,-464z"/>
  <path class="fil1" d="M8673 2145c51,280 310,1151 347,1432l-348 -225 1 -1207z"/>
  <path class="fil126" d="M8909 3047l3 28c22,156 11,326 101,464l12 23c-51,-36 -125,-54 -147,-118"/>
  <polyline class="fil126 str0" points="6636,1563 12156,5254 12145,5665 "/>
  <line class="fil126 str0" x1="9377" y1="3208" x2="9194" y2= "3274" />
 </g>
 <g id="валик">
  <metadata id="CorelCorpID_3Corel-Layer"/>
  <g id="__x0023_4c4c4cff">
   <path class="fil127" d="M24364 8116c113,-68 255,-28 356,44 181,134 302,345 337,566 22,124 -10,263 -118,339 -149,105 -313,187 -468,281 -877,512 -1756,1023 -2633,1535 -292,167 -533,406 -790,621 -80,63 -141,157 -245,183 -45,0 -90,0 -134,0 -117,-31 -227,-92 -312,-177 124,-73 248,-145 372,-219 41,-22 33,-74 29,-113 -5,-101 -48,-197 -104,-280 -52,-76 -119,-145 -200,-189 -21,-12 -49,-22 -68,-2 -126,75 -254,147 -381,220 -22,-54 -23,-113 -34,-170 -10,-155 32,-347 191,-411 152,-45 302,-95 452,-144 162,-55 331,-97 480,-185 1091,-632 2179,-1268 3270,-1899z"/>
   <path class="fil127" d="M18356 16674c51,36 117,58 151,115 32,43 42,97 51,150 -1,24 13,59 -10,77 -49,-29 -99,-55 -146,-85 3,-50 9,-101 -11,-148 -11,-37 -35,-70 -35,-109z"/>
   <path class="fil127" d="M17956 17576c42,-14 79,-52 126,-45 39,30 97,43 124,84 -68,38 -143,77 -223,67 -69,-7 -122,-57 -183,-86 50,-20 107,3 156,-20z"/>
  </g>
  <g id="__x0023_949fa1ff">
   <path class="fil128" d="M15974 13359c40,52 103,74 156,108 1635,952 3270,1902 4905,2853 34,17 32,67 -2,83 -105,62 -210,123 -316,183 -357,-218 -723,-422 -1083,-635 -1194,-694 -2388,-1388 -3581,-2083 -37,-20 -83,-45 -87,-92 -2,-131 -1,-263 -1,-395l9 -22z"/>
   <path class="fil128" d="M17913 15886c223,-163 512,-247 786,-184 132,43 238,145 310,262 76,125 113,270 128,415 57,376 20,547 -109,912 -121,-73 -97,-52 -218,-126 80,-223 119,-469 61,-702 -29,-118 -92,-233 -195,-302 -49,-36 -111,-43 -163,-70 -30,-26 -71,-21 -107,-24 -188,-6 -363,84 -512,191 -247,183 -432,437 -564,711 -113,247 -185,521 -155,794 19,125 56,257 149,348l-3 -26c63,73 138,144 237,164 178,43 362,-20 515,-112 142,-85 263,-201 372,-325 12,-15 28,-30 30,-50 -32,-21 -64,-41 -98,-58 -17,-8 -44,-24 -57,-1 -140,158 -315,300 -526,345 -64,17 -130,2 -196,6 -139,-51 -212,-199 -238,-337 -24,-172 -3,-347 53,-511 101,-306 289,-585 547,-780 142,-101 318,-180 496,-143 68,19 140,48 181,110l-19 -2c134,203 114,467 45,690 -38,-21 -76,-44 -115,-65 23,-18 9,-53 10,-77 -9,-53 -19,-107 -51,-150 -34,-57 -100,-79 -151,-115 -82,-64 -198,-67 -288,-21 -168,82 -285,240 -359,407 -45,112 -72,236 -48,355 15,79 69,145 139,181 61,29 114,79 183,86 80,10 155,-29 223,-67 -27,-41 -85,-54 -124,-84 -62,-37 -138,-61 -183,-119 -22,-133 38,-265 107,-377 3,5 11,13 15,18 326,190 654,377 981,567 81,45 161,107 259,104 2,147 0,293 2,440 90,20 173,-42 248,-84 631,-366 1262,-732 1891,-1100 72,-42 155,-73 206,-143 1,67 -8,134 -10,201 -84,72 -189,116 -283,175 -667,387 -1333,775 -2000,1162 -72,47 -162,62 -246,45 -66,-7 -119,-48 -175,-79 -117,-65 -231,-137 -350,-198 -108,63 -218,124 -326,189 -86,50 -166,112 -254,158 -157,83 -332,140 -511,134 -133,-9 -271,-45 -373,-134 -155,-150 -227,-368 -228,-580 -10,-239 31,-477 101,-704 168,-527 509,-999 960,-1320z"/>
  </g>
  <path class="fil129" d="M20386 10705c19,-20 47,-10 68,2 81,44 148,113 200,189 -264,145 -521,302 -782,451 -1108,644 -2217,1289 -3325,1932 -17,12 -38,19 -48,39 3,6 9,17 12,23 115,75 238,139 356,211 46,24 90,51 135,76 1024,602 2053,1195 3078,1794 485,279 966,564 1452,842 42,23 87,59 79,113 -14,32 -39,58 -70,74 -663,385 -1326,771 -1990,1157 -90,51 -180,121 -290,116 -98,3 -178,-59 -259,-104 -327,-190 -655,-377 -981,-567 -4,-5 -12,-13 -15,-18 53,-76 118,-148 201,-193 8,-1 22,-2 30,-3 57,25 109,62 165,92 47,30 97,56 146,85 39,21 77,44 115,65 10,6 30,17 39,22 36,20 72,41 108,62 121,74 246,139 367,212 49,32 115,35 165,7 246,-141 489,-285 734,-425 215,-123 428,-248 641,-373 106,-60 211,-121 316,-183 34,-16 36,-66 2,-83 -1635,-951 -3270,-1901 -4905,-2853 -53,-34 -116,-56 -156,-108 -15,-45 1,-94 44,-117 1221,-711 2444,-1419 3664,-2130 108,-62 214,-128 323,-187 127,-73 255,-145 381,-220z"/>
  <g id="__x0023_b6b6b6ff">
   <path class="fil130" d="M19872 11347c261,-149 518,-306 782,-451 56,83 99,179 104,280 4,39 12,91 -29,113 -124,74 -248,146 -372,219 -210,133 -429,250 -641,380 -430,246 -856,496 -1284,745 -511,291 -1016,593 -1526,887 -14,9 -27,20 -39,32 -118,-72 -241,-136 -356,-211 -3,-6 -9,-17 -12,-23 10,-20 31,-27 48,-39 1108,-643 2217,-1288 3325,-1932z"/>
   <path class="fil130" d="M21611 16377c3,153 9,307 -3,460 -51,70 -134,101 -206,143 -629,368 -1260,734 -1891,1100 -75,42 -158,104 -248,84 -2,-147 0,-293 -2,-440 110,5 200,-65 290,-116 664,-386 1327,-772 1990,-1157 31,-16 56,-42 70,-74z"/>
  </g>
  <g id="__x0023_9cbfbfff">
   <path class="fil131" d="M11641 11810c203,-40 408,22 585,121 1658,967 3320,1928 4979,2895 438,252 875,508 1311,765 61,37 127,67 183,111 -274,-63 -563,21 -786,184 -451,321 -792,793 -960,1320 -70,227 -111,465 -101,704 1,212 73,430 228,580 -195,-95 -376,-216 -565,-321 -2017,-1174 -4035,-2349 -6052,-3523 -182,-125 -289,-335 -315,-551 -40,-349 63,-695 200,-1012 143,-308 324,-603 569,-841 200,-201 443,-373 724,-432z"/>
   <path class="fil131" d="M17922 16285c169,-126 375,-222 591,-194 52,27 114,34 163,70 103,69 166,184 195,302 58,233 19,479 -61,702 -36,-21 -72,-42 -108,-62 63,-231 90,-508 -65,-710 -41,-62 -113,-91 -181,-110 -178,-37 -354,42 -496,143 -258,195 -446,474 -547,780 -56,164 -77,339 -53,511 26,138 99,286 238,337 149,54 311,7 444,-67 129,-71 238,-173 335,-283 34,17 66,37 98,58 -2,20 -18,35 -30,50 -109,124 -230,240 -372,325 -153,92 -337,155 -515,112 -99,-20 -174,-91 -237,-164 -88,-118 -113,-269 -117,-412 1,-253 73,-502 186,-728 127,-254 305,-487 532,-660z"/>
  </g>
  <g id="__x0023_666567ff">
   <path class="fil132" d="M17894 16258c149,-107 324,-197 512,-191 36,3 77,-2 107,24 -216,-28 -422,68 -591,194 -227,173 -405,406 -532,660 -113,226 -185,475 -186,728 4,143 29,294 117,412l3 26c-93,-91 -130,-223 -149,-348 -30,-273 42,-547 155,-794 132,-274 317,-528 564,-711z"/>
   <path class="fil132" d="M18618 16391l19 2c155,202 128,479 65,710 -9,-5 -29,-16 -39,-22 69,-223 89,-487 -45,-690z"/>
   <path class="fil132" d="M18068 16653c90,-46 206,-43 288,21 0,39 24,72 35,109 20,47 14,98 11,148 -56,-30 -108,-67 -165,-92 -8,1 -22,2 -30,3 -83,45 -148,117 -201,193 -69,112 -129,244 -107,377 45,58 121,82 183,119 -47,-7 -84,31 -126,45 -49,23 -106,0 -156,20 -70,-36 -124,-102 -139,-181 -24,-119 3,-243 48,-355 74,-167 191,-325 359,-407z"/>
   <path class="fil132" d="M18320 17703c13,-23 40,-7 57,1 -97,110 -206,212 -335,283 -133,74 -295,121 -444,67 66,-4 132,11 196,-6 211,-45 386,-187 526,-345z"/>
  </g>
 </g>
</svg>
