<?xml version="1.0" encoding="UTF-8"?>
<!DOCTYPE svg PUBLIC "-//W3C//DTD SVG 1.1//EN" "http://www.w3.org/Graphics/SVG/1.1/DTD/svg11.dtd">
<!-- Creator: CorelDRAW X8 -->
<svg xmlns="http://www.w3.org/2000/svg" xml:space="preserve" width="210mm" height="297mm" version="1.1" style="shape-rendering:geometricPrecision; text-rendering:geometricPrecision; image-rendering:optimizeQuality; fill-rule:evenodd; clip-rule:evenodd"
viewBox="0 0 21000 29700"
 xmlns:xlink="http://www.w3.org/1999/xlink">
 <defs>
  <style type="text/css">
   <![CDATA[
    .fil87 {fill:#00387B}
    .fil91 {fill:#003F82}
    .fil69 {fill:#004386}
    .fil94 {fill:#00498D}
    .fil48 {fill:#004E93}
    .fil76 {fill:#0056D6}
    .fil72 {fill:#00579F}
    .fil53 {fill:#005AA1}
    .fil65 {fill:#005BA2}
    .fil37 {fill:#0061A7}
    .fil56 {fill:#0066B0}
    .fil88 {fill:#0067B1}
    .fil34 {fill:#006BB4}
    .fil36 {fill:#0074BD}
    .fil84 {fill:#0075BF}
    .fil85 {fill:#0075D5}
    .fil129 {fill:#0078D8}
    .fil73 {fill:#0078F1}
    .fil30 {fill:#007CC6}
    .fil77 {fill:#007ECB}
    .fil46 {fill:#007EDC}
    .fil60 {fill:#0082E0}
    .fil61 {fill:#0087E4}
    .fil71 {fill:#0088D8}
    .fil20 {fill:#008ADD}
    .fil103 {fill:#008AE7}
    .fil70 {fill:#008BE7}
    .fil28 {fill:#008CD9}
    .fil128 {fill:#008DE9}
    .fil57 {fill:#0090EB}
    .fil50 {fill:#0092EC}
    .fil41 {fill:#0094ED}
    .fil83 {fill:#0096F1}
    .fil58 {fill:#0096FF}
    .fil27 {fill:#0097E4}
    .fil55 {fill:#0098E5}
    .fil40 {fill:#0099F1}
    .fil116 {fill:#009AF1}
    .fil63 {fill:#009BF2}
    .fil127 {fill:#009CF4}
    .fil38 {fill:#009DF4}
    .fil26 {fill:#009EF7}
    .fil25 {fill:#009FED}
    .fil39 {fill:#009FEE}
    .fil119 {fill:#00A6F8}
    .fil43 {fill:#00A8FE}
    .fil31 {fill:#00A9FD}
    .fil21 {fill:#00AEFD}
    .fil24 {fill:#00AFFF}
    .fil104 {fill:#00BBFF}
    .fil118 {fill:#00BFFF}
    .fil33 {fill:#00C6FF}
    .fil110 {fill:#00C9FF}
    .fil123 {fill:#00D2FF}
    .fil100 {fill:#29CCF4}
    .fil108 {fill:#2ED1FF}
    .fil15 {fill:#38AADC}
    .fil138 {fill:#43C8FB}
    .fil106 {fill:#46D3FF}
    .fil102 {fill:#4CD6F8}
    .fil137 {fill:#5BD4FF}
    .fil99 {fill:#5ED2F5}
    .fil17 {fill:#66D9FF}
    .fil68 {fill:#68E2FC}
    .fil105 {fill:#6BE3FC}
    .fil92 {fill:#6FD4F5}
    .fil134 {fill:#70DAFF}
    .fil101 {fill:#7CDFF9}
    .fil52 {fill:#7CEDFF}
    .fil112 {fill:#80EDFF}
    .fil96 {fill:#85DCF7}
    .fil80 {fill:#88E3F8}
    .fil19 {fill:#8C09C2}
    .fil78 {fill:#8FEFFF}
    .fil5 {fill:#944F00}
    .fil90 {fill:#9CF0FF}
    .fil93 {fill:#9EF0FF}
    .fil14 {fill:#9FC4DB}
    .fil13 {fill:#A01ACC}
    .fil98 {fill:#A2F1FF}
    .fil97 {fill:#A5EDFD}
    .fil51 {fill:#ACF2FF}
    .fil75 {fill:#ADF2FF}
    .fil23 {fill:#AEC5DF}
    .fil82 {fill:#B6F4FF}
    .fil9 {fill:#B92DD7}
    .fil107 {fill:#B9F4FF}
    .fil11 {fill:#BC30D9}
    .fil12 {fill:#BC31D9}
    .fil64 {fill:#C9EBF6}
    .fil54 {fill:#C9ECF7}
    .fil89 {fill:#C9F6FF}
    .fil3 {fill:#D242E3}
    .fil8 {fill:#D544E4}
    .fil45 {fill:#D6F9FF}
    .fil95 {fill:#D9F9FF}
    .fil42 {fill:#E0FAFF}
    .fil18 {fill:#E4FBFF}
    .fil49 {fill:#E6EFF7}
    .fil59 {fill:#E6F1F9}
    .fil2 {fill:#E954EE}
    .fil7 {fill:#EC56F0}
    .fil6 {fill:#F05AF1}
    .fil22 {fill:#FF4A21}
    .fil10 {fill:#FF4B1E}
    .fil29 {fill:#FF6521}
    .fil16 {fill:#FF661E}
    .fil1 {fill:#FF66F8}
    .fil32 {fill:#FF6A00}
    .fil0 {fill:#FF76FF}
    .fil35 {fill:#FFA700}
    .fil66 {fill:#FFD2AA}
    .fil4 {fill:white}
    .fil74 {fill:#27383F;fill-opacity:0.250980}
    .fil122 {fill:#3B474C;fill-opacity:0.301961}
    .fil81 {fill:#324651;fill-opacity:0.321569}
    .fil111 {fill:#51636D;fill-opacity:0.431373}
    .fil125 {fill:#49707C;fill-opacity:0.490196}
    .fil114 {fill:#527480;fill-opacity:0.501961}
    .fil124 {fill:#4E7683;fill-opacity:0.509804}
    .fil115 {fill:#507583;fill-opacity:0.509804}
    .fil47 {fill:#E0FAFF;fill-opacity:0.529412}
    .fil62 {fill:#38728D;fill-opacity:0.549020}
    .fil109 {fill:#51798A;fill-opacity:0.549020}
    .fil139 {fill:#67848F;fill-opacity:0.560784}
    .fil131 {fill:#4F939F;fill-opacity:0.619608}
    .fil44 {fill:#E0FAFF;fill-opacity:0.631373}
    .fil79 {fill:#5298A3;fill-opacity:0.639216}
    .fil135 {fill:#72A0B0;fill-opacity:0.690196}
    .fil140 {fill:#5AA7B3;fill-opacity:0.709804}
    .fil136 {fill:#77ACBD;fill-opacity:0.741176}
    .fil120 {fill:#4CA1C0;fill-opacity:0.749020}
    .fil133 {fill:#73AFBE;fill-opacity:0.749020}
    .fil132 {fill:#75B4C5;fill-opacity:0.768627}
    .fil113 {fill:#007BC7;fill-opacity:0.780392}
    .fil86 {fill:#0160A7;fill-opacity:0.780392}
    .fil121 {fill:#0182C1;fill-opacity:0.788235}
    .fil142 {fill:#67CAE4;fill-opacity:0.890196}
    .fil117 {fill:#71D2E2;fill-opacity:0.890196}
    .fil126 {fill:#71D2E3;fill-opacity:0.890196}
    .fil130 {fill:#73D6E7;fill-opacity:0.909804}
    .fil67 {fill:#BAA07C;fill-opacity:0.941176}
    .fil141 {fill:#7BD3F2;fill-opacity:0.949020}
    .fil143 {fill:#00C9F5;fill-opacity:0.960784}
   ]]>
  </style>
 </defs>
 <g id="Слой_x0020_1">
  <metadata id="CorelCorpID_0Corel-Layer"/>
  <g id="_23ff76ffff">
   <path class="fil0" d="M7683 5468c4,-79 112,-102 168,-58 212,119 422,244 634,365 -7,22 -14,44 -21,65 -170,132 -366,234 -506,400 -80,86 -189,133 -278,207 5,-326 0,-653 3,-979z"/>
  </g>
  <g id="_23ff66f8ff">
   <path class="fil1" d="M8464 5840c7,-21 14,-43 21,-65 184,106 367,213 551,318 -218,258 -531,410 -763,654 -23,-6 -68,-18 -91,-24 -63,-49 -130,-91 -201,-128 -1,56 -1,113 -1,169 -122,47 -227,128 -307,231 6,-182 -7,-365 7,-548 89,-74 198,-121 278,-207 140,-166 336,-268 506,-400z"/>
  </g>
  <g id="_23e954eeff">
   <path class="fil2" d="M9036 6093c167,95 332,193 498,288 -138,191 -359,289 -513,464 -98,58 -199,113 -261,213l-34 3c0,-112 -1,-224 -4,-337 -59,-27 -118,-55 -176,-83 1,114 1,228 0,341 -26,-5 -79,-17 -105,-23 -35,-85 -88,-164 -168,-212 232,-244 545,-396 763,-654z"/>
  </g>
  <g id="_23d242e3ff">
   <path class="fil3" d="M9534 6381c124,80 271,131 374,238 -2,163 -3,326 -3,488 -118,77 -236,153 -349,237 -42,26 -41,81 -53,124 -56,-38 -118,-65 -180,-92 -64,-43 -129,-86 -195,-126 -2,60 -4,120 -5,180 -37,26 -73,53 -109,79 -6,-118 20,-255 -62,-353 -46,-61 -122,-81 -192,-98 62,-100 163,-155 261,-213 154,-175 375,-273 513,-464z"/>
  </g>
  <g id="_23ffffffff">
   <g>
    <path class="fil4" d="M7981 6595c71,37 138,79 201,128 23,6 68,18 91,24 80,48 133,127 168,212 21,142 55,309 -35,434 -80,68 -168,-23 -243,-55 -1,83 -2,166 -4,249 -64,-37 -126,-77 -186,-118 18,-235 5,-470 7,-705 0,-56 0,-113 1,-169l0 0zm180 297c-1,88 -7,176 5,264 26,35 61,46 103,32 7,-102 43,-291 -108,-296z"/>
   </g>
   <path class="fil4" d="M8546 6641c58,28 117,56 176,83 3,113 4,225 4,337l34 -3c70,17 146,37 192,98 82,98 56,235 62,353 0,103 -1,205 -1,308 -60,-33 -119,-67 -178,-101 3,-149 1,-298 0,-446 -36,-16 -71,-32 -106,-48 -3,143 -3,287 -5,431 -57,-34 -116,-64 -168,-105 -25,-187 -3,-378 -10,-566 1,-113 1,-227 0,-341z"/>
   <g>
    <path class="fil4" d="M9128 7250c66,40 131,83 195,126 62,27 124,54 180,92 109,166 131,380 64,566 -13,14 -39,43 -51,57 -78,-25 -151,-62 -218,-109 1,87 2,173 2,259 -59,-32 -117,-65 -175,-97 1,-238 -4,-476 -2,-714 1,-60 3,-120 5,-180l0 0zm175 289c-5,96 -4,192 2,288 33,14 67,27 101,40 5,-112 52,-299 -103,-328z"/>
   </g>
   <path class="fil4" d="M14565 8260c281,180 573,340 861,509 303,176 630,313 914,519 12,150 -26,298 -44,445 -281,-169 -570,-323 -859,-477 -171,-97 -341,-195 -511,-292 1,156 13,312 36,467 140,75 279,152 419,226 292,157 584,317 861,500 -10,367 -90,727 -118,1093 -237,-57 -468,-137 -704,-197 -99,-60 -169,-156 -252,-234 -144,-153 -302,-292 -436,-452 -23,-135 -25,-273 -50,-408 102,64 217,107 317,175 31,65 25,150 85,198 102,92 205,182 309,271 120,54 251,79 378,110 19,-130 55,-261 39,-393 -111,-85 -242,-140 -362,-213 -239,-140 -493,-253 -734,-389 -82,-33 -65,-125 -71,-195 -31,-420 -72,-841 -78,-1263z"/>
   <g>
    <path class="fil4" d="M10065 9405c30,-22 59,-44 89,-65 269,163 545,316 817,475 158,91 316,183 475,274 166,95 330,191 496,286 223,128 445,258 668,385 105,59 209,147 224,274 23,173 6,347 12,520 -1,254 -1,509 -1,763l0 24c-271,36 -534,110 -800,169 -230,-130 -457,-266 -688,-394 -6,-337 -3,-673 -2,-1010 -156,-81 -352,-139 -516,-44 -200,113 -260,363 -266,577 0,396 149,782 378,1101 -73,19 -147,34 -221,43 -220,-120 -432,-251 -652,-371 -1,105 -2,211 0,316 87,52 173,104 261,154 -124,35 -251,67 -379,85l-8 -5c-74,-66 -125,-157 -131,-257 1,-1062 -3,-2124 4,-3185 28,-33 56,-65 82,-99 8,-10 24,-30 32,-40 42,7 84,15 126,24l0 0zm12 318c-1,183 1,367 -1,550 309,179 616,365 931,533 6,-182 11,-365 0,-546 -306,-185 -617,-363 -930,-537l0 0zm1384 1374c-2,285 1,570 -2,856 225,131 447,267 678,386 -23,-481 -253,-987 -676,-1242z"/>
   </g>
   <path class="fil4" d="M13132 11108c170,88 332,189 499,284 188,106 375,216 563,324 126,72 251,146 377,217 -209,69 -428,100 -639,165l-5 -2c-241,-138 -480,-278 -722,-415 -28,-22 -78,-34 -71,-79 -8,-108 -1,-216 -2,-323 0,-57 0,-114 0,-171z"/>
   <path class="fil4" d="M16562 11775c85,-86 200,-159 327,-126 248,53 414,265 550,463 -32,20 -64,42 -94,65 -5,120 52,231 84,345 61,204 -36,403 -73,601 -46,-160 -77,-324 -114,-487 -34,-148 -64,-296 -100,-443 27,0 82,0 109,-1 -119,-103 -260,-180 -405,-241 32,44 66,86 101,128 30,123 72,246 79,374 -18,147 -76,285 -122,424 -53,-297 -128,-590 -189,-886 -4,-15 -10,-47 -14,-63 25,7 74,19 98,25 -43,-98 -154,-126 -237,-178z"/>
   <path class="fil4" d="M16560 12621c-85,-236 -127,-500 -44,-743 11,38 21,75 31,113 74,342 175,678 230,1024 -89,-122 -160,-255 -217,-394z"/>
   <path class="fil4" d="M17582 12484c32,98 50,200 58,302 7,215 -51,480 -282,555 71,-278 189,-545 221,-832l3 -25z"/>
   <path class="fil5" d="M8054 12667c17,-56 66,-106 128,-107 -19,58 -61,120 -127,126l-1 -19z"/>
   <path class="fil4" d="M16897 13143c58,-186 101,-378 179,-557 43,256 119,505 168,759 -116,-27 -219,-87 -315,-155 -8,-12 -24,-36 -32,-47z"/>
   <path class="fil4" d="M13438 13603c77,40 154,81 231,122 155,83 308,169 464,252 44,24 88,48 132,71 7,189 -9,378 13,566 -95,72 -189,145 -284,217 -160,-85 -318,-173 -475,-263 -6,-107 -16,-229 -108,-300 8,-13 21,-40 28,-53 -2,-204 -4,-408 -1,-612z"/>
   <path class="fil4" d="M14101 14895c56,-58 115,-112 174,-166 -1,26 -3,78 -4,104 -1,51 -1,102 0,154 -57,-31 -113,-62 -170,-92z"/>
   <path class="fil4" d="M8362 22239c2,1 6,3 8,4 -2,-1 -6,-3 -8,-4z"/>
  </g>
  <g id="_2339354043">
  </g>
  <g id="_23f05af1ff">
   <path class="fil6" d="M7673 6995c80,-103 185,-184 307,-231 -2,235 11,470 -7,705 -95,82 -190,165 -298,229 -5,-234 2,-468 -2,-703z"/>
  </g>
  <g id="_23ec56f0ff">
   <path class="fil7" d="M8161 6892c151,5 115,194 108,296 -42,14 -77,3 -103,-32 -12,-88 -6,-176 -5,-264z"/>
  </g>
  <g id="_23d544e4ff">
   <path class="fil8" d="M8441 6959c26,6 79,18 105,23 7,188 -15,379 10,566 52,41 111,71 168,105 2,-144 2,-288 5,-431 35,16 70,32 106,48 1,148 3,297 0,446 -144,102 -279,217 -412,332 -106,95 -241,153 -339,259 -51,56 -124,84 -192,113 -69,-45 -151,-76 -205,-140 -28,-192 -6,-388 -12,-582 108,-64 203,-147 298,-229 60,41 122,81 186,118 2,-83 3,-166 4,-249 75,32 163,123 243,55 90,-125 56,-292 35,-434z"/>
  </g>
  <g id="_23b92dd7ff">
   <path class="fil9" d="M9556 7344c113,-84 231,-160 349,-237 2,252 0,503 2,755 -24,3 -73,10 -97,14 -66,73 -153,121 -243,158 67,-186 45,-400 -64,-566 12,-43 11,-98 53,-124z"/>
  </g>
  <g id="_23ff4b1eff">
   <g>
    <path class="fil10" d="M14121 7307c70,50 146,94 226,126 165,125 354,213 529,323 663,400 1351,760 2010,1167 25,174 -21,352 -18,528 -60,218 -19,446 -45,668 -53,200 -10,409 -33,612 -14,17 11,68 -2,85 -14,227 -10,375 -31,621l-43 65c-35,8 -70,17 -104,28 -198,74 -412,69 -616,110 -122,39 -336,67 -336,67 -85,-22 -171,-42 -258,-60 -36,-29 -70,-58 -105,-89 -97,-143 -204,-280 -317,-411 -27,-31 -51,-62 -76,-93 -159,-287 -433,-487 -639,-738 -32,-131 -1,-273 -25,-407 -38,-186 -14,-376 -29,-564 -47,-244 -14,-494 -34,-740 -44,-256 -8,-516 -32,-772 -31,-174 -15,-351 -22,-526l0 0zm444 953c6,422 47,843 78,1263 6,70 -11,162 71,195 241,136 495,249 734,389 -84,151 -24,332 -55,496 -104,-89 -207,-179 -309,-271 -60,-48 -54,-133 -85,-198 -100,-68 -215,-111 -317,-175 25,135 27,273 50,408 134,160 292,299 436,452 83,78 153,174 252,234 -14,93 -54,187 -31,282 108,47 232,10 345,42 110,30 223,43 336,63 115,35 230,72 349,91 55,-468 94,-938 122,-1408 29,-269 61,-537 77,-808 5,-85 54,-208 -46,-257 -374,-211 -745,-427 -1126,-624 -10,111 -16,223 -20,335 -288,-169 -580,-329 -861,-509z"/>
   </g>
  </g>
  <g id="_23bc30d9ff">
   <path class="fil11" d="M9014 7509c36,-26 72,-53 109,-79 -2,238 3,476 2,714 58,32 116,65 175,97 0,-86 -1,-172 -2,-259 67,47 140,84 218,109 -104,158 -287,221 -421,344 -135,162 -354,224 -472,405 -244,-141 -487,-281 -731,-420 68,-29 141,-57 192,-113 98,-106 233,-164 339,-259 133,-115 268,-230 412,-332 59,34 118,68 178,101 0,-103 1,-205 1,-308z"/>
  </g>
  <g id="_23bc31d9ff">
   <path class="fil12" d="M9303 7539c155,29 108,216 103,328 -34,-13 -68,-26 -101,-40 -6,-96 -7,-192 -2,-288z"/>
  </g>
  <g id="_23a01accff">
   <path class="fil13" d="M9810 7876c24,-4 73,-11 97,-14 0,26 1,78 1,104 -6,222 12,444 5,667 -213,118 -370,310 -583,427 -53,25 -60,90 -83,138l-14 -8c-48,-28 -97,-55 -146,-80 -159,-83 -308,-183 -464,-270 118,-181 337,-243 472,-405 134,-123 317,-186 421,-344 12,-14 38,-43 51,-57 90,-37 177,-85 243,-158z"/>
  </g>
  <g id="_239fc4dbff">
   <path class="fil14" d="M9908 7966c2,91 5,183 8,275 5,71 -2,146 23,214 66,53 144,86 219,123l0 7c-10,112 -19,224 -21,337 -73,-44 -148,-82 -224,-118 0,-57 -1,-114 0,-171 7,-223 -11,-445 -5,-667z"/>
  </g>
  <g id="_2338aadcff">
   <path class="fil15" d="M9916 8241c128,72 257,142 383,218 -47,40 -94,79 -141,119 -75,-37 -153,-70 -219,-123 -25,-68 -18,-143 -23,-214z"/>
  </g>
  <g id="_23ff661eff">
   <path class="fil16" d="M15446 8434c381,197 752,413 1126,624 100,49 51,172 46,257 -16,271 -48,539 -77,808 -28,470 -67,940 -122,1408 -119,-19 -234,-56 -349,-91 -113,-20 -226,-33 -336,-63 -113,-32 -237,5 -345,-42 -23,-95 17,-189 31,-282 236,60 467,140 704,197 28,-366 108,-726 118,-1093 -277,-183 -569,-343 -861,-500 28,-132 28,-269 56,-401 289,154 578,308 859,477 18,-147 56,-295 44,-445 -284,-206 -611,-343 -914,-519 4,-112 10,-224 20,-335z"/>
  </g>
  <g id="_2366d9ffff">
   <path class="fil17" d="M10299 8459c128,78 258,151 392,219 49,26 95,56 143,86 1011,575 2015,1164 3024,1741 80,52 163,96 248,137 131,79 266,153 396,234 32,15 63,31 96,48 25,11 76,34 102,45l-42 26c-52,27 -89,73 -127,116 -1458,-841 -2917,-1681 -4373,-2526l0 -7c47,-40 94,-79 141,-119z"/>
   <path class="fil17" d="M4597 16062c492,310 1006,584 1508,880 142,79 284,161 396,281 190,139 409,232 607,360 -57,63 -146,142 -110,236 67,56 141,104 204,165 -800,-442 -1585,-912 -2381,-1363 -81,-50 -182,-91 -222,-183 -7,-126 -6,-251 -2,-376z"/>
  </g>
  <g id="_23e4fbffff">
   <path class="fil18" d="M10137 8922c2,-113 11,-225 21,-337 1456,845 2915,1685 4373,2526 257,145 507,302 764,447 35,31 69,60 105,89 47,71 78,153 75,239 1,1591 -4,3182 2,4773 -1,47 1,94 5,141 2,18 5,53 7,71l-19 -9c-634,-343 -1251,-719 -1882,-1066 -12,-118 25,-234 13,-352 513,295 1024,595 1539,887 0,-860 0,-1720 1,-2579 0,-308 -1,-615 -1,-923 0,-339 4,-679 -2,-1018 -219,-121 -434,-248 -651,-373 -215,-125 -431,-249 -647,-373 -344,-201 -691,-399 -1036,-600 -205,-119 -411,-236 -615,-356 -165,-95 -330,-189 -494,-285 -143,-82 -286,-165 -429,-248 -372,-216 -746,-428 -1116,-647l-13 -7z"/>
   <path class="fil18" d="M9233 9190l14 8c82,48 165,97 249,145 -2,815 -2,1631 0,2446 0,258 -1,515 0,773 6,171 -16,345 10,515 75,56 159,98 240,145 165,93 328,189 492,283 190,108 378,219 568,327 170,98 340,197 510,294 256,147 511,296 767,443 309,178 618,355 926,536 -21,98 -41,198 -45,299 -199,-59 -361,-197 -545,-288 -377,-225 -759,-441 -1141,-657 2,-105 5,-209 8,-313 -88,49 -175,99 -260,154 -214,-103 -411,-237 -621,-349 -386,-236 -786,-450 -1176,-681 1,-191 -21,-380 -15,-570 11,-1170 4,-2340 19,-3510z"/>
   <g>
    <path class="fil18" d="M16714 11502c113,-15 223,19 325,65 288,182 487,475 602,791 81,204 94,424 100,641 -33,175 -93,376 -268,458 -224,82 -455,-49 -614,-203 -207,-210 -349,-480 -430,-762 -81,-321 -107,-734 181,-962 34,-11 69,-20 104,-28l0 0zm52 47c-161,10 -275,148 -321,292 -84,270 -24,557 60,819l20 -13 -13 9c77,205 194,396 343,556 93,82 191,163 310,205 156,60 359,15 443,-139 120,-185 100,-414 87,-623 -65,-319 -203,-628 -429,-864 -132,-132 -306,-253 -500,-242z"/>
   </g>
  </g>
  <g id="_238c09c2ff">
   <path class="fil19" d="M9330 9060c213,-117 370,-309 583,-427 -1,57 0,114 0,171 -3,157 -3,315 -1,472 0,48 -2,96 -5,145 -26,34 -54,66 -82,99 -112,-55 -222,-113 -329,-177 -84,-48 -167,-97 -249,-145 23,-48 30,-113 83,-138z"/>
  </g>
  <g id="_23008addff">
   <path class="fil20" d="M9913 8804c76,36 151,74 224,118l13 7c-6,134 -10,267 -14,400 -69,-39 -148,-47 -224,-53 -2,-157 -2,-315 1,-472z"/>
  </g>
  <g id="_2300aefdff">
   <path class="fil21" d="M10150 8929c370,219 744,431 1116,647 -17,18 -52,53 -69,71 -16,-12 -32,-24 -48,-36 -28,92 -95,159 -178,204 -272,-159 -548,-312 -817,-475l-18 -11c4,-133 8,-266 14,-400z"/>
  </g>
  <g id="_23ff4a21ff">
   <path class="fil22" d="M14926 8964c170,97 340,195 511,292 -28,132 -28,269 -56,401 -140,-74 -279,-151 -419,-226 -23,-155 -35,-311 -36,-467z"/>
  </g>
  <g id="_239eadb2b2">
  </g>
  <g id="_23aec5dfff">
   <path class="fil23" d="M9912 9276c76,6 155,14 224,53l18 11c-30,21 -59,43 -89,65 -42,-9 -84,-17 -126,-24 -8,10 -24,30 -32,40 3,-49 5,-97 5,-145z"/>
  </g>
  <g id="_2300afffff">
   <path class="fil24" d="M9496 9343c107,64 217,122 329,177 -7,1061 -3,2123 -4,3185 -25,-158 -27,-319 -26,-478 -4,-251 17,-505 -30,-752 -75,119 -127,259 -269,314 -2,-815 -2,-1631 0,-2446z"/>
   <path class="fil24" d="M2211 11680c119,-64 229,-144 354,-195 125,-35 249,21 355,82 269,156 538,312 806,470 206,121 359,317 454,534 -200,31 -402,12 -603,27 -180,-266 -502,-361 -746,-551 -163,-127 -348,-233 -551,-277 -115,-22 -221,43 -326,79 67,-82 170,-115 257,-169z"/>
   <path class="fil24" d="M14683 19230c23,-42 47,-83 70,-124 26,14 76,43 101,57 3,1 7,3 10,5 105,47 205,107 304,167 -20,50 -39,100 -58,150 -61,-32 -122,-64 -181,-98 -1,-1 -4,-3 -6,-5l-61 -37c-1,-1 -5,-3 -7,-4 -57,-38 -114,-75 -172,-111z"/>
   <path class="fil24" d="M5258 19486c193,-57 378,40 537,140 445,260 891,518 1337,776 227,118 439,272 581,488 -50,15 -100,39 -154,37 -211,2 -422,-22 -632,-1 -279,-200 -596,-336 -875,-536 -244,-139 -507,-238 -752,-375 -120,-63 -237,-142 -372,-168 -120,-22 -240,13 -354,49 38,-44 86,-78 138,-103 186,-95 359,-213 546,-307z"/>
   <path class="fil24" d="M14488 21789c44,18 87,41 129,65 -183,179 -420,265 -660,414 -68,26 -27,-29 -96,-8 -1,-25 -4,-75 -5,-100 219,-126 414,-248 632,-371z"/>
   <path class="fil24" d="M8420 22447c14,-44 31,-86 59,-123l59 8c4,3 13,9 17,12l50 33 7 4 8 4c47,29 113,42 140,97 15,42 42,60 84,54 -9,23 -27,68 -37,91 -14,-4 -44,-12 -59,-16l-60 -4c-4,-3 -13,-9 -17,-12l-50 -33 -6 -3 -6 -4c-25,-14 -76,-43 -101,-57 -3,-2 -8,-4 -10,-6l-59 -34c-5,-3 -14,-8 -19,-11z"/>
   <path class="fil24" d="M11859 23322c68,-62 151,-106 232,-148 46,-3 92,-5 139,-6 -11,36 -22,73 -32,110 -74,45 -149,89 -226,129l-26 0c-43,-1 -87,-1 -130,-1 14,-29 28,-57 43,-84z"/>
  </g>
  <g id="_23009fedff">
   <path class="fil25" d="M11149 9611c16,12 32,24 48,36 17,-18 52,-53 69,-71 143,83 286,166 429,248 -98,73 -179,165 -249,265 -159,-91 -317,-183 -475,-274 83,-45 150,-112 178,-204z"/>
  </g>
  <g id="_23009ef7ff">
   <path class="fil26" d="M10077 9723c313,174 624,352 930,537 11,181 6,364 0,546 -315,-168 -622,-354 -931,-533 2,-183 0,-367 1,-550z"/>
  </g>
  <g id="_230097e4ff">
   <path class="fil27" d="M11446 10089c70,-100 151,-192 249,-265 164,96 329,190 494,285 -94,77 -176,168 -247,266 -166,-95 -330,-191 -496,-286z"/>
  </g>
  <g id="_23008cd9ff">
   <path class="fil28" d="M11942 10375c71,-98 153,-189 247,-266 204,120 410,237 615,356 -20,30 -40,60 -60,90 -21,6 -42,13 -63,20 -7,29 -13,58 -19,88 -25,3 -49,7 -74,11 8,28 15,57 22,86 -223,-127 -445,-257 -668,-385z"/>
  </g>
  <g id="_23ff6521ff">
   <path class="fil29" d="M15448 10107c120,73 251,128 362,213 16,132 -20,263 -39,393 -127,-31 -258,-56 -378,-110 31,-164 -29,-345 55,-496z"/>
  </g>
  <g id="_23007cc6ff">
   <path class="fil30" d="M12744 10555c20,-30 40,-60 60,-90 345,201 692,399 1036,600 -45,71 -111,122 -178,173 -16,49 -23,102 -31,154 -167,-95 -329,-196 -499,-284 0,57 0,114 0,171 -97,90 -179,195 -286,275 -6,-173 11,-347 -12,-520 -15,-127 -119,-215 -224,-274 -7,-29 -14,-58 -22,-86 25,-4 49,-8 74,-11 6,-30 12,-59 19,-88 21,-7 42,-14 63,-20z"/>
  </g>
  <g id="_2300a9fdff">
   <path class="fil31" d="M16788 10816l6 -34c394,227 787,453 1179,681 -30,20 -52,59 -92,57 -222,8 -444,-3 -666,-5 -64,-3 -121,27 -176,52 -102,-46 -212,-80 -325,-65l13 -20c7,-11 22,-34 30,-45 21,-207 -11,-416 31,-621z"/>
  </g>
  <g id="_23ff6a00ff">
   <path class="fil32" d="M10839 11062c164,-95 360,-37 516,44 -1,337 -4,673 2,1010 231,128 458,264 688,394 23,13 69,39 92,52 -9,189 -39,396 -179,536 -117,121 -307,139 -460,84 -226,-80 -404,-254 -547,-442 -229,-319 -378,-705 -378,-1101 6,-214 66,-464 266,-577z"/>
  </g>
  <g id="_2300c6ffff">
   <path class="fil33" d="M14531 11111c38,-43 75,-89 127,-116 25,-5 73,-15 97,-20l-11 49c39,12 79,23 120,33l-6 28c40,19 81,39 120,62 113,131 220,268 317,411 -257,-145 -507,-302 -764,-447z"/>
   <path class="fil33" d="M8075 12981c110,30 210,95 327,89 7,1 22,3 29,4 -175,116 -97,353 -180,518 -72,101 -171,176 -266,253 -24,-239 38,-473 52,-711 12,-51 25,-102 38,-153z"/>
   <path class="fil33" d="M8375 13639c56,-129 87,-267 145,-396 1,20 3,60 4,80 4,95 10,190 22,284 8,148 54,304 2,449 -179,-2 -365,-18 -518,-123 96,-120 249,-176 345,-294z"/>
   <path class="fil33" d="M10109 14568c14,-63 17,-158 107,-148l17 15c57,72 146,84 232,80 60,22 120,45 182,65 -15,6 -46,18 -61,24 5,40 10,79 15,119 13,134 -16,277 45,403 67,143 151,276 210,423 -101,38 -151,-52 -201,-123 -15,23 -29,46 -43,70 -189,18 -369,-37 -537,-119l-16 47c-18,-64 -41,-126 -66,-188 29,-224 79,-445 116,-668z"/>
   <path class="fil33" d="M16559 16844c315,-198 643,-377 967,-560 329,167 646,366 967,551 -311,208 -643,380 -965,569 -322,-188 -641,-382 -969,-560z"/>
  </g>
  <g id="_23006bb4ff">
   <path class="fil34" d="M13840 11065c216,124 432,248 647,373 -113,75 -208,173 -293,278 -188,-108 -375,-218 -563,-324 8,-52 15,-105 31,-154 67,-51 133,-102 178,-173z"/>
  </g>
  <g id="_23ffa700ff">
   <path class="fil35" d="M11461 11097c423,255 653,761 676,1242 -231,-119 -453,-255 -678,-386 3,-286 0,-571 2,-856z"/>
  </g>
  <g id="_230074bdff">
   <path class="fil36" d="M12846 11554c107,-80 189,-185 286,-275 1,107 -6,215 2,323 -7,45 43,57 71,79 242,137 481,277 722,415 -56,-9 -112,-15 -168,-22 -5,22 -14,67 -19,90 -23,-13 -46,-26 -68,-39 -180,-103 -357,-210 -539,-309 0,151 -2,303 1,454 1,18 3,54 5,72 -25,-22 -50,-44 -74,-67 -73,13 -147,28 -220,42 0,-254 0,-509 1,-763z"/>
  </g>
  <g id="_230061a7ff">
   <path class="fil37" d="M14194 11716c85,-105 180,-203 293,-278 217,125 432,252 651,373 -179,31 -353,84 -524,146 -10,-6 -32,-18 -43,-24 -126,-71 -251,-145 -377,-217z"/>
  </g>
  <g id="_23009df4ff">
   <path class="fil38" d="M17973 11463c95,69 272,100 262,248 2,192 0,385 1,577 -177,-18 -356,-18 -532,0 -16,18 -48,53 -63,70 -115,-316 -314,-609 -602,-791 55,-25 112,-55 176,-52 222,2 444,13 666,5 40,2 62,-37 92,-57z"/>
  </g>
  <g id="_23009feeff">
   <path class="fil39" d="M9496 11789c142,-55 194,-195 269,-314 47,247 26,501 30,752 -67,138 -177,246 -299,335 -1,-258 0,-515 0,-773z"/>
  </g>
  <g id="_230099f1ff">
   <path class="fil40" d="M15994 11640c204,-41 418,-36 616,-110 -288,228 -262,641 -181,962 -146,19 -289,-13 -434,-15 -1,-279 -3,-558 -1,-837z"/>
  </g>
  <g id="_230094edff">
   <path class="fil41" d="M16766 11549c194,-11 368,110 500,242 226,236 364,545 429,864 -19,43 -38,87 -55,131 -8,-102 -26,-204 -58,-302l-3 25c-51,-5 -103,-8 -150,13 -32,-114 -89,-225 -84,-345 30,-23 62,-45 94,-65 -136,-198 -302,-410 -550,-463 -127,-33 -242,40 -327,126 83,52 194,80 237,178 -24,-6 -73,-18 -98,-25 4,16 10,48 14,63 -46,-62 -137,-98 -168,0 -10,-38 -20,-75 -31,-113 -83,243 -41,507 44,743l-35 26 -20 13c-84,-262 -144,-549 -60,-819 46,-144 160,-282 321,-292z"/>
  </g>
  <g id="_23e0faffff">
   <path class="fil42" d="M7202 11568c131,13 235,119 349,181l3 17c1,16 4,46 6,61 111,71 221,143 335,209 -221,128 -440,260 -665,381 -213,-131 -433,-250 -648,-379 118,-71 231,-148 344,-226 -8,-15 -25,-44 -34,-59 106,-57 212,-113 310,-185z"/>
   <path class="fil42" d="M13133 11816c182,99 359,206 539,309 -173,73 -358,100 -538,145 -3,-151 -1,-303 -1,-454z"/>
  </g>
  <g id="_2300a8feff">
   <path class="fil43" d="M15400 11647c87,18 173,38 258,60 21,620 8,1239 12,1859 -52,8 -102,19 -153,31 -2,936 -25,1872 -18,2808 0,85 -11,169 -22,254 -6,-1591 -1,-3182 -2,-4773 3,-86 -28,-168 -75,-239z"/>
  </g>
  <g id="_238c9da1a1">
   <path class="fil44" d="M6886 11743l6 10c9,15 26,44 34,59 -113,78 -226,155 -344,226 -20,-12 -62,-36 -82,-49 124,-88 261,-159 386,-246z"/>
  </g>
  <g id="_23d6f9ffff">
   <path class="fil45" d="M7551 11749c5,4 16,12 21,16l-18 1 -3 -17z"/>
  </g>
  <g id="_23007edcff">
   <path class="fil46" d="M1954 11849c105,-36 211,-101 326,-79 203,44 388,150 551,277 244,190 566,285 746,551 74,113 148,230 191,359 39,108 61,223 112,327 39,9 78,16 118,21 -73,113 -74,248 -92,377 -147,81 -284,182 -443,240 -44,-4 -88,-10 -131,-20 -208,-118 -410,-246 -617,-366 -186,-114 -396,-204 -537,-378 -107,-135 -221,-278 -254,-450 11,-137 -6,-273 -53,-403 -9,47 -17,94 -24,141 -36,-199 -34,-416 87,-588l20 -9z"/>
  </g>
  <g id="_2374848787">
   <path class="fil47" d="M7554 11766l18 -1c144,31 265,142 393,215l0 23c-17,8 -52,24 -70,33 -114,-66 -224,-138 -335,-209 -2,-15 -5,-45 -6,-61z"/>
  </g>
  <g id="_23004e93ff">
   <path class="fil48" d="M14614 11957c171,-62 345,-115 524,-146 6,339 2,679 2,1018 -164,61 -262,204 -348,348 -8,-133 5,-265 -6,-397 -86,-77 -194,-122 -291,-181 43,-33 87,-66 132,-98 54,31 108,62 163,93 -5,-173 8,-347 -4,-519 -42,-57 -114,-81 -172,-118z"/>
   <path class="fil48" d="M14114 13089c29,-42 59,-83 88,-125 186,114 383,208 559,337 -21,1 -62,4 -83,6 -6,23 -18,70 -24,93 -180,-104 -360,-208 -540,-311z"/>
   <path class="fil48" d="M13685 13593c49,-45 97,-90 145,-134 164,95 329,190 493,285 -55,85 -118,163 -190,233 -156,-83 -309,-169 -464,-252 5,-44 11,-88 16,-132z"/>
  </g>
  <g id="_23e6eff7ff">
   <path class="fil49" d="M14571 11933c11,6 33,18 43,24 58,37 130,61 172,118 12,172 -1,346 4,519 -55,-31 -109,-62 -163,-93 -232,-134 -464,-268 -695,-403 211,-65 430,-96 639,-165z"/>
  </g>
  <g id="_230092ecff">
   <path class="fil50" d="M16547 11991c31,-98 122,-62 168,0 61,296 136,589 189,886 46,-139 104,-277 122,-424 -7,-128 -49,-251 -79,-374 -35,-42 -69,-84 -101,-128 145,61 286,138 405,241 -27,1 -82,1 -109,1 36,147 66,295 100,443 -22,-77 -116,-150 -166,-50 -78,179 -121,371 -179,557 8,11 24,35 32,47l-74 22c-149,-160 -266,-351 -343,-556l13 -9 35 -26c57,139 128,272 217,394 -55,-346 -156,-682 -230,-1024z"/>
  </g>
  <g id="_23acf2ffff">
   <path class="fil51" d="M6500 11989c20,13 62,37 82,49 215,129 435,248 648,379 1,270 5,541 -5,812l-43 -9c-230,-121 -452,-256 -678,-383 -2,-283 -4,-565 -4,-848z"/>
  </g>
  <g id="_237cedffff">
   <path class="fil52" d="M7895 12036c18,-9 53,-25 70,-33 -4,230 0,459 -1,689 -1,31 -3,92 -3,122 -255,121 -475,308 -736,415 10,-271 6,-542 5,-812 225,-121 444,-253 665,-381z"/>
   <path class="fil52" d="M10078 12412c220,120 432,251 652,371l-11 2c-118,27 -232,71 -343,117 -9,-5 -28,-16 -37,-20 -88,-50 -174,-102 -261,-154 -2,-105 -1,-211 0,-316z"/>
   <path class="fil52" d="M12225 15064c35,35 70,70 105,105 22,-13 67,-40 89,-53 184,91 346,229 545,288 23,79 48,157 66,237 34,309 64,619 87,930 -4,68 -11,137 -13,207 -126,37 -243,95 -359,153 -121,55 -231,130 -329,219 53,148 142,282 249,396 133,1 256,-81 375,-136 116,-63 229,-131 331,-216 99,-89 218,-175 255,-310 21,-65 -35,-116 -62,-169 -2,-27 -5,-83 -6,-111 24,-155 52,-310 41,-467 4,-114 1,-228 -11,-341 631,347 1248,723 1882,1066 -377,251 -782,458 -1170,691 -615,354 -1230,710 -1844,1066 -42,23 -84,47 -126,71 8,-30 16,-61 24,-91 -14,-23 -28,-47 -42,-70 67,-54 158,-99 181,-190 -20,-58 -64,-103 -100,-152 -14,-57 -31,-114 -50,-170 39,-24 80,-49 120,-73 -36,-34 -80,-62 -107,-103 -18,-69 0,-140 4,-209 -43,-7 -86,-13 -129,-19 9,-29 19,-56 29,-84 -33,-30 -65,-59 -97,-87 50,-4 100,-8 150,-11 -48,-91 -39,-193 -6,-287 106,-48 103,-179 143,-273 -46,-96 -110,-181 -157,-275 7,-77 22,-154 26,-231 38,-3 77,-7 116,-10 -17,84 -120,184 -47,264 49,-101 101,-204 115,-317 -48,-20 -98,-32 -148,-46 1,-24 2,-49 3,-73 -30,-13 -59,-26 -89,-39 30,-23 61,-47 90,-70 11,-79 24,-158 40,-236 31,18 61,37 92,55 11,-52 22,-104 34,-155 -26,3 -51,7 -76,11 -6,-18 -16,-55 -21,-73 -18,14 -35,29 -52,44 -15,-54 -29,-107 -44,-160 21,-22 41,-44 62,-66 -24,-7 -72,-21 -96,-28 55,-10 110,-19 165,-28 -25,-32 -50,-65 -76,-97 -46,-21 -91,-46 -127,-82 -13,-10 -37,-28 -49,-38 4,-52 9,-104 14,-157z"/>
   <path class="fil52" d="M13282 15845c14,11 43,33 57,45 72,269 60,551 66,827 -50,3 -99,7 -149,10 -5,-53 -9,-106 -11,-159 35,-240 40,-481 37,-723z"/>
   <path class="fil52" d="M7844 16458c38,-16 80,-58 122,-28 97,43 184,103 276,155 181,114 371,214 555,322 164,103 336,193 502,293 221,128 442,256 661,387 -82,49 -163,99 -245,148 -223,132 -456,247 -672,392 -55,29 -111,59 -166,88 -319,-171 -621,-371 -942,-539 -362,-208 -727,-414 -1082,-636 326,-202 663,-383 991,-582z"/>
  </g>
  <g id="_23005aa1ff">
   <path class="fil53" d="M13759 12074c56,7 112,13 168,22l5 2c231,135 463,269 695,403 -45,32 -89,65 -132,98 -253,-144 -503,-292 -755,-435 5,-23 14,-68 19,-90z"/>
  </g>
  <g id="_23c9ecf7ff">
   <path class="fil54" d="M13672 12125c22,13 45,26 68,39 252,143 502,291 755,435 97,59 205,104 291,181 11,132 -2,264 6,397 3,35 9,106 12,142 -15,-6 -29,-12 -43,-18 -176,-129 -373,-223 -559,-337 -241,-140 -484,-278 -725,-418 -112,-69 -233,-124 -338,-204 -2,-18 -4,-54 -5,-72 180,-45 365,-72 538,-145z"/>
  </g>
  <g id="_230098e5ff">
   <path class="fil55" d="M9496 12562c122,-89 232,-197 299,-335 -1,159 1,320 26,478 6,100 57,191 131,257 -75,82 -146,166 -206,260 -81,-47 -165,-89 -240,-145 -26,-170 -4,-344 -10,-515z"/>
  </g>
  <g id="_230066b0ff">
   <path class="fil56" d="M12845 12317c73,-14 147,-29 220,-42 24,23 49,45 74,67 105,80 226,135 338,204 -34,18 -68,37 -102,56 2,16 5,48 7,64 -82,-48 -166,-95 -249,-140 -1,176 0,353 0,529 -41,2 -81,4 -122,6 4,40 9,81 13,121 -16,7 -46,19 -62,26 -10,27 -19,54 -29,81 -22,-5 -66,-16 -88,-22 -1,-309 1,-617 0,-926l0 -24z"/>
  </g>
  <g id="_230090ebff">
   <path class="fil57" d="M17704 12288c176,-18 355,-18 532,0 0,148 -1,296 0,444 -151,6 -301,21 -452,13 -6,86 -20,171 -43,254 -6,-217 -19,-437 -100,-641 15,-17 47,-52 63,-70z"/>
  </g>
  <g id="_230096ffff">
   <path class="fil58" d="M1847 12446c7,-47 15,-94 24,-141 47,130 64,266 53,403 -18,-36 -28,-74 -29,-114 -7,-17 -22,-52 -30,-70 -4,-19 -13,-58 -18,-78z"/>
   <path class="fil58" d="M13009 15105c51,-189 43,-395 137,-570 15,20 45,60 61,80 55,63 139,64 216,66 150,78 304,153 468,193 40,12 70,-28 103,-43 95,-72 189,-145 284,-217 4,16 13,48 17,64 -5,13 -15,38 -20,51 -59,54 -118,108 -174,166 -47,40 -84,102 -146,120 -129,1 -256,-25 -385,-38 3,156 14,312 31,467 12,118 -25,234 -13,352 12,113 15,227 11,341 -53,-152 -40,-314 -38,-471 -181,7 -364,-24 -513,-134 -4,27 -13,82 -18,109 -18,-80 -43,-158 -66,-237 4,-101 24,-201 45,-299z"/>
   <path class="fil58" d="M18493 16835l12 -9c-7,294 6,588 5,882 -2,74 -3,148 -3,223 -202,114 -395,242 -599,352 -74,-12 -170,12 -167,104 -70,36 -137,77 -207,114l-24 -11c40,-361 8,-724 18,-1086 322,-189 654,-361 965,-569z"/>
  </g>
  <g id="_23e6f1f9ff">
   <g>
    <path class="fil59" d="M12045 12510c266,-59 529,-133 800,-169 1,309 -1,617 0,926 -1,350 5,700 -2,1050 5,114 -112,222 -225,178 -121,-46 -226,-123 -338,-186 -250,-143 -499,-287 -747,-431 -184,-106 -367,-212 -550,-317 -178,-103 -356,-205 -533,-309 -163,-95 -329,-187 -490,-285 128,-18 255,-50 379,-85 9,4 28,15 37,20 127,73 251,151 385,211 -9,-108 41,-240 -42,-328l11 -2c74,-9 148,-24 221,-43 143,188 321,362 547,442 153,55 343,37 460,-84 140,-140 170,-347 179,-536 -23,-13 -69,-39 -92,-52l0 0zm157 1012c-130,175 -34,433 108,574 64,76 211,114 264,6 66,-185 -7,-407 -151,-537 -57,-56 -148,-92 -221,-43z"/>
   </g>
  </g>
  <g id="_230082e0ff">
   <path class="fil60" d="M15995 12477c145,2 288,34 434,15 81,282 223,552 430,762 159,154 390,285 614,203 175,-82 235,-283 268,-458 23,-83 37,-168 43,-254 151,8 301,-7 452,-13 0,306 -1,613 0,919 -330,-25 -660,3 -990,-19 -208,17 -419,-13 -624,34 -165,-90 -327,-189 -491,-280 -60,-37 -144,-74 -134,-159 -6,-250 -1,-500 -2,-750z"/>
   <path class="fil60" d="M4574 19896c114,-36 234,-71 354,-49 135,26 252,105 372,168 245,137 508,236 752,375 279,200 596,336 875,536 119,121 239,245 317,398 -34,113 -100,237 -47,355 47,131 92,278 36,414 -58,157 -215,236 -337,337 -14,77 -45,149 -90,213 -418,-243 -836,-486 -1256,-724 -235,-154 -509,-258 -699,-472 -285,-328 -450,-767 -422,-1203 9,-127 52,-257 145,-348z"/>
  </g>
  <g id="_230087e4ff">
   <path class="fil61" d="M17429 12522c47,-21 99,-18 150,-13 -32,287 -150,554 -221,832 231,-75 289,-340 282,-555 17,-44 36,-88 55,-131 13,209 33,438 -87,623 -84,154 -287,199 -443,139 -119,-42 -217,-123 -310,-205l74 -22c96,68 199,128 315,155 -49,-254 -125,-503 -168,-759 50,-100 144,-27 166,50 37,163 68,327 114,487 37,-198 134,-397 73,-601z"/>
  </g>
  <g id="_2338728d8d">
   <path class="fil62" d="M1865 12524c8,18 23,53 30,70l-31 -5 -15 -35 16 -30z"/>
  </g>
  <g id="_23009bf2ff">
   <path class="fil63" d="M4180 12571l1 0c52,133 109,266 133,409 -182,-5 -366,9 -546,-23 -43,-129 -117,-246 -191,-359 201,-15 403,4 603,-27z"/>
  </g>
  <g id="_23944f00ff">
   <path class="fil5" d="M8182 12560c40,-4 81,-8 121,-12 21,1 63,2 84,3l-2 20c-2,22 -6,65 -8,86 -46,29 -93,55 -139,82 21,72 49,143 59,217 -73,66 -156,3 -201,-60l4 -19c-9,-18 -27,-54 -36,-72 -2,-29 -7,-89 -9,-119 66,-6 108,-68 127,-126z"/>
   <path class="fil5" d="M10127 14179c3,-87 79,-141 141,-190 65,6 131,17 190,48 4,10 12,29 16,39 -52,36 -106,68 -156,107 3,79 29,155 45,232 -32,5 -97,16 -130,20l-17 -15c-40,-76 -85,-154 -89,-241z"/>
   <path class="fil5" d="M13137 14239c73,-95 210,-86 302,-24 -7,13 -20,40 -28,53 -45,27 -92,54 -134,86 7,75 34,146 56,218 -42,14 -85,28 -126,43 -16,-20 -46,-60 -61,-80 -39,-93 -90,-210 -9,-296z"/>
  </g>
  <path class="fil64" d="M13133 12526c83,45 167,92 249,140 244,140 487,283 732,423 180,103 360,207 540,311 46,27 92,54 137,81 -3,176 -2,352 -1,527 -159,-82 -312,-175 -467,-264 -164,-95 -329,-190 -493,-285 -232,-135 -466,-267 -697,-404 0,-176 -1,-353 0,-529z"/>
  <g id="_23005ba2ff">
   <path class="fil65" d="M13375 12602c34,-19 68,-38 102,-56 241,140 484,278 725,418 -29,42 -59,83 -88,125 -245,-140 -488,-283 -732,-423 -2,-16 -5,-48 -7,-64z"/>
  </g>
  <g id="_23ffd2aaff">
   <path class="fil66" d="M8385 12571c33,63 41,136 59,204 53,50 26,133 19,196 -2,9 -6,28 -8,37 -16,-24 -33,-47 -50,-71 0,33 -2,100 -3,133 -117,6 -217,-59 -327,-89 7,-28 14,-56 21,-85 45,63 128,126 201,60 -10,-74 -38,-145 -59,-217 46,-27 93,-53 139,-82 2,-21 6,-64 8,-86z"/>
   <path class="fil66" d="M10318 14183c50,-39 104,-71 156,-107 31,82 69,163 83,250 14,77 -54,131 -92,189 -86,4 -175,-8 -232,-80 33,-4 98,-15 130,-20 -16,-77 -42,-153 -45,-232z"/>
   <path class="fil66" d="M13277 14354c42,-32 89,-59 134,-86 92,71 102,193 108,300 -31,38 -63,76 -96,113 -77,-2 -161,-3 -216,-66 41,-15 84,-29 126,-43 -22,-72 -49,-143 -56,-218z"/>
  </g>
  <g id="_235c707777">
  </g>
  <g id="_23baa07cef">
   <path class="fil67" d="M8064 12805c9,18 27,54 36,72 -9,-18 -27,-54 -36,-72z"/>
  </g>
  <g id="_2368e2fcff">
   <path class="fil68" d="M10376 12902c111,-46 225,-90 343,-117 83,88 33,220 42,328 -134,-60 -258,-138 -385,-211z"/>
  </g>
  <g id="_23004386ff">
   <path class="fil69" d="M14792 13177c86,-144 184,-287 348,-348 0,308 1,615 1,923 -26,5 -77,17 -103,23 -1,36 -2,72 -2,107 -120,140 -255,270 -338,436 -26,52 -72,90 -115,128 -11,37 -21,75 -32,112 -17,-15 -35,-30 -52,-44 -70,111 -91,267 -228,319 1,-26 3,-78 4,-104 5,-13 15,-38 20,-51 -4,-16 -13,-48 -17,-64 -22,-188 -6,-377 -13,-566 -44,-23 -88,-47 -132,-71 72,-70 135,-148 190,-233 155,89 308,182 467,264 -1,-175 -2,-351 1,-527 -45,-27 -91,-54 -137,-81 6,-23 18,-70 24,-93 21,-2 62,-5 83,-6 14,6 28,12 43,18 -3,-36 -9,-107 -12,-142z"/>
  </g>
  <g id="_23008be7ff">
   <path class="fil70" d="M3768 12957c180,32 364,18 546,23 5,80 13,160 17,241 -19,88 -47,175 -76,260 -39,-22 -77,-45 -117,-65 21,-6 62,-18 82,-24 -21,-57 -28,-139 -104,-145 -42,14 -81,34 -118,58 -40,-5 -79,-12 -118,-21 -51,-104 -73,-219 -112,-327z"/>
  </g>
  <g id="_2331383b42">
  </g>
  <g id="_230088d8ff">
   <path class="fil71" d="M9952 12962l8 5c161,98 327,190 490,285 -79,77 -151,160 -212,253 -164,-94 -327,-190 -492,-283 60,-94 131,-178 206,-260z"/>
  </g>
  <g id="_2300579fff">
   <path class="fil72" d="M13011 13061c41,-2 81,-4 122,-6 231,137 465,269 697,404 -48,44 -96,89 -145,134 -5,44 -11,88 -16,132 -77,-41 -154,-82 -231,-122 -3,204 -1,408 1,612 -92,-62 -229,-71 -302,24 -81,86 -30,203 9,296 -94,175 -86,381 -137,570 -308,-181 -617,-358 -926,-536 16,-27 33,-55 49,-82 11,-2 33,-8 44,-10 -6,-80 20,-148 104,-168 112,63 217,140 338,186 113,44 230,-64 225,-178 7,-350 1,-700 2,-1050 22,6 66,17 88,22 10,-27 19,-54 29,-81 16,-7 46,-19 62,-26 -4,-40 -9,-81 -13,-121z"/>
  </g>
  <g id="_230078f1ff">
   <path class="fil73" d="M8431 13074c31,24 61,50 91,76 0,23 -2,70 -2,93 -58,129 -89,267 -145,396 -96,118 -249,174 -345,294 153,105 339,121 518,123 -38,167 -16,341 -31,511 -15,174 -47,346 -63,519 -10,97 -26,192 -43,287 -34,11 -68,22 -102,34 -4,-116 -6,-232 -9,-348 -12,67 -24,134 -35,202 -30,5 -89,14 -119,19 -1,-286 52,-576 0,-860 -43,-159 -80,-319 -125,-477 -15,-7 -45,-20 -60,-26 -12,-5 -35,-15 -47,-19 1,-14 3,-42 4,-56 10,-117 1,-234 -8,-351 35,-122 79,-240 127,-357 -14,238 -76,472 -52,711 95,-77 194,-152 266,-253 83,-165 5,-402 180,-518z"/>
   <path class="fil73" d="M10647 14580c114,-13 228,-26 342,-45 28,19 56,39 85,58 -158,43 -315,88 -473,130 -5,-40 -10,-79 -15,-119 15,-6 46,-18 61,-24z"/>
   <path class="fil73" d="M10075 15377c168,82 348,137 537,119 12,208 37,416 24,625 -12,149 -43,294 -56,442 -10,121 -18,247 -92,348 -69,-100 -44,-224 -49,-337 -2,-287 6,-578 -62,-858 -16,-11 -48,-33 -64,-44 24,278 -19,554 -36,831 -14,73 -7,163 -71,214 -44,-14 -35,-71 -49,-106 -8,-397 -53,-792 -98,-1187l16 -47z"/>
   <path class="fil73" d="M13048 15532c149,110 332,141 513,134 -2,157 -15,319 38,471 11,157 -17,312 -41,467 -22,121 -34,243 -56,364 -1,53 -55,76 -89,106 -3,-119 -4,-238 -8,-357 -6,-276 6,-558 -66,-827 -14,-12 -43,-34 -57,-45 3,242 -2,483 -37,723 -29,103 26,273 -102,311 -8,-103 -17,-205 -26,-308 -23,-311 -53,-621 -87,-930 5,-27 14,-82 18,-109z"/>
  </g>
  <g id="_2327383f41">
   <path class="fil74" d="M4331 13221c21,104 7,211 24,315 -33,-18 -67,-36 -100,-55 29,-85 57,-172 76,-260z"/>
  </g>
  <g id="_2367848a8a">
  </g>
  <g id="_23adf2ffff">
   <path class="fil75" d="M9129 13235l18 -13c21,12 61,36 82,48 390,231 790,445 1176,681 -31,0 -61,2 -92,4 -11,9 -33,26 -45,34 -62,49 -138,103 -141,190 4,87 49,165 89,241 -90,-10 -93,85 -107,148 -37,223 -87,444 -116,668 25,62 48,124 66,188 45,395 90,790 98,1187 -21,8 -64,23 -86,31 -148,50 -283,129 -419,204 -163,66 -246,226 -353,354 -166,-100 -338,-190 -502,-293 47,-6 94,-12 141,-18 -15,-29 -28,-56 -42,-84 26,-20 52,-40 78,-61 -30,-25 -61,-49 -91,-74 43,-55 98,-104 125,-170 10,-88 -49,-165 -80,-243 -22,50 -43,100 -65,150 -26,-67 -45,-136 -55,-207 42,5 85,11 128,17 9,-16 25,-49 34,-66 -19,-29 -37,-58 -55,-86 47,-13 94,-25 141,-37 -62,-21 -124,-42 -186,-63 48,-12 96,-24 144,-35 -9,-8 -27,-24 -36,-32 -46,-8 -93,-15 -139,-22 84,-83 180,-153 273,-224 -53,-26 -101,3 -147,26 -30,-29 -58,-58 -87,-86 75,-11 152,-19 228,-23 4,-86 44,-211 -56,-257 -93,-24 -191,-10 -286,-20 53,-17 107,-32 160,-48 -13,-24 -26,-48 -40,-71 -36,15 -71,32 -106,50 34,-73 43,-152 37,-231 23,-30 46,-60 70,-89 22,14 45,29 67,44 6,-51 21,-103 10,-154 -58,-34 -122,-59 -180,-94 15,-86 57,-163 75,-248 4,-66 -28,-129 -44,-192 47,1 94,3 141,4 -27,-21 -55,-43 -82,-64 -20,-53 -40,-106 -60,-158 17,-36 35,-70 53,-106 -25,-92 -25,-188 45,-262 -42,-11 -84,-22 -125,-34 16,-17 33,-34 49,-51 -23,-20 -69,-60 -92,-80 121,-103 264,-174 387,-273z"/>
   <path class="fil75" d="M9043 18127c216,-145 449,-260 672,-392 26,22 52,43 77,65 40,-5 80,-10 120,-13 -43,89 -164,54 -237,105 36,0 73,0 110,0 13,31 26,63 40,95 -59,-5 -118,-10 -178,-15 16,34 32,68 49,102 27,0 55,0 83,1 25,24 49,49 74,73 -65,27 -126,62 -167,120 53,-21 105,-44 158,-63 7,83 -120,123 -181,170 20,23 40,47 60,70 -65,20 -119,66 -79,138 27,-20 54,-39 81,-59 57,14 115,27 174,41 -31,12 -62,24 -91,37 15,17 32,34 48,52 -56,11 -113,22 -169,33 -12,32 -23,65 -38,97 -44,0 -87,-5 -130,-8 32,24 64,48 96,72 -23,25 -47,51 -70,77 -12,-7 -36,-21 -49,-27 -144,-82 -286,-167 -430,-248 -94,-54 -204,-64 -303,-107 53,-16 106,-32 159,-48 -40,-31 -80,-61 -121,-91 47,-12 94,-24 140,-36 10,9 30,27 41,36 31,-15 64,-30 96,-44 36,17 73,35 109,53 1,-22 1,-65 1,-87 -48,-15 -95,-30 -142,-44 59,-52 113,-108 162,-170 -55,4 -110,8 -165,15z"/>
  </g>
  <g id="_230056d6ff">
   <path class="fil76" d="M3998 13305c37,-24 76,-44 118,-58 76,6 83,88 104,145 -20,6 -61,18 -82,24 -27,-4 -81,-12 -108,-16 -13,81 28,136 104,161 -50,38 -101,77 -152,115 -19,1 -57,4 -76,6 18,-129 19,-264 92,-377z"/>
   <path class="fil76" d="M7595 21953c45,-89 105,-211 225,-194 66,46 63,131 41,199 -41,-23 -165,-79 -153,20 -18,59 68,70 97,105 -53,36 -113,97 -183,59 -15,-62 -22,-126 -27,-189z"/>
  </g>
  <g id="_23007ecbff">
   <path class="fil77" d="M10450 13252c177,104 355,206 533,309 -62,68 -123,136 -185,205 2,16 6,50 8,66 -190,-108 -378,-219 -568,-327 61,-93 133,-176 212,-253z"/>
  </g>
  <g id="_238fefffff">
   <path class="fil78" d="M4030 13400c27,4 81,12 108,16 40,20 78,43 117,65 33,19 67,37 100,55 425,235 843,484 1266,722 82,49 163,97 247,143 82,47 163,95 246,140 93,64 201,105 290,176 10,27 21,55 32,84 -33,18 -65,37 -98,55 -32,-17 -64,-33 -96,-49 -80,-51 -162,-98 -244,-143 -59,-37 -119,-73 -180,-105 -141,-82 -281,-167 -423,-247 -270,-168 -555,-310 -818,-489 -131,-113 -288,-188 -443,-262 -76,-25 -117,-80 -104,-161z"/>
   <path class="fil78" d="M11278 14459c382,216 764,432 1141,657 -22,13 -67,40 -89,53 -35,-35 -70,-70 -105,-105 -5,53 -10,105 -14,157 12,10 36,28 49,38 36,36 81,61 127,82 26,32 51,65 76,97 -55,9 -110,18 -165,28 24,7 72,21 96,28 -21,22 -41,44 -62,66 15,53 29,106 44,160 17,-15 34,-30 52,-44 5,18 15,55 21,73 25,-4 50,-8 76,-11 -12,51 -23,103 -34,155 -31,-18 -61,-37 -92,-55 -16,78 -29,157 -40,236 -29,23 -60,47 -90,70 30,13 59,26 89,39 -1,24 -2,49 -3,73 50,14 100,26 148,46 -14,113 -66,216 -115,317 -73,-80 30,-180 47,-264 -39,3 -78,7 -116,10 -4,77 -19,154 -26,231 47,94 111,179 157,275 -40,94 -37,225 -143,273 -33,94 -42,196 6,287 -50,3 -100,7 -150,11 32,28 64,57 97,87 -10,28 -20,55 -29,84 43,6 86,12 129,19 -4,69 -22,140 -4,209 27,41 71,69 107,103 -40,24 -81,49 -120,73 19,56 36,113 50,170 36,49 80,94 100,152 -23,91 -114,136 -181,190 14,23 28,47 42,70 -8,30 -16,61 -24,91 -240,136 -477,277 -717,415 -118,68 -236,136 -354,204 -8,-25 -23,-74 -30,-98 -48,-25 -136,-17 -133,-89 47,-41 99,-75 150,-110 -16,-54 -32,-109 -47,-162 -39,17 -77,35 -116,53 -1,-26 -3,-53 -4,-79 -53,-15 -105,-31 -157,-47 71,-14 144,-25 213,-47 38,-65 59,-137 85,-207 -39,-4 -79,-9 -118,-13 2,-29 4,-58 6,-87 14,12 43,36 57,48 24,-22 49,-45 74,-67 -29,-41 -57,-81 -85,-121 7,-9 22,-27 29,-36 -31,-88 -7,-218 -111,-258 -2,-9 -3,-26 -4,-35 32,-15 65,-29 95,-47 -39,-28 -79,-52 -119,-77 10,-11 30,-33 40,-44 -28,-46 -56,-90 -83,-135 44,-3 88,-5 133,-7 -25,-85 -53,-169 -88,-251 94,-35 164,-102 165,-208 -53,3 -106,6 -160,8 55,-87 147,-63 227,-29 6,-55 12,-109 16,-163 -28,18 -56,37 -83,56 -33,-9 -66,-17 -99,-25 19,-27 39,-53 58,-78 -16,-2 -48,-7 -64,-9 4,-36 9,-71 14,-107 19,-6 57,-17 76,-22 -54,-33 -123,-60 -129,-132 12,-60 80,-49 125,-64 29,32 58,64 88,96 1,-52 28,-117 -20,-158 -49,-59 -130,-36 -195,-37 6,-12 18,-36 24,-48 33,-13 66,-24 98,-40 -9,-72 -36,-142 -36,-215 10,-74 52,-140 83,-207 -40,-83 -80,-166 -115,-251 6,-15 12,-29 19,-43 -11,-57 -8,-116 -3,-173 62,-11 124,-23 186,-35 -41,-66 -103,-110 -174,-140 12,-15 36,-45 48,-60 -6,-28 -11,-57 -16,-85 17,-2 50,-7 66,-9 -51,-50 -106,-98 -146,-157 10,-85 102,-118 165,-158 -30,-10 -59,-20 -89,-30 49,-82 118,-160 118,-261 -37,21 -73,42 -109,64 10,-49 20,-99 29,-148 15,14 46,40 61,54 1,-30 3,-90 4,-120z"/>
  </g>
  <g id="_235298a3a4">
   <path class="fil79" d="M7908 13466l2 25c9,117 18,234 8,351 -39,-120 -73,-258 -10,-376z"/>
   <path class="fil79" d="M15665 15828c23,286 12,577 6,865 -22,-287 -10,-577 -6,-865z"/>
   <path class="fil79" d="M7887 18373c66,-7 116,39 150,91 -52,12 -161,-28 -150,-91z"/>
   <path class="fil79" d="M15284 19407c119,39 204,133 312,191 360,206 718,416 1078,623 102,54 189,170 151,290 -19,108 -122,161 -208,211 -636,365 -1272,731 -1906,1099 -30,12 -61,45 -94,33 -42,-24 -85,-47 -129,-65 715,-392 1414,-815 2124,-1218 92,-29 120,-170 25,-214 -360,-216 -729,-420 -1091,-633 -107,-68 -236,-95 -331,-181 83,36 174,85 267,44 -61,-65 -126,-127 -198,-180m1463 1025c-58,105 115,12 0,0z"/>
   <path class="fil79" d="M7308 22632c193,-119 402,-216 573,-368 12,15 37,45 50,61 -141,11 -233,126 -352,187 -83,45 -165,91 -244,141 -125,85 -294,99 -431,35 136,30 285,23 404,-56z"/>
  </g>
  <g id="_2388e3f8ff">
   <path class="fil80" d="M12202 13522c73,-49 164,-13 221,43 144,130 217,352 151,537 -53,108 -200,70 -264,-6 -142,-141 -238,-399 -108,-574z"/>
  </g>
  <g id="_2332465151">
   <path class="fil81" d="M4134 13561c155,74 312,149 443,262 -25,6 -50,12 -74,18 -103,-92 -231,-148 -353,-206 -177,108 -339,242 -526,335 -99,33 -217,4 -292,-68 43,10 87,16 131,20 207,30 367,-132 519,-246 51,-38 102,-77 152,-115z"/>
  </g>
  <g id="_23b6f4ffff">
   <path class="fil82" d="M8546 13607c71,-22 139,-51 196,-99 23,20 69,60 92,80 -16,17 -33,34 -49,51 41,12 83,23 125,34 -70,74 -70,170 -45,262 -18,36 -36,70 -53,106 20,52 40,105 60,158 27,21 55,43 82,64 -47,-1 -94,-3 -141,-4 16,63 48,126 44,192 -18,85 -60,162 -75,248 58,35 122,60 180,94 11,51 -4,103 -10,154 -22,-15 -45,-30 -67,-44 -24,29 -47,59 -70,89 6,79 -3,158 -37,231 35,-18 70,-35 106,-50 14,23 27,47 40,71 -53,16 -107,31 -160,48 95,10 193,-4 286,20 100,46 60,171 56,257 -76,4 -153,12 -228,23 29,28 57,57 87,86 46,-23 94,-52 147,-26 -93,71 -189,141 -273,224 46,7 93,14 139,22 9,8 27,24 36,32 -48,11 -96,23 -144,35 62,21 124,42 186,63 -47,12 -94,24 -141,37 18,28 36,57 55,86 -9,17 -25,50 -34,66 -43,-6 -86,-12 -128,-17 10,71 29,140 55,207 22,-50 43,-100 65,-150 31,78 90,155 80,243 -27,66 -82,115 -125,170 30,25 61,49 91,74 -26,21 -52,41 -78,61 14,28 27,55 42,84 -47,6 -94,12 -141,18 -184,-108 -374,-208 -555,-322 19,-9 58,-27 77,-36 -34,-44 -68,-88 -103,-131 34,-38 68,-75 101,-113 -65,26 -130,55 -195,82 21,-46 53,-84 92,-116 5,-10 13,-29 17,-39 30,3 60,6 91,9 -38,-61 -82,-119 -108,-186 24,-60 60,-114 93,-169 -67,-61 -150,-94 -233,-128l-12 -6c84,-48 164,-101 241,-160 117,-95 261,-196 288,-354 16,-90 -76,-118 -137,-152 16,-173 48,-345 63,-519 15,-170 -7,-344 31,-511 52,-145 6,-301 -2,-449z"/>
  </g>
  <g id="_230096f1ff">
   <path class="fil83" d="M15517 13597c51,-12 101,-23 153,-31 6,662 -5,1324 5,1985 -1,92 3,184 8,276l-46 -7c2,292 3,584 0,876 -45,41 -87,84 -125,131l-30 -27c-4,-47 -6,-94 -5,-141 11,-85 22,-169 22,-254 -7,-936 16,-1872 18,-2808z"/>
  </g>
  <g id="_230075bfff">
   <path class="fil84" d="M10983 13561c183,105 366,211 550,317 -55,20 -108,41 -162,63 -11,63 -30,125 -55,185 -170,-97 -340,-196 -510,-294 -2,-16 -6,-50 -8,-66 62,-69 123,-137 185,-205z"/>
  </g>
  <g id="_230075d5ff">
   <path class="fil85" d="M16622 13666c205,-47 416,-17 624,-34 330,22 660,-6 990,19 -1,246 3,493 -1,739 7,64 -41,138 -111,130 -52,-11 -96,-40 -141,-65 -452,-265 -910,-522 -1361,-789z"/>
  </g>
  <g id="_230160a7c6">
   <path class="fil86" d="M3463 13922c159,-58 296,-159 443,-240 19,-2 57,-5 76,-6 -152,114 -312,276 -519,246z"/>
  </g>
  <g id="_2300387bff">
   <path class="fil87" d="M15038 13775c26,-6 77,-18 103,-23 -1,859 -1,1719 -1,2579 -515,-292 -1026,-592 -1539,-887 -17,-155 -28,-311 -31,-467 129,13 256,39 385,38 62,-18 99,-80 146,-120 57,30 113,61 170,92 -1,-52 -1,-103 0,-154 137,-52 158,-208 228,-319 17,14 35,29 52,44 11,-37 21,-75 32,-112 43,-38 89,-76 115,-128 83,-166 218,-296 338,-436 0,-35 1,-71 2,-107z"/>
  </g>
  <g id="_230067b1ff">
   <path class="fil88" d="M11371 13941c54,-22 107,-43 162,-63 248,144 497,288 747,431 -84,20 -110,88 -104,168 -11,2 -33,8 -44,10 -16,27 -33,55 -49,82 -256,-147 -511,-296 -767,-443 25,-60 44,-122 55,-185z"/>
  </g>
  <g id="_23c9f6ffff">
   <path class="fil89" d="M6543 14740c474,-272 948,-544 1418,-823 15,6 45,19 60,26 45,158 82,318 125,477 12,238 -17,476 -16,713 -34,11 -68,22 -101,33 -110,36 -215,86 -319,138 -205,101 -389,247 -530,428 -35,56 -85,148 -22,203 63,60 160,38 239,42 243,-2 469,-103 677,-219 83,34 166,67 233,128 -33,55 -69,109 -93,169 26,67 70,125 108,186 -31,-3 -61,-6 -91,-9 -4,10 -12,29 -17,39 -39,32 -71,70 -92,116 65,-27 130,-56 195,-82 -33,38 -67,75 -101,113 35,43 69,87 103,131 -19,9 -58,27 -77,36 -92,-52 -179,-112 -276,-155 -42,-30 -84,12 -122,28 -328,199 -665,380 -991,582 355,222 720,428 1082,636 -7,98 -21,195 -34,293 49,10 99,20 148,31 -6,41 -12,81 -18,122 -43,-26 -86,-51 -128,-77 -145,-88 -293,-169 -439,-255 -118,-70 -239,-135 -356,-207 -198,-128 -417,-221 -607,-360 -112,-120 -254,-202 -396,-281 24,-63 49,-125 75,-187 9,19 27,56 36,74 -19,25 -37,51 -55,76 16,17 32,33 48,50 37,-37 74,-73 110,-110 -13,-15 -27,-29 -40,-43 25,-9 74,-28 99,-37 -47,-12 -93,-24 -140,-35 72,-86 130,-185 132,-300 -70,-2 -125,-43 -173,-91 32,-24 64,-48 96,-73 35,23 72,46 108,69 -3,-45 -7,-90 -9,-135 -36,-18 -71,-36 -106,-53 4,-43 8,-86 12,-128 -19,-1 -57,-2 -76,-3 -14,60 -29,120 -46,180 -52,-87 -28,-193 -35,-289 35,26 70,52 106,78 67,-67 72,-163 12,-237 24,-61 42,-124 54,-188 -18,14 -54,42 -72,57 -35,-47 -73,-92 -100,-143 13,-45 36,-86 56,-127 44,5 88,10 133,15 9,-16 26,-47 34,-63 -30,-90 -65,-182 -153,-229 11,-6 32,-15 43,-20 -37,-25 -73,-49 -108,-76 21,-18 64,-54 85,-72 31,28 60,57 88,88 -13,-24 -38,-73 -50,-98 17,-8 52,-27 69,-36 33,-18 65,-37 98,-55 -11,-29 -22,-57 -32,-84 45,12 94,66 139,23z"/>
  </g>
  <g id="_239cf0ffff">
   <path class="fil90" d="M10313 13955c31,-2 61,-4 92,-4 210,112 407,246 621,349 -37,24 -74,49 -110,75 45,14 90,28 136,41 -21,40 -42,79 -63,119 -114,19 -228,32 -342,45 -62,-20 -122,-43 -182,-65 38,-58 106,-112 92,-189 -14,-87 -52,-168 -83,-250 -4,-10 -12,-29 -16,-39 -59,-31 -125,-42 -190,-48 12,-8 34,-25 45,-34z"/>
  </g>
  <g id="_23003f82ff">
   <path class="fil91" d="M11026 14300c85,-55 172,-105 260,-154 -3,104 -6,208 -8,313 -1,30 -3,90 -4,120 -15,-14 -46,-40 -61,-54 -11,-10 -34,-31 -45,-42 -24,34 -48,69 -73,103l-21 7c-29,-19 -57,-39 -85,-58 21,-40 42,-79 63,-119 -46,-13 -91,-27 -136,-41 36,-26 73,-51 110,-75z"/>
  </g>
  <g id="_236fd4f5ff">
   <path class="fil92" d="M8146 14420c52,284 -1,574 0,860 30,-5 89,-14 119,-19 11,-68 23,-135 35,-202 3,116 5,232 9,348 34,-12 68,-23 102,-34 17,-95 33,-190 43,-287 61,34 153,62 137,152 -27,158 -171,259 -288,354 -41,-23 -81,-45 -121,-66 4,-24 8,-48 11,-72 -40,-77 -75,-156 -107,-236 -16,15 -31,30 -47,45 -2,-24 -7,-73 -10,-97 33,-11 67,-22 101,-33 -1,-237 28,-475 16,-713z"/>
  </g>
  <g id="_239ef0ffff">
   <path class="fil93" d="M11095 14586c25,-34 49,-69 73,-103 11,11 34,32 45,42 -9,49 -19,99 -29,148 36,-22 72,-43 109,-64 0,101 -69,179 -118,261 30,10 59,20 89,30 -63,40 -155,73 -165,158 40,59 95,107 146,157 -16,2 -49,7 -66,9 5,28 10,57 16,85 -12,15 -36,45 -48,60 71,30 133,74 174,140 -62,12 -124,24 -186,35 -5,57 -8,116 3,173 -7,14 -13,28 -19,43 35,85 75,168 115,251 -31,67 -73,133 -83,207 0,73 27,143 36,215 -32,16 -65,27 -98,40 -6,12 -18,36 -24,48 65,1 146,-22 195,37 48,41 21,106 20,158 -30,-32 -59,-64 -88,-96 -45,15 -113,4 -125,64 6,72 75,99 129,132 -19,5 -57,16 -76,22 -5,36 -10,71 -14,107 16,2 48,7 64,9 -19,25 -39,51 -58,78 33,8 66,16 99,25 27,-19 55,-38 83,-56 -4,54 -10,108 -16,163 -80,-34 -172,-58 -227,29 54,-2 107,-5 160,-8 -1,106 -71,173 -165,208 35,82 63,166 88,251 -45,2 -89,4 -133,7 27,45 55,89 83,135 -10,11 -30,33 -40,44 40,25 80,49 119,77 -30,18 -63,32 -95,47 1,9 2,26 4,35 104,40 80,170 111,258 -7,9 -22,27 -29,36 28,40 56,80 85,121 -25,22 -50,45 -74,67 -14,-12 -43,-36 -57,-48 -2,29 -4,58 -6,87 39,4 79,9 118,13 -26,70 -47,142 -85,207 -69,22 -142,33 -213,47 52,16 104,32 157,47 1,26 3,53 4,79 39,-18 77,-36 116,-53 15,53 31,108 47,162 -51,35 -103,69 -150,110 -3,72 85,64 133,89 7,24 22,73 30,98 -135,77 -269,156 -404,233 -114,12 -235,9 -333,-55 -325,-188 -653,-372 -977,-562 23,-26 47,-52 70,-77 -32,-24 -64,-48 -96,-72 43,3 86,8 130,8 15,-32 26,-65 38,-97 56,-11 113,-22 169,-33 -16,-18 -33,-35 -48,-52 29,-13 60,-25 91,-37 -59,-14 -117,-27 -174,-41 -27,20 -54,39 -81,59 -40,-72 14,-118 79,-138 -20,-23 -40,-47 -60,-70 61,-47 188,-87 181,-170 -53,19 -105,42 -158,63 41,-58 102,-93 167,-120 -25,-24 -49,-49 -74,-73 -28,-1 -56,-1 -83,-1 -17,-34 -33,-68 -49,-102 60,5 119,10 178,15 -14,-32 -27,-64 -40,-95 -37,0 -74,0 -110,0 73,-51 194,-16 237,-105 -40,3 -80,8 -120,13 -25,-22 -51,-43 -77,-65 82,-49 163,-99 245,-148 -219,-131 -440,-259 -661,-387 107,-128 190,-288 353,-354 20,80 -13,208 98,224 45,89 40,264 182,241 153,-34 285,-130 415,-214 121,-112 278,-213 329,-378 26,-76 -45,-119 -96,-156 13,-148 44,-293 56,-442 13,-209 -12,-417 -24,-625 14,-24 28,-47 43,-70 50,71 100,161 201,123 -59,-147 -143,-280 -210,-423 -61,-126 -32,-269 -45,-403 158,-42 315,-87 473,-130l21 -7z"/>
  </g>
  <g id="_2300498dff">
   <path class="fil94" d="M13519 14568c157,90 315,178 475,263 -33,15 -63,55 -103,43 -164,-40 -318,-115 -468,-193 33,-37 65,-75 96,-113z"/>
  </g>
  <g id="_23d9f9ffff">
   <path class="fil95" d="M5813 15168c109,-68 218,-136 333,-194 35,27 71,51 108,76 -11,5 -32,14 -43,20 88,47 123,139 153,229 -8,16 -25,47 -34,63 -45,-5 -89,-10 -133,-15 -20,41 -43,82 -56,127 27,51 65,96 100,143 18,-15 54,-43 72,-57 -12,64 -30,127 -54,188 60,74 55,170 -12,237 -36,-26 -71,-52 -106,-78 7,96 -17,202 35,289 17,-60 32,-120 46,-180 19,1 57,2 76,3 -4,42 -8,85 -12,128 35,17 70,35 106,53 2,45 6,90 9,135 -36,-23 -73,-46 -108,-69 -32,25 -64,49 -96,73 48,48 103,89 173,91 -2,115 -60,214 -132,300 47,11 93,23 140,35 -25,9 -74,28 -99,37 13,14 27,28 40,43 -36,37 -73,73 -110,110 -16,-17 -32,-33 -48,-50 18,-25 36,-51 55,-76 -9,-18 -27,-55 -36,-74 -26,62 -51,124 -75,187 -502,-296 -1016,-570 -1508,-880 -4,125 -5,250 2,376 -31,-142 -19,-288 -19,-432 -2,-49 34,-87 84,-85l-3 -38 68 14c-11,-17 -31,-49 -42,-66 34,-23 101,-69 135,-92l-21 104c47,-23 25,-75 26,-115 46,-20 91,-40 137,-61 81,-77 194,-108 282,-177 16,26 31,52 46,79l-39 -86 102 13c-21,-13 -43,-27 -63,-41 130,-51 244,-134 367,-200 7,11 21,33 27,44 -26,-86 70,-98 127,-131z"/>
  </g>
  <g id="_2385dcf7ff">
   <path class="fil96" d="M7710 15304c104,-52 209,-102 319,-138 3,24 8,73 10,97 16,-15 31,-30 47,-45 32,80 67,159 107,236 -3,24 -7,48 -11,72 40,21 80,43 121,66 -77,59 -157,112 -241,160 -20,-10 -59,-30 -78,-39 -8,-40 -15,-80 -23,-119 -26,-17 -51,-34 -77,-50 -40,-92 -100,-172 -174,-240z"/>
  </g>
  <g id="_23a5edfdff">
   <path class="fil97" d="M7180 15732c141,-181 325,-327 530,-428 74,68 134,148 174,240 26,16 51,33 77,50 8,39 15,79 23,119 19,9 58,29 78,39l12 6c-208,116 -434,217 -677,219 -79,-4 -176,18 -239,-42 -63,-55 -13,-147 22,-203z"/>
  </g>
  <g id="_23a2f1ffff">
   <path class="fil98" d="M10313 15672c16,11 48,33 64,44 68,280 60,571 62,858 -51,-2 -102,-3 -152,-6 -3,-16 -7,-49 -10,-65 17,-277 60,-553 36,-831z"/>
  </g>
  <g id="_2316171818">
  </g>
  <g id="_235ed2f5ff">
   <path class="fil99" d="M10206 16717c64,-51 57,-141 71,-214 3,16 7,49 10,65 50,3 101,4 152,6 5,113 -20,237 49,337 74,-101 82,-227 92,-348 51,37 122,80 96,156 -51,165 -208,266 -329,378 -108,-119 -227,-233 -303,-375 7,-20 20,-60 27,-80 22,-8 65,-23 86,-31 14,35 5,92 49,106z"/>
  </g>
  <g id="_2329ccf4ff">
   <path class="fil100" d="M13117 16571c9,103 18,205 26,308 128,-38 73,-208 102,-311 2,53 6,106 11,159 50,-3 99,-7 149,-10 4,119 5,238 8,357 34,-30 88,-53 89,-106 22,-121 34,-243 56,-364 1,28 4,84 6,111 27,53 83,104 62,169 -37,135 -156,221 -255,310 -57,-93 -113,-185 -168,-278 -25,-6 -75,-19 -100,-26 0,-28 1,-84 1,-112 2,-70 9,-139 13,-207z"/>
  </g>
  <g id="_237cdff9ff">
   <path class="fil101" d="M9652 16846c136,-75 271,-154 419,-204 -7,20 -20,60 -27,80 76,142 195,256 303,375 -130,84 -262,180 -415,214 -142,23 -137,-152 -182,-241 -111,-16 -78,-144 -98,-224z"/>
  </g>
  <g id="_234cd6f8ff">
   <path class="fil102" d="M12745 16931c116,-58 233,-116 359,-153 0,28 -1,84 -1,112 25,7 75,20 100,26 55,93 111,185 168,278 -102,85 -215,153 -331,216 -48,-87 -99,-173 -162,-251 2,-30 5,-61 8,-91 -47,-46 -95,-91 -141,-137z"/>
  </g>
  <g id="_23008ae7ff">
   <path class="fil103" d="M15470 16862l19 9c-2,79 4,159 -23,235 0,39 0,78 -1,117 -40,81 -99,151 -179,194 -318,183 -639,361 -953,551 -3,2 -9,5 -11,7 -55,33 -110,65 -165,97 -4,2 -11,7 -15,8 -66,37 -385,214 -411,230 -66,33 -129,70 -193,106 -103,-53 -198,-153 -320,-148 -7,17 -22,51 -30,69 65,61 141,108 215,159 -41,26 -80,51 -120,78l-30 20c-15,11 -46,34 -61,46 -31,14 -62,29 -92,44 -205,125 -536,305 -758,407 31,-116 142,-171 228,-241 -42,-75 -80,-153 -114,-231 614,-356 1229,-712 1844,-1066 388,-233 793,-440 1170,-691z"/>
  </g>
  <g id="_2300bbffff">
   <path class="fil104" d="M16559 16844c328,178 647,372 969,560 -10,362 22,725 -18,1086 -49,-23 -97,-47 -145,-71 -265,-154 -531,-309 -796,-463 3,-371 2,-741 -10,-1112z"/>
  </g>
  <g id="_236be3fcff">
   <path class="fil105" d="M12416 17150c98,-89 208,-164 329,-219 46,46 94,91 141,137 -3,30 -6,61 -8,91 63,78 114,164 162,251 -119,55 -242,137 -375,136 -107,-114 -196,-248 -249,-396z"/>
  </g>
  <g id="_2346d3ffff">
   <path class="fil106" d="M6998 17819c-36,-94 53,-173 110,-236 117,72 238,137 356,207 -99,110 -32,241 17,357 -95,-51 -196,-94 -279,-163 -63,-61 -137,-109 -204,-165z"/>
  </g>
  <g id="_23b9f4ffff">
   <path class="fil107" d="M7935 17676c321,168 623,368 942,539 55,-29 111,-59 166,-88 55,-7 110,-11 165,-15 -49,62 -103,118 -162,170 47,14 94,29 142,44 0,22 0,65 -1,87 -36,-18 -73,-36 -109,-53 -32,14 -65,29 -96,44 -11,-9 -31,-27 -41,-36 -46,12 -93,24 -140,36 41,30 81,60 121,91 -53,16 -106,32 -159,48 -241,-145 -488,-280 -732,-421 6,-41 12,-81 18,-122 -49,-11 -99,-21 -148,-31 13,-98 27,-195 34,-293z"/>
  </g>
  <g id="_232c506464">
  </g>
  <g id="_232ed1ffff">
   <path class="fil108" d="M7481 18147c-49,-116 -116,-247 -17,-357 146,86 294,167 439,255 -33,31 -65,63 -98,94 65,63 58,150 46,231 -120,-79 -255,-137 -370,-223z"/>
  </g>
  <g id="_2351798a8d">
   <path class="fil109" d="M14322 17975c2,-2 8,-5 11,-7 -3,2 -9,5 -11,7z"/>
  </g>
  <g id="_2300c9ffff">
   <path class="fil110" d="M7805 18139c33,-31 65,-63 98,-94 42,26 85,51 128,77 244,141 491,276 732,421 99,43 209,53 303,107 144,81 286,166 430,248 -32,13 -63,27 -93,45 18,46 40,90 61,135 -27,18 -53,36 -79,55 30,25 59,52 88,78 -26,8 -78,23 -104,31 -346,-199 -691,-399 -1038,-598 -2,-1 -5,-3 -7,-4 -78,-46 -158,-90 -237,-136 -1,-1 -5,-3 -6,-5l-44 -35c-34,-52 -84,-98 -150,-91l-36 -3c12,-81 19,-168 -46,-231z"/>
  </g>
  <g id="_2351636d6e">
   <path class="fil111" d="M14142 18080c4,-1 11,-6 15,-8 -4,2 -11,7 -15,8z"/>
  </g>
  <g id="_2380edffff">
   <path class="fil112" d="M13218 18268c122,-5 217,95 320,148 220,116 1,-10 220,116 146,83 288,170 435,252 -2,18 -6,55 -7,73 -23,9 -68,25 -90,34 -433,-254 -420,-244 -693,-395 -74,-51 -150,-98 -215,-159 8,-18 23,-52 30,-69z"/>
   <path class="fil112" d="M7708 21978c-12,-99 112,-43 153,-20 25,13 49,27 73,41 4,42 9,84 14,126 -16,1 -47,2 -63,3 -27,-15 -54,-30 -80,-45 -29,-35 -115,-46 -97,-105z"/>
  </g>
  <g id="_23007bc7c7">
   <path class="fil113" d="M17741 18387c-3,-92 93,-116 167,-104 -41,55 -101,89 -167,104z"/>
  </g>
  <g id="_2352748080">
   <path class="fil114" d="M8081 18499c1,2 5,4 6,5 -1,-1 -5,-3 -6,-5z"/>
  </g>
  <g id="_2350758383">
   <path class="fil115" d="M8324 18640c2,1 5,3 7,4 -2,-1 -5,-3 -7,-4z"/>
  </g>
  <g id="_23009af1ff">
   <path class="fil116" d="M12330 18690c42,-24 84,-48 126,-71 34,78 72,156 114,231 -86,70 -197,125 -228,241 -67,44 -135,85 -205,124 -213,68 -421,182 -580,340 -16,8 -47,26 -63,35 -20,-6 -61,-17 -82,-23 65,-51 135,-96 189,-158 35,-97 12,-203 12,-304 240,-138 477,-279 717,-415z"/>
  </g>
  <g id="_2371d2e2e2">
   <path class="fil117" d="M14193 18784c187,106 372,218 560,322 -23,41 -47,82 -70,124 -194,-116 -393,-224 -587,-339 22,-9 67,-25 90,-34 1,-18 5,-55 7,-73z"/>
  </g>
  <g id="_2300bfffff">
   <path class="fil118" d="M9403 18943c30,-18 61,-32 93,-45 13,6 37,20 49,27 324,190 652,374 977,562 98,64 219,67 333,55 -39,23 -76,48 -114,72 2,126 4,251 9,377 -80,-22 -162,-40 -233,-85 -382,-222 -766,-441 -1148,-664 26,-8 78,-23 104,-31 -29,-26 -58,-53 -88,-78 26,-19 52,-37 79,-55 -21,-45 -43,-89 -61,-135z"/>
  </g>
  <g id="_2300a6f8ff">
   <path class="fil119" d="M11259 19309c118,-68 236,-136 354,-204 0,101 23,207 -12,304 -54,62 -124,107 -189,158 21,6 62,17 82,23 -133,79 -271,151 -393,247 -33,24 -67,46 -100,70 -82,30 -165,63 -251,84 -5,-126 -7,-251 -9,-377 38,-24 75,-49 114,-72 135,-77 269,-156 404,-233z"/>
  </g>
  <g id="_234ca1c0c0">
   <path class="fil120" d="M14854 19163c3,1 7,3 10,5 -3,-2 -7,-4 -10,-5z"/>
  </g>
  <g id="_230182c1ca">
   <path class="fil121" d="M11557 19555c159,-158 367,-272 580,-340 -183,130 -379,241 -580,340z"/>
  </g>
  <g id="_233b474c4c">
   <path class="fil122" d="M14855 19341c2,1 6,3 7,4 -1,-1 -5,-3 -7,-4z"/>
  </g>
  <g id="_2300d2ffff">
   <path class="fil123" d="M15168 19335c39,23 79,46 116,72 72,53 137,115 198,180 -93,41 -184,-8 -267,-44l-39 -18c-2,-1 -6,-3 -8,-4l-61 -29 3 -7c19,-50 38,-100 58,-150z"/>
   <path class="fil123" d="M8135 22200c30,-4 92,-15 122,-20l37 19c3,1 7,4 9,5l59 35c2,1 6,3 8,4 39,22 80,43 122,62l-13 19c-28,37 -45,79 -59,123 -52,-31 -105,-62 -157,-92 -2,-1 -6,-4 -8,-5l-41 -25c-28,-40 -54,-83 -79,-125z"/>
  </g>
  <g id="_234e768383">
   <path class="fil124" d="M14923 19382c2,2 5,4 6,5 -1,-1 -4,-3 -6,-5z"/>
  </g>
  <g id="_2349707c7c">
   <path class="fil125" d="M15168 19521c2,1 6,3 8,4 -2,-1 -6,-3 -8,-4z"/>
  </g>
  <g id="_2371d2e3e3">
   <path class="fil126" d="M16747 20432c115,12 -58,105 0,0z"/>
  </g>
  <g id="_23009cf4ff">
   <path class="fil127" d="M7559 20927c54,2 104,-22 154,-37 80,122 148,251 198,389 -16,37 -31,74 -46,112 -198,16 -395,-30 -592,-5 -7,-16 -22,-47 -29,-62 -78,-153 -198,-277 -317,-398 210,-21 421,3 632,1z"/>
  </g>
  <g id="_23008de9ff">
   <path class="fil128" d="M7911 21279l2 -6c75,243 137,503 76,756 -14,-7 -41,-23 -55,-30 -24,-14 -48,-28 -73,-41 22,-68 25,-153 -41,-199 -120,-17 -180,105 -225,194 -48,-32 -118,-47 -137,-108 -61,-154 -116,-310 -185,-459 197,-25 394,21 592,5 15,-38 30,-75 46,-112z"/>
  </g>
  <g id="_230078d8ff">
   <path class="fil129" d="M7197 21679c-53,-118 13,-242 47,-355 7,15 22,46 29,62 69,149 124,305 185,459 19,61 89,76 137,108 5,63 12,127 27,189 70,38 130,-23 183,-59 26,15 53,30 80,45 14,8 43,26 57,34 -14,38 -35,72 -61,102 -171,152 -380,249 -573,368 -119,79 -268,86 -404,56 -34,-14 -67,-29 -98,-45 45,-64 76,-136 90,-213 122,-101 279,-180 337,-337 56,-136 11,-283 -36,-414z"/>
  </g>
  <g id="_2373d6e7e7">
   <path class="fil130" d="M7934 21999c14,7 41,23 55,30 90,50 180,98 268,151 -30,5 -92,16 -122,20 25,42 51,85 79,125 -91,-54 -181,-109 -272,-163 -14,-8 -43,-26 -57,-34 16,-1 47,-2 63,-3 -5,-42 -10,-84 -14,-126z"/>
  </g>
  <g id="_234f939f9f">
   <path class="fil131" d="M12091 23174c594,-328 1178,-673 1765,-1014 1,25 4,75 5,100 69,-21 139,-43 207,-69 -88,85 -211,114 -312,180 -518,304 -1044,595 -1558,907 10,-37 21,-74 32,-110 -47,1 -93,3 -139,6z"/>
  </g>
  <g id="_2375b4c5c5">
   <path class="fil132" d="M8294 22199c3,1 7,4 9,5 -2,-1 -6,-4 -9,-5z"/>
  </g>
  <g id="_2373afbebe">
   <path class="fil133" d="M8255 22350c2,1 6,4 8,5 -2,-1 -6,-4 -8,-5z"/>
  </g>
  <g id="_2370daffff">
   <path class="fil134" d="M8538 22332c4,3 13,9 17,12 -4,-3 -13,-9 -17,-12z"/>
  </g>
  <g id="_2372a0b0b0">
   <path class="fil135" d="M8605 22377c4,2 11,6 15,8l-8 -4 -7 -4z"/>
  </g>
  <g id="_2377acbdbd">
   <path class="fil136" d="M8420 22447c5,3 14,8 19,11 -5,-3 -14,-8 -19,-11z"/>
  </g>
  <g id="_235bd4ffff">
   <path class="fil137" d="M8498 22492c2,2 7,4 10,6 -3,-2 -8,-4 -10,-6z"/>
  </g>
  <g id="_2343c8fbfb">
   <path class="fil138" d="M8760 22482c52,-18 81,1 84,54 -42,6 -69,-12 -84,-54z"/>
  </g>
  <g id="_2367848f8f">
   <path class="fil139" d="M8609 22555l6 4 6 3c-3,-1 -9,-5 -12,-7z"/>
  </g>
  <g id="_235aa7b3b4">
   <path class="fil140" d="M8844 22536c59,21 115,49 169,83 353,210 713,410 1065,623 293,166 585,336 876,506 52,0 104,1 156,1 138,-81 283,-151 414,-245 -22,50 -28,103 -31,157l-1 17c-108,57 -210,125 -325,170 -208,87 -398,-60 -569,-160 -83,-46 -165,-94 -247,-143 -518,-295 -1041,-586 -1551,-894l7 -24c10,-23 28,-68 37,-91z"/>
  </g>
  <g id="_237bd3f2f2">
   <path class="fil141" d="M8671 22595c4,3 13,9 17,12 -4,-3 -13,-9 -17,-12z"/>
  </g>
  <g id="_2367cae4e4">
   <path class="fil142" d="M8748 22611c15,4 45,12 59,16l-7 24c-14,-3 -43,-10 -58,-13l6 -27z"/>
  </g>
  <g id="_2300c9f5f5">
   <path class="fil143" d="M11524 23504c113,-59 219,-129 335,-182 -15,27 -29,55 -43,84 43,0 87,0 130,1 -142,98 -291,193 -453,254 3,-54 9,-107 31,-157z"/>
  </g>
 </g>
</svg>
