<?xml version="1.0" encoding="UTF-8"?>
<!DOCTYPE svg PUBLIC "-//W3C//DTD SVG 1.1//EN" "http://www.w3.org/Graphics/SVG/1.1/DTD/svg11.dtd">
<!-- Creator: CorelDRAW X8 -->
<svg xmlns="http://www.w3.org/2000/svg" xml:space="preserve" width="297mm" height="210mm" version="1.1" style="shape-rendering:geometricPrecision; text-rendering:geometricPrecision; image-rendering:optimizeQuality; fill-rule:evenodd; clip-rule:evenodd"
viewBox="0 0 29700 21000"
 xmlns:xlink="http://www.w3.org/1999/xlink">
 <defs>
  <style type="text/css">
   <![CDATA[
    .str0 {stroke:#FFAFB0;stroke-width:7.62}
    .fil97 {fill:#00C7B7}
    .fil127 {fill:#00C9B9}
    .fil65 {fill:#045FC8}
    .fil57 {fill:#065FC9}
    .fil35 {fill:#0B60CC}
    .fil40 {fill:#0E62CD}
    .fil79 {fill:#1066D3}
    .fil101 {fill:#241336}
    .fil43 {fill:#2473D4}
    .fil15 {fill:#281B2D}
    .fil67 {fill:#3880D8}
    .fil120 {fill:#39DACD}
    .fil0 {fill:#3A80D8}
    .fil123 {fill:#3ADACD}
    .fil52 {fill:#40022E}
    .fil117 {fill:#42DBCE}
    .fil103 {fill:#465D81}
    .fil90 {fill:#465E81}
    .fil126 {fill:#46DBCF}
    .fil23 {fill:#488CE3}
    .fil62 {fill:#4989DA}
    .fil81 {fill:#4A88D8}
    .fil14 {fill:#4B254C}
    .fil24 {fill:#5897E7}
    .fil121 {fill:#58DDD3}
    .fil130 {fill:#59DDD4}
    .fil54 {fill:#5A1C46}
    .fil133 {fill:#5ADDD4}
    .fil136 {fill:#5BDED4}
    .fil132 {fill:#5CDED4}
    .fil111 {fill:#5DDDD6}
    .fil122 {fill:#5DDED6}
    .fil58 {fill:#5E0830}
    .fil131 {fill:#5EDED4}
    .fil105 {fill:#5EDED6}
    .fil114 {fill:#5FDED5}
    .fil10 {fill:#601240}
    .fil5 {fill:#611341}
    .fil110 {fill:#65DED7}
    .fil98 {fill:#772B57}
    .fil20 {fill:#8A5142}
    .fil45 {fill:#8EBDED}
    .fil108 {fill:#959EAA}
    .fil102 {fill:#96A0A7}
    .fil99 {fill:#98B4B6}
    .fil118 {fill:#99D0D1}
    .fil72 {fill:#9F4051}
    .fil31 {fill:#AAC5EE}
    .fil71 {fill:#ABBACF}
    .fil115 {fill:#B5E4E3}
    .fil106 {fill:#B7A9B3}
    .fil68 {fill:#BC636F}
    .fil94 {fill:#CABEB5}
    .fil33 {fill:#CFC2AF}
    .fil49 {fill:#E1B2A4}
    .fil104 {fill:#E9BC9B}
    .fil47 {fill:#F0967B}
    .fil89 {fill:#F0C9C3}
    .fil77 {fill:#F2B37E}
    .fil53 {fill:#F36074}
    .fil80 {fill:#F3B782}
    .fil93 {fill:#F5DBDC}
    .fil17 {fill:#F7E8EC}
    .fil137 {fill:#F7E8EC}
    .fil9 {fill:#FBFBCB}
    .fil21 {fill:#FCFDD1}
    .fil27 {fill:#FCFDD2}
    .fil91 {fill:#FDC28B}
    .fil100 {fill:#FDE873}
    .fil61 {fill:#FE225D}
    .fil92 {fill:#FEB33D}
    .fil107 {fill:#FEC88C}
    .fil113 {fill:#FEFDFC}
    .fil109 {fill:#FEFEFC}
    .fil55 {fill:#FEFEFE}
    .fil2 {fill:#FEFF8A}
    .fil12 {fill:#FEFFFE}
    .fil64 {fill:#FF085A}
    .fil46 {fill:#FF155F}
    .fil11 {fill:#FF1F60}
    .fil51 {fill:#FF225E}
    .fil44 {fill:#FF235E}
    .fil124 {fill:#FF245D}
    .fil125 {fill:#FF255E}
    .fil56 {fill:#FF255F}
    .fil82 {fill:#FF3C49}
    .fil75 {fill:#FF3D5B}
    .fil69 {fill:#FF4A66}
    .fil96 {fill:#FF5176}
    .fil84 {fill:#FF634E}
    .fil83 {fill:#FF6F3A}
    .fil70 {fill:#FF6F3C}
    .fil1 {fill:#FF703C}
    .fil16 {fill:#FF7071}
    .fil66 {fill:#FF713B}
    .fil59 {fill:#FF7540}
    .fil88 {fill:#FF8630}
    .fil116 {fill:#FF8B31}
    .fil78 {fill:#FF9E65}
    .fil38 {fill:#FF9F65}
    .fil41 {fill:#FF9F66}
    .fil86 {fill:#FFA086}
    .fil25 {fill:#FFAFB0}
    .fil13 {fill:#FFB0B0}
    .fil19 {fill:#FFB0B0}
    .fil95 {fill:#FFB394}
    .fil29 {fill:#FFB53F}
    .fil39 {fill:#FFB540}
    .fil18 {fill:#FFB640}
    .fil7 {fill:#FFB641}
    .fil87 {fill:#FFBD40}
    .fil73 {fill:#FFC5BF}
    .fil138 {fill:#FFC9CA}
    .fil74 {fill:#FFE5E0}
    .fil63 {fill:#FFE877}
    .fil42 {fill:#FFE978}
    .fil112 {fill:#FFEC75}
    .fil48 {fill:#FFEC76}
    .fil37 {fill:#FFED75}
    .fil32 {fill:#FFED82}
    .fil22 {fill:#FFEE80}
    .fil50 {fill:#FFEE82}
    .fil30 {fill:#FFEE83}
    .fil60 {fill:#FFEE86}
    .fil36 {fill:#FFEF86}
    .fil8 {fill:#FFF088}
    .fil85 {fill:#FFF5F3}
    .fil3 {fill:#FFFF89}
    .fil34 {fill:#FFFFFE}
    .fil26 {fill:white}
    .fil119 {fill:#331A0A;fill-opacity:0.211765}
    .fil28 {fill:#573723;fill-opacity:0.400000}
    .fil6 {fill:#512833;fill-opacity:0.431373}
    .fil129 {fill:#005B57;fill-opacity:0.509804}
    .fil4 {fill:#5F4A54;fill-opacity:0.509804}
    .fil134 {fill:#006663;fill-opacity:0.619608}
    .fil76 {fill:#D5B0B4;fill-opacity:0.839216}
    .fil135 {fill:#00A89C;fill-opacity:0.850980}
    .fil128 {fill:#A59B67;fill-opacity:0.949020}
   ]]>
  </style>
 </defs>
 <g id="Слой_x0020_1">
  <metadata id="CorelCorpID_0Corel-Layer"/>
  <g id="__x0023_3a80d8ff">
   <path class="fil0" d="M11436 574c259,-50 547,-64 784,71 141,78 207,240 215,394 7,89 -43,181 -127,215 -158,81 -340,38 -509,60 -71,8 -144,57 -152,133 -5,95 50,178 86,262 -85,27 -193,90 -271,16 -100,-79 -204,-181 -218,-313 -10,-92 75,-159 159,-170 132,-19 282,-10 391,-101 92,-86 101,-224 106,-342 10,-78 -55,-144 -128,-158 -121,-24 -248,-2 -363,37 -33,7 -53,33 -71,59 112,44 311,38 326,192 -70,101 -194,146 -309,171 -106,17 -221,29 -320,-20 -97,-47 -121,-188 -55,-271 111,-138 289,-198 456,-235z"/>
   <path class="fil0" d="M13120 778c36,-120 164,-186 284,-177 272,18 515,165 723,330 213,168 406,380 488,643 21,100 31,205 1,304 -36,112 -107,207 -167,307 -89,47 -191,93 -293,60 -196,-60 -332,-222 -473,-361 -77,-73 -194,-150 -302,-92 -119,72 -144,222 -195,341 -91,-43 -200,-77 -253,-169 -31,-101 -22,-210 -17,-315 11,-117 59,-257 181,-300 111,-31 214,41 294,110 105,90 219,186 362,203 145,16 268,-81 375,-166 54,-41 91,-99 107,-164 10,-116 -70,-206 -150,-277 -106,-93 -226,-180 -369,-203 43,127 119,238 182,355 -20,44 -30,96 -63,133 -80,29 -167,0 -245,-22 -85,-31 -163,-79 -238,-128 -35,-26 -68,-55 -99,-85 -86,-82 -175,-202 -133,-327z"/>
   <path class="fil0" d="M10227 1739c144,-51 329,-65 447,50 75,69 150,179 95,281 -71,122 -215,165 -332,229 -55,30 -115,87 -92,157 27,72 98,113 152,163 -49,53 -110,132 -193,102 -110,-28 -260,-78 -271,-210 22,-142 200,-157 277,-260 93,-99 43,-248 -12,-353 -37,-66 -125,-55 -183,-28 -89,42 -182,96 -229,186 98,-9 198,-40 295,-2 7,139 -114,238 -221,302 -76,44 -193,87 -260,6 -75,-77 -27,-190 27,-264 125,-167 306,-285 500,-359z"/>
   <path class="fil0" d="M11432 1985c65,-92 187,-120 290,-150 111,-14 236,-16 332,51 44,29 33,92 -5,120 -125,114 -293,177 -460,187 -92,-19 -199,-103 -157,-208z"/>
   <path class="fil0" d="M12591 2154c42,-55 120,-46 182,-50 173,68 354,150 463,308 41,64 91,138 75,218 -15,66 -94,61 -146,60 -222,-23 -445,-117 -591,-290 -12,-81 -41,-175 17,-246z"/>
   <path class="fil0" d="M10384 2890c78,-157 253,-279 435,-249 20,106 -55,194 -120,267 -59,61 -140,126 -231,107 -55,-10 -112,-67 -84,-125z"/>
   <path class="fil0" d="M12445 3310c51,20 104,35 149,65 64,95 91,208 131,314 9,27 18,54 27,81 51,144 109,284 167,425 -10,37 1,64 34,83 16,44 33,88 49,133 6,18 18,53 24,71 85,249 111,519 246,750 17,66 31,133 48,199 22,99 59,194 87,291 7,27 15,55 22,82 -57,-57 -140,-113 -221,-69 -92,43 -76,156 -74,239 -22,-30 -44,-60 -64,-92 -93,-255 -158,-519 -232,-779 -21,-78 -47,-154 -71,-231 -24,-90 -54,-179 -105,-257 -4,148 22,295 45,441 14,81 37,159 50,240 10,119 22,238 47,354 16,76 29,162 -18,229 -65,99 -142,190 -212,285 -58,-124 -66,-260 -77,-394 -11,-40 -24,-79 -39,-117 44,-169 -28,-344 -27,-516 -4,-204 62,-399 81,-601 21,-217 60,-433 63,-652 -42,-7 -83,-13 -124,-19 23,-39 48,-77 64,-120 -22,-43 -52,-80 -80,-118 -8,-106 -3,-212 10,-317z"/>
   <g>
    <path class="fil0" d="M11388 3848l18 -13c-24,177 -22,355 -17,532 0,16 -3,49 -4,65 24,15 48,30 73,44 -32,18 -62,38 -92,58 33,142 112,268 220,365 79,107 131,231 188,350 14,-2 43,-6 57,-8 25,233 27,468 32,702 -4,49 7,97 31,141 5,-55 9,-109 12,-164 9,-4 27,-13 36,-18 1,43 2,85 3,128 37,-9 75,-18 112,-26 83,-7 151,-53 213,-105 26,-20 54,-40 81,-59 2,-43 3,-87 6,-130 9,-5 27,-15 36,-19 7,45 14,91 23,137 26,141 40,284 56,427 37,-17 73,-33 110,-50 21,196 -29,389 -28,585 -3,145 3,290 -2,435 -27,185 -14,375 -60,557 -92,363 -189,724 -267,1090 -30,29 -39,72 -27,111 -32,103 -76,201 -141,287 -97,15 -203,4 -264,-82 84,-138 101,-300 135,-455 74,-343 152,-686 227,-1029 36,-170 0,-342 0,-513 -1,-187 -27,-374 -25,-562 2,-80 -11,-160 -37,-236 -36,160 3,324 -21,486 -31,-136 -42,-274 -55,-412 -72,34 -144,69 -214,108 -4,-18 -11,-55 -15,-74 -141,14 -282,13 -423,1 -62,28 -117,69 -182,88 -54,4 -102,-24 -151,-42 -123,-288 -219,-586 -328,-880 -57,-152 -88,-317 -65,-479 8,-44 18,-88 29,-131 35,-143 71,-285 116,-425 10,-29 20,-58 30,-87 38,-116 68,-236 122,-346 21,-20 42,-40 63,-58 96,-81 197,-156 299,-229 30,-21 60,-43 90,-65l0 0zm-316 1275c-92,100 -94,273 -18,386l20 -27c8,134 43,271 129,377 28,-369 -18,-738 -28,-1106 -80,105 -101,241 -103,370l0 0zm186 -156c82,5 165,8 247,0 33,1 54,-15 62,-49 -83,-3 -166,-6 -249,3 -31,0 -51,16 -60,46z"/>
   </g>
   <path class="fil0" d="M11297 7644c112,62 236,-14 353,-20 17,36 34,71 50,107 -5,151 -49,298 -50,449 -2,147 -20,293 -49,437 -36,181 -40,367 -70,550 -27,163 -4,353 -142,473 -89,-11 -176,-31 -260,-59 -1,-10 -2,-31 -3,-42 82,-170 79,-361 102,-543 34,-302 72,-604 110,-905 14,-134 40,-279 -31,-402 -8,159 -5,319 -29,477 -33,229 -34,464 -103,687 5,-239 7,-480 46,-717 29,-159 17,-322 16,-483 15,-2 45,-7 60,-9z"/>
  </g>
  <g id="__x0023_81302492">
  </g>
  <g id="__x0023_ff703cff">
   <path class="fil1" d="M12974 1201c126,-10 252,-20 378,-11 75,49 153,97 238,128 -74,35 -142,82 -199,141 -80,-69 -183,-141 -294,-110 -122,43 -170,183 -181,300 -8,80 -2,162 -24,240 -29,77 -78,144 -119,215 -62,4 -140,-5 -182,50 -58,71 -29,165 -17,246 -65,142 -130,286 -187,432 -21,-51 -36,-105 -45,-160 -9,-63 -18,-127 -31,-189 -188,65 -369,-69 -561,-40 -56,-82 -111,-165 -161,-250 167,-10 335,-73 460,-187 38,-28 49,-91 5,-120 -96,-67 -221,-65 -332,-51 122,-108 232,-231 375,-312 267,-162 562,-298 877,-322z"/>
   <path class="fil1" d="M14615 1574c150,169 334,310 451,507 165,231 270,500 330,776 5,207 35,426 -61,618 -76,19 -143,64 -219,83 -279,52 -563,87 -847,64 24,-109 55,-216 83,-323 40,-150 45,-307 76,-459 45,-215 33,-437 21,-655 60,-100 131,-195 167,-307 30,-99 20,-204 -1,-304z"/>
   <path class="fil1" d="M4872 4839c35,1 76,3 89,42 155,299 315,596 464,898 59,163 86,350 23,516 -80,85 -165,184 -286,206 -119,19 -238,-11 -354,-35 -45,-56 -98,-107 -152,-154 -5,94 2,188 -9,281l-9 5c3,-97 21,-195 3,-291 -86,-134 -185,-264 -226,-422 -75,-210 -29,-435 -42,-653 157,-143 344,-248 499,-393z"/>
   <path class="fil1" d="M4306 6885c42,-60 83,-120 138,-169 35,51 68,105 120,140 165,110 340,205 520,290 171,92 337,194 503,294 -4,167 -2,333 -3,500 -2,181 16,363 -21,541 -142,-55 -264,-147 -397,-219 -179,-98 -352,-205 -530,-304 -91,-58 -201,-97 -271,-182 -69,-291 42,-604 -59,-891z"/>
  </g>
  <g id="__x0023_feff8aff">
   <path class="fil2" d="M13898 1207c118,26 222,91 337,125 -16,65 -53,123 -107,164 -107,85 -230,182 -375,166 -143,-17 -257,-113 -362,-203 57,-59 125,-106 199,-141 78,22 165,51 245,22 33,-37 43,-89 63,-133z"/>
  </g>
  <g id="__x0023_ffff89ff">
   <path class="fil3" d="M12892 1889c22,-78 16,-160 24,-240 -5,105 -14,214 17,315 53,92 162,126 253,169 51,-119 76,-269 195,-341 108,-58 225,19 302,92 141,139 277,301 473,361 102,33 204,-13 293,-60 12,218 24,440 -21,655 -31,152 -36,309 -76,459 -28,107 -59,214 -83,323 -123,-5 -251,16 -369,-26 -127,-44 -264,-44 -389,-93 -41,-3 -108,-48 -133,-1 -6,32 -13,64 -20,96l-5 15c2,-37 3,-75 1,-112 -17,-42 -67,-45 -103,-63 -66,-25 -130,-55 -195,-83 -40,-17 -81,-33 -122,-48 -68,151 -166,294 -182,463 -9,-27 -18,-54 -27,-81 -17,-143 108,-256 108,-390 -88,-84 -213,-121 -309,-197 4,-33 9,-67 13,-100 -43,-43 -86,-85 -126,-131 -6,-9 -18,-29 -24,-39 57,-146 122,-290 187,-432 146,173 369,267 591,290 52,1 131,6 146,-60 16,-80 -34,-154 -75,-218 -109,-158 -290,-240 -463,-308 41,-71 90,-138 119,-215z"/>
  </g>
  <g id="__x0023_5f4a5483">
   <path class="fil4" d="M11647 2462l26 -14 22 10c-13,7 -38,21 -51,28l3 -24z"/>
  </g>
  <g id="__x0023_611341ff">
   <path class="fil5" d="M11695 2458c14,-4 41,-11 55,-15 192,-29 373,105 561,40 13,62 22,126 31,189 -60,33 -122,72 -193,63 -226,-15 -459,-46 -680,20 102,-14 206,-26 309,-14 0,105 -32,205 -84,295 -56,-12 -111,-24 -167,-36 -27,21 -54,43 -82,63 -13,10 -40,29 -54,38 -24,-172 -9,-355 88,-505 8,-15 26,-46 34,-61l21 4c12,-5 37,-17 50,-23 15,-7 45,-23 60,-30 13,-7 38,-21 51,-28z"/>
  </g>
  <g id="__x0023_5128336e">
   <path class="fil6" d="M11534 2539c7,-8 22,-26 29,-35l21 12c-13,6 -38,18 -50,23z"/>
  </g>
  <path class="fil7" d="M11357 2792c59,-51 81,-131 122,-196 -97,150 -112,333 -88,505 25,129 94,243 144,362 -93,53 -187,106 -279,161 -137,63 -269,136 -393,222 -8,5 -25,16 -34,21 -79,42 -159,80 -236,124 -102,62 -205,123 -309,180 -39,22 -78,44 -117,66 -127,76 -256,147 -385,220 -53,55 -62,139 -32,208 45,65 118,102 185,143 -111,61 -225,121 -316,210 155,115 325,205 488,306 200,113 388,248 597,344 109,294 205,592 328,880 32,57 68,113 95,173 11,29 21,58 31,87 -16,22 -32,44 -48,66 -266,211 -197,529 -78,796 51,-3 101,-7 152,-11 37,156 40,317 37,477 -39,237 -41,478 -46,717 -22,160 -44,320 -65,479 -12,70 0,140 16,207 1,11 2,32 3,42 0,68 -8,135 -14,203 -10,108 3,217 45,318 45,114 51,250 140,344 83,84 191,153 311,164 36,4 59,-32 87,-49 58,-47 28,-130 -9,-180 -45,-80 -91,-160 -133,-241 15,-54 1,-125 -64,-134 -23,-60 -52,-118 -76,-177 -16,-62 -22,-125 -27,-189 138,-120 115,-310 142,-473 30,-183 34,-369 70,-550 29,-144 47,-290 49,-437 1,-151 45,-298 50,-449 5,-69 8,-141 -19,-206 126,-37 252,-76 373,-129 15,84 21,170 20,255 -81,287 -137,579 -180,874 -55,202 -81,410 -117,616 -41,87 -55,181 -60,276 -3,11 -9,35 -12,46 -16,62 -29,126 -39,189 24,32 51,61 77,91 31,49 98,37 132,-1 9,-8 28,-22 38,-29 71,9 144,12 212,41 100,39 185,114 292,139 106,26 216,17 323,2 -10,-64 7,-152 -67,-181 -175,-98 -358,-185 -522,-301 -35,-45 -65,-94 -94,-143 65,-86 109,-184 141,-287 36,-26 47,-72 27,-111 78,-366 175,-727 267,-1090 46,-182 33,-372 60,-557 29,-168 18,-338 24,-508 327,184 642,388 963,582 79,46 154,104 243,129 66,-1 122,-48 179,-77 216,-136 446,-248 663,-383 140,-88 296,-146 437,-232 97,-58 194,-115 288,-176 68,90 129,189 223,254 84,57 178,97 273,132 -76,85 -176,190 -132,314 51,163 228,220 370,278 -89,42 -169,101 -250,155l-18 10c-94,50 -253,77 -250,212 -12,113 96,173 178,222 -85,80 -194,131 -267,224 351,242 727,446 1088,673 51,29 102,61 160,73 102,-21 184,-92 274,-140 440,-257 883,-509 1327,-759 63,-37 118,-85 172,-133 -79,-65 -165,-122 -255,-169 24,-62 48,-123 72,-184 -30,2 -59,5 -89,9 69,-47 151,-81 205,-146 18,-65 5,-133 2,-198 -44,-20 -89,-39 -134,-60 -147,-75 -285,-168 -434,-240 -166,-81 -323,-179 -474,-284 -124,67 -246,136 -369,205 -38,21 -75,44 -112,66 -55,34 -109,67 -164,99 -75,-82 -148,-166 -221,-250 179,-74 402,-210 372,-435 -1,-102 12,-216 -51,-304 -128,-189 -355,-295 -578,-312 -218,-13 -455,-11 -642,117 -155,87 -304,259 -238,449 -21,-62 -44,-124 -64,-186 12,-68 23,-137 34,-206 -26,8 -51,17 -75,26 79,-74 241,-109 218,-245 -2,-41 -8,-82 -12,-123 -56,-19 -110,-38 -164,-60 -157,-78 -300,-181 -453,-267 -118,-70 -242,-133 -344,-226 -105,-107 -196,-230 -329,-303 -199,-111 -409,-210 -634,-250 -139,-31 -282,-39 -422,-63 -46,-3 -75,-42 -107,-69 58,-71 74,-162 86,-251 9,5 19,9 29,14 40,-214 144,-408 203,-616l5 -15c438,259 884,506 1324,761 41,27 88,39 136,40l-8 21c-8,8 -23,25 -30,34 -43,48 -70,108 -96,166 -39,84 -87,164 -133,245 -28,45 -65,106 -14,150 117,122 281,182 422,272 195,102 373,235 576,325 126,-220 272,-439 317,-693 9,45 17,89 26,133 79,28 151,72 224,113 457,268 920,525 1380,787 84,50 164,112 263,128 -71,116 -138,236 -205,354 -32,61 -81,121 -78,194 8,86 91,132 157,173 222,125 444,248 662,381 61,37 127,66 194,91 115,-213 264,-423 288,-671 9,28 17,56 28,84 122,125 298,169 440,266 815,461 1627,925 2440,1389 92,54 177,124 283,150 -3,24 -4,49 -5,73 -4,151 -5,303 -7,454 -170,-65 -319,-171 -478,-257 -286,-159 -569,-324 -853,-486 -55,-39 -121,-26 -174,9 -1731,1000 -3459,2006 -5188,3008 -144,-151 -265,-345 -468,-421 -140,-46 -312,-52 -432,47 -122,94 -168,250 -200,393 -14,94 -28,198 14,287 47,43 108,4 161,-4 6,-166 -10,-354 104,-489 79,-103 238,-92 339,-29 108,83 199,187 286,291 -59,65 -128,119 -205,159 -234,130 -461,272 -695,400 -47,-42 -94,-84 -139,-127 -137,-138 -293,-291 -502,-291 -186,-27 -347,119 -410,282 -62,161 -93,347 -27,511 49,-20 116,-21 149,-68 17,-126 -3,-262 56,-380 40,-87 127,-169 230,-154 188,18 307,180 419,314 -64,114 -193,156 -298,220 -697,405 -1394,810 -2088,1221 1,23 1,46 1,70 -14,6 -42,16 -56,22 -1,14 -2,43 -3,57 186,133 392,233 589,348 1762,1001 3524,2003 5284,3007 93,51 182,112 282,148 64,29 130,-10 187,-38 1482,-863 2968,-1719 4449,-2584 391,-225 780,-452 1171,-676 142,-83 287,-163 414,-269 99,54 202,102 305,147 -7,4 -22,13 -30,17 -99,70 -195,144 -301,203 -120,65 -226,153 -349,211 -317,129 -574,366 -886,504 -84,37 -160,87 -235,139 -120,82 -260,129 -378,214 -121,86 -260,144 -382,229 -125,86 -273,133 -394,224 -79,59 -166,107 -256,145 -139,58 -252,160 -384,229 -104,54 -196,126 -300,180 -316,146 -592,365 -905,516 -111,56 -208,136 -321,190 -308,143 -574,362 -882,507 -171,82 -318,208 -494,282 -146,64 -295,-29 -421,-98 -149,-98 -310,-178 -455,-281 -174,-123 -385,-178 -557,-303 -153,-111 -337,-169 -489,-282 -127,-95 -284,-139 -410,-234 -131,-100 -291,-149 -426,-243 -96,-67 -201,-123 -309,-170 -138,-60 -247,-168 -384,-231 -101,-46 -199,-100 -290,-164 -119,-84 -264,-121 -381,-209 -84,-62 -173,-117 -269,-158 -152,-67 -275,-183 -429,-245 -159,-63 -281,-189 -439,-255 -96,-41 -187,-92 -273,-153 -134,-95 -292,-146 -425,-244 -127,-93 -283,-138 -410,-233 -84,-62 -176,-113 -272,-155 -126,-56 -233,-145 -354,-210 -149,-82 -314,-137 -450,-241 -131,-101 -293,-148 -427,-244 -139,-100 -305,-154 -445,-251 -92,-64 -188,-119 -289,-166 -148,-68 -272,-178 -422,-242 -147,-61 -263,-175 -409,-238 -90,-39 -174,-88 -254,-146 -128,-94 -283,-138 -412,-231 -95,-67 -197,-124 -303,-172 -140,-62 -256,-164 -394,-228 -94,-44 -185,-96 -271,-156 -128,-91 -282,-138 -410,-230 -188,-135 -413,-203 -602,-334 -80,-56 -163,-107 -252,-148 -144,-65 -265,-172 -411,-236 -155,-69 -286,-180 -441,-251 -172,-78 -318,-204 -491,-281 -165,-70 -299,-194 -465,-263 -84,-36 -161,-85 -235,-138 -123,-89 -272,-131 -394,-221 -137,-102 -304,-153 -440,-256 -137,-106 -307,-150 -448,-248 -107,-73 -220,-137 -331,-203 5,-24 10,-49 15,-73 -33,6 -67,12 -100,20l-4 -18c141,4 249,-104 365,-170 227,-120 449,-249 668,-383 562,-323 1123,-647 1682,-975 101,287 -10,600 59,891 70,85 180,124 271,182 -81,45 -156,99 -225,161 316,200 643,383 961,580 71,40 141,87 222,100 141,-46 262,-138 401,-190 180,86 399,-4 503,-165 43,-66 81,-135 114,-206 362,-170 691,-400 1046,-582 77,29 164,54 245,23 164,-63 291,-207 347,-372 36,-108 27,-224 17,-335 46,-32 125,-41 134,-106 19,-96 9,-193 10,-290 -5,-243 9,-488 -8,-731 -91,-66 -187,-123 -289,-171 -13,25 -25,50 -38,76 -7,-217 1,-433 -7,-649 -44,26 -88,53 -132,79 -5,134 -8,267 -12,401 -106,-65 -213,-128 -320,-190 6,-33 12,-66 19,-98 36,-122 49,-249 44,-375 -7,-140 24,-292 -52,-418 -94,-159 -155,-335 -254,-492 -82,-134 -147,-278 -218,-419 -51,6 -103,12 -154,23 55,-81 160,-90 240,-136 147,-69 271,-178 423,-237 173,342 348,682 529,1019 50,107 -18,226 10,336 105,7 174,-79 260,-122 265,-130 508,-299 771,-433 250,-153 501,-301 759,-440 452,-280 919,-534 1375,-807z"/>
  <g id="__x0023_fff088ff">
   <path class="fil8" d="M12437 3212c15,-10 45,-30 59,-40 94,42 183,96 254,170 -13,11 -38,30 -51,41 -103,-26 -188,-98 -262,-171z"/>
  </g>
  <g id="__x0023_fbfbcbff">
   <g>
    <path class="fil9" d="M12451 3159c24,-18 49,-38 73,-57 96,76 221,113 309,197 0,134 -125,247 -108,390 -40,-106 -67,-219 -131,-314 -45,-30 -98,-45 -149,-65 -12,-40 -28,-78 -44,-115 12,-9 37,-27 50,-36l0 0zm-14 53c74,73 159,145 262,171 13,-11 38,-30 51,-41 -71,-74 -160,-128 -254,-170 -14,10 -44,30 -59,40z"/>
   </g>
  </g>
  <g id="__x0023_601240ff">
   <g>
    <path class="fil10" d="M11603 3145c18,3 56,9 75,13 30,73 58,157 132,197 79,43 187,88 264,18 45,-28 90,-56 138,-81 48,-24 97,-49 146,-74 11,-6 32,-18 43,-23 16,37 32,75 44,115 -13,105 -18,211 -10,317 -49,36 -100,70 -150,104 -60,-6 -119,-13 -178,-25 -55,-12 -111,-25 -165,-41 -79,-26 -166,-47 -226,-108 -42,-61 -59,-134 -84,-203 -9,-70 -20,-139 -29,-209l0 0zm556 245c23,56 41,114 72,167 16,-44 30,-89 45,-134 36,15 72,32 109,47 -18,-44 -36,-87 -53,-131 -58,17 -115,36 -173,51z"/>
   </g>
   <path class="fil10" d="M12099 5972c-2,-88 40,-173 137,-184 4,90 -58,154 -137,184z"/>
   <path class="fil10" d="M11863 5943c11,-6 32,-17 43,-23 -3,55 -7,109 -12,164 -24,-44 -35,-92 -31,-141z"/>
  </g>
  <g id="__x0023_ff1f60ff">
   <path class="fil11" d="M13251 3438c36,18 86,21 103,63 2,37 1,75 -1,112 -59,208 -163,402 -203,616 -10,-5 -20,-9 -29,-14 -12,89 -28,180 -86,251l-9 16c-6,-18 -18,-53 -24,-71 -10,-68 -15,-139 6,-206 69,-229 166,-449 224,-681 7,-29 13,-57 19,-86z"/>
   <g id="__x0023_fefffeff">
    <path class="fil12" d="M6990 3612c51,-11 103,-17 154,-23 71,141 136,285 218,419 99,157 160,333 254,492 76,126 45,278 52,418 5,126 -8,253 -44,375 -74,98 -164,204 -293,222 -100,10 -165,-80 -226,-145 -11,-205 51,-432 -66,-617 -161,-293 -311,-593 -474,-885 24,-18 48,-36 72,-55 111,-77 235,-135 353,-201z"/>
    <path class="fil12" d="M15625 5989c187,-128 424,-130 642,-117 223,17 450,123 578,312 63,88 50,202 51,304 -83,101 -167,210 -291,262 -226,101 -486,104 -727,60 -187,-28 -347,-149 -463,-294 -10,-26 -20,-52 -28,-78 -66,-190 83,-362 238,-449z"/>
    <g>
     <path class="fil13" d="M12149 2735c71,9 133,-30 193,-63 9,55 24,109 45,160 32,13 34,159 39,169 -8,181 35,205 -67,256 -2,18 -99,32 -111,41 -76,46 -9,4 -174,75 -77,70 -185,25 -264,-18 -74,-40 -102,-124 -132,-197 -19,-4 -57,-10 -75,-13 9,70 20,139 29,209 -10,91 -17,182 -10,273 -18,21 -37,41 -56,62 -7,-76 -14,-152 -31,-226 -50,-119 -119,-233 -144,-362 14,-9 41,-28 54,-38 130,-45 225,100 355,99 -76,-76 -175,-121 -273,-162 56,12 111,24 167,36 52,-90 84,-190 84,-295 -103,-12 -207,0 -309,14 221,-66 454,-35 680,-20l0 0zm-199 315c58,-7 116,-16 173,-30 -8,-12 -24,-34 -32,-46 -54,15 -143,-4 -141,76z"/>
    </g>
   </g>
  </g>
  <g id="__x0023_4b254cff">
   <path class="fil14" d="M11950 3050c-2,-80 87,-61 141,-76 8,12 24,34 32,46 -57,14 -115,23 -173,30z"/>
  </g>
  <g id="__x0023_281b2dff">
   <path class="fil15" d="M11445 3063c28,-20 55,-42 82,-63 98,41 197,86 273,162 -130,1 -225,-144 -355,-99z"/>
  </g>
  <g id="__x0023_ff7071ff">
   <path class="fil16" d="M12206 3071c27,14 52,34 72,57 19,36 42,72 80,90 -49,25 -98,50 -146,74 18,-73 17,-149 -6,-221z"/>
   <path class="fil16" d="M15948 6973c130,10 260,8 390,-4 -7,95 -4,193 -37,284 -87,83 -251,87 -337,-1 -34,-88 -17,-186 -16,-279z"/>
  </g>
  <path class="fil17" d="M12043 3191c-49,-57 18,-137 62,-65 4,72 -32,81 -62,65z"/>
  <g id="__x0023_ffb640ff">
   <path class="fil18" d="M12934 3307c41,15 82,31 122,48 -4,24 -8,48 -11,72 63,31 125,64 187,97 -58,232 -155,452 -224,681 -21,67 -16,138 -6,206 -16,-45 -33,-89 -49,-133 11,-37 0,-65 -34,-83 -58,-141 -116,-281 -167,-425 16,-169 114,-312 182,-463z"/>
   <path class="fil18" d="M7901 7110c67,2 114,43 135,105 -53,47 -112,105 -189,76 -2,-66 19,-127 54,-181z"/>
  </g>
  <g id="__x0023_fff8fcff">
   <path class="fil19 str0" d="M12159 3390c58,-15 115,-34 173,-51 17,44 35,87 53,131 -37,-15 -73,-32 -109,-47 -15,45 -29,90 -45,134 -31,-53 -49,-111 -72,-167z"/>
  </g>
  <g id="__x0023_8a5142ff">
   <path class="fil20" d="M13045 3427c3,-24 7,-48 11,-72 65,28 129,58 195,83 -6,29 -12,57 -19,86 -62,-33 -124,-66 -187,-97z"/>
  </g>
  <g id="__x0023_fcfdd1ff">
   <path class="fil21" d="M11256 3624c92,-55 186,-108 279,-161 17,74 24,150 31,226 -50,53 -102,103 -160,146l-18 13c-71,-42 -142,-87 -210,-134 25,-30 51,-61 78,-90z"/>
   <path class="fil21" d="M10593 3991c136,29 207,173 343,209 -54,110 -84,230 -122,346 -176,-126 -397,-196 -530,-375 104,-57 207,-118 309,-180z"/>
   <path class="fil21" d="M14810 4420c71,-74 119,-165 168,-255 319,166 610,383 943,521l23 10 -15 20c-179,239 -264,533 -435,778 -89,-39 -177,-81 -260,-132 -227,-141 -464,-266 -694,-403 3,-31 6,-63 11,-94 46,-81 94,-161 133,-245 25,-25 52,-49 78,-72 219,162 460,290 690,435 69,47 150,69 234,68 -70,-106 -191,-155 -296,-218 -146,-84 -284,-184 -436,-258 -65,-30 -123,-71 -174,-121 7,-9 22,-26 30,-34z"/>
   <path class="fil21" d="M9782 4457c129,-73 258,-144 385,-220 24,7 48,15 72,22 35,53 75,104 131,135 138,79 273,166 414,239 -45,140 -81,282 -116,425 -294,-189 -605,-348 -900,-535 4,-16 11,-49 14,-66z"/>
   <path class="fil21" d="M14081 5346c144,-73 273,-205 446,-195 102,93 226,156 344,226 153,86 296,189 453,267 54,34 104,73 155,112 -106,104 -252,150 -364,246 -114,-11 -192,-101 -285,-156 -184,-111 -365,-226 -551,-331 -76,-43 -141,-103 -198,-169z"/>
   <path class="fil21" d="M13654 5595c107,-56 211,-119 314,-182 90,66 177,135 272,192 245,142 483,295 728,437 -2,12 -5,38 -7,51 -111,40 -217,95 -306,174 -64,-34 -126,-70 -186,-111 -220,-151 -456,-275 -682,-416 -59,-34 -99,-88 -133,-145z"/>
   <g>
    <path class="fil21" d="M17874 5848c65,-44 131,21 189,48 249,148 506,282 755,430 25,35 61,70 59,116 -21,49 -49,94 -76,139 4,-41 8,-82 11,-124 -143,227 -240,479 -382,707 -210,-90 -398,-223 -599,-333 -111,-69 -236,-118 -333,-208 -2,-65 20,-128 42,-189 67,-118 134,-238 205,-354 46,-76 73,-163 129,-232l0 0zm-107 329c-8,25 -16,50 -24,75 218,150 453,274 674,419 44,26 88,61 142,63 72,-40 -14,-99 -55,-122 -246,-145 -483,-306 -737,-435z"/>
   </g>
   <path class="fil21" d="M13070 5882c20,32 42,62 64,92 8,11 24,32 32,43 53,72 106,143 163,212 54,-8 108,-15 162,-23 202,106 399,222 586,353 -115,95 -247,166 -379,234 -234,-119 -454,-262 -682,-391 -122,-75 -265,-125 -352,-244 139,-87 314,-132 406,-276z"/>
   <path class="fil21" d="M16139 7510c117,-55 225,-126 336,-190 127,173 335,243 507,359 153,105 331,174 466,304 -118,76 -239,147 -368,200 -77,-71 -159,-138 -251,-190 -203,-118 -404,-237 -603,-362 -47,-25 -71,-73 -87,-121z"/>
  </g>
  <g id="__x0023_ffee80ff">
   <path class="fil22" d="M10863 3846c124,-86 256,-159 393,-222 -27,29 -53,60 -78,90 68,47 139,92 210,134 -30,22 -60,44 -90,65 -69,-52 -136,-106 -201,-164 -78,32 -157,63 -234,97z"/>
  </g>
  <g id="__x0023_488ce3ff">
   <path class="fil23" d="M11622 3627c2,27 5,54 8,81 -94,116 -104,271 -70,411 34,152 99,295 137,446 57,222 102,449 134,676 -14,2 -43,6 -57,8 -57,-119 -109,-243 -188,-350 -62,-128 -126,-257 -220,-365 30,-20 60,-40 92,-58 18,-7 54,-21 71,-29 -46,-26 -93,-53 -140,-80 -5,-177 -7,-355 17,-532 58,-43 110,-93 160,-146 19,-21 38,-41 56,-62z"/>
  </g>
  <g id="__x0023_5897e7ff">
   <path class="fil24" d="M12285 3731c50,-34 101,-68 150,-104 28,38 58,75 80,118 -16,43 -41,81 -64,120 41,6 82,12 124,19 -3,219 -42,435 -63,652 -19,202 -85,397 -81,601 -17,-234 -46,-467 -49,-701 -2,-164 -10,-327 -38,-489 -11,-74 -35,-146 -59,-216z"/>
  </g>
  <g id="__x0023_ffafb0ff">
   <path class="fil25" d="M11942 3665c54,16 110,29 165,41 39,204 -8,411 -63,608 -172,-111 -332,-241 -482,-382 -1,63 -3,125 -2,187 -34,-140 -24,-295 70,-411 30,51 61,116 126,130 101,27 224,-63 186,-173z"/>
   <path class="fil25" d="M13268 5848c56,-17 115,-6 172,-4 24,85 53,168 82,252 -11,36 -21,73 -31,110 -54,8 -108,15 -162,23 -57,-69 -110,-140 -163,-212 30,-58 47,-129 102,-169z"/>
   <path class="fil25" d="M11393 6602c24,19 48,38 71,58 26,22 52,44 77,67 81,-22 173,-36 223,-111l13 -15c30,70 56,141 77,213 -26,-40 -54,-79 -82,-118 -90,19 -180,43 -268,70 36,68 86,131 100,208 -14,59 -58,104 -94,151 -134,-23 -216,-132 -291,-234 -4,-10 -13,-30 -18,-40 -30,7 -61,15 -91,23 16,-22 32,-44 48,-66 -10,-29 -20,-58 -31,-87 58,15 125,52 180,11 42,-33 60,-86 86,-130z"/>
  </g>
  <g id="__x0023_ffffffff">
   <g>
    <path class="fil26" d="M12107 3706c59,12 118,19 178,25 24,70 48,142 59,216 10,395 -21,791 18,1185 20,179 15,363 72,536 -11,5 -31,17 -41,23 -9,4 -27,14 -36,19 -32,14 -65,28 -97,42 4,49 7,98 10,147 -62,52 -130,98 -213,105 -1,-53 -1,-105 1,-158 -39,19 -78,37 -116,56 -9,5 -27,14 -36,18 -11,6 -32,17 -43,23 -5,-234 -7,-469 -32,-702 -32,-227 -77,-454 -134,-676 -38,-151 -103,-294 -137,-446 -1,-62 1,-124 2,-187 150,141 310,271 482,382 55,-197 102,-404 63,-608l0 0zm-8 2266c79,-30 141,-94 137,-184 -97,11 -139,96 -137,184z"/>
   </g>
   <path class="fil26" d="M11183 6590c65,-19 120,-60 182,-88 9,34 18,67 28,100 -26,44 -44,97 -86,130 -55,41 -122,4 -180,-11 -27,-60 -63,-116 -95,-173 49,18 97,46 151,42z"/>
  </g>
  <g id="__x0023_fcfdd2ff">
   <path class="fil27" d="M10863 3846c77,-34 156,-65 234,-97 65,58 132,112 201,164 -102,73 -203,148 -299,229 -88,-57 -174,-118 -255,-184 28,-31 56,-62 85,-91 9,-5 26,-16 34,-21z"/>
   <path class="fil27" d="M13407 5722c46,-23 92,-46 138,-70 44,47 85,97 136,136 271,177 563,322 825,513 -7,17 -20,50 -26,67 -105,42 -205,93 -303,150 -208,-156 -442,-274 -655,-422 -29,-84 -58,-167 -82,-252 -3,-10 -9,-30 -11,-40 -7,-27 -15,-55 -22,-82z"/>
   <path class="fil27" d="M17021 7008c123,-69 245,-138 369,-205 151,105 308,203 474,284 149,72 287,165 434,240 38,32 74,68 109,103 -130,102 -281,173 -428,244 -207,-167 -441,-295 -668,-430 -107,-65 -234,-116 -290,-236z"/>
   <path class="fil27" d="M16745 7173c55,-32 109,-65 164,-99 297,264 677,408 991,648 -81,56 -163,110 -246,164 -42,16 -85,30 -128,44 -148,-153 -347,-237 -522,-353 -139,-92 -293,-162 -422,-268 7,-16 22,-48 29,-64 45,-23 90,-47 134,-72z"/>
   <path class="fil27" d="M15833 7693c71,-33 144,-62 216,-93 70,73 147,139 235,188 188,104 366,224 555,327 63,38 157,79 133,170 -112,38 -211,102 -318,149 -37,17 -74,-9 -107,-23 -248,-134 -490,-280 -738,-416 -71,-39 -136,-86 -200,-135 67,-54 134,-109 206,-157l18 -10z"/>
  </g>
  <g id="__x0023_57372365">
   <path class="fil28" d="M6340 3953c96,-51 185,-127 297,-140 -24,19 -48,37 -72,55 -104,73 -218,132 -326,200 -84,53 -174,98 -272,115 115,-92 250,-151 373,-230z"/>
  </g>
  <g id="__x0023_ffb53fff">
   <path class="fil29" d="M6239 4068c108,-68 222,-127 326,-200 163,292 313,592 474,885 117,185 55,412 66,617 0,79 -2,157 -6,235 -43,40 -86,81 -130,120 -65,53 -144,82 -223,109 -53,-38 -115,-60 -178,-75 -10,-238 34,-497 -92,-713 -116,-208 -239,-412 -332,-631 -34,-85 -89,-160 -160,-217 -4,-4 -13,-11 -17,-15 98,-17 188,-62 272,-115z"/>
  </g>
  <g id="__x0023_ffee83ff">
   <path class="fil30" d="M10593 3991c77,-44 157,-82 236,-124 -29,29 -57,60 -85,91 81,66 167,127 255,184 -21,18 -42,38 -63,58 -136,-36 -207,-180 -343,-209z"/>
   <path class="fil30" d="M13545 5652c36,-19 73,-38 109,-57 34,57 74,111 133,145 226,141 462,265 682,416 60,41 122,77 186,111 -53,42 -113,74 -175,101 6,-17 19,-50 26,-67 -262,-191 -554,-336 -825,-513 -51,-39 -92,-89 -136,-136z"/>
   <path class="fil30" d="M16475 7320c44,-26 90,-51 136,-75 -7,16 -22,48 -29,64 129,106 283,176 422,268 175,116 374,200 522,353 43,-14 86,-28 128,-44 -80,64 -163,126 -255,173 -143,74 -276,168 -427,226 24,-91 -70,-132 -133,-170 -189,-103 -367,-223 -555,-327 -88,-49 -165,-115 -235,-188 -72,31 -145,60 -216,93 81,-54 161,-113 250,-155 18,-10 37,-19 56,-28 16,48 40,96 87,121 199,125 400,244 603,362 92,52 174,119 251,190 129,-53 250,-124 368,-200 -135,-130 -313,-199 -466,-304 -172,-116 -380,-186 -507,-359z"/>
  </g>
  <g id="__x0023_aac5eeff">
   <path class="fil31" d="M12344 3947c28,162 36,325 38,489 3,234 32,467 49,701 -1,172 71,347 27,516l-24 15c-57,-173 -52,-357 -72,-536 -39,-394 -8,-790 -18,-1185z"/>
  </g>
  <g id="__x0023_7e796695">
  </g>
  <g id="__x0023_ffed82ff">
   <path class="fil32" d="M10167 4237c39,-22 78,-44 117,-66 133,179 354,249 530,375 -10,29 -20,58 -30,87 -141,-73 -276,-160 -414,-239 -56,-31 -96,-82 -131,-135 -24,-7 -48,-15 -72,-22z"/>
  </g>
  <g id="__x0023_cfc2afff">
   <path class="fil33" d="M12919 4195c34,18 45,46 34,83 -33,-19 -44,-46 -34,-83z"/>
  </g>
  <g id="__x0023_fffffeff">
   <path class="fil34" d="M5460 4496c171,-105 341,-214 524,-298 71,57 126,132 160,217 93,219 216,423 332,631 126,216 82,475 92,713 -44,149 -117,309 -266,378 -103,52 -203,-32 -293,-71 -1,-159 4,-319 -7,-478 -40,-211 -186,-378 -269,-571 -78,-181 -191,-343 -273,-521z"/>
   <path class="fil34" d="M7917 6118c169,-80 312,-203 486,-273 17,243 3,488 8,731 -1,97 9,194 -10,290 -9,65 -88,74 -134,106 -44,-96 -113,-178 -206,-229 -169,-59 -334,56 -428,189 -112,140 -141,325 -128,499 -168,95 -348,168 -505,281 -129,76 -251,173 -398,210 -33,-79 -79,-159 -156,-201 -58,-19 -120,-15 -180,-16 -186,19 -310,187 -375,347 -25,98 -24,200 -52,297 -38,52 -95,85 -147,121 -80,-64 -54,-174 -59,-262 7,-233 -5,-465 3,-697 -9,-89 81,-125 144,-161 188,-93 363,-206 541,-315 253,-166 521,-306 788,-445 276,-148 526,-338 808,-472z"/>
  </g>
  <g id="__x0023_0b60ccff">
   <path class="fil35" d="M11385 4432c1,-16 4,-49 4,-65 47,27 94,54 140,80 -17,8 -53,22 -71,29 -25,-14 -49,-29 -73,-44z"/>
  </g>
  <g id="__x0023_ffef86ff">
   <path class="fil36" d="M14684 4620c26,-58 53,-118 96,-166 51,50 109,91 174,121 152,74 290,174 436,258 105,63 226,112 296,218 -84,1 -165,-21 -234,-68 -230,-145 -471,-273 -690,-435 -26,23 -53,47 -78,72z"/>
  </g>
  <g id="__x0023_ffed75ff">
   <path class="fil37" d="M9750 4665c-30,-69 -21,-153 32,-208 -3,17 -10,50 -14,66 295,187 606,346 900,535 -11,43 -21,87 -29,131 -253,-91 -465,-263 -704,-381 -67,-41 -140,-78 -185,-143z"/>
   <path class="fil37" d="M15324 5644c54,22 108,41 164,60 4,41 10,82 12,123 23,136 -139,171 -218,245 -22,14 -43,28 -64,42 -511,278 -1011,578 -1522,858 -309,-153 -593,-350 -897,-513 -49,-30 -106,-56 -140,-105 -27,-63 -13,-133 5,-196 87,119 230,169 352,244 228,129 448,272 682,391 132,-68 264,-139 379,-234 -187,-131 -384,-247 -586,-353 10,-37 20,-74 31,-110 213,148 447,266 655,422 98,-57 198,-108 303,-150 62,-27 122,-59 175,-101 89,-79 195,-134 306,-174 54,-25 105,-56 154,-91 112,-96 258,-142 364,-246 -51,-39 -101,-78 -155,-112z"/>
   <path class="fil37" d="M16909 7074c37,-22 74,-45 112,-66 56,120 183,171 290,236 227,135 461,263 668,430 147,-71 298,-142 428,-244 -35,-35 -71,-71 -109,-103 45,21 90,40 134,60 3,65 16,133 -2,198 -54,65 -136,99 -205,146 -23,14 -46,27 -69,41 -431,245 -859,495 -1292,738 -87,29 -155,100 -248,115 -57,-13 -108,-44 -159,-72 -236,-142 -473,-282 -714,-416 -82,-49 -190,-109 -178,-222 -3,-135 156,-162 250,-212 -72,48 -139,103 -206,157 64,49 129,96 200,135 248,136 490,282 738,416 33,14 70,40 107,23 107,-47 206,-111 318,-149 151,-58 284,-152 427,-226 92,-47 175,-109 255,-173 83,-54 165,-108 246,-164 -314,-240 -694,-384 -991,-648z"/>
  </g>
  <g id="__x0023_ff9f65ff">
   <path class="fil38" d="M13026 4482l9 -16c32,27 61,66 107,69 140,24 283,32 422,63 225,40 435,139 634,250 133,73 224,196 329,303 -173,-10 -302,122 -446,195 -38,23 -76,45 -113,67 -103,63 -207,126 -314,182 -36,19 -73,38 -109,57 -46,24 -92,47 -138,70 -28,-97 -65,-192 -87,-291 -9,-68 -17,-137 -48,-199 -135,-231 -161,-501 -246,-750z"/>
  </g>
  <g id="__x0023_ffb540ff">
   <path class="fil39" d="M5063 4729c132,-78 266,-153 397,-233 82,178 195,340 273,521 83,193 229,360 269,571 11,159 6,319 7,478 -3,36 -8,73 -13,109 15,13 30,26 46,39 -129,66 -206,196 -331,268 -17,251 7,503 -10,755l-24 1c15,-250 9,-501 5,-751 -25,-1 -75,-4 -100,-5 -9,253 3,506 -7,758l-26 0c-43,-270 6,-544 -23,-815 0,-56 -41,-94 -78,-130 63,-166 36,-353 -23,-516 -149,-302 -309,-599 -464,-898 -13,-39 -54,-41 -89,-42l-20 -2c81,-11 142,-69 211,-108z"/>
   <path class="fil39" d="M11803 6575c70,-39 142,-74 214,-108 13,138 24,276 55,412 -2,76 -7,152 -4,228 -43,-104 -83,-229 -204,-263 -3,-7 -8,-22 -10,-30 -21,-72 -47,-143 -77,-213 7,-6 20,-19 26,-26z"/>
   <path class="fil39" d="M23853 9893c3,-143 6,-287 36,-426 -9,58 -27,124 -1,180 63,85 177,100 273,122 10,3 28,8 38,10 648,378 1304,743 1956,1116 451,263 906,517 1359,777 42,32 95,28 144,33 -36,2 -72,4 -108,5 0,17 1,35 2,52 -212,78 -389,220 -585,327 -107,63 -208,137 -323,187 -168,73 -303,203 -473,271 -126,50 -234,135 -320,239 -114,-46 -220,-107 -324,-170 388,-268 818,-471 1213,-729 0,-13 0,-39 0,-52 -12,-7 -36,-23 -48,-31 -21,-48 -49,-96 -99,-120 -670,-381 -1338,-768 -2009,-1148 -233,-124 -452,-275 -694,-381 -14,142 -9,286 -10,429l-21 -15c33,-225 -13,-451 -6,-676z"/>
  </g>
  <g id="__x0023_0e62cdff">
   <path class="fil40" d="M11366 4534c94,108 158,237 220,365 -108,-97 -187,-223 -220,-365z"/>
  </g>
  <g id="__x0023_ff9f66ff">
   <path class="fil41" d="M12662 4615c51,78 81,167 105,257 -26,59 -49,120 -60,184 -23,-146 -49,-293 -45,-441z"/>
   <path class="fil41" d="M9619 5018c91,-89 205,-149 316,-210 239,118 451,290 704,381 -23,162 8,327 65,479 -209,-96 -397,-231 -597,-344 -163,-101 -333,-191 -488,-306z"/>
   <path class="fil41" d="M12757 5296c25,-65 54,-129 81,-193 74,260 139,524 232,779 -92,144 -267,189 -406,276 -18,63 -32,133 -5,196 34,49 91,75 140,105 304,163 588,360 897,513 511,-280 1011,-580 1522,-858 -33,128 -69,274 -190,348 -238,149 -489,276 -730,420 -81,46 -160,100 -251,125 -57,-28 -105,-72 -161,-100 -29,11 -57,26 -85,40 63,73 123,162 220,192 81,-14 152,-59 222,-98 236,-141 476,-273 714,-409 87,-52 189,-90 249,-176 45,-64 82,-134 117,-204 20,62 43,124 64,186 8,26 18,52 28,78 -22,15 -44,29 -66,44 -94,61 -191,118 -288,176 -141,86 -297,144 -437,232 -217,135 -447,247 -663,383 -57,29 -113,76 -179,77 -89,-25 -164,-83 -243,-129 -321,-194 -636,-398 -963,-582 -6,170 5,340 -24,508 5,-145 -1,-290 2,-435 -1,-196 49,-389 28,-585 -2,-10 -6,-31 -8,-41 70,-95 147,-186 212,-285 47,-67 34,-153 18,-229 -25,-116 -37,-235 -47,-354z"/>
   <path class="fil41" d="M16338 6969c63,-11 125,-26 186,-46 73,84 146,168 221,250 -44,25 -89,49 -134,72 -46,24 -92,49 -136,75 -111,64 -219,135 -336,190 -19,9 -38,18 -56,28 -142,-58 -319,-115 -370,-278 -44,-124 56,-229 132,-314 34,10 68,19 103,27 -1,93 -18,191 16,279 86,88 250,84 337,1 33,-91 30,-189 37,-284z"/>
   <path class="fil41" d="M5587 7440c49,106 31,226 32,340 1,232 -8,465 6,698 22,-3 44,-5 67,-8 52,-36 109,-69 147,-121 28,-97 27,-199 52,-297 -13,123 -18,247 -6,370 4,80 77,126 128,178l-18 9c-139,52 -260,144 -401,190 -81,-13 -151,-60 -222,-100 -318,-197 -645,-380 -961,-580 69,-62 144,-116 225,-161 178,99 351,206 530,304 133,72 255,164 397,219 37,-178 19,-360 21,-541 1,-167 -1,-333 3,-500z"/>
   <path class="fil41" d="M16864 8510c433,-243 861,-493 1292,-738 -31,98 -54,202 -112,289 -54,66 -134,101 -206,143 -266,141 -520,303 -785,446 -103,69 -174,-75 -268,-92 -13,25 -23,51 -33,77 65,63 122,143 210,176 83,-19 153,-68 226,-109 288,-169 580,-332 869,-498 102,-68 136,-193 185,-298 90,47 176,104 255,169 -54,48 -109,96 -172,133 -444,250 -887,502 -1327,759 -90,48 -172,119 -274,140 -58,-12 -109,-44 -160,-73 -361,-227 -737,-431 -1088,-673 73,-93 182,-144 267,-224 241,134 478,274 714,416 51,28 102,59 159,72 93,-15 161,-86 248,-115z"/>
  </g>
  <g id="__x0023_ffe978ff">
   <path class="fil42" d="M15494 5494c171,-245 256,-539 435,-778 30,120 -88,214 -51,336 -9,-44 -17,-88 -26,-133 -45,254 -191,473 -317,693 -203,-90 -381,-223 -576,-325 -141,-90 -305,-150 -422,-272 -51,-44 -14,-105 14,-150 -5,31 -8,63 -11,94 230,137 467,262 694,403 83,51 171,93 260,132z"/>
  </g>
  <g id="__x0023_2473d4ff">
   <path class="fil43" d="M11072 5123c2,-129 23,-265 103,-370 10,368 56,737 28,1106 -86,-106 -121,-243 -129,-377 6,-120 1,-239 -2,-359z"/>
  </g>
  <g id="__x0023_ff235eff">
   <path class="fil44" d="M12707 5056c11,-64 34,-125 60,-184 24,77 50,153 71,231 -27,64 -56,128 -81,193 -13,-81 -36,-159 -50,-240z"/>
  </g>
  <g id="__x0023_8ebdedff">
   <path class="fil45" d="M11258 4967c9,-30 29,-46 60,-46 83,-9 166,-6 249,-3 -8,34 -29,50 -62,49 -82,8 -165,5 -247,0z"/>
  </g>
  <g id="__x0023_ff155fff">
   <path class="fil46" d="M7937 5180c44,-26 88,-53 132,-79 8,216 0,432 7,649 -2,18 -7,56 -10,74 -39,4 -78,6 -117,8 -23,-217 -11,-435 -12,-652z"/>
  </g>
  <g id="__x0023_f0967bff">
   <path class="fil47" d="M11054 5509c-76,-113 -74,-286 18,-386 3,120 8,239 2,359l-20 27z"/>
  </g>
  <g id="__x0023_ffec76ff">
   <path class="fil48" d="M7925 5581c4,-134 7,-267 12,-401 1,217 -11,435 12,652 39,-2 78,-4 117,-8 3,-18 8,-56 10,-74 13,-26 25,-51 38,-76 102,48 198,105 289,171 -174,70 -317,193 -486,273 -282,134 -532,324 -808,472 -267,139 -535,279 -788,445 -178,109 -353,222 -541,315 -63,36 -153,72 -144,161 -8,232 4,464 -3,697 5,88 -21,198 59,262 -23,3 -45,5 -67,8 -14,-233 -5,-466 -6,-698 -1,-114 17,-234 -32,-340 -166,-100 -332,-202 -503,-294 -180,-85 -355,-180 -520,-290 -52,-35 -85,-89 -120,-140 43,-27 86,-53 130,-79 43,41 83,85 123,129 25,-5 50,-11 75,-16 8,-95 18,-190 36,-284 116,24 235,54 354,35 121,-22 206,-121 286,-206 37,36 78,74 78,130 29,271 -20,545 23,815l26 0c34,0 68,0 102,-2l24 -1c17,-252 -7,-504 10,-755 125,-72 202,-202 331,-268 130,93 277,163 411,251 90,52 200,144 304,69 322,-186 637,-384 977,-536 -24,-39 -45,-83 -87,-106 -126,-79 -259,-143 -397,-197 -50,-30 -101,-60 -151,-90 4,-78 6,-156 6,-235 61,65 126,155 226,145 129,-18 219,-124 293,-222 -7,32 -13,65 -19,98 107,62 214,125 320,190z"/>
   <path class="fil48" d="M20437 8284c53,-35 119,-48 174,-9 284,162 567,327 853,486 159,86 308,192 478,257 -11,151 45,322 -42,457 -365,-215 -743,-408 -1106,-628 -79,-44 -158,-98 -248,-117 -115,26 -208,103 -307,163 -537,298 -1060,618 -1594,920 -352,211 -713,406 -1062,622 -289,162 -580,323 -861,499 -438,240 -860,507 -1302,741 -54,-129 -105,-260 -171,-383 1729,-1002 3457,-2008 5188,-3008z"/>
   <path class="fil48" d="M23890 10155c242,106 461,257 694,381 671,380 1339,767 2009,1148 50,24 78,72 99,120 -253,128 -493,281 -741,420 -177,109 -368,198 -531,329 -200,-110 -407,-209 -597,-336 135,-114 297,-192 447,-285 156,-89 325,-157 465,-271 -137,-118 -311,-177 -462,-274 -249,-139 -493,-285 -743,-422 -197,-116 -406,-211 -593,-343 -19,-13 -38,-26 -57,-38 1,-143 -4,-287 10,-429z"/>
   <path class="fil48" d="M13929 12013c99,135 164,292 200,454 -45,14 -90,29 -132,50 -388,216 -768,445 -1153,666 -114,69 -264,104 -325,234 146,86 294,167 442,248 156,93 317,176 475,266 292,184 607,327 898,513 1008,567 2013,1142 3021,1711 109,57 209,138 329,172 152,-55 279,-160 421,-235 780,-452 1559,-905 2338,-1358 426,-262 871,-493 1298,-755 429,-251 862,-495 1290,-747 62,-33 134,-88 205,-44 181,91 357,193 532,296 -275,177 -565,330 -846,498 -761,443 -1525,880 -2283,1329 -212,141 -444,248 -662,380 -731,430 -1469,846 -2198,1279 -104,72 -212,-26 -303,-73 -1975,-1129 -3954,-2251 -5932,-3373 0,-24 0,-47 -1,-70 694,-411 1391,-816 2088,-1221 105,-64 234,-106 298,-220z"/>
  </g>
  <g id="__x0023_e1b2a4ff">
   <path class="fil49" d="M13272 5232c31,62 39,131 48,199 -17,-66 -31,-133 -48,-199z"/>
  </g>
  <g id="__x0023_ffee82ff">
   <path class="fil50" d="M13968 5413c37,-22 75,-44 113,-67 57,66 122,126 198,169 186,105 367,220 551,331 93,55 171,145 285,156 -49,35 -100,66 -154,91 2,-13 5,-39 7,-51 -245,-142 -483,-295 -728,-437 -95,-57 -182,-126 -272,-192z"/>
  </g>
  <g id="__x0023_ff225eff">
   <path class="fil51" d="M6969 5725c44,-39 87,-80 130,-120 50,30 101,60 151,90 140,102 302,168 443,268 -65,53 -153,116 -236,61 -164,-96 -345,-170 -488,-299z"/>
  </g>
  <g id="__x0023_40022eff">
   <path class="fil52" d="M12434 5668l24 -15c15,38 28,77 39,117 -28,19 -55,38 -81,58 -9,-46 -16,-92 -23,-137 10,-6 30,-18 41,-23z"/>
  </g>
  <g id="__x0023_f36074ff">
   <path class="fil53" d="M7250 5695c138,54 271,118 397,197 42,23 63,67 87,106 -340,152 -655,350 -977,536 -104,75 -214,-17 -304,-69 -134,-88 -281,-158 -411,-251 -16,-13 -31,-26 -46,-39 5,-36 10,-73 13,-109 90,39 190,123 293,71 149,-69 222,-229 266,-378 -15,85 -31,169 -50,253 91,-48 184,-93 275,-140 -15,-13 -31,-26 -47,-38 79,-27 158,-56 223,-109 143,129 324,203 488,299 83,55 171,-8 236,-61 -141,-100 -303,-166 -443,-268z"/>
   <path class="fil53" d="M22268 8726c-6,-77 4,-155 34,-227 -6,60 -6,120 -11,180 -4,18 -10,53 -14,71l-9 -24z"/>
   <g>
    <path class="fil53" d="M17119 13098c159,-86 333,-137 510,-170 188,-13 377,-9 565,-5 261,30 518,120 732,275 129,105 254,225 316,382 -27,-16 -54,-32 -81,-48 -10,141 -7,296 -100,413 -162,207 -420,310 -667,373 -425,87 -886,59 -1276,-141 -164,-88 -318,-221 -374,-405 -36,-113 15,-228 48,-335 -26,-3 -51,-6 -76,-9 117,-129 239,-261 403,-330l0 0zm288 317c-98,44 -155,143 -154,249 45,-1 90,3 134,-6 -25,22 -67,39 -65,79 148,109 339,161 523,157 222,1 464,22 658,-109 54,-26 17,-77 -12,-105 49,12 100,1 151,-1 13,-158 -133,-262 -268,-304 -311,-101 -669,-107 -967,40z"/>
   </g>
  </g>
  <g id="__x0023_5a1c46ff">
   <path class="fil54" d="M12260 5752c32,-14 65,-28 97,-42 -3,43 -4,87 -6,130 -27,19 -55,39 -81,59 -3,-49 -6,-98 -10,-147z"/>
  </g>
  <g id="__x0023_fefefeff">
   <path class="fil55" d="M13208 5735c81,-44 164,12 221,69 2,10 8,30 11,40 -57,-2 -116,-13 -172,4 -55,40 -72,111 -102,169 -8,-11 -24,-32 -32,-43 -2,-83 -18,-196 74,-239z"/>
   <g>
    <path class="fil55" d="M22738 7272c99,-46 196,-100 301,-130 124,-24 251,-17 376,-17 341,140 467,547 450,887 -70,-41 -159,-62 -210,-129 -45,-102 -63,-215 -114,-315 -25,-53 -58,-102 -100,-143 -89,-95 -232,-70 -348,-58 -182,51 -306,206 -436,332 -38,35 5,77 39,92 186,106 368,220 563,310l11 8c65,49 135,92 211,122 176,79 333,191 501,285 95,33 127,-88 189,-133 144,-128 321,-212 494,-290 115,-10 232,-9 347,-2 153,74 290,187 362,344 70,155 123,321 108,493 -93,7 -161,-58 -239,-96 -60,-142 -78,-306 -201,-413 -93,-134 -291,-112 -417,-38 -391,233 -620,658 -736,1086 -30,139 -33,283 -36,426 -7,225 39,451 6,676l-3 24c-29,-237 24,-479 -34,-713 -51,395 -4,794 -4,1190 -3,137 18,280 -21,414 -16,62 -93,55 -142,44 -52,-60 -42,-144 -46,-217 4,-180 8,-361 -5,-542 -18,-185 34,-385 -51,-558 -321,-191 -647,-374 -969,-563 -103,-66 -207,-131 -326,-164 -7,59 -12,119 -18,179 -31,209 -14,421 -16,631 1,165 -17,331 13,495 -78,-3 -155,-4 -232,-4 9,-763 -7,-1527 8,-2289 54,-173 109,-345 158,-518 22,-90 77,-165 124,-243 34,-57 66,-117 116,-162 109,-100 206,-214 327,-301l0 0zm-470 1182c-39,111 -21,230 -26,345l-8 22c-47,119 -79,300 50,377 158,116 338,195 502,300 134,84 276,153 411,235 133,68 257,187 410,196 32,-147 31,-301 5,-449 57,-52 65,-133 85,-204 26,-121 89,-230 109,-353 14,-26 30,-51 46,-75 -1,-28 -2,-56 -2,-84 -351,-185 -687,-398 -1035,-587 -75,-121 -226,-159 -345,-221 -93,155 -145,329 -202,498z"/>
   </g>
  </g>
  <g id="__x0023_ff255fff">
   <path class="fil56" d="M6568 5759c63,15 125,37 178,75 16,12 32,25 47,38 -91,47 -184,92 -275,140 19,-84 35,-168 50,-253z"/>
  </g>
  <g id="__x0023_065fc9ff">
   <path class="fil57" d="M12416 5828c26,-20 53,-39 81,-58 11,134 19,270 77,394 2,10 6,31 8,41 -37,17 -73,33 -110,50 -16,-143 -30,-286 -56,-427z"/>
  </g>
  <g id="__x0023_5e0830ff">
   <path class="fil58" d="M11942 5902c38,-19 77,-37 116,-56 -2,53 -2,105 -1,158 -37,8 -75,17 -112,26 -1,-43 -2,-85 -3,-128z"/>
  </g>
  <g id="__x0023_ff7540ff">
   <path class="fil59" d="M15282 6072c24,-9 49,-18 75,-26 -11,69 -22,138 -34,206 -35,70 -72,140 -117,204 -60,86 -162,124 -249,176 -238,136 -478,268 -714,409 -70,39 -141,84 -222,98 -97,-30 -157,-119 -220,-192 28,-14 56,-29 85,-40 56,28 104,72 161,100 91,-25 170,-79 251,-125 241,-144 492,-271 730,-420 121,-74 157,-220 190,-348 21,-14 42,-28 64,-42z"/>
   <path class="fil59" d="M18225 7731c30,-4 59,-7 89,-9 -24,61 -48,122 -72,184 -49,105 -83,230 -185,298 -289,166 -581,329 -869,498 -73,41 -143,90 -226,109 -88,-33 -145,-113 -210,-176 10,-26 20,-52 33,-77 94,17 165,161 268,92 265,-143 519,-305 785,-446 72,-42 152,-77 206,-143 58,-87 81,-191 112,-289 23,-14 46,-27 69,-41z"/>
  </g>
  <g id="__x0023_ffee86ff">
   <path class="fil60" d="M17767 6177c254,129 491,290 737,435 41,23 127,82 55,122 -54,-2 -98,-37 -142,-63 -221,-145 -456,-269 -674,-419 8,-25 16,-50 24,-75z"/>
  </g>
  <g id="__x0023_fe225dfe">
   <path class="fil61" d="M4656 6312c54,47 107,98 152,154 -18,94 -28,189 -36,284 -25,5 -50,11 -75,16 -40,-44 -80,-88 -123,-129 -4,-4 -11,-10 -14,-13 20,-7 59,-20 78,-26l9 -5c11,-93 4,-187 9,-281z"/>
  </g>
  <g id="__x0023_4989daff">
   <path class="fil62" d="M12072 6879c24,-162 -15,-326 21,-486 26,76 39,156 37,236 -2,188 24,375 25,562 0,171 36,343 0,513 -75,343 -153,686 -227,1029 -34,155 -51,317 -135,455l-19 -20 3 -27c36,-206 62,-414 117,-616 43,-295 99,-587 180,-874 35,-150 22,-307 5,-459 -4,-28 -7,-57 -11,-85 -3,-76 2,-152 4,-228z"/>
  </g>
  <g id="__x0023_ffe877ff">
   <path class="fil63" d="M17462 6628c-3,-73 46,-133 78,-194 -22,61 -44,124 -42,189 97,90 222,139 333,208 201,110 389,243 599,333 142,-228 239,-480 382,-707 -3,42 -7,83 -11,124 -4,35 -7,70 -10,105 -11,-28 -19,-56 -28,-84 -24,248 -173,458 -288,671 -67,-25 -133,-54 -194,-91 -218,-133 -440,-256 -662,-381 -66,-41 -149,-87 -157,-173z"/>
  </g>
  <g id="__x0023_ff085aff">
   <path class="fil64" d="M5582 6482c25,1 75,4 100,5 4,250 10,501 -5,751 -34,2 -68,2 -102,2 10,-252 -2,-505 7,-758z"/>
  </g>
  <g id="__x0023_045fc8ff">
   <path class="fil65" d="M11365 6502c141,12 282,13 423,-1 4,19 11,56 15,74 -6,7 -19,20 -26,26l-13 15c-102,1 -202,16 -300,44 -23,-20 -47,-39 -71,-58 -10,-33 -19,-66 -28,-100z"/>
  </g>
  <g id="__x0023_ff713bff">
   <path class="fil66" d="M16605 6750c124,-52 208,-161 291,-262 30,225 -193,361 -372,435 -61,20 -123,35 -186,46 -130,12 -260,14 -390,4 -35,-8 -69,-17 -103,-27 -95,-35 -189,-75 -273,-132 -94,-65 -155,-164 -223,-254 22,-15 44,-29 66,-44 116,145 276,266 463,294 241,44 501,41 727,-60z"/>
  </g>
  <g id="__x0023_3880d8ff">
   <path class="fil67" d="M11464 6660c98,-28 198,-43 300,-44 -50,75 -142,89 -223,111 -25,-23 -51,-45 -77,-67z"/>
  </g>
  <g id="__x0023_bc636fff">
   <path class="fil68" d="M11504 6766c88,-27 178,-51 268,-70 28,39 56,78 82,118 2,8 7,23 10,30 -103,135 3,316 121,402 32,45 53,97 69,150 -121,53 -247,92 -373,129 -129,37 -257,77 -384,119 -15,2 -45,7 -60,9 -13,1 -40,4 -53,6 -51,4 -101,8 -152,11 -91,-204 -150,-422 -254,-621 65,-121 216,-131 332,-175 30,-8 61,-16 91,-23 5,10 14,30 18,40 21,103 74,205 172,255 40,25 82,-6 119,-21 36,-47 80,-92 94,-151 -14,-77 -64,-140 -100,-208z"/>
  </g>
  <g id="__x0023_ff4a66ff">
   <path class="fil69" d="M7633 6932c94,-133 259,-248 428,-189 -105,26 -220,47 -296,132 -114,121 -185,285 -195,451 -6,110 110,201 70,311 -58,-60 -103,-130 -135,-206 -13,-174 16,-359 128,-499z"/>
  </g>
  <g id="__x0023_ff6f3cff">
   <g>
    <path class="fil70" d="M7765 6875c76,-85 191,-106 296,-132 93,51 162,133 206,229 10,111 19,227 -17,335 -56,165 -183,309 -347,372 -81,31 -168,6 -245,-23 -4,-5 -13,-15 -18,-19 40,-110 -76,-201 -70,-311 10,-166 81,-330 195,-451l0 0zm-79 343c4,39 -13,106 46,104 35,-71 11,-164 71,-223 39,-38 82,-88 140,-90 46,21 86,52 127,81 -7,74 0,151 -25,222 -38,69 -98,122 -149,180 101,39 168,-64 214,-138 69,-107 44,-240 36,-360 -17,-3 -52,-8 -70,-11 -19,-17 -38,-33 -58,-49 -47,-14 -95,-16 -144,-5 -90,72 -180,168 -188,289l0 0zm215 -108c-35,54 -56,115 -54,181 77,29 136,-29 189,-76 -21,-62 -68,-103 -135,-105z"/>
   </g>
  </g>
  <g id="__x0023_abbacfff">
   <path class="fil71" d="M11864 6844c121,34 161,159 204,263 4,28 7,57 11,85 -32,18 -63,36 -94,54 -118,-86 -224,-267 -121,-402z"/>
  </g>
  <g id="__x0023_9f4051ff">
   <path class="fil72" d="M11391 7146c-98,-50 -151,-152 -172,-255 75,102 157,211 291,234 -37,15 -79,46 -119,21z"/>
  </g>
  <g id="__x0023_ffc5bfff">
   <path class="fil73" d="M7686 7218c8,-121 98,-217 188,-289 23,20 47,37 73,53 25,-15 48,-31 71,-48 20,16 39,32 58,49 -2,36 -4,71 -6,107 -41,-29 -81,-60 -127,-81 -58,2 -101,52 -140,90 -60,59 -36,152 -71,223 -59,2 -42,-65 -46,-104z"/>
  </g>
  <g id="__x0023_ffe5e0ff">
   <path class="fil74" d="M7874 6929c49,-11 97,-9 144,5 -23,17 -46,33 -71,48 -26,-16 -50,-33 -73,-53z"/>
  </g>
  <g id="__x0023_ff3d5bff">
   <path class="fil75" d="M8076 6983c18,3 53,8 70,11 8,120 33,253 -36,360 -46,74 -113,177 -214,138 51,-58 111,-111 149,-180 25,-71 18,-148 25,-222 2,-36 4,-71 6,-107z"/>
  </g>
  <g id="__x0023_7a424a7e">
  </g>
  <g id="__x0023_d5b0b4d6">
   <path class="fil76" d="M22738 7272c179,-162 447,-224 677,-147 -125,0 -252,-7 -376,17 -105,30 -202,84 -301,130z"/>
  </g>
  <g id="__x0023_f2b37eff">
   <path class="fil77" d="M11985 7246c31,-18 62,-36 94,-54 17,152 30,309 -5,459 1,-85 -5,-171 -20,-255 -16,-53 -37,-105 -69,-150z"/>
  </g>
  <g id="__x0023_ff9e65ff">
   <path class="fil78" d="M7000 7712c157,-113 337,-186 505,-281 32,76 77,146 135,206 5,4 14,14 18,19 -355,182 -684,412 -1046,582 9,-106 7,-212 -10,-316 147,-37 269,-134 398,-210z"/>
  </g>
  <g id="__x0023_1066d3ff">
   <path class="fil79" d="M11297 7644c127,-42 255,-82 384,-119 27,65 24,137 19,206 -16,-36 -33,-71 -50,-107 -117,6 -241,82 -353,20z"/>
  </g>
  <g id="__x0023_b58f94be">
  </g>
  <g id="__x0023_f3b782ff">
   <path class="fil80" d="M11184 7659c13,-2 40,-5 53,-6 1,161 13,324 -16,483 3,-160 0,-321 -37,-477z"/>
  </g>
  <g id="__x0023_4a88d8ff">
   <path class="fil81" d="M11307 7689c71,123 45,268 31,402 -38,301 -76,603 -110,905 -23,182 -20,373 -102,543 -16,-67 -28,-137 -16,-207 21,-159 43,-319 65,-479 69,-223 70,-458 103,-687 24,-158 21,-318 29,-477z"/>
  </g>
  <g id="__x0023_ff3c49ff">
   <path class="fil82" d="M5891 8052c65,-160 189,-328 375,-347 -103,100 -237,185 -283,329 -29,105 -39,217 -28,325 8,83 83,155 58,241 -51,-52 -124,-98 -128,-178 -12,-123 -7,-247 6,-370z"/>
  </g>
  <g id="__x0023_ff6f3aff">
   <g>
    <path class="fil83" d="M6266 7705c60,1 122,-3 180,16 77,42 123,122 156,201 17,104 19,210 10,316 -33,71 -71,140 -114,206 -104,161 -323,251 -503,165l18 -9c25,-86 -50,-158 -58,-241 -11,-108 -1,-220 28,-325 46,-144 180,-229 283,-329l0 0zm-61 164l22 3c-48,59 -98,116 -151,172l-7 -20c-29,65 -74,131 -66,205 27,75 84,134 125,202 50,56 138,67 204,34 94,-61 152,-166 187,-270 35,-99 -14,-203 -64,-286 -54,-84 -168,-46 -250,-40z"/>
   </g>
  </g>
  <g id="__x0023_ff634eff">
   <g>
    <path class="fil84" d="M6205 7869c82,-6 196,-44 250,40 50,83 99,187 64,286 -35,104 -93,209 -187,270 -66,33 -154,22 -204,-34 62,-19 125,-36 189,-53 -76,-31 -191,-30 -223,-120 4,-73 30,-143 55,-211 30,-30 60,-60 90,-90 62,10 124,20 186,28 -27,-89 -115,-108 -198,-113l-22 -3 0 0zm20 220c-41,65 -23,140 11,203 29,-16 59,-31 86,-51 32,-48 10,-109 12,-161 -37,1 -74,-2 -109,9z"/>
   </g>
  </g>
  <g id="__x0023_fff5f3ff">
   <path class="fil85" d="M6227 7872c83,5 171,24 198,113 -62,-8 -124,-18 -186,-28 -30,30 -60,60 -90,90 -17,16 -35,33 -53,49 -5,-13 -15,-39 -20,-52 53,-56 103,-113 151,-172z"/>
  </g>
  <g id="__x0023_b88c90bb">
  </g>
  <g id="__x0023_a06c6fa2">
  </g>
  <g id="__x0023_ffa086ff">
   <path class="fil86" d="M6069 8024l7 20c5,13 15,39 20,52 18,-16 36,-33 53,-49 -25,68 -51,138 -55,211 32,90 147,89 223,120 -64,17 -127,34 -189,53 -41,-68 -98,-127 -125,-202 -8,-74 37,-140 66,-205z"/>
  </g>
  <g id="__x0023_ffbd40ff">
   <path class="fil87" d="M6225 8089c35,-11 72,-8 109,-9 -2,52 20,113 -12,161 -27,20 -57,35 -86,51 -34,-63 -52,-138 -11,-203z"/>
  </g>
  <g id="__x0023_78474e7b">
  </g>
  <g id="__x0023_643c3d6d">
  </g>
  <g id="__x0023_ff8630ff">
   <path class="fil88" d="M1595 8431c33,-8 67,-14 100,-20 -5,24 -10,49 -15,73 111,66 224,130 331,203 141,98 311,142 448,248 136,103 303,154 440,256 122,90 271,132 394,221 74,53 151,102 235,138 166,69 300,193 465,263 173,77 319,203 491,281 155,71 286,182 441,251 146,64 267,171 411,236 89,41 172,92 252,148 189,131 414,199 602,334 128,92 282,139 410,230 86,60 177,112 271,156 138,64 254,166 394,228 106,48 208,105 303,172 129,93 284,137 412,231 80,58 164,107 254,146 146,63 262,177 409,238 150,64 274,174 422,242 101,47 197,102 289,166 140,97 306,151 445,251 134,96 296,143 427,244 136,104 301,159 450,241 121,65 228,154 354,210 96,42 188,93 272,155 127,95 283,140 410,233 133,98 291,149 425,244 86,61 177,112 273,153 158,66 280,192 439,255 154,62 277,178 429,245 96,41 185,96 269,158 117,88 262,125 381,209 91,64 189,118 290,164 137,63 246,171 384,231 108,47 213,103 309,170 135,94 295,143 426,243 126,95 283,139 410,234 152,113 336,171 489,282 172,125 383,180 557,303 145,103 306,183 455,281 126,69 275,162 421,98 176,-74 323,-200 494,-282 308,-145 574,-364 882,-507 113,-54 210,-134 321,-190 313,-151 589,-370 905,-516 104,-54 196,-126 300,-180 132,-69 245,-171 384,-229 90,-38 177,-86 256,-145 121,-91 269,-138 394,-224 122,-85 261,-143 382,-229 118,-85 258,-132 378,-214 75,-52 151,-102 235,-139 312,-138 569,-375 886,-504 123,-58 229,-146 349,-211 106,-59 202,-133 301,-203 37,28 99,43 104,97 16,145 -1,291 20,436 27,189 11,380 11,570 -176,22 -326,120 -471,216 -839,508 -1685,1007 -2525,1513 -773,469 -1555,921 -2326,1392 -365,214 -725,436 -1091,648 -91,52 -169,123 -263,171 -50,28 -104,-8 -149,-27 -4797,-2695 -9598,-5381 -14396,-8072 -355,-198 -708,-402 -1068,-590 -56,-25 -69,-89 -85,-141 -5,-242 11,-485 -5,-727 -8,-6 -25,-18 -34,-24 -113,-70 -232,-131 -353,-189 -3,-165 -11,-331 3,-495 28,-19 54,-43 87,-50z"/>
   <path class="fil88" d="M27550 11710c36,-1 72,-3 108,-5 27,29 55,56 80,88 86,154 156,318 212,486 30,92 53,199 4,289 -64,118 -166,208 -257,304 -116,122 -271,195 -409,288 -137,93 -306,127 -436,231 -164,125 -350,221 -499,366 -153,114 -342,176 -473,320 -10,10 -30,29 -40,39 27,-67 37,-138 37,-210 0,-241 -4,-482 1,-723 3,-133 19,-270 -27,-397 86,-104 194,-189 320,-239 170,-68 305,-198 473,-271 115,-50 216,-124 323,-187 196,-107 373,-249 585,-327 -1,-17 -2,-35 -2,-52z"/>
  </g>
  <g id="__x0023_f0c9c3ff">
   <path class="fil89" d="M21949 8564c21,-22 43,-45 64,-68 -15,762 1,1526 -8,2289 -63,-338 -47,-684 -49,-1026 -3,-89 18,-186 -30,-267 -7,-4 -20,-12 -26,-17 87,-135 31,-306 42,-457 2,-151 3,-303 7,-454z"/>
  </g>
  <g id="__x0023_c08930c0">
  </g>
  <g id="__x0023_71472080">
  </g>
  <g id="__x0023_465e81ff">
   <path class="fil90" d="M20239 8893c99,-60 192,-137 307,-163 90,19 169,73 248,117 363,220 741,413 1106,628 6,5 19,13 26,17 21,178 18,358 14,537 -424,-237 -846,-476 -1266,-719 -51,-23 -108,-68 -165,-42 -74,29 -140,73 -208,114 -864,509 -1737,1005 -2603,1514 -641,365 -1275,742 -1914,1109 -114,62 -228,126 -327,211 2,-136 -9,-272 -31,-406 -2,-45 -2,-90 -6,-135 442,-234 864,-501 1302,-741 281,-176 572,-337 861,-499 349,-216 710,-411 1062,-622 534,-302 1057,-622 1594,-920z"/>
   <path class="fil90" d="M23883 10722c0,-41 32,-70 54,-100 187,132 396,227 593,343 250,137 494,283 743,422 151,97 325,156 462,274 -140,114 -309,182 -465,271 -162,-120 -344,-207 -518,-308 -186,-109 -375,-213 -561,-320 -102,-58 -203,-119 -313,-159 8,-141 -9,-282 5,-423z"/>
   <path class="fil90" d="M13997 12517c42,-21 87,-36 132,-50 24,162 9,327 19,490 -204,108 -397,234 -599,346 -196,119 -408,216 -588,362 -148,-81 -296,-162 -442,-248 61,-130 211,-165 325,-234 385,-221 765,-450 1153,-666z"/>
  </g>
  <g id="__x0023_fdc28bfe">
   <path class="fil91" d="M22268 8726l9 24 0 20c2,78 -10,158 7,235 35,48 82,84 130,119 -56,-31 -126,-48 -167,-100 -16,-66 -14,-135 -13,-203l8 -22c6,-18 19,-55 26,-73z"/>
  </g>
  <g id="__x0023_feb33dfe">
   <path class="fil92" d="M22277 8770c284,138 545,318 822,469 162,88 309,204 480,276 -7,83 -10,166 -18,249 -174,-47 -312,-167 -468,-252 -226,-129 -449,-265 -679,-388 -48,-35 -95,-71 -130,-119 -17,-77 -5,-157 -7,-235z"/>
  </g>
  <g id="__x0023_5c323761">
  </g>
  <g id="__x0023_f5dbdcff">
   <path class="fil93" d="M22284 9198c-129,-77 -97,-258 -50,-377 -1,68 -3,137 13,203 41,52 111,69 167,100 230,123 453,259 679,388 156,85 294,205 468,252 8,-83 11,-166 18,-249 8,-9 25,-26 33,-35 26,148 27,302 -5,449 -153,-9 -277,-128 -410,-196 -135,-82 -277,-151 -411,-235 -164,-105 -344,-184 -502,-300z"/>
   <path class="fil93" d="M11743 9743c43,-15 88,-6 132,-1 -34,38 -101,50 -132,1z"/>
   <path class="fil93" d="M23822 9880c58,234 5,476 34,713 -25,185 -27,372 -7,558 -7,131 45,299 -68,399 -72,48 -156,-4 -199,-66 12,-184 0,-369 11,-553 4,-54 8,-108 11,-162 13,181 9,362 5,542 4,73 -6,157 46,217 49,11 126,18 142,-44 39,-134 18,-277 21,-414 0,-396 -47,-795 4,-1190z"/>
  </g>
  <g id="__x0023_cabeb5ff">
   <path class="fil94" d="M12198 8983c-12,-39 -3,-82 27,-111 20,39 9,85 -27,111z"/>
  </g>
  <g id="__x0023_c19398c3">
  </g>
  <g id="__x0023_ffb394ff">
   <path class="fil95" d="M11717 9417c5,-95 19,-189 60,-276l-3 27c-7,85 -30,168 -57,249z"/>
  </g>
  <g id="__x0023_69371569">
  </g>
  <g id="__x0023_ff5176ff">
   <path class="fil96" d="M11774 9168l19 20c61,86 167,97 264,82 29,49 59,98 94,143 -40,41 -70,103 -132,115 -109,21 -214,-29 -314,-65 3,-11 9,-35 12,-46 27,-81 50,-164 57,-249z"/>
   <path class="fil96" d="M11129 9581c84,28 171,48 260,59 5,64 11,127 27,189 -70,5 -138,23 -203,50 -33,-32 -65,-63 -98,-95 6,-68 14,-135 14,-203z"/>
  </g>
  <g id="__x0023_00c7b7ff">
   <g>
    <path class="fil97" d="M20509 9268c57,-26 114,19 165,42 420,243 842,482 1266,719 4,253 -4,507 10,761 96,4 191,4 287,-1 27,-192 21,-386 35,-579 423,250 853,487 1278,732l1 27c8,171 -27,349 31,515 43,62 127,114 199,66 113,-100 61,-268 68,-399l29 -6c110,40 211,101 313,159 186,107 375,211 561,320 174,101 356,188 518,308 -150,93 -312,171 -447,285 190,127 397,226 597,336 35,20 71,41 107,63 104,63 210,124 324,170 46,127 30,264 27,397 -5,241 -1,482 -1,723 0,72 -10,143 -37,210 -62,126 -37,269 -42,404 4,301 -11,602 9,901 36,213 7,429 36,642 22,314 5,630 11,945 -4,415 7,831 -8,1246 -146,122 -103,325 -119,492 -3,153 -94,284 -122,431 -18,87 -32,175 -50,262 -101,4 -198,39 -278,101 -35,-102 -57,-210 -114,-302 -44,-73 -168,-48 -188,34 -53,163 -61,337 -117,500 -19,-284 4,-570 -14,-854 -15,1 -46,2 -62,3 -8,298 -1,597 -6,895 0,15 0,45 0,60 -34,-8 -68,-15 -101,-22 -4,-137 17,-281 -35,-411 -31,-72 -119,-158 -197,-96 -43,63 -51,145 -88,212 -37,-288 -12,-578 -19,-866 0,-508 0,-1017 0,-1525 0,-242 21,-484 6,-726 -9,10 -25,30 -34,40 -18,-108 -39,-218 -10,-326 65,-262 30,-535 25,-801 -1,-198 1,-396 -2,-593 -5,-191 20,-385 -24,-573 -30,-134 -6,-272 -23,-406 -8,-54 -65,-77 -108,-97 -103,-45 -206,-93 -305,-147 -32,-18 -63,-37 -93,-55 -175,-103 -351,-205 -532,-296 -71,-44 -143,11 -205,44 -428,252 -861,496 -1290,747 -427,262 -872,493 -1298,755 -779,453 -1558,906 -2338,1358 -142,75 -269,180 -421,235 -120,-34 -220,-115 -329,-172 -1008,-569 -2013,-1144 -3021,-1711 -291,-186 -606,-329 -898,-513 -158,-90 -319,-173 -475,-266 180,-146 392,-243 588,-362 202,-112 395,-238 599,-346 23,157 14,316 22,474 51,8 101,15 152,23 74,-197 20,-413 39,-619 292,-180 594,-344 887,-522 3,12 7,35 10,46 10,118 -5,237 12,354 13,58 80,70 125,96 132,-170 50,-396 62,-593 99,-85 213,-149 327,-211 639,-367 1273,-744 1914,-1109 866,-509 1739,-1005 2603,-1514 68,-41 134,-85 208,-114l0 0zm-16 1004c-107,14 -226,-20 -320,48 19,46 37,91 56,137 -148,55 -322,3 -455,106 16,52 32,105 48,158 -62,2 -123,4 -185,5 0,14 0,40 0,53 99,0 201,-12 281,-78 -17,-44 -33,-89 -42,-136 129,-65 293,5 421,-68 44,-42 -9,-92 -25,-133 24,-23 50,-49 87,-47 118,-6 237,-15 349,-57 -8,-32 -13,-67 -36,-93 -72,13 -102,105 -179,105l0 0zm2556 1051c-124,103 -304,35 -438,120 12,63 21,126 28,190 -145,12 -296,-21 -435,32 16,50 33,101 51,152 -63,16 -125,33 -188,51 85,29 206,54 267,-31 -8,-46 -28,-89 -45,-133 154,-45 329,4 465,-98 -18,-54 -34,-108 -49,-162 132,-11 272,14 398,-37 46,-19 19,-80 24,-116 -27,7 -56,13 -78,32l0 0zm-3543 509c7,59 15,118 24,176 -139,4 -281,3 -417,41 3,54 7,108 10,162 -47,23 -92,48 -133,80 80,-6 159,-21 237,-38 -9,-57 -23,-112 -41,-166 148,-20 314,12 442,-81 -11,-60 -19,-121 -23,-182 116,4 234,11 348,-13 38,-6 59,-40 85,-64 -18,-18 -36,-35 -54,-52 -132,118 -326,61 -478,137l0 0zm4052 460c-39,16 -118,23 -92,83 19,47 58,85 69,136 -54,119 -259,37 -294,166 139,2 268,-53 390,-113 -17,-71 -38,-140 -62,-208 132,-65 292,-64 407,-160 -149,-27 -278,66 -418,96l0 0zm965 275c15,40 43,71 83,86 153,70 302,148 455,216 99,43 195,102 307,103 -97,-106 -241,-142 -362,-209 -161,-65 -311,-163 -483,-196l0 0zm-6502 118c-4,14 -11,43 -15,58 123,15 246,29 369,47 225,36 437,128 642,226 7,-12 21,-34 28,-45 -299,-203 -670,-260 -1024,-286l0 0zm-1890 261c-96,30 -199,22 -295,50 -79,28 -5,113 4,166 -147,51 -326,-23 -448,98 14,36 27,73 42,109 -43,56 -112,64 -178,69 1,9 1,28 2,38 94,-14 187,-34 278,-59 -17,-58 -33,-117 -48,-176 150,-17 318,29 452,-59 -17,-46 -34,-91 -50,-137 131,-72 287,-39 428,-78 -2,-36 -4,-72 -6,-108 -60,28 -118,63 -181,87l0 0zm988 152c-164,69 -286,201 -403,330 -134,195 -170,462 -51,673 149,262 420,433 704,516 142,62 299,47 449,74 373,12 767,-52 1079,-269 151,-98 279,-239 339,-410 34,-141 20,-289 6,-432 -62,-157 -187,-277 -316,-382 -214,-155 -471,-245 -732,-275 -188,-4 -377,-8 -565,5 -177,33 -351,84 -510,170l0 0zm4621 -54c-127,17 -269,-17 -383,58 5,50 31,104 12,154 -100,55 -218,34 -325,53 -30,10 -77,10 -85,46 0,46 24,87 38,130 -69,16 -139,25 -209,32 9,18 18,36 27,55 89,-6 177,-19 263,-46 -7,-53 -14,-105 -21,-158 139,-49 289,-39 430,-82 -15,-53 -29,-107 -45,-160 124,-31 252,-16 377,-37 72,-23 51,-98 31,-150 -40,31 -76,66 -110,105l0 0zm2230 -99c-6,11 -19,35 -25,47 213,124 439,224 665,323 8,-12 23,-36 31,-48 -214,-127 -450,-211 -671,-322l0 0zm1471 492c-34,123 -18,251 -14,377 9,208 9,416 16,624 12,0 36,-1 48,-1 5,-267 -5,-533 3,-800 -3,-69 14,-155 -53,-200l0 0zm-9069 741c16,50 31,103 65,144 174,221 424,370 685,466 424,151 893,178 1331,75 0,-18 1,-54 2,-72 -113,27 -227,56 -344,59 -234,9 -473,12 -702,-48 -378,-90 -764,-272 -974,-615 -15,-2 -47,-7 -63,-9l0 0zm8376 51c-5,568 -4,1136 3,1704 17,0 52,0 70,0 12,-203 3,-407 5,-610 -4,-375 9,-750 -6,-1124 -24,10 -48,20 -72,30l0 0zm773 798c1,1151 -1,2301 3,3452 -12,49 36,65 69,87 19,-439 4,-879 9,-1318 -5,-778 8,-1558 -6,-2336 -56,13 -83,59 -75,115l0 0zm-8671 -78c23,88 119,104 192,130 257,83 526,104 793,124 10,-10 30,-31 40,-41 -166,-61 -346,-32 -516,-75 -173,-33 -336,-103 -509,-138l0 0zm8359 1796c2,373 1,746 0,1118 -8,45 31,68 64,87 16,-404 8,-810 5,-1214 -17,2 -52,7 -69,9z"/>
   </g>
  </g>
  <g id="__x0023_772b57ff">
   <path class="fil98" d="M12151 9413c164,116 347,203 522,301 74,29 57,117 67,181 -107,15 -217,24 -323,-2 -107,-25 -192,-100 -292,-139 -68,-29 -141,-32 -212,-41 -84,-11 -166,-34 -247,-61 10,-63 23,-127 39,-189 100,36 205,86 314,65 62,-12 92,-74 132,-115z"/>
   <path class="fil98" d="M11160 10102c-42,-101 -55,-210 -45,-318 33,32 65,63 98,95 65,-27 133,-45 203,-50 24,59 53,117 76,177 10,49 31,95 64,134 42,81 88,161 133,241 -1,60 -5,121 9,180 -28,17 -51,53 -87,49 -120,-11 -228,-80 -311,-164 -89,-94 -95,-230 -140,-344z"/>
  </g>
  <g id="__x0023_98b4b6ff">
   <path class="fil99" d="M21926 9492c48,81 27,178 30,267 2,342 -14,688 49,1026 77,0 154,1 232,4 -96,5 -191,5 -287,1 -14,-254 -6,-508 -10,-761 4,-179 7,-359 -14,-537z"/>
  </g>
  <g id="__x0023_fde873ff">
   <path class="fil100" d="M22258 9484c119,33 223,98 326,164 322,189 648,372 969,563 1,68 1,136 -1,203 -370,-208 -736,-423 -1107,-630 -68,-41 -136,-83 -205,-121 6,-60 11,-120 18,-179z"/>
  </g>
  <g id="__x0023_241336ff">
   <path class="fil101" d="M11743 9743c-26,-30 -53,-59 -77,-91 81,27 163,50 247,61 -10,7 -29,21 -38,29 -44,-5 -89,-14 -132,1z"/>
  </g>
  <g id="__x0023_96a0a7ff">
   <path class="fil102" d="M22224 10294c2,-210 -15,-422 16,-631 69,38 137,80 205,121 -56,-19 -112,-36 -168,-52 -6,159 0,319 -5,478 -14,193 -8,387 -35,579 -30,-164 -12,-330 -13,-495z"/>
  </g>
  <g id="__x0023_465d81ff">
   <path class="fil103" d="M22277 9732c56,16 112,33 168,52 371,207 737,422 1107,630 -5,176 -1,352 -2,528 -425,-245 -855,-482 -1278,-732 5,-159 -1,-319 5,-478z"/>
   <path class="fil103" d="M14332 12312c308,-148 580,-366 899,-491 20,164 1,329 17,492 -293,178 -595,342 -887,522 4,-175 -31,-348 -29,-523z"/>
  </g>
  <g id="__x0023_bf6423bf">
  </g>
  <g id="__x0023_e9bc9bff">
   <path class="fil104" d="M11492 10006c65,9 79,80 64,134 -33,-39 -54,-85 -64,-134z"/>
  </g>
  <g id="__x0023_5eded6ff">
   <path class="fil105" d="M20493 10272c77,0 107,-92 179,-105 23,26 28,61 36,93 -112,42 -231,51 -349,57 -37,-2 -63,24 -87,47 16,41 69,91 25,133 -128,73 -292,3 -421,68 9,47 25,92 42,136 -80,66 -182,78 -281,78 0,-13 0,-39 0,-53 62,-1 123,-3 185,-5 -16,-53 -32,-106 -48,-158 133,-103 307,-51 455,-106 -19,-46 -37,-91 -56,-137 94,-68 213,-34 320,-48z"/>
   <path class="fil105" d="M25209 16745c17,-2 52,-7 69,-9 3,404 11,810 -5,1214 -33,-19 -72,-42 -64,-87 1,-372 2,-745 0,-1118z"/>
  </g>
  <g id="__x0023_b7a9b3ff">
   <path class="fil106" d="M23553 10211c85,173 33,373 51,558 -3,54 -7,108 -11,162 -10,10 -32,28 -42,38l-1 -27c1,-176 -3,-352 2,-528 2,-67 2,-135 1,-203z"/>
  </g>
  <g id="__x0023_fec88cff">
   <path class="fil107" d="M11689 10381c37,50 67,133 9,180 -14,-59 -10,-120 -9,-180z"/>
  </g>
  <g id="__x0023_959eaaff">
   <path class="fil108" d="M23856 10593l3 -24 21 15c19,12 38,25 57,38 -22,30 -54,59 -54,100 -14,141 3,282 -5,423l-29 6c-20,-186 -18,-373 7,-558z"/>
  </g>
  <g id="__x0023_fefefcff">
   <path class="fil109" d="M14349 10918c120,-99 292,-93 432,-47 203,76 324,270 468,421 66,123 117,254 171,383 4,45 4,90 6,135 -26,332 24,668 -31,999 -45,-26 -112,-38 -125,-96 -17,-117 -2,-236 -12,-354 3,-209 13,-422 -37,-626 -35,-130 -92,-255 -168,-366 -87,-104 -178,-208 -286,-291 -101,-63 -260,-74 -339,29 -114,135 -98,323 -104,489 -53,8 -114,47 -161,4 -42,-89 -28,-193 -14,-287 32,-143 78,-299 200,-393z"/>
  </g>
  <g id="__x0023_65ded7ff">
   <path class="fil110" d="M23551 10969c10,-10 32,-28 42,-38 -11,184 1,369 -11,553 -58,-166 -23,-344 -31,-515z"/>
  </g>
  <g id="__x0023_5dddd6ff">
   <path class="fil111" d="M23049 11323c22,-19 51,-25 78,-32 -5,36 22,97 -24,116 -126,51 -266,26 -398,37 15,54 31,108 49,162 -136,102 -311,53 -465,98 17,44 37,87 45,133 -61,85 -182,60 -267,31 63,-18 125,-35 188,-51 -18,-51 -35,-102 -51,-152 139,-53 290,-20 435,-32 -7,-64 -16,-127 -28,-190 134,-85 314,-17 438,-120z"/>
   <path class="fil111" d="M16131 12946c63,-24 121,-59 181,-87 2,36 4,72 6,108 -141,39 -297,6 -428,78 16,46 33,91 50,137 -134,88 -302,42 -452,59 15,59 31,118 48,176 -91,25 -184,45 -278,59 -1,-10 -1,-29 -2,-38 66,-5 135,-13 178,-69 -15,-36 -28,-73 -42,-109 122,-121 301,-47 448,-98 -9,-53 -83,-138 -4,-166 96,-28 199,-20 295,-50z"/>
  </g>
  <g id="__x0023_ffec75ff">
   <path class="fil112" d="M15053 11367c76,111 133,236 168,366 50,204 40,417 37,626 -3,-11 -7,-34 -10,-46 -16,-163 3,-328 -17,-492 -319,125 -591,343 -899,491 -9,6 -27,18 -37,24 -51,-198 -165,-372 -281,-537 45,43 92,85 139,127 234,-128 461,-270 695,-400 77,-40 146,-94 205,-159z"/>
  </g>
  <g id="__x0023_fefdfcff">
   <path class="fil113" d="M13102 11790c63,-163 224,-309 410,-282 209,0 365,153 502,291 116,165 230,339 281,537 51,370 22,745 27,1118 -51,-8 -101,-15 -152,-23 -8,-158 1,-317 -22,-474 -10,-163 5,-328 -19,-490 -36,-162 -101,-319 -200,-454 -112,-134 -231,-296 -419,-314 -103,-15 -190,67 -230,154 -59,118 -39,254 -56,380 -33,47 -100,48 -149,68 -66,-164 -35,-350 27,-511z"/>
  </g>
  <g id="__x0023_5fded5ff">
   <path class="fil114" d="M19506 11832c152,-76 346,-19 478,-137 18,17 36,34 54,52 -26,24 -47,58 -85,64 -114,24 -232,17 -348,13 4,61 12,122 23,182 -128,93 -294,61 -442,81 18,54 32,109 41,166 -78,17 -157,32 -237,38 41,-32 86,-57 133,-80 -3,-54 -7,-108 -10,-162 136,-38 278,-37 417,-41 -9,-58 -17,-117 -24,-176z"/>
  </g>
  <g id="__x0023_964e1c96">
  </g>
  <g id="__x0023_b5e4e3ff">
   <path class="fil115" d="M15426 11810c22,134 33,270 31,406 -12,197 70,423 -62,593 55,-331 5,-667 31,-999z"/>
  </g>
  <g id="__x0023_ff8b31ff">
   <path class="fil116" d="M25951 12224c248,-139 488,-292 741,-420 12,8 36,24 48,31 0,13 0,39 0,52 -395,258 -825,461 -1213,729 -36,-22 -72,-43 -107,-63 163,-131 354,-220 531,-329z"/>
   <path class="fil116" d="M22922 13982c281,-168 571,-321 846,-498 30,18 61,37 93,55 -127,106 -272,186 -414,269 -391,224 -780,451 -1171,676 -1481,865 -2967,1721 -4449,2584 -57,28 -123,67 -187,38 -100,-36 -189,-97 -282,-148 -1760,-1004 -3522,-2006 -5284,-3007 -197,-115 -403,-215 -589,-348 1,-14 2,-43 3,-57 14,-6 42,-16 56,-22 1978,1122 3957,2244 5932,3373 91,47 199,145 303,73 729,-433 1467,-849 2198,-1279 218,-132 450,-239 662,-380 758,-449 1522,-886 2283,-1329z"/>
  </g>
  <g id="__x0023_42dbceff">
   <path class="fil117" d="M23558 12292c140,-30 269,-123 418,-96 -115,96 -275,95 -407,160 24,68 45,137 62,208 -122,60 -251,115 -390,113 35,-129 240,-47 294,-166 -11,-51 -50,-89 -69,-136 -26,-60 53,-67 92,-83z"/>
  </g>
  <g id="__x0023_99d0d1ff">
   <path class="fil118" d="M14295 12336c10,-6 28,-18 37,-24 -2,175 33,348 29,523 -19,206 35,422 -39,619 -5,-373 24,-748 -27,-1118z"/>
  </g>
  <g id="__x0023_331a0a36">
   <path class="fil119" d="M28008 12430c22,24 59,46 54,86 0,48 -52,74 -81,105 14,-63 22,-127 27,-191z"/>
  </g>
  <g id="__x0023_39dacdff">
   <path class="fil120" d="M24523 12567c172,33 322,131 483,196 121,67 265,103 362,209 -112,-1 -208,-60 -307,-103 -153,-68 -302,-146 -455,-216 -40,-15 -68,-46 -83,-86z"/>
  </g>
  <g id="__x0023_58ddd3ff">
   <path class="fil121" d="M18021 12685c354,26 725,83 1024,286 -7,11 -21,33 -28,45 -205,-98 -417,-190 -642,-226 -123,-18 -246,-32 -369,-47 4,-15 11,-44 15,-58z"/>
  </g>
  <g id="__x0023_5dded6ff">
   <path class="fil122" d="M21740 13044c34,-39 70,-74 110,-105 20,52 41,127 -31,150 -125,21 -253,6 -377,37 16,53 30,107 45,160 -141,43 -291,33 -430,82 7,53 14,105 21,158 -86,27 -174,40 -263,46 -9,-19 -18,-37 -27,-55 70,-7 140,-16 209,-32 -14,-43 -38,-84 -38,-130 8,-36 55,-36 85,-46 107,-19 225,2 325,-53 19,-50 -7,-104 -12,-154 114,-75 256,-41 383,-58z"/>
  </g>
  <g id="__x0023_3adacdff">
   <path class="fil123" d="M23970 12945c221,111 457,195 671,322 -8,12 -23,36 -31,48 -226,-99 -452,-199 -665,-323 6,-12 19,-36 25,-47z"/>
  </g>
  <g id="__x0023_ff245dff">
   <path class="fil124" d="M17407 13415c298,-147 656,-141 967,-40 135,42 281,146 268,304 -51,2 -102,13 -151,1 -101,-53 -213,-79 -324,-97 -262,-31 -532,-20 -780,75 -44,9 -89,5 -134,6 -1,-106 56,-205 154,-249z"/>
  </g>
  <g id="__x0023_ff255eff">
   <path class="fil125" d="M16665 14101c-119,-211 -83,-478 51,-673 25,3 50,6 76,9 -33,107 -84,222 -48,335 56,184 210,317 374,405 390,200 851,228 1276,141 247,-63 505,-166 667,-373 93,-117 90,-272 100,-413 27,16 54,32 81,48 14,143 28,291 -6,432 -60,171 -188,312 -339,410 -312,217 -706,281 -1079,269 -150,-27 -307,-12 -449,-74 -284,-83 -555,-254 -704,-516z"/>
  </g>
  <g id="__x0023_46dbcfff">
   <path class="fil126" d="M25441 13437c67,45 50,131 53,200 -8,267 2,533 -3,800 -12,0 -36,1 -48,1 -7,-208 -7,-416 -16,-624 -4,-126 -20,-254 14,-377z"/>
  </g>
  <g id="__x0023_00c9b9ff">
   <path class="fil127" d="M17387 13658c248,-95 518,-106 780,-75 111,18 223,44 324,97 29,28 66,79 12,105 -194,131 -436,110 -658,109 -184,4 -375,-48 -523,-157 -2,-40 40,-57 65,-79z"/>
  </g>
  <g id="__x0023_a59b67f1">
   <path class="fil128" d="M24136 13703c8,-4 23,-13 30,-17 43,20 100,43 108,97 17,134 -7,272 23,406 44,188 19,382 24,573 3,197 1,395 2,593 -23,-152 -24,-305 -45,-457 -3,-31 -5,-61 -7,-92 0,-190 16,-381 -11,-570 -21,-145 -4,-291 -20,-436 -5,-54 -67,-69 -104,-97z"/>
  </g>
  <g id="__x0023_005b5783">
   <path class="fil129" d="M25840 14116c10,-10 30,-29 40,-39 -4,679 8,1357 3,2035 -10,-12 -30,-37 -40,-49 -29,-213 0,-429 -36,-642 -20,-299 -5,-600 -9,-901 5,-135 -20,-278 42,-404z"/>
  </g>
  <g id="__x0023_59ddd4ff">
   <path class="fil130" d="M16372 14178c16,2 48,7 63,9 210,343 596,525 974,615 229,60 468,57 702,48 117,-3 231,-32 344,-59 -1,18 -2,54 -2,72 -438,103 -907,76 -1331,-75 -261,-96 -511,-245 -685,-466 -34,-41 -49,-94 -65,-144z"/>
  </g>
  <g id="__x0023_5eded4ff">
   <path class="fil131" d="M24748 14229c24,-10 48,-20 72,-30 15,374 2,749 6,1124 -2,203 7,407 -5,610 -18,0 -53,0 -70,0 -7,-568 -8,-1136 -3,-1704z"/>
  </g>
  <g id="__x0023_5cded4ff">
   <path class="fil132" d="M25521 15027c-8,-56 19,-102 75,-115 14,778 1,1558 6,2336 -5,439 10,879 -9,1318 -33,-22 -81,-38 -69,-87 -4,-1151 -2,-2301 -3,-3452z"/>
  </g>
  <g id="__x0023_5addd4ff">
   <path class="fil133" d="M16850 14949c173,35 336,105 509,138 170,43 350,14 516,75 -10,10 -30,31 -40,41 -267,-20 -536,-41 -793,-124 -73,-26 -169,-42 -192,-130z"/>
  </g>
  <g id="__x0023_0066639f">
   <path class="fil134" d="M25843 16063c10,12 30,37 40,49 23,45 18,97 21,146 -4,616 3,1231 -4,1847 -27,254 -6,510 -25,765 -2,13 -5,40 -7,53l-5 -25c-9,-44 -19,-86 -27,-130 -2,-80 -5,-161 -3,-242 7,-90 11,-181 13,-272 15,-415 4,-831 8,-1246 -6,-315 11,-631 -11,-945z"/>
  </g>
  <g id="__x0023_003d3950">
  </g>
  <g id="__x0023_00a89cd9">
   <path class="fil135" d="M24308 16482c9,-10 25,-30 34,-40 15,242 -6,484 -6,726 0,508 0,1017 0,1525 7,288 -18,578 19,866 37,-67 45,-149 88,-212 78,-62 166,24 197,96 52,130 31,274 35,411 33,7 67,14 101,22 0,14 0,43 0,58 -39,24 -80,45 -120,66 -75,-158 -32,-336 -49,-503 -2,-55 -47,-92 -76,-134 -135,61 -115,226 -143,348 -29,-28 -58,-57 -86,-84 7,-856 0,-1711 3,-2566 7,-193 33,-386 3,-579z"/>
  </g>
  <g id="__x0023_00b0a2e2">
  </g>
  <g id="__x0023_009488be">
  </g>
  <g id="__x0023_00635b7f">
  </g>
  <g id="__x0023_001a1923">
  </g>
  <g id="__x0023_5bded4ff">
   <path class="fil136" d="M24782 18921c16,-1 47,-2 62,-3 18,284 -5,570 14,854 0,13 0,40 1,53 -21,-2 -62,-7 -83,-9 5,-298 -2,-597 6,-895z"/>
  </g>
  <g id="__x0023_00867bad">
  </g>
  <g id="__x0023_40afa6cb">
  </g>
  <g id="__x0023_4b254cff_0">
   <path class="fil14" d="M12418 2934c-38,-71 -106,-10 -160,4 -1,14 -4,42 -5,56 56,-17 111,-37 165,-60z"/>
  </g>
  <path class="fil137" d="M12334 3086c-42,-48 15,-116 52,-54 3,61 -27,68 -52,54z"/>
  <path class="fil138" d="M11636 3346c-26,62 -19,294 -7,362 1,2 46,79 56,90 80,94 303,34 291,-114 -2,-35 -125,-63 -169,-86 -102,-52 -93,-26 -137,-137 -8,-18 -28,-130 -34,-115z"/>
 </g>
</svg>
