<?xml version="1.0" encoding="UTF-8"?>
<!DOCTYPE svg PUBLIC "-//W3C//DTD SVG 1.1//EN" "http://www.w3.org/Graphics/SVG/1.1/DTD/svg11.dtd">
<!-- Creator: CorelDRAW X8 -->
<svg xmlns="http://www.w3.org/2000/svg" xml:space="preserve" width="297mm" height="210mm" version="1.1" style="shape-rendering:geometricPrecision; text-rendering:geometricPrecision; image-rendering:optimizeQuality; fill-rule:evenodd; clip-rule:evenodd"
viewBox="0 0 29700 21000"
 xmlns:xlink="http://www.w3.org/1999/xlink">
 <defs>
  <style type="text/css">
   <![CDATA[
    .fil87 {fill:#00387B}
    .fil91 {fill:#003F82}
    .fil69 {fill:#004386}
    .fil94 {fill:#00498D}
    .fil48 {fill:#004E93}
    .fil76 {fill:#0056D6}
    .fil72 {fill:#00579F}
    .fil53 {fill:#005AA1}
    .fil65 {fill:#005BA2}
    .fil37 {fill:#0061A7}
    .fil56 {fill:#0066B0}
    .fil88 {fill:#0067B1}
    .fil34 {fill:#006BB4}
    .fil36 {fill:#0074BD}
    .fil84 {fill:#0075BF}
    .fil85 {fill:#0075D5}
    .fil129 {fill:#0078D8}
    .fil73 {fill:#0078F1}
    .fil30 {fill:#007CC6}
    .fil77 {fill:#007ECB}
    .fil46 {fill:#007EDC}
    .fil60 {fill:#0082E0}
    .fil61 {fill:#0087E4}
    .fil71 {fill:#0088D8}
    .fil20 {fill:#008ADD}
    .fil103 {fill:#008AE7}
    .fil70 {fill:#008BE7}
    .fil28 {fill:#008CD9}
    .fil128 {fill:#008DE9}
    .fil57 {fill:#0090EB}
    .fil50 {fill:#0092EC}
    .fil41 {fill:#0094ED}
    .fil83 {fill:#0096F1}
    .fil58 {fill:#0096FF}
    .fil27 {fill:#0097E4}
    .fil55 {fill:#0098E5}
    .fil40 {fill:#0099F1}
    .fil116 {fill:#009AF1}
    .fil63 {fill:#009BF2}
    .fil127 {fill:#009CF4}
    .fil38 {fill:#009DF4}
    .fil26 {fill:#009EF7}
    .fil25 {fill:#009FED}
    .fil39 {fill:#009FEE}
    .fil119 {fill:#00A6F8}
    .fil43 {fill:#00A8FE}
    .fil31 {fill:#00A9FD}
    .fil21 {fill:#00AEFD}
    .fil24 {fill:#00AFFF}
    .fil104 {fill:#00BBFF}
    .fil118 {fill:#00BFFF}
    .fil33 {fill:#00C6FF}
    .fil110 {fill:#00C9FF}
    .fil123 {fill:#00D2FF}
    .fil100 {fill:#29CCF4}
    .fil108 {fill:#2ED1FF}
    .fil15 {fill:#38AADC}
    .fil138 {fill:#43C8FB}
    .fil106 {fill:#46D3FF}
    .fil102 {fill:#4CD6F8}
    .fil137 {fill:#5BD4FF}
    .fil99 {fill:#5ED2F5}
    .fil17 {fill:#66D9FF}
    .fil68 {fill:#68E2FC}
    .fil105 {fill:#6BE3FC}
    .fil92 {fill:#6FD4F5}
    .fil134 {fill:#70DAFF}
    .fil101 {fill:#7CDFF9}
    .fil52 {fill:#7CEDFF}
    .fil112 {fill:#80EDFF}
    .fil96 {fill:#85DCF7}
    .fil80 {fill:#88E3F8}
    .fil19 {fill:#8C09C2}
    .fil78 {fill:#8FEFFF}
    .fil5 {fill:#944F00}
    .fil90 {fill:#9CF0FF}
    .fil93 {fill:#9EF0FF}
    .fil14 {fill:#9FC4DB}
    .fil13 {fill:#A01ACC}
    .fil98 {fill:#A2F1FF}
    .fil97 {fill:#A5EDFD}
    .fil51 {fill:#ACF2FF}
    .fil75 {fill:#ADF2FF}
    .fil23 {fill:#AEC5DF}
    .fil82 {fill:#B6F4FF}
    .fil9 {fill:#B92DD7}
    .fil107 {fill:#B9F4FF}
    .fil11 {fill:#BC30D9}
    .fil12 {fill:#BC31D9}
    .fil64 {fill:#C9EBF6}
    .fil54 {fill:#C9ECF7}
    .fil89 {fill:#C9F6FF}
    .fil3 {fill:#D242E3}
    .fil8 {fill:#D544E4}
    .fil45 {fill:#D6F9FF}
    .fil95 {fill:#D9F9FF}
    .fil42 {fill:#E0FAFF}
    .fil18 {fill:#E4FBFF}
    .fil49 {fill:#E6EFF7}
    .fil59 {fill:#E6F1F9}
    .fil2 {fill:#E954EE}
    .fil7 {fill:#EC56F0}
    .fil6 {fill:#F05AF1}
    .fil22 {fill:#FF4A21}
    .fil10 {fill:#FF4B1E}
    .fil29 {fill:#FF6521}
    .fil16 {fill:#FF661E}
    .fil1 {fill:#FF66F8}
    .fil32 {fill:#FF6A00}
    .fil0 {fill:#FF76FF}
    .fil35 {fill:#FFA700}
    .fil66 {fill:#FFD2AA}
    .fil4 {fill:white}
    .fil74 {fill:#27383F;fill-opacity:0.250980}
    .fil122 {fill:#3B474C;fill-opacity:0.301961}
    .fil81 {fill:#324651;fill-opacity:0.321569}
    .fil111 {fill:#51636D;fill-opacity:0.431373}
    .fil125 {fill:#49707C;fill-opacity:0.490196}
    .fil114 {fill:#527480;fill-opacity:0.501961}
    .fil124 {fill:#4E7683;fill-opacity:0.509804}
    .fil115 {fill:#507583;fill-opacity:0.509804}
    .fil47 {fill:#E0FAFF;fill-opacity:0.529412}
    .fil62 {fill:#38728D;fill-opacity:0.549020}
    .fil109 {fill:#51798A;fill-opacity:0.549020}
    .fil139 {fill:#67848F;fill-opacity:0.560784}
    .fil131 {fill:#4F939F;fill-opacity:0.619608}
    .fil44 {fill:#E0FAFF;fill-opacity:0.631373}
    .fil79 {fill:#5298A3;fill-opacity:0.639216}
    .fil135 {fill:#72A0B0;fill-opacity:0.690196}
    .fil140 {fill:#5AA7B3;fill-opacity:0.709804}
    .fil136 {fill:#77ACBD;fill-opacity:0.741176}
    .fil120 {fill:#4CA1C0;fill-opacity:0.749020}
    .fil133 {fill:#73AFBE;fill-opacity:0.749020}
    .fil132 {fill:#75B4C5;fill-opacity:0.768627}
    .fil113 {fill:#007BC7;fill-opacity:0.780392}
    .fil86 {fill:#0160A7;fill-opacity:0.780392}
    .fil121 {fill:#0182C1;fill-opacity:0.788235}
    .fil142 {fill:#67CAE4;fill-opacity:0.890196}
    .fil117 {fill:#71D2E2;fill-opacity:0.890196}
    .fil126 {fill:#71D2E3;fill-opacity:0.890196}
    .fil130 {fill:#73D6E7;fill-opacity:0.909804}
    .fil67 {fill:#BAA07C;fill-opacity:0.941176}
    .fil141 {fill:#7BD3F2;fill-opacity:0.949020}
    .fil143 {fill:#00C9F5;fill-opacity:0.960784}
   ]]>
  </style>
 </defs>
 <g id="Слой_x0020_1">
  <metadata id="CorelCorpID_0Corel-Layer"/>
  <g id="_23ff76ffff">
   <path class="fil0" d="M11932 1122c5,-83 128,-107 192,-61 243,125 484,256 727,383 -8,24 -16,47 -24,69 -195,138 -419,245 -580,420 -92,90 -217,139 -319,217 6,-342 0,-686 4,-1028z"/>
  </g>
  <g id="_23ff66f8ff">
   <path class="fil1" d="M12827 1513c8,-22 16,-45 24,-69 211,112 421,224 632,334 -250,271 -609,431 -875,687 -26,-6 -78,-19 -104,-25 -72,-52 -149,-96 -231,-134 -1,58 -1,118 -1,177 -140,49 -260,134 -352,243 7,-192 -8,-384 8,-576 102,-78 227,-127 319,-217 161,-175 385,-282 580,-420z"/>
  </g>
  <g id="_23e954eeff">
   <path class="fil2" d="M13483 1778c191,100 380,203 570,303 -158,200 -411,303 -588,487 -112,61 -228,119 -299,224l-39 3c0,-118 -1,-235 -4,-354 -68,-28 -136,-58 -202,-87 1,120 1,239 0,358 -30,-5 -91,-18 -120,-24 -40,-89 -101,-172 -193,-223 266,-256 625,-416 875,-687z"/>
  </g>
  <g id="_23d242e3ff">
   <path class="fil3" d="M14053 2081c142,84 311,137 429,250 -2,171 -3,342 -3,512 -136,81 -271,161 -400,249 -49,27 -47,85 -61,130 -64,-40 -135,-68 -207,-96 -73,-45 -147,-91 -223,-133 -2,63 -5,126 -6,189 -42,28 -83,56 -125,83 -7,-124 23,-267 -71,-370 -52,-64 -140,-85 -220,-103 71,-105 187,-163 299,-224 177,-184 430,-287 588,-487z"/>
  </g>
  <g id="_23ffffffff">
   <g>
    <path class="fil4" d="M12273 2306c82,38 159,82 231,134 26,6 78,19 104,25 92,51 153,134 193,223 24,149 63,324 -40,456 -92,71 -193,-25 -279,-58 -1,87 -2,174 -5,261 -73,-39 -144,-81 -213,-124 21,-246 6,-493 8,-740 0,-59 0,-119 1,-177l0 0zm207 311c-1,93 -8,185 5,278 30,36 70,48 119,33 8,-107 49,-305 -124,-311z"/>
   </g>
   <path class="fil4" d="M12921 2354c66,29 134,59 202,87 3,119 4,236 4,354l39 -3c80,18 168,39 220,103 94,103 64,246 71,370 0,109 -1,216 -1,324 -69,-35 -136,-71 -204,-106 4,-157 1,-313 0,-469 -41,-16 -81,-33 -121,-50 -4,150 -4,301 -6,453 -65,-36 -133,-68 -193,-111 -28,-196 -3,-397 -11,-594 1,-119 1,-238 0,-358z"/>
   <g>
    <path class="fil4" d="M13588 2993c76,42 150,88 223,133 72,28 143,56 207,96 125,175 150,399 73,595 -15,14 -45,45 -58,60 -90,-27 -173,-66 -250,-115 1,91 2,182 2,272 -67,-34 -134,-68 -200,-102 1,-250 -5,-500 -3,-750 1,-63 4,-126 6,-189l0 0zm201 304c-6,101 -5,202 2,302 38,15 77,29 116,42 5,-117 59,-314 -118,-344z"/>
   </g>
   <path class="fil4" d="M19819 4054c322,189 657,357 987,535 347,184 722,328 1048,545 13,157 -30,313 -51,467 -322,-178 -653,-339 -984,-501 -196,-102 -391,-205 -586,-307 1,164 15,328 41,491 161,79 320,159 480,237 335,165 670,333 987,525 -11,386 -103,764 -135,1148 -272,-60 -536,-144 -807,-207 -113,-63 -194,-164 -289,-246 -165,-160 -346,-306 -499,-474 -27,-142 -29,-287 -58,-429 117,67 249,113 364,184 35,68 28,158 97,208 117,97 235,191 354,285 138,56 288,82 433,115 22,-136 63,-274 45,-413 -127,-89 -277,-147 -415,-223 -274,-147 -565,-266 -841,-409 -94,-35 -74,-131 -81,-205 -36,-441 -83,-883 -90,-1326z"/>
   <g>
    <path class="fil4" d="M14662 5256c34,-23 68,-46 102,-68 308,171 625,332 936,499 181,96 362,192 545,288 190,100 378,200 568,300 256,135 510,271 766,404 120,62 239,155 256,288 27,182 7,365 14,546 -1,267 -1,535 -1,801l0 26c-311,37 -612,115 -917,177 -263,-136 -524,-279 -788,-414 -7,-354 -4,-706 -3,-1060 -178,-85 -403,-146 -591,-46 -229,118 -298,381 -305,605 0,416 171,822 433,1157 -83,20 -168,35 -253,45 -252,-126 -495,-264 -747,-390 -1,111 -3,222 0,332 99,55 198,109 299,162 -142,37 -288,70 -434,89l-10 -5c-84,-69 -143,-165 -150,-270 1,-1115 -3,-2231 5,-3345 32,-34 64,-68 94,-104 9,-10 27,-31 36,-42 49,8 97,16 145,25l0 0zm14 334c-2,193 1,386 -2,578 355,188 706,383 1067,560 7,-191 13,-384 0,-574 -350,-194 -707,-381 -1065,-564l0 0zm1586 1443c-2,300 1,599 -2,899 257,138 512,281 777,406 -27,-506 -290,-1037 -775,-1305z"/>
   </g>
   <path class="fil4" d="M18177 7045c195,92 380,198 572,298 215,111 430,227 645,340 144,76 288,154 432,228 -239,73 -490,105 -732,173l-6 -2c-276,-145 -550,-292 -827,-435 -33,-24 -90,-36 -82,-83 -9,-114 -1,-227 -2,-340 0,-59 0,-119 0,-179z"/>
   <path class="fil4" d="M22108 7745c97,-90 229,-167 375,-132 284,56 474,278 630,486 -37,21 -73,44 -108,68 -5,126 60,243 97,363 70,214 -42,423 -84,631 -53,-168 -88,-340 -131,-512 -39,-155 -73,-310 -114,-465 31,0 94,0 125,-1 -137,-108 -298,-189 -465,-253 37,46 76,90 116,135 35,129 83,258 91,392 -21,155 -87,300 -140,446 -61,-312 -147,-620 -217,-931 -4,-16 -11,-49 -16,-66 29,7 85,20 113,26 -50,-103 -177,-132 -272,-187z"/>
   <path class="fil4" d="M22106 8634c-98,-248 -146,-525 -51,-781 13,40 24,79 36,119 85,359 200,712 263,1075 -102,-128 -183,-267 -248,-413z"/>
   <path class="fil4" d="M23277 8490c37,103 57,210 66,317 8,226 -58,504 -323,583 82,-292 217,-573 254,-874l3 -26z"/>
   <path class="fil5" d="M12357 8682c20,-59 76,-111 147,-112 -22,61 -70,126 -146,132l-1 -20z"/>
   <path class="fil4" d="M22492 9182c66,-195 116,-397 205,-585 49,269 136,530 193,797 -133,-28 -251,-91 -361,-163 -10,-12 -28,-38 -37,-49z"/>
   <path class="fil4" d="M18528 9665c88,42 176,85 264,128 178,87 353,178 532,265 51,25 101,50 151,74 8,199 -10,397 15,595 -109,75 -216,152 -325,228 -184,-90 -365,-182 -545,-277 -6,-112 -18,-240 -123,-315 9,-13 24,-42 32,-55 -3,-215 -5,-429 -1,-643z"/>
   <path class="fil4" d="M19287 11022c65,-61 132,-118 200,-175 -1,28 -4,82 -5,110 -1,53 -1,107 0,161 -65,-32 -129,-65 -195,-96z"/>
   <path class="fil4" d="M12710 18734c2,1 7,3 9,4 -2,-1 -7,-3 -9,-4z"/>
  </g>
  <g id="_2339354043">
  </g>
  <g id="_23f05af1ff">
   <path class="fil6" d="M11920 2726c92,-109 212,-194 352,-243 -2,247 13,494 -8,740 -109,86 -217,174 -341,241 -6,-246 2,-492 -3,-738z"/>
  </g>
  <g id="_23ec56f0ff">
   <path class="fil7" d="M12480 2617c173,6 132,204 124,311 -49,15 -89,3 -119,-33 -13,-93 -6,-185 -5,-278z"/>
  </g>
  <g id="_23d544e4ff">
   <path class="fil8" d="M12801 2688c29,6 90,19 120,24 8,197 -17,398 11,594 60,43 128,75 193,111 2,-152 2,-303 6,-453 40,17 80,34 121,50 1,156 4,312 0,469 -165,107 -320,228 -472,348 -121,100 -276,161 -389,272 -58,59 -142,89 -220,119 -79,-47 -173,-80 -234,-147 -33,-202 -7,-407 -14,-611 124,-67 232,-155 341,-241 69,43 140,85 213,124 3,-87 4,-174 5,-261 86,33 187,129 279,58 103,-132 64,-307 40,-456z"/>
  </g>
  <g id="_23b92dd7ff">
   <path class="fil9" d="M14079 3092c129,-88 264,-168 400,-249 2,265 0,528 2,793 -28,3 -84,11 -111,15 -76,76 -176,127 -279,166 77,-196 52,-420 -73,-595 14,-45 12,-103 61,-130z"/>
  </g>
  <g id="_23ff4b1eff">
   <g>
    <path class="fil10" d="M19310 3053c81,53 168,99 259,133 190,131 406,223 607,339 760,420 1548,798 2303,1225 29,183 -24,370 -20,555 -69,229 -22,468 -52,701 -61,210 -11,430 -38,643 -16,18 13,71 -2,89 -16,239 -11,394 -36,652l-49 69c-40,8 -80,17 -119,29 -227,78 -472,72 -706,116 -140,40 -385,70 -385,70 -97,-23 -196,-44 -296,-63 -41,-31 -80,-61 -120,-94 -111,-150 -234,-294 -363,-431 -31,-33 -59,-65 -88,-98 -182,-301 -496,-511 -732,-775 -37,-137 -1,-287 -29,-427 -43,-196 -16,-395 -33,-593 -54,-256 -16,-518 -39,-777 -50,-269 -9,-542 -36,-810 -36,-183 -18,-369 -26,-553l0 0zm509 1001c7,443 54,885 90,1326 7,74 -13,170 81,205 276,143 567,262 841,409 -96,158 -27,348 -63,521 -119,-94 -237,-188 -354,-285 -69,-50 -62,-140 -97,-208 -115,-71 -247,-117 -364,-184 29,142 31,287 58,429 153,168 334,314 499,474 95,82 176,183 289,246 -16,98 -62,196 -35,296 123,50 266,11 395,44 126,32 256,45 385,66 132,37 264,76 400,96 63,-491 108,-985 140,-1479 33,-282 70,-563 88,-848 6,-89 62,-218 -53,-270 -428,-222 -853,-448 -1290,-655 -12,116 -18,234 -23,352 -330,-178 -665,-346 -987,-535z"/>
   </g>
  </g>
  <g id="_23bc30d9ff">
   <path class="fil11" d="M13457 3265c42,-27 83,-55 125,-83 -2,250 4,500 3,750 66,34 133,68 200,102 0,-90 -1,-181 -2,-272 77,49 160,88 250,115 -120,165 -329,232 -483,361 -155,170 -406,235 -541,425 -279,-148 -558,-295 -838,-441 78,-30 162,-60 220,-119 113,-111 268,-172 389,-272 152,-120 307,-241 472,-348 68,35 135,71 204,106 0,-108 1,-215 1,-324z"/>
  </g>
  <g id="_23bc31d9ff">
   <path class="fil12" d="M13789 3297c177,30 123,227 118,344 -39,-13 -78,-27 -116,-42 -7,-100 -8,-201 -2,-302z"/>
  </g>
  <g id="_23a01accff">
   <path class="fil13" d="M14370 3651c27,-4 83,-12 111,-15 0,27 1,82 1,109 -7,233 14,467 6,701 -244,124 -424,325 -668,448 -61,26 -69,95 -96,145l-16 -8c-55,-30 -111,-58 -167,-84 -182,-88 -353,-193 -532,-284 135,-190 386,-255 541,-425 154,-129 363,-196 483,-361 13,-15 43,-46 58,-60 103,-39 203,-90 279,-166z"/>
  </g>
  <g id="_239fc4dbff">
   <path class="fil14" d="M14482 3745c2,96 6,192 9,289 6,75 -2,153 26,225 76,55 166,90 251,129l0 7c-11,118 -21,236 -24,354 -83,-46 -169,-86 -256,-124 0,-60 -1,-119 0,-179 8,-234 -13,-468 -6,-701z"/>
  </g>
  <g id="_2338aadcff">
   <path class="fil15" d="M14491 4034c147,76 295,149 439,229 -54,42 -108,83 -162,125 -85,-39 -175,-74 -251,-129 -28,-72 -20,-150 -26,-225z"/>
  </g>
  <g id="_23ff661eff">
   <path class="fil16" d="M20829 4237c437,207 862,433 1290,655 115,52 59,181 53,270 -18,285 -55,566 -88,848 -32,494 -77,988 -140,1479 -136,-20 -268,-59 -400,-96 -129,-21 -259,-34 -385,-66 -129,-33 -272,6 -395,-44 -27,-100 19,-198 35,-296 271,63 535,147 807,207 32,-384 124,-762 135,-1148 -317,-192 -652,-360 -987,-525 33,-139 33,-282 65,-421 331,162 662,323 984,501 21,-154 64,-310 51,-467 -326,-217 -701,-361 -1048,-545 5,-118 11,-236 23,-352z"/>
  </g>
  <g id="_2366d9ffff">
   <path class="fil17" d="M14930 4263c147,82 296,159 449,230 56,27 109,59 164,90 1159,604 2310,1223 3466,1829 92,54 187,100 284,143 150,83 305,161 454,246 37,16 72,33 110,51 29,11 87,35 117,47l-48 27c-60,29 -102,77 -146,122 -1671,-883 -3343,-1765 -5012,-2653l0 -7c54,-42 108,-83 162,-125z"/>
   <path class="fil17" d="M8395 12247c564,326 1153,614 1728,924 163,83 326,169 454,295 218,146 469,244 696,379 -65,66 -167,149 -126,247 77,59 161,110 234,174 -917,-465 -1817,-958 -2729,-1432 -93,-52 -209,-95 -255,-192 -8,-132 -6,-263 -2,-395z"/>
  </g>
  <g id="_23e4fbffff">
   <path class="fil18" d="M14744 4749c3,-118 13,-236 24,-354 1669,888 3341,1770 5012,2653 295,152 581,317 876,469 40,33 79,63 120,94 54,74 90,161 86,251 1,1671 -4,3341 2,5012 -1,50 2,99 6,148 3,19 6,56 8,75l-22 -10c-726,-360 -1433,-755 -2156,-1119 -14,-124 28,-246 14,-370 588,310 1174,625 1764,932 0,-903 0,-1806 1,-2709 0,-323 -1,-645 -1,-969 0,-356 5,-713 -2,-1069 -251,-127 -497,-260 -746,-392 -247,-131 -494,-261 -742,-391 -394,-211 -792,-419 -1187,-630 -235,-125 -471,-248 -705,-374 -189,-100 -378,-199 -566,-300 -164,-86 -328,-173 -492,-260 -426,-227 -855,-449 -1279,-679l-15 -8z"/>
   <path class="fil18" d="M13708 5031l16 8c94,50 189,102 286,152 -3,856 -3,1713 0,2569 0,271 -1,541 0,812 7,179 -19,362 11,541 86,58 182,102 275,152 189,98 376,198 564,297 218,113 433,230 651,343 195,103 390,207 585,309 293,155 585,311 879,465 354,187 708,373 1061,563 -24,103 -47,208 -52,314 -228,-62 -413,-207 -624,-302 -432,-236 -870,-463 -1308,-690 2,-110 6,-220 9,-329 -101,52 -200,104 -298,162 -245,-108 -471,-249 -711,-367 -443,-247 -901,-472 -1348,-715 1,-200 -24,-399 -17,-598 12,-1229 4,-2458 21,-3686z"/>
   <g>
    <path class="fil18" d="M22282 7459c130,-16 256,20 373,68 330,191 558,499 690,831 92,214 107,445 114,673 -38,183 -106,395 -307,481 -257,86 -521,-52 -704,-214 -237,-220 -400,-504 -492,-800 -93,-337 -123,-771 207,-1010 39,-12 79,-21 119,-29l0 0zm60 49c-185,10 -315,155 -368,307 -96,283 -28,585 69,860l23 -14 -15 9c88,216 222,416 393,584 106,86 219,172 355,216 179,63 412,15 508,-146 137,-195 114,-435 99,-655 -74,-335 -232,-659 -491,-907 -151,-139 -351,-266 -573,-254z"/>
   </g>
  </g>
  <g id="_238c09c2ff">
   <path class="fil19" d="M13820 4894c244,-123 424,-324 668,-448 -1,60 0,119 0,179 -4,165 -4,331 -1,496 0,50 -3,101 -6,152 -30,36 -62,70 -94,104 -129,-58 -255,-118 -377,-186 -97,-50 -192,-102 -286,-152 27,-50 35,-119 96,-145z"/>
  </g>
  <g id="_23008addff">
   <path class="fil20" d="M14488 4625c87,38 173,78 256,124l15 8c-7,140 -11,280 -16,420 -79,-41 -169,-50 -256,-56 -3,-165 -3,-331 1,-496z"/>
  </g>
  <g id="_2300aefdff">
   <path class="fil21" d="M14759 4757c424,230 853,452 1279,679 -19,19 -59,56 -79,75 -18,-13 -36,-26 -55,-38 -32,96 -109,167 -204,214 -311,-167 -628,-328 -936,-499l-21 -11c5,-140 9,-280 16,-420z"/>
  </g>
  <g id="_23ff4a21ff">
   <path class="fil22" d="M20233 4793c195,102 390,205 586,307 -32,139 -32,282 -65,421 -160,-78 -319,-158 -480,-237 -26,-163 -40,-327 -41,-491z"/>
  </g>
  <g id="_239eadb2b2">
  </g>
  <g id="_23aec5dfff">
   <path class="fil23" d="M14487 5121c87,6 177,15 256,56l21 11c-34,22 -68,45 -102,68 -48,-9 -96,-17 -145,-25 -9,11 -27,32 -36,42 3,-51 6,-102 6,-152z"/>
  </g>
  <g id="_2300afffff">
   <path class="fil24" d="M14010 5191c122,68 248,128 377,186 -8,1114 -4,2230 -5,3345 -28,-166 -31,-335 -30,-502 -4,-264 20,-530 -34,-790 -86,125 -145,272 -308,330 -3,-856 -3,-1713 0,-2569z"/>
   <path class="fil24" d="M5661 7646c136,-68 262,-152 405,-205 144,-37 286,22 407,86 308,164 617,328 924,493 236,127 411,333 520,561 -229,33 -461,13 -691,29 -206,-280 -575,-380 -855,-579 -187,-133 -399,-245 -631,-291 -132,-23 -254,45 -374,83 77,-86 195,-121 295,-177z"/>
   <path class="fil24" d="M19954 15574c27,-44 54,-87 81,-130 30,15 87,45 115,60 4,1 8,3 12,5 120,49 235,112 348,175 -23,53 -44,105 -66,158 -70,-34 -140,-67 -208,-103 -1,-1 -4,-3 -6,-5l-70 -39c-2,-1 -6,-3 -8,-4 -66,-40 -131,-79 -198,-117z"/>
   <path class="fil24" d="M9153 15843c221,-60 433,42 615,147 510,273 1021,544 1532,815 261,124 504,286 666,512 -57,16 -114,41 -176,39 -242,2 -484,-23 -725,-1 -319,-210 -683,-353 -1002,-563 -280,-146 -581,-250 -862,-394 -138,-66 -272,-149 -427,-176 -137,-23 -275,14 -405,52 43,-47 98,-82 158,-109 213,-99 411,-223 626,-322z"/>
   <path class="fil24" d="M19731 18261c50,19 100,44 148,69 -210,188 -482,278 -757,434 -77,28 -31,-30 -110,-8 -1,-26 -4,-79 -5,-105 251,-132 474,-260 724,-390z"/>
   <path class="fil24" d="M12777 18952c16,-46 35,-90 67,-129l68 9c4,3 15,9 19,12l58 35 8 4 9 4c54,31 129,44 160,102 17,44 48,63 97,57 -11,24 -31,71 -43,95 -16,-4 -50,-12 -68,-16l-68 -5c-5,-3 -15,-9 -20,-12l-57 -35 -7 -3 -7 -4c-28,-15 -87,-45 -116,-60 -3,-2 -9,-4 -11,-6l-68 -36c-5,-3 -16,-8 -21,-12z"/>
   <path class="fil24" d="M16718 19871c78,-65 173,-111 266,-155 53,-3 105,-5 159,-6 -12,37 -25,76 -37,115 -84,47 -170,94 -259,136l-29 0c-50,-1 -100,-1 -149,-1 16,-31 32,-60 49,-89z"/>
  </g>
  <g id="_23009fedff">
   <path class="fil25" d="M15904 5473c19,12 37,25 55,38 20,-19 60,-56 79,-75 164,87 328,174 492,260 -112,77 -205,174 -285,279 -183,-96 -364,-192 -545,-288 95,-47 172,-118 204,-214z"/>
  </g>
  <g id="_23009ef7ff">
   <path class="fil26" d="M14676 5590c358,183 715,370 1065,564 13,190 7,383 0,574 -361,-177 -712,-372 -1067,-560 3,-192 0,-385 2,-578z"/>
  </g>
  <g id="_230097e4ff">
   <path class="fil27" d="M16245 5975c80,-105 173,-202 285,-279 188,101 377,200 566,300 -108,81 -202,176 -283,279 -190,-100 -378,-200 -568,-300z"/>
  </g>
  <g id="_23008cd9ff">
   <path class="fil28" d="M16813 6275c81,-103 175,-198 283,-279 234,126 470,249 705,374 -23,31 -46,63 -69,94 -24,6 -48,14 -72,21 -8,31 -15,61 -22,93 -28,3 -56,7 -85,11 10,29 18,60 26,90 -256,-133 -510,-269 -766,-404z"/>
  </g>
  <g id="_23ff6521ff">
   <path class="fil29" d="M20831 5994c138,76 288,134 415,223 18,139 -23,277 -45,413 -145,-33 -295,-59 -433,-115 36,-173 -33,-363 63,-521z"/>
  </g>
  <g id="_23007cc6ff">
   <path class="fil30" d="M17732 6464c23,-31 46,-63 69,-94 395,211 793,419 1187,630 -51,74 -127,128 -204,181 -18,52 -26,107 -35,162 -192,-100 -377,-206 -572,-298 0,60 0,120 0,179 -111,95 -205,205 -328,289 -7,-181 13,-364 -14,-546 -17,-133 -136,-226 -256,-288 -8,-30 -16,-61 -26,-90 29,-4 57,-8 85,-11 7,-32 14,-62 22,-93 24,-7 48,-15 72,-21z"/>
  </g>
  <g id="_2300a9fdff">
   <path class="fil31" d="M22367 6738l7 -36c451,239 902,476 1351,716 -34,21 -59,62 -105,60 -255,8 -509,-4 -764,-6 -73,-3 -138,29 -201,55 -117,-48 -243,-84 -373,-68l15 -21c8,-12 25,-36 34,-48 25,-217 -12,-437 36,-652z"/>
  </g>
  <g id="_23ff6a00ff">
   <path class="fil32" d="M15549 6997c188,-100 413,-39 591,46 -1,354 -4,706 3,1060 264,135 525,278 788,414 26,14 79,41 106,55 -11,198 -45,416 -206,563 -134,127 -351,146 -527,88 -259,-84 -463,-267 -627,-464 -262,-335 -433,-741 -433,-1157 7,-224 76,-487 305,-605z"/>
  </g>
  <g id="_2300c6ffff">
   <path class="fil33" d="M19780 7048c44,-45 86,-93 146,-122 28,-5 84,-16 111,-21l-13 52c45,12 91,24 138,34l-7 30c46,20 93,41 138,65 129,137 252,281 363,431 -295,-152 -581,-317 -876,-469z"/>
   <path class="fil33" d="M12381 9012c126,31 241,100 375,93 8,1 25,3 33,4 -200,122 -111,371 -206,544 -83,106 -196,185 -305,266 -27,-251 44,-497 60,-747 13,-53 28,-107 43,-160z"/>
   <path class="fil33" d="M12725 9703c64,-136 100,-281 166,-416 1,21 4,63 5,84 4,100 11,199 25,298 9,156 62,319 2,472 -205,-2 -418,-19 -593,-129 110,-127 285,-185 395,-309z"/>
   <path class="fil33" d="M14712 10678c16,-66 20,-166 123,-155l19 16c66,75 168,88 266,84 69,23 138,47 209,68 -17,6 -53,19 -70,25 6,42 11,83 17,125 15,141 -18,291 52,423 77,151 173,290 240,445 -115,39 -173,-55 -230,-130 -17,25 -33,49 -49,74 -217,19 -423,-39 -616,-125l-18 49c-21,-67 -47,-132 -76,-197 34,-235 91,-467 133,-702z"/>
   <path class="fil33" d="M22105 13068c361,-207 736,-395 1108,-588 377,176 740,385 1108,579 -356,218 -737,399 -1106,598 -369,-198 -735,-402 -1110,-589z"/>
  </g>
  <g id="_23006bb4ff">
   <path class="fil34" d="M18988 7000c248,130 495,260 742,391 -130,79 -239,182 -336,292 -215,-113 -430,-229 -645,-340 9,-55 17,-110 35,-162 77,-53 153,-107 204,-181z"/>
  </g>
  <g id="_23ffa700ff">
   <path class="fil35" d="M16262 7033c485,268 748,799 775,1305 -265,-125 -520,-268 -777,-406 3,-300 0,-599 2,-899z"/>
  </g>
  <g id="_230074bdff">
   <path class="fil36" d="M17849 7513c123,-84 217,-194 328,-289 1,113 -7,226 2,340 -8,47 49,59 82,83 277,143 551,290 827,435 -64,-9 -128,-15 -192,-23 -6,23 -17,71 -22,95 -27,-14 -53,-28 -78,-41 -206,-108 -409,-221 -618,-325 0,159 -2,319 1,477 1,19 4,57 6,76 -29,-23 -57,-46 -85,-71 -84,14 -168,30 -252,44 0,-266 0,-534 1,-801z"/>
  </g>
  <g id="_230061a7ff">
   <path class="fil37" d="M19394 7683c97,-110 206,-213 336,-292 249,132 495,265 746,392 -205,33 -405,88 -601,153 -11,-6 -36,-18 -49,-25 -144,-74 -288,-152 -432,-228z"/>
  </g>
  <g id="_23009df4ff">
   <path class="fil38" d="M23725 7418c109,72 312,105 300,260 3,202 0,404 2,606 -203,-19 -408,-19 -610,0 -19,19 -55,56 -72,74 -132,-332 -360,-640 -690,-831 63,-26 128,-58 201,-55 255,2 509,14 764,6 46,2 71,-39 105,-60z"/>
  </g>
  <g id="_23009feeff">
   <path class="fil39" d="M14010 7760c163,-58 222,-205 308,-330 54,260 30,526 34,790 -76,145 -202,258 -342,352 -1,-271 0,-541 0,-812z"/>
  </g>
  <g id="_230099f1ff">
   <path class="fil40" d="M21457 7604c234,-44 479,-38 706,-116 -330,239 -300,673 -207,1010 -168,20 -332,-13 -498,-16 -1,-292 -3,-585 -1,-878z"/>
  </g>
  <g id="_230094edff">
   <path class="fil41" d="M22342 7508c222,-12 422,115 573,254 259,248 417,572 491,907 -21,46 -43,92 -63,138 -9,-107 -29,-214 -66,-317l-3 26c-59,-5 -119,-8 -172,14 -37,-120 -102,-237 -97,-363 35,-24 71,-47 108,-68 -156,-208 -346,-430 -630,-486 -146,-35 -278,42 -375,132 95,55 222,84 272,187 -28,-6 -84,-19 -113,-26 5,17 12,50 16,66 -52,-65 -157,-103 -192,0 -12,-40 -23,-79 -36,-119 -95,256 -47,533 51,781l-40 27 -23 14c-97,-275 -165,-577 -69,-860 53,-152 183,-297 368,-307z"/>
  </g>
  <g id="_23e0faffff">
   <path class="fil42" d="M11381 7528c150,14 269,125 400,190l3 18c1,17 5,48 7,64 127,74 253,150 384,219 -253,135 -504,273 -762,400 -244,-137 -497,-262 -743,-398 135,-74 265,-155 394,-237 -9,-16 -28,-46 -39,-62 122,-60 243,-118 356,-194z"/>
   <path class="fil42" d="M18178 7788c209,104 412,217 618,325 -198,77 -410,105 -617,152 -3,-158 -1,-318 -1,-477z"/>
  </g>
  <g id="_2300a8feff">
   <path class="fil43" d="M20776 7611c100,19 199,40 296,63 24,651 9,1301 14,1952 -60,9 -117,20 -176,33 -2,983 -28,1966 -20,2948 0,90 -13,178 -26,267 -6,-1671 -1,-3341 -2,-5012 4,-90 -32,-177 -86,-251z"/>
  </g>
  <g id="_238c9da1a1">
   <path class="fil44" d="M11018 7712l7 10c11,16 30,46 39,62 -129,82 -259,163 -394,237 -23,-12 -71,-37 -94,-51 142,-92 299,-167 442,-258z"/>
  </g>
  <g id="_23d6f9ffff">
   <path class="fil45" d="M11781 7718c5,4 18,13 24,17l-21 1 -3 -18z"/>
  </g>
  <g id="_23007edcff">
   <path class="fil46" d="M5366 7823c120,-38 242,-106 374,-83 232,46 444,158 631,291 280,199 649,299 855,579 85,118 170,241 219,377 45,113 70,234 128,343 45,9 90,17 136,22 -84,119 -85,260 -106,396 -168,85 -325,191 -508,252 -50,-4 -100,-11 -150,-21 -238,-124 -470,-258 -707,-384 -213,-120 -454,-215 -615,-397 -123,-142 -254,-292 -291,-473 12,-144 -7,-287 -61,-423 -10,49 -20,99 -28,148 -41,-209 -39,-437 100,-618l23 -9z"/>
  </g>
  <g id="_2374848787">
   <path class="fil47" d="M11784 7736l21 -1c165,32 303,149 450,226l0 24c-19,8 -59,25 -80,34 -131,-69 -257,-145 -384,-219 -2,-16 -6,-47 -7,-64z"/>
  </g>
  <g id="_23004e93ff">
   <path class="fil48" d="M19875 7936c196,-65 396,-120 601,-153 7,356 2,713 2,1069 -188,64 -300,214 -399,366 -9,-140 6,-279 -6,-417 -99,-81 -223,-128 -334,-190 49,-35 100,-70 151,-103 62,32 124,65 187,97 -6,-181 9,-364 -4,-545 -49,-60 -131,-85 -198,-124z"/>
   <path class="fil48" d="M19302 9125c34,-44 68,-87 101,-131 213,120 439,218 641,354 -24,1 -71,4 -95,6 -7,24 -21,74 -28,98 -206,-109 -412,-219 -619,-327z"/>
   <path class="fil48" d="M18811 9654c56,-47 111,-94 166,-140 188,100 377,199 565,299 -63,89 -135,171 -218,245 -179,-87 -354,-178 -532,-265 6,-46 13,-92 19,-139z"/>
  </g>
  <g id="_23e6eff7ff">
   <path class="fil49" d="M19826 7911c13,7 38,19 49,25 67,39 149,64 198,124 13,181 -2,364 4,545 -63,-32 -125,-65 -187,-97 -266,-141 -531,-282 -796,-424 242,-68 493,-100 732,-173z"/>
  </g>
  <g id="_230092ecff">
   <path class="fil50" d="M22091 7972c35,-103 140,-65 192,0 70,311 156,619 217,931 53,-146 119,-291 140,-446 -8,-134 -56,-263 -91,-392 -40,-45 -79,-89 -116,-135 167,64 328,145 465,253 -31,1 -94,1 -125,1 41,155 75,310 114,465 -25,-80 -133,-157 -190,-52 -89,188 -139,390 -205,585 9,11 27,37 37,49l-85 23c-171,-168 -305,-368 -393,-584l15 -9 40 -27c65,146 146,285 248,413 -63,-363 -178,-716 -263,-1075z"/>
  </g>
  <g id="_23acf2ffff">
   <path class="fil51" d="M10576 7970c23,14 71,39 94,51 246,136 499,261 743,398 1,284 5,569 -6,853l-49 -9c-264,-127 -518,-269 -777,-402 -3,-298 -5,-594 -5,-891z"/>
  </g>
  <g id="_237cedffff">
   <path class="fil52" d="M12175 8019c21,-9 61,-26 80,-34 -4,241 0,482 -1,723 -1,33 -3,97 -3,128 -293,127 -545,324 -844,436 11,-284 7,-569 6,-853 258,-127 509,-265 762,-400z"/>
   <path class="fil52" d="M14677 8414c252,126 495,264 747,390l-13 2c-135,28 -265,75 -393,123 -10,-5 -32,-17 -42,-21 -101,-53 -200,-107 -299,-162 -3,-110 -1,-221 0,-332z"/>
   <path class="fil52" d="M17137 11199c41,37 81,74 121,110 25,-13 77,-42 102,-55 211,95 396,240 624,302 27,83 55,165 76,249 39,325 73,650 100,977 -5,71 -13,144 -15,217 -145,39 -279,100 -412,161 -138,58 -264,136 -377,230 61,155 163,296 286,416 152,1 293,-85 429,-143 133,-66 263,-138 380,-227 113,-93 250,-184 292,-326 24,-68 -40,-121 -71,-177 -2,-28 -6,-87 -7,-117 28,-162 60,-325 47,-490 5,-120 1,-239 -12,-358 723,364 1430,759 2156,1119 -432,264 -896,481 -1340,726 -705,372 -1410,746 -2114,1119 -48,25 -96,50 -144,75 9,-31 18,-64 27,-96 -16,-24 -32,-49 -48,-73 77,-57 181,-104 208,-200 -23,-60 -74,-108 -115,-159 -16,-60 -36,-120 -57,-179 44,-25 91,-51 137,-76 -41,-36 -91,-65 -122,-109 -21,-72 0,-147 4,-219 -49,-7 -98,-14 -148,-20 11,-30 22,-59 34,-88 -38,-32 -75,-62 -112,-92 58,-4 115,-8 172,-11 -55,-96 -44,-203 -7,-301 122,-51 118,-188 164,-287 -52,-101 -126,-190 -180,-289 8,-81 26,-162 30,-243 44,-3 88,-7 133,-10 -19,88 -137,193 -54,277 56,-106 116,-214 132,-333 -55,-21 -112,-33 -170,-48 2,-25 3,-51 4,-77 -35,-13 -68,-27 -102,-41 34,-24 70,-49 103,-73 13,-83 28,-166 46,-248 35,19 70,39 105,58 13,-55 25,-109 39,-163 -30,3 -58,7 -87,12 -7,-19 -18,-58 -24,-77 -21,15 -40,30 -60,46 -17,-57 -33,-112 -50,-168 24,-23 47,-46 71,-69 -27,-8 -82,-22 -110,-30 63,-10 126,-20 189,-29 -28,-34 -57,-68 -87,-102 -53,-22 -104,-48 -145,-86 -15,-10 -43,-29 -57,-40 5,-55 11,-109 16,-165z"/>
   <path class="fil52" d="M18349 12019c16,12 49,35 65,48 83,282 69,578 76,868 -58,3 -114,7 -171,11 -6,-56 -10,-112 -13,-167 41,-252 46,-505 43,-760z"/>
   <path class="fil52" d="M12116 12663c44,-17 92,-61 140,-29 111,45 211,108 317,162 207,120 425,225 636,339 188,108 385,202 575,307 253,135 507,269 758,407 -94,51 -187,104 -281,155 -256,139 -523,260 -770,412 -63,30 -128,62 -191,92 -365,-179 -711,-389 -1079,-566 -415,-218 -833,-435 -1240,-668 373,-212 760,-402 1135,-611z"/>
  </g>
  <g id="_23005aa1ff">
   <path class="fil53" d="M18896 8059c64,8 128,14 192,23l6 2c265,142 530,283 796,424 -51,33 -102,68 -151,103 -290,-152 -576,-307 -865,-457 5,-24 16,-72 22,-95z"/>
  </g>
  <g id="_23c9ecf7ff">
   <path class="fil54" d="M18796 8113c25,13 51,27 78,41 289,150 575,305 865,457 111,62 235,109 334,190 12,138 -3,277 6,417 4,36 11,111 14,149 -17,-7 -33,-13 -49,-19 -202,-136 -428,-234 -641,-354 -276,-147 -554,-292 -831,-439 -128,-73 -267,-130 -387,-214 -2,-19 -5,-57 -6,-76 207,-47 419,-75 617,-152z"/>
  </g>
  <g id="_230098e5ff">
   <path class="fil55" d="M14010 8572c140,-94 266,-207 342,-352 -1,167 2,336 30,502 7,105 66,201 150,270 -86,86 -167,174 -236,273 -93,-50 -189,-94 -275,-152 -30,-179 -4,-362 -11,-541z"/>
  </g>
  <g id="_230066b0ff">
   <path class="fil56" d="M17848 8314c84,-14 168,-30 252,-44 28,25 56,48 85,71 120,84 259,141 387,214 -39,19 -78,39 -117,59 3,17 6,50 8,67 -94,-50 -190,-100 -285,-147 -1,185 0,371 0,555 -47,3 -93,5 -140,7 5,42 11,85 15,127 -18,7 -53,20 -71,27 -11,29 -22,57 -33,85 -25,-5 -76,-17 -101,-23 -1,-324 1,-648 0,-972l0 -26z"/>
  </g>
  <g id="_230090ebff">
   <path class="fil57" d="M23417 8284c202,-19 407,-19 610,0 0,155 -2,311 0,466 -174,7 -345,22 -519,14 -6,90 -22,180 -49,267 -7,-228 -22,-459 -114,-673 17,-18 53,-55 72,-74z"/>
  </g>
  <g id="_230096ffff">
   <path class="fil58" d="M5243 8450c8,-49 18,-99 28,-148 54,136 73,279 61,423 -21,-38 -32,-78 -34,-120 -8,-17 -25,-54 -34,-73 -5,-20 -15,-61 -21,-82z"/>
   <path class="fil58" d="M18036 11242c58,-198 49,-415 157,-598 17,21 52,63 70,84 63,66 159,67 247,69 172,82 349,161 537,203 46,12 80,-30 118,-45 109,-76 216,-153 325,-228 5,16 15,50 20,67 -6,14 -17,40 -23,53 -68,57 -135,114 -200,175 -53,42 -96,107 -167,126 -148,1 -293,-26 -441,-40 3,164 16,328 35,490 14,124 -28,246 -14,370 13,119 17,238 12,358 -61,-160 -46,-330 -43,-495 -208,8 -418,-25 -588,-140 -5,28 -15,86 -21,114 -21,-84 -49,-166 -76,-249 5,-106 28,-211 52,-314z"/>
   <path class="fil58" d="M24321 13059l14 -9c-8,308 7,617 6,926 -3,78 -4,155 -4,234 -231,120 -453,254 -686,370 -85,-13 -195,12 -192,109 -80,38 -157,81 -237,120l-28 -12c46,-379 10,-760 21,-1140 369,-199 750,-380 1106,-598z"/>
  </g>
  <g id="_23e6f1f9ff">
   <g>
    <path class="fil59" d="M16931 8517c305,-62 606,-140 917,-177 1,324 -1,648 0,972 -1,368 6,735 -2,1103 5,119 -129,233 -258,187 -139,-49 -259,-129 -388,-196 -286,-150 -571,-301 -856,-452 -211,-112 -420,-223 -630,-333 -204,-108 -408,-215 -611,-325 -187,-99 -377,-196 -561,-299 146,-19 292,-52 434,-89 10,4 32,16 42,21 146,76 288,158 442,221 -11,-113 47,-252 -49,-344l13 -2c85,-10 170,-25 253,-45 164,197 368,380 627,464 176,58 393,39 527,-88 161,-147 195,-365 206,-563 -27,-14 -80,-41 -106,-55l0 0zm180 1063c-149,184 -39,455 124,603 73,79 242,119 302,6 76,-194 -8,-427 -173,-564 -65,-59 -169,-97 -253,-45z"/>
   </g>
  </g>
  <g id="_230082e0ff">
   <path class="fil60" d="M21458 8482c166,3 330,36 498,16 92,296 255,580 492,800 183,162 447,300 704,214 201,-86 269,-298 307,-481 27,-87 43,-177 49,-267 174,8 345,-7 519,-14 0,322 -2,644 0,965 -379,-26 -757,4 -1135,-20 -238,18 -480,-13 -715,36 -189,-94 -375,-198 -563,-294 -69,-39 -165,-78 -154,-167 -6,-262 -1,-525 -2,-788z"/>
   <path class="fil60" d="M8369 16274c130,-38 268,-75 405,-52 155,27 289,110 427,176 281,144 582,248 862,394 319,210 683,353 1002,563 137,127 274,257 364,418 -39,119 -115,249 -54,373 54,138 105,292 41,435 -66,165 -246,248 -386,354 -16,80 -52,156 -103,223 -479,-255 -958,-510 -1440,-760 -269,-162 -583,-271 -801,-496 -326,-344 -516,-805 -483,-1263 10,-133 59,-270 166,-365z"/>
  </g>
  <g id="_230087e4ff">
   <path class="fil61" d="M23102 8530c53,-22 113,-19 172,-14 -37,301 -172,582 -254,874 265,-79 331,-357 323,-583 20,-46 42,-92 63,-138 15,220 38,460 -99,655 -96,161 -329,209 -508,146 -136,-44 -249,-130 -355,-216l85 -23c110,72 228,135 361,163 -57,-267 -144,-528 -193,-797 57,-105 165,-28 190,52 43,172 78,344 131,512 42,-208 154,-417 84,-631z"/>
  </g>
  <g id="_2338728d8d">
   <path class="fil62" d="M5264 8532c9,19 26,56 34,73l-35 -5 -17 -37 18 -31z"/>
  </g>
  <g id="_23009bf2ff">
   <path class="fil63" d="M7917 8581l1 0c60,140 125,280 153,430 -209,-6 -420,9 -626,-24 -49,-136 -134,-259 -219,-377 230,-16 462,4 691,-29z"/>
  </g>
  <g id="_23944f00ff">
   <path class="fil5" d="M12504 8570c46,-5 93,-9 138,-13 25,1 73,2 97,3l-3 21c-2,23 -6,68 -9,91 -52,30 -106,57 -159,86 24,75 56,150 68,228 -84,69 -179,3 -231,-63l5 -20c-10,-19 -31,-57 -41,-76 -3,-31 -8,-94 -11,-125 76,-6 124,-71 146,-132z"/>
   <path class="fil5" d="M14733 10270c3,-92 90,-148 162,-200 74,7 150,18 217,51 5,10 14,30 19,41 -60,37 -122,71 -179,112 3,83 33,163 51,244 -36,5 -111,16 -149,21l-19 -16c-46,-80 -97,-162 -102,-253z"/>
   <path class="fil5" d="M18183 10333c83,-100 240,-90 346,-25 -8,13 -23,42 -32,55 -52,29 -106,57 -154,91 8,78 39,153 64,229 -48,14 -97,29 -144,45 -18,-21 -53,-63 -70,-84 -45,-98 -103,-221 -10,-311z"/>
  </g>
  <path class="fil64" d="M18178 8534c95,47 191,97 285,147 280,147 559,297 839,444 207,108 413,218 619,327 53,28 106,56 157,85 -3,185 -2,369 -1,553 -182,-86 -357,-184 -535,-277 -188,-100 -377,-199 -565,-299 -266,-142 -534,-281 -799,-425 0,-184 -1,-370 0,-555z"/>
  <g id="_23005ba2ff">
   <path class="fil65" d="M18455 8614c39,-20 78,-40 117,-59 277,147 555,292 831,439 -33,44 -67,87 -101,131 -280,-147 -559,-297 -839,-444 -2,-17 -5,-50 -8,-67z"/>
  </g>
  <g id="_23ffd2aaff">
   <path class="fil66" d="M12736 8581c38,66 47,143 68,214 61,53 30,140 22,206 -2,10 -7,30 -9,39 -19,-25 -38,-49 -58,-74 0,34 -2,105 -3,139 -134,7 -249,-62 -375,-93 8,-30 16,-59 24,-89 52,66 147,132 231,63 -12,-78 -44,-153 -68,-228 53,-29 107,-56 159,-86 3,-23 7,-68 9,-91z"/>
   <path class="fil66" d="M14952 10274c57,-41 119,-75 179,-112 35,86 79,171 95,262 16,81 -62,138 -106,199 -98,4 -200,-9 -266,-84 38,-5 113,-16 149,-21 -18,-81 -48,-161 -51,-244z"/>
   <path class="fil66" d="M18343 10454c48,-34 102,-62 154,-91 105,75 117,203 123,315 -35,40 -72,80 -110,119 -88,-2 -184,-3 -247,-69 47,-16 96,-31 144,-45 -25,-76 -56,-151 -64,-229z"/>
  </g>
  <g id="_235c707777">
  </g>
  <g id="_23baa07cef">
   <path class="fil67" d="M12369 8827c10,19 31,57 41,76 -10,-19 -31,-57 -41,-76z"/>
  </g>
  <g id="_2368e2fcff">
   <path class="fil68" d="M15018 8929c128,-48 258,-95 393,-123 96,92 38,231 49,344 -154,-63 -296,-145 -442,-221z"/>
  </g>
  <g id="_23004386ff">
   <path class="fil69" d="M20079 9218c99,-152 211,-302 399,-366 0,324 1,646 1,969 -29,6 -88,18 -118,25 -1,37 -2,75 -2,112 -137,147 -292,283 -387,458 -30,54 -83,94 -132,134 -13,39 -24,79 -37,118 -19,-16 -40,-32 -59,-46 -81,116 -105,280 -262,335 1,-28 4,-82 5,-110 6,-13 17,-39 23,-53 -5,-17 -15,-51 -20,-67 -25,-198 -7,-396 -15,-595 -50,-24 -100,-49 -151,-74 83,-74 155,-156 218,-245 178,93 353,191 535,277 -1,-184 -2,-368 1,-553 -51,-29 -104,-57 -157,-85 7,-24 21,-74 28,-98 24,-2 71,-5 95,-6 16,6 32,12 49,19 -3,-38 -10,-113 -14,-149z"/>
  </g>
  <g id="_23008be7ff">
   <path class="fil70" d="M7445 8987c206,33 417,18 626,24 5,84 15,168 19,253 -22,92 -54,184 -87,273 -45,-23 -88,-47 -134,-68 24,-7 71,-19 94,-26 -24,-59 -32,-146 -119,-152 -48,15 -93,36 -135,61 -46,-5 -91,-13 -136,-22 -58,-109 -83,-230 -128,-343z"/>
  </g>
  <g id="_2331383b42">
  </g>
  <g id="_230088d8ff">
   <path class="fil71" d="M14532 8992l10 5c184,103 374,200 561,299 -90,81 -173,168 -243,266 -188,-99 -375,-199 -564,-297 69,-99 150,-187 236,-273z"/>
  </g>
  <g id="_2300579fff">
   <path class="fil72" d="M18038 9096c47,-2 93,-4 140,-7 265,144 533,283 799,425 -55,46 -110,93 -166,140 -6,47 -13,93 -19,139 -88,-43 -176,-86 -264,-128 -4,214 -2,428 1,643 -106,-65 -263,-75 -346,25 -93,90 -35,213 10,311 -108,183 -99,400 -157,598 -353,-190 -707,-376 -1061,-563 18,-28 37,-57 56,-86 12,-2 38,-8 50,-10 -7,-84 23,-156 119,-177 129,67 249,147 388,196 129,46 263,-68 258,-187 8,-368 1,-735 2,-1103 25,6 76,18 101,23 11,-28 22,-56 33,-85 18,-7 53,-20 71,-27 -4,-42 -10,-85 -15,-127z"/>
  </g>
  <g id="_230078f1ff">
   <path class="fil73" d="M12789 9109c36,26 70,53 104,80 0,24 -2,74 -2,98 -66,135 -102,280 -166,416 -110,124 -285,182 -395,309 175,110 388,127 593,129 -43,175 -18,358 -35,536 -17,183 -54,364 -72,545 -12,102 -30,202 -50,302 -39,11 -78,23 -117,35 -4,-121 -7,-243 -10,-365 -14,70 -27,141 -40,212 -34,5 -102,15 -136,20 -2,-300 59,-605 0,-903 -50,-167 -92,-335 -144,-501 -17,-7 -51,-21 -68,-27 -14,-6 -41,-16 -54,-20 1,-15 3,-44 4,-59 12,-123 1,-246 -9,-369 40,-128 91,-252 146,-375 -16,250 -87,496 -60,747 109,-81 222,-160 305,-266 95,-173 6,-422 206,-544z"/>
   <path class="fil73" d="M15329 10691c131,-14 261,-27 392,-47 32,20 64,41 97,61 -181,45 -361,92 -542,136 -6,-42 -11,-83 -17,-125 17,-6 53,-19 70,-25z"/>
   <path class="fil73" d="M14673 11528c193,86 399,144 616,125 14,218 42,437 27,656 -13,157 -49,309 -64,464 -11,127 -21,260 -105,366 -79,-105 -51,-235 -56,-354 -3,-301 6,-607 -72,-901 -18,-12 -55,-35 -73,-46 28,292 -22,581 -41,872 -16,77 -8,172 -82,225 -50,-15 -40,-74 -56,-111 -9,-417 -60,-832 -112,-1247l18 -49z"/>
   <path class="fil73" d="M18081 11691c170,115 380,148 588,140 -3,165 -18,335 43,495 13,165 -19,328 -47,490 -25,128 -39,256 -64,383 -1,55 -63,80 -102,111 -3,-125 -5,-250 -9,-375 -7,-290 7,-586 -76,-868 -16,-13 -49,-36 -65,-48 3,255 -2,508 -43,760 -33,108 30,286 -116,326 -10,-108 -20,-215 -30,-323 -27,-327 -61,-652 -100,-977 6,-28 16,-86 21,-114z"/>
  </g>
  <g id="_2327383f41">
   <path class="fil74" d="M8090 9264c24,109 8,221 28,331 -38,-19 -77,-38 -115,-58 33,-89 65,-181 87,-273z"/>
  </g>
  <g id="_2367848a8a">
  </g>
  <g id="_23adf2ffff">
   <path class="fil75" d="M13589 9279l21 -14c24,12 70,38 94,50 447,243 905,468 1348,715 -36,0 -70,3 -106,5 -12,9 -38,27 -51,35 -72,52 -159,108 -162,200 5,91 56,173 102,253 -103,-11 -107,89 -123,155 -42,235 -99,467 -133,702 29,65 55,130 76,197 52,415 103,830 112,1247 -24,8 -73,24 -98,32 -170,53 -325,136 -480,215 -187,69 -282,237 -405,371 -190,-105 -387,-199 -575,-307 54,-7 107,-13 161,-19 -17,-31 -32,-59 -48,-88 30,-21 60,-42 90,-65 -35,-26 -70,-51 -105,-77 49,-58 113,-109 143,-179 12,-92 -56,-173 -91,-255 -25,53 -49,105 -75,158 -30,-71 -51,-143 -63,-218 48,5 98,12 147,18 10,-17 29,-51 39,-69 -22,-31 -42,-61 -63,-91 54,-13 108,-26 161,-38 -71,-22 -142,-45 -213,-67 55,-12 110,-25 165,-36 -10,-9 -31,-26 -41,-34 -53,-8 -106,-16 -159,-23 96,-87 206,-161 313,-235 -61,-28 -116,3 -169,27 -34,-30 -66,-61 -100,-90 86,-12 175,-20 262,-24 4,-91 50,-222 -64,-270 -107,-26 -219,-11 -328,-21 61,-18 122,-34 183,-51 -15,-25 -30,-50 -46,-74 -41,15 -81,33 -121,52 39,-76 49,-159 42,-242 27,-32 53,-63 81,-94 25,15 51,31 76,46 7,-53 24,-108 12,-161 -67,-36 -140,-62 -207,-99 18,-90 66,-171 86,-261 5,-69 -32,-135 -50,-201 54,1 108,3 162,4 -31,-22 -63,-45 -94,-67 -23,-56 -46,-111 -69,-166 19,-38 40,-74 61,-111 -29,-97 -29,-198 51,-276 -48,-11 -96,-23 -143,-35 18,-18 38,-36 56,-54 -26,-21 -79,-63 -105,-84 138,-108 302,-183 443,-286z"/>
   <path class="fil75" d="M13491 14416c247,-152 514,-273 770,-412 30,23 59,45 88,68 46,-5 92,-10 138,-13 -50,93 -188,56 -272,110 41,0 84,0 126,0 15,33 30,66 46,100 -68,-5 -135,-11 -204,-16 18,36 36,71 56,107 31,0 63,0 95,1 29,25 56,52 85,77 -75,28 -144,65 -191,126 60,-22 120,-46 181,-66 8,87 -138,129 -208,178 23,24 46,50 69,74 -75,21 -136,69 -91,145 31,-21 62,-41 93,-62 66,14 132,28 200,43 -36,12 -71,25 -105,39 18,17 37,35 55,54 -64,12 -129,23 -193,35 -14,34 -27,68 -44,102 -50,0 -100,-5 -149,-9 37,26 73,51 110,76 -26,26 -54,54 -80,81 -14,-8 -41,-22 -56,-29 -165,-86 -328,-175 -493,-260 -108,-57 -234,-67 -347,-112 60,-17 121,-34 182,-51 -46,-32 -92,-64 -139,-95 54,-13 108,-25 161,-38 11,9 34,28 47,38 35,-16 73,-32 110,-46 41,17 83,36 125,55 1,-23 1,-68 1,-91 -55,-16 -109,-32 -163,-46 68,-55 130,-114 186,-179 -63,4 -126,8 -189,16z"/>
  </g>
  <g id="_230056d6ff">
   <path class="fil76" d="M7709 9352c42,-25 87,-46 135,-61 87,6 95,93 119,152 -23,7 -70,19 -94,26 -31,-5 -93,-13 -124,-17 -15,85 32,143 119,169 -57,40 -115,81 -174,121 -22,1 -65,4 -87,6 21,-136 22,-277 106,-396z"/>
   <path class="fil76" d="M11831 18434c52,-94 120,-222 258,-204 76,48 72,138 47,209 -47,-24 -189,-83 -175,21 -21,62 78,73 111,110 -61,38 -130,102 -210,62 -17,-65 -25,-132 -31,-198z"/>
  </g>
  <g id="_23007ecbff">
   <path class="fil77" d="M15103 9296c203,110 407,217 611,325 -71,71 -141,143 -212,215 2,17 7,53 9,69 -218,-113 -433,-230 -651,-343 70,-98 153,-185 243,-266z"/>
  </g>
  <g id="_238fefffff">
   <path class="fil78" d="M7745 9452c31,4 93,12 124,17 46,21 89,45 134,68 38,20 77,39 115,58 487,246 966,508 1451,758 94,51 187,102 283,150 94,49 187,100 282,147 106,67 230,110 332,185 12,28 24,58 37,88 -38,19 -75,39 -113,58 -36,-18 -73,-35 -110,-52 -91,-53 -185,-103 -279,-150 -68,-39 -137,-76 -207,-110 -161,-86 -322,-175 -484,-259 -310,-177 -636,-326 -938,-514 -150,-119 -330,-197 -508,-275 -87,-26 -134,-84 -119,-169z"/>
   <path class="fil78" d="M16052 10564c438,227 876,454 1308,690 -25,13 -77,42 -102,55 -40,-36 -80,-73 -121,-110 -5,56 -11,110 -16,165 14,11 42,30 57,40 41,38 92,64 145,86 30,34 59,68 87,102 -63,9 -126,19 -189,29 28,8 83,22 110,30 -24,23 -47,46 -71,69 17,56 33,111 50,168 20,-16 39,-31 60,-46 6,19 17,58 24,77 29,-5 57,-9 87,-12 -14,54 -26,108 -39,163 -35,-19 -70,-39 -105,-58 -18,82 -33,165 -46,248 -33,24 -69,49 -103,73 34,14 67,28 102,41 -1,26 -2,52 -4,77 58,15 115,27 170,48 -16,119 -76,227 -132,333 -83,-84 35,-189 54,-277 -45,3 -89,7 -133,10 -4,81 -22,162 -30,243 54,99 128,188 180,289 -46,99 -42,236 -164,287 -37,98 -48,205 7,301 -57,3 -114,7 -172,11 37,30 74,60 112,92 -12,29 -23,58 -34,88 50,6 99,13 148,20 -4,72 -25,147 -4,219 31,44 81,73 122,109 -46,25 -93,51 -137,76 21,59 41,119 57,179 41,51 92,99 115,159 -27,96 -131,143 -208,200 16,24 32,49 48,73 -9,32 -18,65 -27,96 -275,143 -547,291 -822,436 -135,71 -270,143 -406,214 -9,-26 -26,-78 -34,-103 -55,-26 -156,-18 -153,-93 54,-43 114,-79 172,-116 -18,-57 -36,-114 -53,-170 -45,18 -89,37 -133,56 -2,-28 -4,-56 -5,-83 -61,-16 -120,-33 -180,-50 81,-14 165,-26 244,-49 44,-68 68,-144 98,-217 -45,-5 -91,-10 -136,-14 3,-30 5,-61 7,-91 16,12 50,37 66,50 27,-23 56,-47 84,-70 -33,-43 -65,-85 -97,-127 8,-10 25,-29 33,-38 -35,-93 -8,-229 -127,-271 -2,-10 -3,-27 -5,-37 37,-16 75,-30 109,-49 -44,-30 -90,-55 -136,-81 11,-12 34,-35 46,-46 -32,-49 -64,-95 -95,-142 50,-3 100,-5 152,-7 -29,-90 -61,-178 -101,-264 108,-37 188,-107 189,-218 -60,3 -121,6 -183,8 63,-91 168,-66 260,-30 7,-58 14,-115 18,-172 -32,19 -64,39 -95,59 -38,-9 -75,-18 -113,-26 22,-28 45,-56 66,-82 -18,-2 -55,-7 -73,-9 5,-38 10,-75 16,-113 22,-6 65,-18 87,-23 -62,-35 -141,-63 -148,-139 14,-63 92,-51 144,-67 33,34 66,67 100,101 2,-55 32,-123 -23,-166 -56,-62 -149,-38 -223,-39 7,-12 21,-38 27,-50 38,-14 76,-25 113,-42 -11,-76 -41,-149 -41,-226 11,-78 59,-147 95,-217 -46,-87 -92,-175 -132,-264 7,-16 14,-30 22,-45 -13,-60 -10,-122 -4,-182 71,-11 142,-24 213,-36 -47,-70 -118,-116 -199,-147 14,-16 41,-48 55,-63 -7,-30 -13,-60 -18,-90 19,-2 57,-7 75,-9 -58,-53 -121,-103 -167,-165 11,-89 117,-124 189,-166 -34,-11 -68,-21 -102,-32 56,-86 135,-168 135,-274 -42,22 -83,45 -125,68 12,-52 23,-104 34,-156 17,15 52,42 69,57 2,-32 4,-95 5,-126z"/>
  </g>
  <g id="_235298a3a4">
   <path class="fil79" d="M12190 9521l2 26c10,123 21,246 9,369 -44,-126 -83,-271 -11,-395z"/>
   <path class="fil79" d="M21080 12002c26,300 14,605 7,908 -25,-301 -12,-606 -7,-908z"/>
   <path class="fil79" d="M12166 14674c75,-7 133,41 172,96 -60,12 -185,-30 -172,-96z"/>
   <path class="fil79" d="M20643 15760c137,41 234,140 358,201 412,216 823,436 1235,654 117,57 217,178 173,304 -21,114 -139,169 -238,222 -729,383 -1458,768 -2184,1154 -35,13 -70,47 -108,35 -48,-25 -98,-50 -148,-69 819,-411 1621,-855 2434,-1279 106,-30 138,-178 29,-224 -413,-227 -836,-441 -1250,-665 -123,-72 -271,-100 -380,-190 95,38 200,89 306,46 -70,-68 -144,-133 -227,-189m1677 1076c-66,111 132,13 0,0z"/>
   <path class="fil79" d="M11502 19147c221,-125 461,-227 657,-387 14,16 42,48 57,64 -161,12 -267,133 -403,197 -95,47 -189,95 -280,148 -143,89 -337,104 -494,37 156,31 327,24 463,-59z"/>
  </g>
  <g id="_2388e3f8ff">
   <path class="fil80" d="M17111 9580c84,-52 188,-14 253,45 165,137 249,370 173,564 -60,113 -229,73 -302,-6 -163,-148 -273,-419 -124,-603z"/>
  </g>
  <g id="_2332465151">
   <path class="fil81" d="M7864 9621c178,78 358,156 508,275 -28,6 -57,13 -85,19 -118,-97 -264,-156 -404,-216 -203,113 -389,254 -603,351 -113,35 -249,5 -335,-71 50,10 100,17 150,21 238,31 421,-139 595,-258 59,-40 117,-81 174,-121z"/>
  </g>
  <g id="_23b6f4ffff">
   <path class="fil82" d="M12921 9669c81,-23 159,-53 225,-104 26,21 79,63 105,84 -18,18 -38,36 -56,54 47,12 95,24 143,35 -80,78 -80,179 -51,276 -21,37 -42,73 -61,111 23,55 46,110 69,166 31,22 63,45 94,67 -54,-1 -108,-3 -162,-4 18,66 55,132 50,201 -20,90 -68,171 -86,261 67,37 140,63 207,99 12,53 -5,108 -12,161 -25,-15 -51,-31 -76,-46 -28,31 -54,62 -81,94 7,83 -3,166 -42,242 40,-19 80,-37 121,-52 16,24 31,49 46,74 -61,17 -122,33 -183,51 109,10 221,-5 328,21 114,48 68,179 64,270 -87,4 -176,12 -262,24 34,29 66,60 100,90 53,-24 108,-55 169,-27 -107,74 -217,148 -313,235 53,7 106,15 159,23 10,8 31,25 41,34 -55,11 -110,24 -165,36 71,22 142,45 213,67 -53,12 -107,25 -161,38 21,30 41,60 63,91 -10,18 -29,52 -39,69 -49,-6 -99,-13 -147,-18 12,75 33,147 63,218 26,-53 50,-105 75,-158 35,82 103,163 91,255 -30,70 -94,121 -143,179 35,26 70,51 105,77 -30,23 -60,44 -90,65 16,29 31,57 48,88 -54,6 -107,12 -161,19 -211,-114 -429,-219 -636,-339 21,-9 66,-28 88,-37 -39,-47 -78,-93 -118,-138 39,-40 78,-79 116,-119 -75,28 -149,58 -224,87 24,-49 61,-89 105,-122 6,-11 15,-31 20,-41 34,3 69,6 104,9 -43,-64 -94,-125 -124,-195 28,-63 69,-120 107,-178 -77,-64 -172,-98 -267,-134l-14 -6c97,-51 188,-106 276,-168 135,-100 300,-206 331,-372 18,-95 -88,-124 -157,-160 18,-181 55,-362 72,-545 17,-178 -8,-361 35,-536 60,-153 7,-316 -2,-472z"/>
  </g>
  <g id="_230096f1ff">
   <path class="fil83" d="M20910 9659c59,-13 116,-24 176,-33 7,695 -6,1390 5,2085 -1,96 4,193 10,289l-53 -7c2,307 3,613 0,920 -52,43 -100,88 -143,138l-35 -29c-4,-49 -7,-98 -6,-148 13,-89 26,-177 26,-267 -8,-982 18,-1965 20,-2948z"/>
  </g>
  <g id="_230075bfff">
   <path class="fil84" d="M15714 9621c210,110 419,221 630,333 -63,21 -123,43 -185,66 -13,66 -35,131 -63,194 -195,-102 -390,-206 -585,-309 -2,-16 -7,-52 -9,-69 71,-72 141,-144 212,-215z"/>
  </g>
  <g id="_230075d5ff">
   <path class="fil85" d="M22177 9731c235,-49 477,-18 715,-36 378,24 756,-6 1135,20 -2,259 3,518 -2,776 8,68 -47,145 -127,137 -59,-12 -110,-42 -161,-68 -518,-279 -1043,-548 -1560,-829z"/>
  </g>
  <g id="_230160a7c6">
   <path class="fil86" d="M7095 10000c183,-61 340,-167 508,-252 22,-2 65,-5 87,-6 -174,119 -357,289 -595,258z"/>
  </g>
  <g id="_2300387bff">
   <path class="fil87" d="M20361 9846c30,-7 89,-19 118,-25 -1,903 -1,1806 -1,2709 -590,-307 -1176,-622 -1764,-932 -19,-162 -32,-326 -35,-490 148,14 293,41 441,40 71,-19 114,-84 167,-126 66,31 130,64 195,96 -1,-54 -1,-108 0,-161 157,-55 181,-219 262,-335 19,14 40,30 59,46 13,-39 24,-79 37,-118 49,-40 102,-80 132,-134 95,-175 250,-311 387,-458 0,-37 1,-75 2,-112z"/>
  </g>
  <g id="_230067b1ff">
   <path class="fil88" d="M16159 10020c62,-23 122,-45 185,-66 285,151 570,302 856,452 -96,21 -126,93 -119,177 -12,2 -38,8 -50,10 -19,29 -38,58 -56,86 -294,-154 -586,-310 -879,-465 28,-63 50,-128 63,-194z"/>
  </g>
  <g id="_23c9f6ffff">
   <path class="fil89" d="M10625 10859c544,-286 1087,-571 1626,-864 17,6 51,20 68,27 52,166 94,334 144,501 13,250 -20,500 -19,749 -39,11 -78,23 -116,34 -126,38 -246,91 -365,145 -235,106 -446,260 -608,450 -40,59 -97,155 -25,213 72,63 184,40 274,44 279,-2 538,-108 776,-230 95,36 190,70 267,134 -38,58 -79,115 -107,178 30,70 81,131 124,195 -35,-3 -70,-6 -104,-9 -5,10 -14,30 -20,41 -44,33 -81,73 -105,122 75,-29 149,-59 224,-87 -38,40 -77,79 -116,119 40,45 79,91 118,138 -22,9 -67,28 -88,37 -106,-54 -206,-117 -317,-162 -48,-32 -96,12 -140,29 -375,209 -762,399 -1135,611 407,233 825,450 1240,668 -8,103 -24,205 -39,308 56,10 113,21 169,32 -6,44 -13,86 -20,129 -50,-28 -99,-54 -147,-81 -166,-93 -336,-178 -503,-268 -135,-74 -274,-142 -408,-217 -227,-135 -478,-233 -696,-379 -128,-126 -291,-212 -454,-295 28,-66 57,-131 86,-196 11,20 31,59 42,78 -22,26 -43,53 -63,80 18,17 36,34 55,52 42,-39 84,-77 126,-115 -15,-16 -31,-31 -46,-46 28,-9 85,-29 113,-38 -54,-13 -106,-26 -160,-37 82,-91 149,-195 151,-315 -80,-2 -143,-45 -198,-96 37,-25 73,-50 110,-77 40,25 82,49 124,73 -4,-47 -8,-95 -11,-142 -41,-19 -81,-38 -121,-55 4,-46 9,-91 14,-135 -22,-1 -66,-2 -88,-3 -16,63 -33,126 -52,189 -60,-91 -32,-203 -40,-304 40,28 80,55 121,82 77,-70 83,-171 14,-248 27,-65 48,-131 62,-198 -21,15 -62,44 -83,60 -40,-49 -83,-97 -114,-150 15,-47 41,-91 64,-134 50,6 101,11 152,16 11,-17 30,-49 39,-66 -34,-95 -74,-191 -175,-240 12,-7 37,-16 49,-21 -42,-27 -83,-52 -124,-80 24,-19 74,-57 98,-76 35,30 69,60 101,93 -15,-26 -44,-77 -58,-103 20,-9 60,-29 79,-38 38,-19 75,-39 113,-58 -13,-30 -25,-60 -37,-88 52,12 108,69 159,24z"/>
  </g>
  <g id="_239cf0ffff">
   <path class="fil90" d="M14946 10035c36,-2 70,-5 106,-5 240,118 466,259 711,367 -42,25 -85,51 -126,79 52,14 103,29 156,43 -24,42 -48,83 -72,125 -131,20 -261,33 -392,47 -71,-21 -140,-45 -209,-68 44,-61 122,-118 106,-199 -16,-91 -60,-176 -95,-262 -5,-11 -14,-31 -19,-41 -67,-33 -143,-44 -217,-51 13,-8 39,-26 51,-35z"/>
  </g>
  <g id="_23003f82ff">
   <path class="fil91" d="M15763 10397c98,-58 197,-110 298,-162 -3,109 -7,219 -9,329 -1,31 -3,94 -5,126 -17,-15 -52,-42 -69,-57 -13,-10 -39,-32 -52,-44 -27,36 -55,73 -84,108l-24 8c-33,-20 -65,-41 -97,-61 24,-42 48,-83 72,-125 -53,-14 -104,-29 -156,-43 41,-28 84,-54 126,-79z"/>
  </g>
  <g id="_236fd4f5ff">
   <path class="fil92" d="M12463 10523c59,298 -2,603 0,903 34,-5 102,-15 136,-20 13,-71 26,-142 40,-212 3,122 6,244 10,365 39,-12 78,-24 117,-35 20,-100 38,-200 50,-302 69,36 175,65 157,160 -31,166 -196,272 -331,372 -47,-24 -92,-48 -138,-70 4,-25 9,-50 12,-75 -45,-81 -86,-164 -122,-248 -19,16 -36,31 -54,47 -2,-25 -8,-76 -12,-102 38,-11 77,-23 116,-34 -1,-249 32,-499 19,-749z"/>
  </g>
  <g id="_239ef0ffff">
   <path class="fil93" d="M15842 10697c29,-35 57,-72 84,-108 13,12 39,34 52,44 -11,52 -22,104 -34,156 42,-23 83,-46 125,-68 0,106 -79,188 -135,274 34,11 68,21 102,32 -72,42 -178,77 -189,166 46,62 109,112 167,165 -18,2 -56,7 -75,9 5,30 11,60 18,90 -14,15 -41,47 -55,63 81,31 152,77 199,147 -71,12 -142,25 -213,36 -6,60 -9,122 4,182 -8,15 -15,29 -22,45 40,89 86,177 132,264 -36,70 -84,139 -95,217 0,77 30,150 41,226 -37,17 -75,28 -113,42 -6,12 -20,38 -27,50 74,1 167,-23 223,39 55,43 25,111 23,166 -34,-34 -67,-67 -100,-101 -52,16 -130,4 -144,67 7,76 86,104 148,139 -22,5 -65,17 -87,23 -6,38 -11,75 -16,113 18,2 55,7 73,9 -21,26 -44,54 -66,82 38,8 75,17 113,26 31,-20 63,-40 95,-59 -4,57 -11,114 -18,172 -92,-36 -197,-61 -260,30 62,-2 123,-5 183,-8 -1,111 -81,181 -189,218 40,86 72,174 101,264 -52,2 -102,4 -152,7 31,47 63,93 95,142 -12,11 -35,34 -46,46 46,26 92,51 136,81 -34,19 -72,33 -109,49 2,10 3,27 5,37 119,42 92,178 127,271 -8,9 -25,28 -33,38 32,42 64,84 97,127 -28,23 -57,47 -84,70 -16,-13 -50,-38 -66,-50 -2,30 -4,61 -7,91 45,4 91,9 136,14 -30,73 -54,149 -98,217 -79,23 -163,35 -244,49 60,17 119,34 180,50 1,27 3,55 5,83 44,-19 88,-38 133,-56 17,56 35,113 53,170 -58,37 -118,73 -172,116 -3,75 98,67 153,93 8,25 25,77 34,103 -154,81 -308,164 -463,245 -130,12 -269,9 -381,-58 -373,-197 -749,-391 -1120,-590 26,-27 54,-55 80,-81 -37,-25 -73,-50 -110,-76 49,4 99,9 149,9 17,-34 30,-68 44,-102 64,-12 129,-23 193,-35 -18,-19 -37,-37 -55,-54 34,-14 69,-27 105,-39 -68,-15 -134,-29 -200,-43 -31,21 -62,41 -93,62 -45,-76 16,-124 91,-145 -23,-24 -46,-50 -69,-74 70,-49 216,-91 208,-178 -61,20 -121,44 -181,66 47,-61 116,-98 191,-126 -29,-25 -56,-52 -85,-77 -32,-1 -64,-1 -95,-1 -20,-36 -38,-71 -56,-107 69,5 136,11 204,16 -16,-34 -31,-67 -46,-100 -42,0 -85,0 -126,0 84,-54 222,-17 272,-110 -46,3 -92,8 -138,13 -29,-23 -58,-45 -88,-68 94,-51 187,-104 281,-155 -251,-138 -505,-272 -758,-407 123,-134 218,-302 405,-371 22,84 -15,218 112,235 51,93 46,277 208,253 176,-36 327,-137 476,-225 139,-117 319,-224 377,-397 30,-80 -51,-125 -110,-164 15,-155 51,-307 64,-464 15,-219 -13,-438 -27,-656 16,-25 32,-49 49,-74 57,75 115,169 230,130 -67,-155 -163,-294 -240,-445 -70,-132 -37,-282 -52,-423 181,-44 361,-91 542,-136l24 -8z"/>
  </g>
  <g id="_2300498dff">
   <path class="fil94" d="M18620 10678c180,95 361,187 545,277 -38,15 -72,57 -118,45 -188,-42 -365,-121 -537,-203 38,-39 75,-79 110,-119z"/>
  </g>
  <g id="_23d9f9ffff">
   <path class="fil95" d="M9789 11308c125,-71 250,-142 381,-203 41,28 82,53 124,80 -12,5 -37,14 -49,21 101,49 141,145 175,240 -9,17 -28,49 -39,66 -51,-5 -102,-10 -152,-16 -23,43 -49,87 -64,134 31,53 74,101 114,150 21,-16 62,-45 83,-60 -14,67 -35,133 -62,198 69,77 63,178 -14,248 -41,-27 -81,-54 -121,-82 8,101 -20,213 40,304 19,-63 36,-126 52,-189 22,1 66,2 88,3 -5,44 -10,89 -14,135 40,17 80,36 121,55 3,47 7,95 11,142 -42,-24 -84,-48 -124,-73 -37,27 -73,52 -110,77 55,51 118,94 198,96 -2,120 -69,224 -151,315 54,11 106,24 160,37 -28,9 -85,29 -113,38 15,15 31,30 46,46 -42,38 -84,76 -126,115 -19,-18 -37,-35 -55,-52 20,-27 41,-54 63,-80 -11,-19 -31,-58 -42,-78 -29,65 -58,130 -86,196 -575,-310 -1164,-598 -1728,-924 -4,132 -6,263 2,395 -35,-149 -21,-302 -21,-454 -3,-51 39,-91 96,-89l-4 -40 78 15c-12,-18 -35,-51 -48,-69 39,-24 116,-73 155,-97l-24 109c54,-24 29,-78 30,-120 52,-21 104,-42 157,-65 93,-80 222,-113 323,-185 18,27 35,54 53,83l-45 -91 117 14c-24,-14 -49,-28 -72,-43 149,-54 279,-141 420,-210 8,11 24,34 31,46 -30,-90 80,-103 146,-138z"/>
  </g>
  <g id="_2385dcf7ff">
   <path class="fil96" d="M11963 11451c119,-54 239,-107 365,-145 4,26 10,77 12,102 18,-16 35,-31 54,-47 36,84 77,167 122,248 -3,25 -8,50 -12,75 46,22 91,46 138,70 -88,62 -179,117 -276,168 -23,-11 -67,-32 -89,-41 -9,-42 -17,-84 -26,-125 -30,-18 -59,-36 -89,-53 -46,-96 -114,-180 -199,-252z"/>
  </g>
  <g id="_23a5edfdff">
   <path class="fil97" d="M11355 11901c162,-190 373,-344 608,-450 85,72 153,156 199,252 30,17 59,35 89,53 9,41 17,83 26,125 22,9 66,30 89,41l14 6c-238,122 -497,228 -776,230 -90,-4 -202,19 -274,-44 -72,-58 -15,-154 25,-213z"/>
  </g>
  <g id="_23a2f1ffff">
   <path class="fil98" d="M14946 11838c18,11 55,34 73,46 78,294 69,600 72,901 -59,-2 -117,-3 -175,-6 -3,-17 -8,-52 -11,-69 19,-291 69,-580 41,-872z"/>
  </g>
  <g id="_2316171818">
  </g>
  <g id="_235ed2f5ff">
   <path class="fil99" d="M14823 12935c74,-53 66,-148 82,-225 3,17 8,52 11,69 58,3 116,4 175,6 5,119 -23,249 56,354 84,-106 94,-239 105,-366 59,39 140,84 110,164 -58,173 -238,280 -377,397 -124,-125 -260,-245 -347,-394 8,-21 23,-63 31,-84 25,-8 74,-24 98,-32 16,37 6,96 56,111z"/>
  </g>
  <g id="_2329ccf4ff">
   <path class="fil100" d="M18160 12782c10,108 20,215 30,323 146,-40 83,-218 116,-326 3,55 7,111 13,167 57,-4 113,-8 171,-11 4,125 6,250 9,375 39,-31 101,-56 102,-111 25,-127 39,-255 64,-383 1,30 5,89 7,117 31,56 95,109 71,177 -42,142 -179,233 -292,326 -65,-98 -130,-194 -193,-292 -28,-6 -86,-20 -114,-27 0,-30 1,-88 1,-118 2,-73 10,-146 15,-217z"/>
  </g>
  <g id="_237cdff9ff">
   <path class="fil101" d="M14189 13071c155,-79 310,-162 480,-215 -8,21 -23,63 -31,84 87,149 223,269 347,394 -149,88 -300,189 -476,225 -162,24 -157,-160 -208,-253 -127,-17 -90,-151 -112,-235z"/>
  </g>
  <g id="_234cd6f8ff">
   <path class="fil102" d="M17733 13160c133,-61 267,-122 412,-161 0,30 -1,88 -1,118 28,7 86,21 114,27 63,98 128,194 193,292 -117,89 -247,161 -380,227 -55,-91 -113,-182 -185,-264 2,-31 6,-64 9,-95 -54,-49 -109,-96 -162,-144z"/>
  </g>
  <g id="_23008ae7ff">
   <path class="fil103" d="M20856 13087l22 10c-2,83 5,167 -26,247 0,41 0,82 -1,122 -46,86 -114,159 -205,204 -365,192 -733,379 -1093,579 -3,2 -10,5 -12,7 -63,35 -126,68 -189,102 -5,2 -13,7 -18,8 -75,39 -441,225 -471,242 -75,35 -147,74 -221,111 -118,-55 -227,-160 -367,-155 -8,18 -25,53 -34,72 75,64 162,114 247,167 -47,28 -92,54 -138,82l-34 21c-18,12 -53,36 -70,49 -36,14 -71,30 -106,46 -235,131 -614,320 -868,427 35,-122 162,-179 261,-253 -48,-79 -92,-161 -131,-243 704,-373 1409,-747 2114,-1119 444,-245 908,-462 1340,-726z"/>
  </g>
  <g id="_2300bbffff">
   <path class="fil104" d="M22105 13068c375,187 741,391 1110,589 -11,380 25,761 -21,1140 -56,-24 -111,-49 -166,-75 -303,-161 -608,-324 -912,-486 3,-389 2,-778 -11,-1168z"/>
  </g>
  <g id="_236be3fcff">
   <path class="fil105" d="M17356 13390c113,-94 239,-172 377,-230 53,48 108,95 162,144 -3,31 -7,64 -9,95 72,82 130,173 185,264 -136,58 -277,144 -429,143 -123,-120 -225,-261 -286,-416z"/>
  </g>
  <g id="_2346d3ffff">
   <path class="fil106" d="M11147 14092c-41,-98 61,-181 126,-247 134,75 273,143 408,217 -114,115 -37,253 19,375 -108,-54 -224,-99 -319,-171 -73,-64 -157,-115 -234,-174z"/>
  </g>
  <g id="_23b9f4ffff">
   <path class="fil107" d="M12221 13942c368,177 714,387 1079,566 63,-30 128,-62 191,-92 63,-8 126,-12 189,-16 -56,65 -118,124 -186,179 54,14 108,30 163,46 0,23 0,68 -1,91 -42,-19 -84,-38 -125,-55 -37,14 -75,30 -110,46 -13,-10 -36,-29 -47,-38 -53,13 -107,25 -161,38 47,31 93,63 139,95 -61,17 -122,34 -182,51 -277,-153 -560,-294 -839,-442 7,-43 14,-85 20,-129 -56,-11 -113,-22 -169,-32 15,-103 31,-205 39,-308z"/>
  </g>
  <g id="_232c506464">
  </g>
  <g id="_232ed1ffff">
   <path class="fil108" d="M11700 14437c-56,-122 -133,-260 -19,-375 167,90 337,175 503,268 -38,32 -74,66 -112,98 74,67 66,158 52,243 -137,-83 -292,-144 -424,-234z"/>
  </g>
  <g id="_2351798a8d">
   <path class="fil109" d="M19541 14256c2,-2 9,-5 12,-7 -3,2 -10,5 -12,7z"/>
  </g>
  <g id="_2300c9ffff">
   <path class="fil110" d="M12072 14428c38,-32 74,-66 112,-98 48,27 97,53 147,81 279,148 562,289 839,442 113,45 239,55 347,112 165,85 328,174 493,260 -37,14 -72,29 -107,48 21,48 46,94 70,142 -31,18 -61,37 -90,57 34,27 67,55 100,82 -29,9 -89,24 -119,33 -396,-209 -792,-419 -1189,-628 -3,-1 -6,-3 -8,-4 -90,-49 -182,-95 -272,-143 -1,-1 -6,-3 -7,-6l-50 -36c-39,-55 -97,-103 -172,-96l-42 -3c14,-85 22,-176 -52,-243z"/>
  </g>
  <g id="_2351636d6e">
   <path class="fil111" d="M19334 14366c5,-1 13,-6 18,-8 -5,2 -13,7 -18,8z"/>
  </g>
  <g id="_2380edffff">
   <path class="fil112" d="M18275 14564c140,-5 249,100 367,155 252,122 1,-10 252,122 168,87 330,179 499,265 -2,19 -7,58 -8,76 -26,10 -78,27 -103,36 -497,-267 -482,-256 -794,-415 -85,-53 -172,-103 -247,-167 9,-19 26,-54 34,-72z"/>
   <path class="fil112" d="M11961 18460c-14,-104 128,-45 175,-21 29,14 56,28 84,43 4,44 10,88 16,132 -19,1 -54,2 -73,3 -31,-15 -61,-31 -91,-47 -33,-37 -132,-48 -111,-110z"/>
  </g>
  <g id="_23007bc7c7">
   <path class="fil113" d="M23459 14689c-3,-97 107,-122 192,-109 -47,57 -116,93 -192,109z"/>
  </g>
  <g id="_2352748080">
   <path class="fil114" d="M12388 14806c1,3 6,5 7,6 -1,-1 -6,-3 -7,-6z"/>
  </g>
  <g id="_2350758383">
   <path class="fil115" d="M12667 14955c2,1 5,3 8,4 -3,-1 -6,-3 -8,-4z"/>
  </g>
  <g id="_23009af1ff">
   <path class="fil116" d="M17258 15007c48,-25 96,-50 144,-75 39,82 83,164 131,243 -99,74 -226,131 -261,253 -77,46 -155,89 -235,130 -245,72 -483,192 -665,357 -18,9 -54,28 -72,37 -23,-6 -70,-18 -94,-24 74,-54 154,-101 216,-166 40,-102 14,-213 14,-319 275,-145 547,-293 822,-436z"/>
  </g>
  <g id="_2371d2e2e2">
   <path class="fil117" d="M19393 15106c214,111 426,229 642,338 -27,43 -54,86 -81,130 -222,-122 -450,-235 -672,-356 25,-9 77,-26 103,-36 1,-18 6,-57 8,-76z"/>
  </g>
  <g id="_2300bfffff">
   <path class="fil118" d="M13903 15273c35,-19 70,-34 107,-48 15,7 42,21 56,29 371,199 747,393 1120,590 112,67 251,70 381,58 -44,24 -87,50 -130,75 2,133 4,264 10,396 -92,-23 -186,-42 -267,-89 -438,-233 -878,-463 -1316,-697 30,-9 90,-24 119,-33 -33,-27 -66,-55 -100,-82 29,-20 59,-39 90,-57 -24,-48 -49,-94 -70,-142z"/>
  </g>
  <g id="_2300a6f8ff">
   <path class="fil119" d="M16030 15657c136,-71 271,-143 406,-214 0,106 26,217 -14,319 -62,65 -142,112 -216,166 24,6 71,18 94,24 -153,83 -311,159 -451,260 -38,25 -77,48 -114,73 -94,32 -189,66 -288,88 -6,-132 -8,-263 -10,-396 43,-25 86,-51 130,-75 155,-81 309,-164 463,-245z"/>
  </g>
  <g id="_234ca1c0c0">
   <path class="fil120" d="M20150 15504c4,1 8,3 12,5 -4,-2 -8,-4 -12,-5z"/>
  </g>
  <g id="_230182c1ca">
   <path class="fil121" d="M16372 15915c182,-165 420,-285 665,-357 -210,137 -435,253 -665,357z"/>
  </g>
  <g id="_233b474c4c">
   <path class="fil122" d="M20152 15691c2,1 6,3 8,4 -2,-1 -6,-3 -8,-4z"/>
  </g>
  <g id="_2300d2ffff">
   <path class="fil123" d="M20510 15684c45,25 91,49 133,76 83,56 157,121 227,189 -106,43 -211,-8 -306,-46l-44 -19c-3,-1 -7,-3 -10,-4l-70 -31 4 -7c22,-53 43,-105 66,-158z"/>
   <path class="fil123" d="M12450 18693c34,-4 105,-16 140,-21l42 20c4,1 8,4 10,5l68 37c2,1 7,3 9,4 45,23 92,45 140,65l-15 20c-32,39 -51,83 -67,129 -60,-32 -121,-65 -180,-96 -3,-1 -7,-4 -10,-5l-47 -27c-32,-42 -61,-87 -90,-131z"/>
  </g>
  <g id="_234e768383">
   <path class="fil124" d="M20230 15734c2,2 5,4 6,5 -1,-1 -4,-3 -6,-5z"/>
  </g>
  <g id="_2349707c7c">
   <path class="fil125" d="M20510 15880c3,1 7,3 10,4 -3,-1 -7,-3 -10,-4z"/>
  </g>
  <g id="_2371d2e3e3">
   <path class="fil126" d="M22320 16836c132,13 -66,111 0,0z"/>
  </g>
  <g id="_23009cf4ff">
   <path class="fil127" d="M11790 17356c62,2 119,-23 176,-39 92,128 170,264 227,409 -18,39 -35,78 -52,117 -227,17 -453,-31 -679,-5 -8,-17 -25,-49 -33,-65 -90,-161 -227,-291 -364,-418 241,-22 483,3 725,1z"/>
  </g>
  <g id="_23008de9ff">
   <path class="fil128" d="M12193 17726l3 -6c85,255 157,528 87,793 -16,-7 -47,-24 -63,-31 -28,-15 -55,-29 -84,-43 25,-71 29,-161 -47,-209 -138,-18 -206,110 -258,204 -55,-34 -135,-50 -157,-114 -70,-161 -133,-325 -212,-482 226,-26 452,22 679,5 17,-39 34,-78 52,-117z"/>
  </g>
  <g id="_230078d8ff">
   <path class="fil129" d="M11375 18146c-61,-124 15,-254 54,-373 8,16 25,48 33,65 79,157 142,321 212,482 22,64 102,80 157,114 6,66 14,133 31,198 80,40 149,-24 210,-62 30,16 60,32 91,47 16,9 50,28 66,36 -16,40 -40,76 -70,107 -196,160 -436,262 -657,387 -136,83 -307,90 -463,59 -39,-15 -77,-31 -112,-48 51,-67 87,-143 103,-223 140,-106 320,-189 386,-354 64,-143 13,-297 -41,-435z"/>
  </g>
  <g id="_2373d6e7e7">
   <path class="fil130" d="M12220 18482c16,7 47,24 63,31 103,53 206,103 307,159 -35,5 -106,17 -140,21 29,44 58,89 90,131 -104,-56 -207,-114 -311,-171 -16,-8 -50,-27 -66,-36 19,-1 54,-2 73,-3 -6,-44 -12,-88 -16,-132z"/>
  </g>
  <g id="_234f939f9f">
   <path class="fil131" d="M16984 19716c681,-345 1350,-707 2023,-1065 1,26 4,79 5,105 79,-22 160,-45 238,-72 -101,89 -242,119 -358,189 -594,319 -1196,624 -1786,952 12,-39 25,-78 37,-115 -54,1 -106,3 -159,6z"/>
  </g>
  <g id="_2375b4c5c5">
   <path class="fil132" d="M12632 18692c4,1 8,4 10,5 -2,-1 -6,-4 -10,-5z"/>
  </g>
  <g id="_2373afbebe">
   <path class="fil133" d="M12587 18851c3,1 7,4 10,5 -3,-1 -7,-4 -10,-5z"/>
  </g>
  <g id="_2370daffff">
   <path class="fil134" d="M12912 18832c4,3 15,9 19,12 -4,-3 -15,-9 -19,-12z"/>
  </g>
  <g id="_2372a0b0b0">
   <path class="fil135" d="M12989 18879c4,2 12,6 17,8l-9 -4 -8 -4z"/>
  </g>
  <g id="_2377acbdbd">
   <path class="fil136" d="M12777 18952c5,4 16,9 21,12 -5,-3 -16,-8 -21,-12z"/>
  </g>
  <g id="_235bd4ffff">
   <path class="fil137" d="M12866 19000c2,2 8,4 11,6 -3,-2 -9,-4 -11,-6z"/>
  </g>
  <g id="_2343c8fbfb">
   <path class="fil138" d="M13166 18989c60,-19 93,1 97,57 -49,6 -80,-13 -97,-57z"/>
  </g>
  <g id="_2367848f8f">
   <path class="fil139" d="M12993 19066l7 4 7 3c-3,-1 -10,-5 -14,-7z"/>
  </g>
  <g id="_235aa7b3b4">
   <path class="fil140" d="M13263 19046c67,22 131,51 193,87 405,221 817,431 1221,654 336,175 670,353 1004,532 59,0 119,1 179,1 158,-85 324,-159 474,-258 -25,53 -32,109 -36,165l-1 18c-123,60 -240,131 -372,179 -239,91 -456,-63 -652,-168 -95,-49 -189,-99 -283,-150 -594,-310 -1193,-616 -1778,-939l8 -26c12,-24 32,-71 43,-95z"/>
  </g>
  <g id="_237bd3f2f2">
   <path class="fil141" d="M13064 19108c5,3 15,9 20,12 -5,-3 -15,-9 -20,-12z"/>
  </g>
  <g id="_2367cae4e4">
   <path class="fil142" d="M13152 19125c18,4 52,12 68,16l-8 26c-16,-3 -49,-11 -66,-14l6 -28z"/>
  </g>
  <g id="_2300c9f5f5">
   <path class="fil143" d="M16334 20062c130,-62 251,-135 384,-191 -17,29 -33,58 -49,89 49,0 99,0 149,1 -163,103 -334,202 -520,266 4,-56 11,-112 36,-165z"/>
  </g>
 </g>
</svg>
